<svg id="eOueFM9ArZH1" xmlns="http://www.w3.org/2000/svg" xmlns:xlink="http://www.w3.org/1999/xlink" viewBox="0 0 1500 1500" shape-rendering="geometricPrecision" text-rendering="geometricPrecision"><style><![CDATA[#eOueFM9ArZH5_to {animation: eOueFM9ArZH5_to__to 5000ms linear infinite reverse forwards}@keyframes eOueFM9ArZH5_to__to { 0% {transform: translate(672.942526px,765.238373px)} 22% {transform: translate(672.942578px,738.589416px)} 26% {transform: translate(672.942578px,738.589416px)} 74% {transform: translate(672.942587px,780.93498px)} 78% {transform: translate(672.942587px,780.93498px)} 100% {transform: translate(672.942526px,765.238373px)}} #eOueFM9ArZH7 {animation: eOueFM9ArZH7_c_o 5000ms linear infinite reverse forwards}@keyframes eOueFM9ArZH7_c_o { 0% {opacity: 0} 6% {opacity: 0} 26% {opacity: 1} 60% {opacity: 1} 82% {opacity: 0} 100% {opacity: 0}} #eOueFM9ArZH8 {animation: eOueFM9ArZH8_c_o 5000ms linear infinite reverse forwards}@keyframes eOueFM9ArZH8_c_o { 0% {opacity: 0} 18% {opacity: 0} 38% {opacity: 1} 72% {opacity: 1} 94% {opacity: 0} 100% {opacity: 0}} #eOueFM9ArZH9 {animation: eOueFM9ArZH9_c_o 5000ms linear infinite reverse forwards}@keyframes eOueFM9ArZH9_c_o { 0% {opacity: 0} 12% {opacity: 0} 32% {opacity: 1} 66% {opacity: 1} 88% {opacity: 0} 100% {opacity: 0}} #eOueFM9ArZH10 {animation: eOueFM9ArZH10_c_o 5000ms linear infinite reverse forwards}@keyframes eOueFM9ArZH10_c_o { 0% {opacity: 0} 20% {opacity: 1} 54% {opacity: 1} 76% {opacity: 0} 100% {opacity: 0}} #eOueFM9ArZH11 {animation: eOueFM9ArZH11_c_o 5000ms linear infinite reverse forwards}@keyframes eOueFM9ArZH11_c_o { 0% {opacity: 0} 24% {opacity: 0} 44% {opacity: 1} 78% {opacity: 1} 100% {opacity: 0}} #eOueFM9ArZH12 {animation: eOueFM9ArZH12_s_do 5000ms linear infinite reverse forwards}@keyframes eOueFM9ArZH12_s_do { 0% {stroke-dashoffset: 608.31} 50% {stroke-dashoffset: 0} 100% {stroke-dashoffset: 608.31}} #eOueFM9ArZH13 {animation: eOueFM9ArZH13_s_do 5000ms linear infinite reverse forwards}@keyframes eOueFM9ArZH13_s_do { 0% {stroke-dashoffset: 676.67} 50% {stroke-dashoffset: 0} 100% {stroke-dashoffset: 676.67}}]]></style><g id="eOueFM9ArZH2" transform="matrix(1 0 0 1 77.057474 72.071129)"><g id="eOueFM9ArZH3"><circle id="eOueFM9ArZH4" r="589.5" transform="matrix(1 0 0 1 630.4 683.7)" fill="rgb(56,185,178)" stroke="none" stroke-width="1"/><g id="eOueFM9ArZH5_to" transform="translate(672.942526,765.238373)"><g id="eOueFM9ArZH5" transform="translate(-672.942526,-765.238372)"><path id="eOueFM9ArZH6" d="M1118.4,988C1117.6,989.4,1116.6,992.9,1114.2,989C1110.1,987.7,1106,988.9,1101.9,988.1C1100.804073,987.899756,1099.687434,988.323309,1099,989.2C1098.1,991,1095.7,989,1094.8,990.7C1095.9,991.4,1097.7,991.9,1097.9,992.8C1098.1,993.7,1096.5,994.6,1095.3,995.2C1090.7,997.4,1087,995.6,1083.9,992.2C1080.374399,988.39097,1075.640342,985.917955,1070.5,985.2C1065.5,984.4,1060.8,986.5,1055.9,986.6C1054.1,987.7,1051.6,988.4,1053.9,991.2C1054.2,991.5,1055.2,991.8,1054.9,991.8C1052.9,991.7,1049.9,995.3,1049.1,990.8C1048.7,988.4,1047.3,988.1,1045.7,987.4C1042.6,985.6,1039.1,985.2,1035.7,984.1C1035.096073,983.521399,1034.424556,983.017761,1033.7,982.6C1030.8,984.1,1030.2,979.9,1028,980.3C1025.8,980.7,1021.2,976.1,1020.9,982.2C1020.6,988.3,1017,987,1014,984.8C1011,982.6,1009.2,979.9,1006.7,977.8C1005.7,976.9,1003,975.3,1002.7,976.7C1001.4,983.2,998.8,978.2,996.9,977.5C995,976.8,991,972.9,989.9,979.5C989.7,980.5,983.8,986.3,982,984C976.8,977.6,975.2,982.9,972.4,985.7C971.4,986.8,970.1,987.9,968.3,987.2C967.6,984.7,970.7,984,970.7,982C970.7,980,968.8,982.2,968.2,981.9C961.2,977.5,954.7,975.5,949.9,984.7C949.503637,985.255877,948.944623,985.675137,948.3,985.9C945.4,986.7,944.2,984.3,943.1,982.5C942,980.7,943.7,980,945,979.9C949.3,979.7,952.6,976.8,951.5,973.3C950.4,969.8,946.6,974.8,943.3,973.4C943.5,970.1,946,967.6,947,964.6C948.8,959,955.5,965.7,956.8,960.1C957.613437,960.793734,958.522829,961.366314,959.5,961.8C961.8,962.7,963.8,962.1,965.8,960.6C967.519301,959.212627,969.399521,958.037489,971.4,957.1C973.3,956.3,975.5,956,977.2,957.7C978.9,959.4,978.7,961.9,977.9,964C977.1,966.1,975.7,967.2,973.2,966.5C971.328234,965.919784,969.316579,966.818609,968.5,968.6C975.5,971.1,982.8,970.3,989.8,971.4C993.8,972,994.5,970.7,992.9,967C992.3,965.6,993,965,993.6,964.1C997.1,958.6,1001.4,958.2,1006.2,962.8C1007.3,963.8,1008.6,964.8,1010.4,964.2C1010.961895,963.871722,1011.414186,963.384639,1011.7,962.8C1007.6,955.7,1015.6,958.1,1017.4,955.7C1018.1,954.9,1020.6,955.4,1019.4,953.3C1019.1,952.7,1017.4,952.8,1016.3,952.6C1011.8,952.1,1007.2,952.5,1003.1,949.9C1001.357009,948.769155,999.102252,948.808712,997.4,950C998.3,955.1,994.5,958,989.1,956.3C986.8,955.6,983.5,955.7,985,952C986.5,948.3,988.1,944,991.2,940.9C992.4,939.7,994.7,937.5,995.5,939C998,943.4,1002.9,940.5,1005.7,943C1010.241938,945.296701,1015.453747,945.899427,1020.4,944.7C1024.2,946.8,1026.7,947.6,1029.1,942C1031.5,936.4,1038.3,933.8,1044,931.2C1044.600437,930.8679,1045.317793,930.821226,1045.956201,931.07272C1046.59461,931.324214,1047.087392,931.84761,1047.3,932.5C1048.4,935.8,1050.5,934.3,1052.7,934.1C1057.1,933.7,1060,930.9,1063.3,928.6C1066.6,926.3,1071,927.1,1073.3,930.5C1075.6,933.9,1074.6,937.3,1070.7,939.3C1077.5,944,1085.1,942.3,1092.6,941.7C1093.4,941.6,1093.7,940.4,1093.6,939.4C1095.3,933.7,1104.6,928.9,1109.1,931.4C1109.6,931.7,1110.4,932.3,1110.4,932.7C1110.3,937.9,1114.5,936.6,1116.6,936C1121.2,934.8,1116.6,933.1,1116.4,931.6C1116.2,930.1,1117.5,930.3,1118.1,929.7C1118.7,929.1,1121.3,928,1120.7,925.8C1117.104883,925.822228,1113.528384,925.282379,1110.1,924.2C1104,922,1104,922.1,1100.3,926.7L1099.8,927C1095.5,930.4,1085.5,929.2,1082.2,924.5C1079.9,921.4,1076.7,920.5,1073.4,920.3C1066.9,919.9,1060.3,920.4,1053.8,920.7C1045.5,921,1036.6,926.1,1028.7,919C1027.3,920.4,1030.2,922.1,1028.7,922.3C1026.692903,922.543131,1024.666076,922.045313,1023,920.9C1021.5,919.7,1025.6,919.5,1023.9,916.8C1016.7,922.6,1009.6,920,1002.5,916.3C1001.8,915.9,1000.8,916.1,999.9,916C995.61558,915.747455,991.459552,914.442256,987.8,912.2C980.6,912.9,973.5,913.3,966.3,912.1C964.7,914.5,962.7,915.6,959.7,916.6C956.7,917.6,948.8,914.9,948.2,922.9C948.2,924.1,946.5,923.7,945.4,923.4C939.9,921.8,934,922,929,918.3C926.8,916.6,923.3,915.3,920.7,916.8C909.5,923.1,897.8,917.8,886.4,918.7C885.5,918.6,884.6,918.3,883.8,918.8C883.3,923.6,880.2,922.8,877.5,921.4C872.1,918.7,867.4,919.3,863,923.4C861.7,924.5,859.8,924.9,858.2,925.6C854.4,926.2,850.2,928.3,848.2,922.9C846.3,922.9,845.7,924.5,844.6,925.6C843.5,926.7,842.5,929.6,840.1,928.6C837.7,927.6,837.5,925.7,837.4,923.5C837.4,923,836.9,922.4,836.4,921.4C829.5,926.3,822.3,929.3,811.8,926.2C830.9,917.8,844.5,906.6,849.6,887.4C850.80898,885.437952,850.80898,882.962048,849.6,881C847.87057,873.979945,844.741366,867.381405,840.4,861.6C848,863,854.3,864.3,860.7,865.3C868.9,866.6,877,869.7,885.4,868.5C893.8,867.3,901.8,865.6,909.8,863.6C912.3,863,916.8,865.1,917,860.9C917.2,856.7,913.2,856.2,910.3,855C908.596733,854.428077,906.860177,853.960543,905.1,853.6C900.2,852.1,894.8,852.9,889.9,850.7C887.8,849.8,885.5,849.2,887.7,846C893.4,837.8,891.6,829.4,888.2,820.9C885.9,815.3,882.9,809.9,882.1,803.8C881.9,801.8,881.9,799.3,879.7,798.6C877.5,797.9,876.1,800.5,874.6,802.1C864.1,813.3,853.6,824.6,838.4,829.6C834.8,830.8,830.9,831.9,827.9,830.1C821.2,826.4,814.1,823.7,808.1,818.5C793.8,806.2,778.9,794.5,764.4,782.3C756.6,775.8,746.9,770.6,745.5,758.8C745.863782,758.426363,745.944612,757.860551,745.7,757.4L744.6,756.1C744.3,750.7,744.3,745.3,743.8,740L744.2,740C744.533031,739.283924,744.4567,738.444282,744,737.8C743.694656,737.099543,743.492551,736.358491,743.4,735.6C743,717.7,743.3,699.8,743.2,681.9C745.133101,665.023697,745.166644,647.983783,743.3,631.1C743.3,629.9,743.6,628.6,742.5,627.8C736.1,610.6,724.7,598.7,706.7,594.1C691,590.1,676.1,583.8,661,577.9C658.6,576.9,655.8,576.1,654.8,573.2C655.517777,567.888407,655.484113,562.502206,654.7,557.2C655.47463,550.704839,657.882956,544.512,661.7,539.2C667.4,531,670.6,521.8,673.7,512.5C674.5,510.1,675.1,507.8,673.7,505.5C672.2,498.4,669.6,491.6,670,484.2C669.1,481.4,669.7,478.4,669.3,475.5C668.9,472.6,669,468.2,666.7,465L663.9,459C654.2,437.7,623,430.9,605.7,445.1C592.7,455.6,585.1,468,586.6,485.2C586.3,493,585.6,500.8,582.6,508.2C579.8,518.9,585.4,526.9,591.1,534.7C598.1,544.2,603.5,554,603.2,566.2C603,573.1,600.2,576.9,593.6,579C576.9,584.5,560.3,590.4,543.8,596.5C527.3,602.6,517.4,613,514.5,630.4C513.1,639,514.2,647.6,513.5,656.1C512.599693,665.511852,512.599693,674.988148,513.5,684.4C513.5,690.4,513.8,696.5,513.5,702.6C513.2,708.7,514.8,717.8,512.4,725.2C510,732.6,511.5,739.5,512.1,746.7C513.6,759.3,509.5,769.6,499.6,777.7L464.8,806.5C455.439743,814.233207,445.585534,821.348279,435.3,827.8C429.4,831.5,422.4,834.9,416.4,829.8C404.7,819.9,390.2,813,381.5,799.5C380.7,798.2,380,796.5,377.9,797.3C376.55754,797.708874,375.604215,798.90053,375.5,800.3C374.7,810.8,368.7,819.6,366,829.5C364.853218,832.493943,364.853218,835.806057,366,838.8C371.6,850.9,371.6,850.9,358.7,852.6C357.4,852.7,356,853.1,354.7,853.3C350.8,854,346.6,853.7,343.2,856.4C341.5,857.7,339.7,859.4,340,861.3C340.3,863.2,342.9,863,344.6,863.4C352.7,865.2,361,865.9,368.8,868.7C372.652073,869.866781,376.768255,869.831898,380.6,868.6C391.2,865.3,402.1,864.1,413.8,862.7C413,865.1,412.8,866.4,412.1,867.6C402,884.6,411.2,905.6,425.7,915.6C432.5,920.3,426.7,922.9,424.4,925.9C422.1,928.9,417.1,928.4,421.1,933.5C421.6,934.1,420.6,939.1,417.3,939.2C416.3,939.2,412.9,937.4,414.4,935C417,930.6,414.3,930.3,411.1,929.6C407.9,928.9,402.2,928.3,398.3,925.7C394.4,923.1,392.7,925.4,390,925C376.4,926.2,362.8,923.8,349.3,923.8C345,923.8,341.8,924.8,341.5,929.7C338.3,929,334.2,929.1,335.4,923.9C332.5,924,331.1,926.3,329.1,927.7C328.409342,928.334303,327.335497,928.289559,326.7,927.6C325.9,926.8,326.3,926.1,327.1,925.4C327.9,924.7,329.6,924.1,328.3,922C323.6,926.2,319.2,929.7,312.5,924.7C310.4,923.1,305.6,923.2,302.3,925.4C304.1,929,301.7,929,299.3,929.1C294.9,929.3,290.4,928.5,286.1,929.6C272,930,257.6,929.3,244.3,936.7C244.6,932.7,241.8,931.9,238.5,931C231.5,929.2,224.7,931.6,218,931.4C205.8,930.9,193.5,932.2,181.3,930.9C177.6,930.5,175.3,934.9,172,932.9C167.1,930,163.5,932.3,159.8,935C152.7,936.6,145.5,936,138.4,935.3L134.1,935C130,933.9,125.9,934.7,121.8,934.5C117.7,934.3,115,935.1,111.6,935.2C110.612923,935.188299,109.634004,935.01952,108.7,934.7C104.6,934.7,104.6,936.6,104.3,936.7L54.2,939.8C60.9,941.9,67.6,942.5,74.4,943.3C87.1,944.8,100.1,943.3,112.5,947.3C127.9,950.7,143.7,948.9,159.1,951.3C163.5,951.8,167.3,956.9,172.2,953C173.1,952.1,171.4,951,171.7,951.1C178.280575,952.318656,185.032004,952.284729,191.6,951L190.7,951.7C190.654294,952.418227,190.997995,953.105629,191.6,953.5C193.9,954.8,196.4,954.4,198.8,954.6C208.1,955.3,217,953.5,226,951.7L228.1,951.2C232.701803,950.099644,237.498197,950.099644,242.1,951.2C248.7,955.1,255,957.1,262.2,951.6C264.7,949.8,270,947,272.4,953.2C278.3,955,283.9,955.4,289,951.1C292.4,947,296,947.2,299.9,950.6C302.577935,952.962664,305.418232,955.134656,308.4,957.1C313.366113,959.158472,318.912262,959.336234,324,957.6C325,956.7,326.6,956.6,327.9,956.2C327.064224,956.482964,326.259947,956.851591,325.5,957.3L323.7,957.8L322,958.7C315.5,959.5,309.1,959.2,302.6,958.9L300.7,958.7C298.754496,958.736777,296.810507,958.569192,294.9,958.2C293.885759,958.184885,292.874848,958.319673,291.9,958.6C290.1,959.3,288.9,960.7,287.6,961.9C284.7,963.7,281.5,962.9,278.4,963.1C265.1,963.6,251.9,964.2,238.7,965.9C236.5,966.2,233.7,966.5,233.4,969.1C233.1,971.7,236.3,971.8,238.3,972.3C245.8,974.1,253.4,974.1,261,973.9L258.9,974.2C258.481924,974.915014,258.605745,975.823031,259.2,976.4C265.1,979,271.3,976.9,277.3,977.9C288.5,979.5,299.4,983.7,310.9,981.3C318,979.4,325.3,980.8,332.4,979.8L334.4,980C338.5,979.9,342.4,981.1,346.4,981C351.5,977.7,354.7,985.8,359.2,983.4C363.7,981,367.2,977.6,372.5,977.4C376.5,981.9,381.1,983.1,386.4,979.6C391.7,976.1,392.8,975.6,395,981.3C395.8,983.5,396.2,985.9,396.9,988.3C397.091969,989.218105,397.503738,990.075956,398.1,990.8C398.611887,991.20339,399.248457,991.415579,399.9,991.4L400.5,991.2C400.6,991.2,400.3,991.5,400.2,992C398.6,997.6,399.9,1003.3,399.6,1008.9C399.069117,1009.011923,398.561621,1009.214922,398.1,1009.5C397.3,1010.5,397.4,1011.7,397.3,1012.8C397.166899,1011.767921,396.626851,1010.831838,395.8,1010.2C395.513025,1009.880054,395.175137,1009.609744,394.8,1009.4C390,1005.7,383.5,1003.3,386.3,994.8C389.1,986.3,388.4,987.3,380.9,984.7C380.270687,984.599086,379.629313,984.599086,379,984.7C375.7,984.9,374.2,989.6,371,989C365.3,988,363.6,991.3,361.7,995.5C360.6,998.1,358.8,1001.9,355.5,1000.6C346.6,997,336.8,997.7,327.9,994.5C323.5,992.9,320.8,992.3,319,998.2C317.2,1004.1,307.4,1010.6,303.2,1008.2C296.3,1004.1,291.2,1007.2,285.7,1010.4C283,1012,280.2,1013.8,276.9,1011.7C273.6,1009.6,275.3,1006.9,275.6,1004.3C275.790439,1003.402308,275.528909,1002.468275,274.9,1001.8C268.5,998.1,261,1000.3,254.4,998.1C251.3,998.4,248.2,998.6,249.3,1003C249.8,1005.1,248.5,1005.9,247.2,1006.7C243.2,1009,239.4,1010.9,235.2,1006.5C232.987927,1004.034665,229.336124,1003.488993,226.5,1005.2C223.5,1007,225.8,1009.6,225.9,1011.9C226,1014.2,225.4,1017.1,229.4,1016.5C230.22077,1016.275731,231.056108,1016.108663,231.9,1016C231.9,1016.1,231.9,1016.2,231.8,1016.2C231.485667,1016.513679,231.370261,1016.975303,231.5,1017.4C238.9,1022.2,243.3,1022.8,246.5,1019.4C252.1,1013.6,258,1013.3,263.5,1018.9C265.316041,1020.903346,267.680608,1022.32904,270.3,1023L272,1023L268.8,1023.4C266.4,1024.2,264.1,1024.8,261.6,1024.1C257.4,1022.9,254.2,1024.6,251.7,1028C252.072982,1028.275673,252.232982,1028.755673,252.1,1029.2L251.7,1029C247.5,1027.3,243,1029,238.8,1027.4C237.815559,1027.168487,236.810708,1027.034507,235.8,1027C234.428222,1026.925615,233.066734,1027.274714,231.9,1028C231.475587,1028.516691,231.199123,1029.138736,231.1,1029.8C231.211164,1030.018261,231.279077,1030.255956,231.3,1030.5L231,1030.5C226,1028.3,220.4,1030.6,215.4,1028.6L213.3,1028.2C210.589732,1028.01783,207.867287,1028.185882,205.2,1028.7C202.1,1029.7,198.9,1028.9,195.9,1029.3C186.6,1030.5,177.1,1029.1,168.1,1032.6C166.5,1036.2,169.7,1034.8,171,1035.3C172.3,1035.8,175.3,1038,177.8,1038.2C191.5,1039.5,205.1,1041.5,218.8,1042.2C226,1040.6,233.2,1041.3,240.4,1041.2C240.614849,1041.76958,240.956868,1042.282608,241.4,1042.7C242.501264,1043.320063,243.736706,1043.663242,245,1043.7C249.2,1044.1,254,1042.4,256.7,1047.5C257.2,1049.6,255.6,1050.2,254.3,1051C241.9,1050.7,229.5,1052,217.2,1050.3C216.084525,1050.028768,214.946335,1049.861387,213.8,1049.8C209.8,1049.9,205.7,1049.3,201.7,1050.4C199.3,1052.7,197.3,1053.8,193.7,1051.6C190.131325,1049.342431,185.891711,1048.388518,181.7,1048.9C177.3,1051.3,172.1,1052.9,167.7,1052.3C150.1,1049.7,132.5,1053.7,114.9,1052.2C113.7,1052.1,112.4,1053,111.2,1053.7C108.802146,1054.981802,106.118724,1055.635456,103.4,1055.6L2.7,1059.9C2.1,1060.9,-0.6,1059.7,0.1,1062.3C19.4,1064.2,38.7,1065.8,58,1066.7L107.4,1069.2C109.3,1069.3,111.1,1069.5,112.1,1071.3C113.1,1073.1,115,1073.4,116.8,1073.1C131.6,1070.9,146.5,1071.9,161.3,1073.3C166.6,1073.7,170.4,1069.5,175.6,1070.4C185.7,1072.2,196.5,1070.5,206,1076C210.8,1074.8,214.5,1071,219.7,1070.7C221.5,1070.6,222.8,1070,224.4,1071.9C230,1078.9,236.4,1079.5,244.3,1073.9C244.253651,1073.532002,244.052319,1073.201325,243.746678,1072.991196C243.441036,1072.781068,243.060192,1072.711499,242.7,1072.8C243.5,1072.4,244.3,1072.7,245.1,1072.4C245.9,1072.1,244.8,1072.2,245.6,1072C248.5,1066.2,252.2,1068.5,255.2,1071.5C263.5,1079.5,273.1,1080.6,283.8,1077.8C284.978463,1077.231684,286.086059,1076.526851,287.1,1075.7C289.1,1074.1,286,1069.7,289.9,1070C292,1070.1,290.9,1074.5,293.5,1075.5C293.6,1075.6,293.5,1075.9,293.6,1076.1C293.578247,1076.692306,293.71642,1077.279537,294,1077.8C294.4,1078.3,295.2,1078.8,295.3,1079.3C297.8,1088.7,297.9,1088.8,306.2,1082.7C307.8,1081.4,309.2,1080.7,310.8,1082.6C312.4,1084.5,314.5,1085.1,316.2,1086.5C317.9,1087.9,318.6,1089.7,315.4,1089.8C312.2,1089.9,310.1,1089.1,307.4,1089.1C304.269859,1088.899977,301.130141,1088.899977,298,1089.1C286.9,1090.2,276,1094.5,264.9,1089.4C264.241774,1089.249976,263.558226,1089.249976,262.9,1089.4C253.1,1091.5,243.2,1089.9,233.4,1090.4C229.6,1090.5,225.7,1090.1,222.3,1092.3C222.2,1093.4,221.8,1095.2,220.5,1094.3C217.6,1092.3,215.4,1093.1,212.6,1094.7C209.8,1096.3,207.5,1096.1,204.7,1096.2C191.5,1096.6,178.2,1097.1,164.9,1097.9C153.4,1098.6,141.8,1099.9,130.2,1100.9C130.9,1102.6,132.3,1102.7,133.6,1102.9C153.3,1105.1,172.9,1108.1,192.7,1108.4C199.4,1108.5,206,1109.9,212.4,1111.1C216.4,1111.8,220.5,1114.3,225,1113.5C232.098386,1112.331988,239.350221,1112.467536,246.4,1113.9C249.4,1115.9,252.4,1115.3,255.5,1114.2C262.4,1111.8,269.7,1113,275.9,1115.1C280.3,1116.6,282.9,1116.9,286.6,1114.4C290.3,1111.9,294.2,1108.9,297.2,1115.6C297.8,1117.1,300.4,1116.9,302.2,1116.9C305.6,1117.1,309,1116.8,312.3,1117.7C313.5,1118.1,315,1118.8,316,1117.5C317,1116.2,316.5,1114.6,315.8,1113.1C315.1,1111.6,313.3,1111.8,314.4,1110C316.8,1110.1,318,1111.8,319.3,1113.3C322.87207,1117.118016,327.779544,1119.410559,333,1119.7C339.3,1120.3,345.5,1121.4,351.9,1121.1C354.129496,1120.961532,356.342803,1121.558773,358.2,1122.8C364.7,1126.8,364.7,1126.7,368.9,1120.4C375.1,1127.1,375.3,1126.3,379.9,1127.3C384.5,1128.3,388.9,1128.6,391,1122.9C391.2,1122.3,392.1,1122.1,392.8,1122.2C397.1,1123.2,401.7,1120.9,405.9,1123.4C409.3,1123.9,412.5,1123.7,415.2,1121.3C416.1,1120.7,417.1,1119.6,418.2,1120.3C419.3,1121,418.1,1122.2,417.5,1122.9C416.975438,1123.617752,416.601287,1124.434081,416.4,1125.3C419.2,1131.1,421.8,1131.5,427.1,1127.5C428.9,1126.1,432.6,1122.9,432.8,1125C433.5,1130.9,438.5,1129.6,441.1,1131.9C445.3,1135.7,449.1,1133.9,453.2,1131.6C451.8,1133.1,450.3,1134.3,451.7,1136.4C453.1,1138.5,455.4,1137.9,457.6,1137.5C454.7,1145.3,454.6,1145.5,447.1,1144.2C443.1,1143.5,440.9,1145.9,438.4,1148.1C435.9,1150.3,435.4,1152.4,432.9,1150.4C430.4,1148.4,431.1,1146.1,433,1143.9C433.29016,1143.551009,433.557387,1143.183571,433.8,1142.8C434.012997,1142.211391,433.976886,1141.561394,433.7,1141C431.9,1139.2,429.9,1139.6,427.8,1140.4C427.6,1140.4,427.8,1139.7,428.2,1140C428.6,1140.3,428.8,1138.6,428.6,1139.5C422.8,1134.3,416.1,1135.9,414.5,1142.8C413.5,1147,410.4,1148.3,406.6,1145.8C404.5,1144.4,402.2,1143,400.8,1145.7C396.9,1153.4,390.1,1149.2,384.5,1150.2C383,1149.9,381.9,1151.7,380.3,1151.3C378.833423,1151.325627,377.448883,1151.981462,376.5,1153.1C375.9,1154.4,375.9,1156,374.3,1156.6C369.2,1157.1,364.1,1156.7,359,1156.8C356.3,1157,353.7,1157.2,352,1159.9C351.7,1160.5,351.5,1160.4,351.5,1160.2C349.6,1155.5,345.6,1155.6,341.5,1155.6C334.7,1156.2,327.8,1154.7,321,1155.9C316.9,1158.5,310.8,1156.1,307.9,1161.4C291,1163.5,273.9,1163.7,257.2,1167.6C258.795121,1168.46366,260.516147,1169.071081,262.3,1169.4C277.1,1171.7,291.9,1174.2,306.8,1176C310.3,1176.4,312.3,1179.3,316,1179.1C323.2,1178.7,330.4,1178.9,337.6,1178.9C341.070738,1177.790041,344.837485,1178.077031,348.1,1179.7C353.7,1182.5,358.1,1181.6,362.3,1177.4C363.6,1179.5,363.3,1182,365.6,1182.8C368.962934,1183.81964,372.557497,1183.784742,375.9,1182.7C379,1181,376.5,1178.6,376.5,1175.7C379.6,1180.9,382.6,1185.2,388.8,1184.4C392.5,1183.9,394.5,1181.7,395,1178.1C397.6,1182.1,390.2,1182.3,391.9,1185.5C393.6,1188.7,398.7,1186.5,400.3,1190.3C400.655191,1191.135722,401.406693,1191.736923,402.3,1191.9C402.932158,1192.019969,403.583928,1191.985665,404.2,1191.8C405.050763,1191.556106,405.859866,1191.185267,406.6,1190.7C409.8,1188.5,412.6,1186.9,414.2,1192.4C414.7,1194.2,416.8,1195.5,419,1193.5C419.3,1193.2,419.6,1193.2,419.4,1193C419.2,1192.8,420.4,1193,419.6,1193.4C418.8,1193.8,418,1194.8,417,1195.3C416,1195.8,413.2,1196.7,413.5,1198.8C413.8,1200.9,416.3,1200.7,418,1201C419.7,1201.3,423.8,1202,426.4,1203.2C430.7,1205.1,433.2,1203.7,434.8,1199.6C437.6,1197.2,439.4,1198.8,440.9,1201.3C442.4,1203.8,442.4,1203.6,441.3,1205C440.2,1206.4,441.2,1209.7,443.4,1209.9C449.4,1210.4,448.7,1214.3,448.2,1218.2C449.5,1219.6,451.1,1217.4,452.8,1218.7C451.6,1220.3,452.6,1223.4,449.1,1223.4C448.868717,1220.995545,448.190423,1218.655429,447.1,1216.5C444.8,1212.5,441.3,1216.3,439,1215.3C433.2,1212.6,433.7,1216.3,433.8,1219.8C433.9,1221.3,434.5,1222.8,434.5,1224.4C434.5,1229.8,435.2,1235.3,434.1,1241.1C431.2,1238.9,430.8,1236.2,430.4,1233.6C430,1231,432.1,1225.7,431.5,1221.7C430,1219.4,428.2,1217.9,425.4,1219.9C425.9,1222.1,425.4,1224.3,423.1,1224.8C420.8,1225.3,419.8,1227.9,419.4,1229.8C418.3,1234.9,417.4,1238.5,411,1233.9C408.3,1231.9,404.1,1231.4,400.6,1229C399.6,1234.4,398.6,1239,395.2,1242.5C394.1,1243.6,392.4,1245.9,391.5,1244.7C387.3,1239.2,385.8,1244.3,383.4,1246.3C381,1248.3,381.4,1248.3,379.9,1247.6C378.4,1246.9,378.3,1245.6,378,1244.2C376.9,1239.1,380.3,1237.3,384.5,1235.7C380.620135,1234.704314,376.677997,1233.969339,372.7,1233.5C369.7,1233.1,366.5,1232.3,368.1,1237.7C369.1,1241,365.6,1242.7,363.3,1244.3C361,1245.9,360.9,1243,359.9,1241.9C358.9,1240.8,356.6,1240.4,356.8,1241.7C357.7,1246.3,352.7,1247.1,351.5,1250.9C356.8,1249.8,360.5,1253,365,1254.3C365.5,1251.9,364,1248.5,368,1248C370.4,1247.7,372.9,1247.9,373.6,1250.6C375.3,1257.7,380.1,1256.6,385.2,1255.5C390.3,1254.4,392.4,1252.6,396.4,1254.5C400.4,1256.4,402.5,1261.4,407,1255.8C407.6,1255,409.1,1257,410.1,1257.8C416.3,1262.4,422.7,1265.6,430.9,1265.9C440.281672,1266.20154,449.531075,1268.200495,458.2,1271.8C461.038441,1272.892258,463.990111,1273.663718,467,1274.1C472.1,1275,476.4,1270.9,481.2,1272C486,1273.1,490.2,1276,494.6,1267.8C493.4,1277.5,497.8,1276.5,502.1,1275.6C502.5,1273.9,501.2,1273.1,500.6,1272C500,1270.9,499.9,1269.6,501.1,1269C502.3,1268.4,503.3,1269.4,503.5,1270.5C505,1277.8,510.2,1279.9,516.8,1280.2C519.2,1280.3,520.8,1282,522.4,1283.5C524.2,1282.2,522.2,1279.4,525.5,1278.1C524.3,1281.6,530.9,1286.9,524.1,1287.1C512.3,1287.5,501.9,1293.3,490.3,1293.7C484.8,1293.8,479.5,1295.2,474.1,1296.1C475.9,1298,478,1298.7,479.9,1299.6C487.1,1302.5,495,1302.5,502.1,1305C509.2,1307.5,518.7,1311.5,527.7,1307.1C529.433798,1306.493503,531.349884,1306.71459,532.9,1307.7C537.2,1310.9,539.9,1308.6,543.3,1304.3C543,1312.2,546.7,1312.1,551.5,1310.2C551.405784,1309.569772,551.202764,1308.960711,550.9,1308.4C549.9,1306.7,547.6,1304.7,550.5,1303.5C553.4,1302.3,552.7,1305.6,553.3,1307C554.8,1310.5,556.3,1313.8,561.1,1313C562.079246,1312.706986,562.859594,1311.963797,563.2,1311C563,1313.9,563.5,1314.4,566.4,1317.1C563.696284,1318.888166,560.216793,1319.004149,557.4,1317.4C555.6,1316.4,553.6,1315.5,551.6,1316.6C547,1319,542.5,1317.8,537.9,1316.5C535.4,1315.8,531.9,1314.3,530.4,1316.9C527.4,1322,523.6,1319.7,519.8,1319.4C516,1319.1,511.7,1317.1,506.9,1318.4C499,1320.6,490.5,1322.6,482.5,1322C466.3,1320.7,451,1325.6,435.1,1326.1C447.9,1328.7,460.5,1331.9,473.6,1332.3C483.6,1332.5,493.8,1329.4,503.4,1334.7C505.9,1336.1,509,1336.4,511.8,1337.1C513,1337.4,515,1333.8,515.4,1337.5C515.8,1341.2,513,1339.6,511.5,1340C507.6,1340.8,503.3,1339.3,499.4,1342.4C505.1,1343.5,510.5,1344.1,515.5,1345.7C528.6,1350.1,542.3,1345.8,555.5,1348.8C568.7,1351.8,582.8,1352.1,596.3,1354.1C607.9,1355.8,619.3,1354.5,630.8,1354.7C633,1354.7,634.6,1353.6,637.5,1354.5C642.6,1356,649.4,1357,654.4,1353.1C659.4,1349.2,664.4,1355.3,666.6,1348.8C667.130871,1349.118366,667.604187,1349.524066,668,1350C671,1355,672.9,1352.7,674.9,1349.2C675.8,1347.7,676.1,1345.7,678.3,1345.1C680.4,1348.4,675.7,1349.4,676.1,1352.2C678.4,1353,679.9,1352,681.5,1350.5C683.1,1349,684.4,1348.1,686.2,1349.7C688,1351.3,691.3,1350.3,693.8,1349.6C698.2,1349.5,696.6,1345.4,697.5,1343.8C698.1,1346.5,695.5,1349.2,696.5,1352.5C700.8,1349,708.8,1355.3,710.7,1346.2C711.7,1347.8,712.2,1348.7,712.7,1349.6C713.866355,1348.526864,714.758011,1347.18938,715.3,1345.7C714.5,1348.7,714.2,1351.9,715.7,1355.1C718.8,1354.9,721.8,1354.8,718.7,1350.5C718.231474,1349.667529,718.494844,1348.61405,719.3,1348.1C720.9,1346.8,721,1348.6,721.5,1349.3C722,1350,723.8,1352.2,725.9,1351.3C728,1350.4,727.7,1348.5,727.7,1346.7C727.7,1344.9,727.7,1341.4,727.7,1337.3C732.2,1341.5,729,1346.3,732.8,1349.9C735.6,1342.2,740.1,1341.2,746.1,1346.3C747.3,1347.2,750,1346.9,747.6,1343.9C745.2,1340.9,748,1339.6,749.3,1338.9C750.6,1338.2,754.8,1336.6,756.9,1337.4C759,1338.2,755.5,1340.8,755.7,1341.6C761.9,1346.6,763.1,1338.5,767.5,1338.8C769.7,1338.9,771.8,1337.3,771,1335.2C770.2,1333.1,767.6,1333.2,765.5,1333.7C763.4,1334.2,762.7,1337,761,1334.7C759.3,1332.4,755.1,1332.1,751.8,1332.2C748.5,1332.3,743.4,1332,739.5,1329.4C735.6,1326.8,731.2,1327.2,727.7,1330.5C725.7,1332.5,724.3,1332.4,721.5,1331.5C718.7,1330.6,712.1,1329.4,709,1331.2C700.1,1336.3,691.6,1334.4,682.7,1332.7C679.6,1332.1,676.5,1331.4,674.5,1328.6C674.475786,1328.173449,674.662704,1327.762229,675,1327.5C678.2,1326.2,680.4,1328.8,683,1329.6C685.6,1330.4,683.6,1327.5,684.3,1326.7C685,1325.9,686.1,1323.1,687.1,1323.1C689.7,1323,692.4,1320.1,695.2,1323.1C696.5,1324.5,690.4,1325.7,695.3,1327.1C700.2,1328.5,700.4,1326.9,701.9,1324.2C702.4,1323.3,702.8,1321.8,704.2,1322.3C709.9,1324.3,708.2,1319.7,708.8,1317.2C708.408714,1316.858808,708.041192,1316.491286,707.7,1316.1C707.302939,1315.456306,707.302939,1314.643694,707.7,1314C708.3,1313.1,709.4,1312.6,710,1311.7C713.2,1310.5,713.2,1317.3,718,1314.3C722.8,1311.3,724.1,1310.3,724.6,1305.9C725,1303.3,724.1,1300,726.9,1297.7C729.1,1304.7,726.3,1311.4,726.7,1318.7C728.1,1317.8,728.6,1317.6,728.7,1317.3C729.6,1315.4,728,1312.2,732,1312C736,1311.8,735.7,1314.2,736.4,1316.5C736.788234,1317.304299,737.606972,1317.811137,738.5,1317.8C739.9,1317.8,739.8,1316.3,740.1,1315.3L744,1302.1L745.1,1302.3C745.2,1305.5,745.4,1308.8,745.6,1313.5C748.7,1303.7,748.2,1294.6,752.4,1286.6C754.4,1299.8,743.9,1312.4,750.7,1326.5C754.1,1323.1,753.9,1318.9,756.2,1315.9C758.8,1316.2,761.8,1314.1,764.6,1317.9L764.6,1288.7C772,1296.1,765.5,1305.5,769.6,1312.8C772.7,1308.5,775.6,1305.1,775.8,1300.2C776,1297.3,777.7,1296.4,780.3,1298.7C782.9,1301,785.3,1302.6,787.9,1304.4C788.8,1305.1,789.9,1305.4,790.8,1304.3C791.7,1303.2,791.3,1302.3,790.5,1301.3C788.4,1298.6,790.5,1289.4,792.2,1290.1C797.9,1292.7,798,1285.9,801.7,1285.1C803.3,1290.1,803.1,1294.3,798.2,1298C804,1298.9,810.4,1303.5,809.5,1292.9C809.3,1291.4,810.7,1289.9,812.2,1289.3C815.4,1288.1,814.3,1292.9,817.5,1292.7C816.2,1289,817.6,1285.9,821.3,1283.2C816.7,1281.9,813.5,1277.2,809.8,1283.6C808.1,1286.5,806.8,1283.4,805.9,1281.6C804,1277.8,801.5,1275.6,796.8,1277.6C790.3,1280.4,784.1,1276.9,780,1273.4C770.9,1265.8,770.7,1267.2,763.7,1275C762.563035,1276.474907,761.559103,1278.047734,760.7,1279.7C758.1,1278.1,755.7,1273.5,754.5,1274.7C750,1279,744.4,1272.9,739.6,1277.2C738.3,1278.4,735.1,1279.3,733.5,1281.5C731.9,1283.7,728.9,1282.3,726.6,1282.6C726.5,1279.5,725.5,1280.2,723.5,1281.6C719.5,1284.2,715.7,1282,715.5,1276.9C715.3,1269.6,715.5,1262.2,715.5,1254.2C723.4,1261,716.2,1270.2,720.4,1277.6C722.045739,1275.61915,723.581387,1273.549363,725,1271.4C726.6,1268.6,725.1,1263.1,728,1262.7C730.9,1262.3,734,1266.1,737,1268C737.2,1268.1,737.8,1267.8,738.2,1267.7C739.9,1256.8,739.9,1256.8,752.9,1251.8C753.9,1256.1,753.9,1260.1,748.8,1262.4C758.3,1265.5,758.2,1265.5,760.5,1257.5C760.9,1256,761.4,1254.4,763.1,1253.8C764.8,1253.2,764.8,1257.2,767.1,1257.1C767.3,1256.9,767.5,1256.8,767.6,1256.6C768.2,1252,769.8,1248.2,774,1245.3C778.2,1242.4,782,1242.1,785.5,1246.4C786.037055,1246.820718,786.738904,1246.968476,787.4,1246.8C792.9,1244.5,798.5,1247,804.1,1246.1C811.3,1244.8,818.5,1242.8,825.6,1241.7C840.7,1239.4,856,1238.5,871.3,1237.1C872.1,1235.6,870.8,1235.3,870,1234.7C856.5,1232.8,843.2,1229.5,829.5,1228.5C826.7,1228.3,820.9,1229.8,820,1223.8C821.2,1219.2,819,1214.5,820.2,1209C823.5,1213.6,818.2,1219.5,824,1222.4C825.48669,1222.668396,827.005173,1222.136927,828,1221C829.3,1219.1,832.5,1218.9,832.8,1216.5C833.9,1208.4,838.2,1210,843.2,1212.7C844.4,1213.3,845.8,1213.2,846.9,1214.1C848.002429,1214.464005,849.203294,1213.949349,849.7,1212.9C850.7,1208,851.2,1202.9,857.1,1201.2C859.6,1201.2,862.2,1200.2,864.5,1201.9C866.8,1203.6,861.2,1204.8,861.9,1207.4C862.6,1210,866.2,1208.4,868.3,1209.1C873.6,1210.7,877.2,1210.6,877.1,1203.5C877.1,1201.8,878.2,1199,881.4,1201.2C886.1,1204.3,889.3,1202.3,891.1,1197.6C897.3,1199.8,893.7,1204.1,893.2,1207.6C900.4,1208.9,900.7,1204.9,900.1,1199.8C899.8,1198.2,899.2,1195.9,901.8,1195.4C904.4,1194.9,905.3,1195.8,905.3,1198.3C905.3,1200.8,906,1199.8,907.1,1198.8C912,1194.3,918.5,1195.4,924.3,1194.1C930.1,1192.8,935,1188.9,940.3,1194.7C941.1,1195.6,944,1195.6,945.4,1194.9C948.9,1193.4,952.4,1194,955.9,1194.1C964.2,1194.3,973,1195.6,980.7,1192.8C991,1189.2,1001.5,1189.6,1011.9,1188.4C1022.3,1187.2,1034.9,1186.2,1046.5,1185.2C1045.8,1183,1044.3,1183.3,1043.1,1183.1C1024.9,1179.9,1006.5,1179.1,988.3,1175.9C984.4,1175.3,981.4,1172.2,977.6,1172.9C966.9,1174.9,956.2,1171.2,945.4,1174.3C942.4,1175.2,934.9,1178.4,932.4,1170.9C929.2,1168.3,927.1,1171,924.8,1172.6C922.5,1174.2,921.7,1175.3,920.2,1173.1C917.4,1168.7,913,1169.2,908.8,1169.1C906.9,1169.1,904.7,1168.2,903.4,1170.5C902.1,1172.8,904.5,1173.9,904.7,1176.2C894.2,1165.4,892.5,1164.8,885.4,1169.2L885.2,1169.2C886.2,1168.4,887.3,1167.6,886.1,1166.2C881.7,1163.3,876.1,1166.9,871.9,1163.4C870.9,1162.5,869.1,1161.1,868.4,1161.8C862.7,1167.9,860.8,1161.3,857.7,1158.7C856.834911,1157.989804,855.700724,1157.69711,854.6,1157.9C853.7,1157.8,853.7,1159.4,852.8,1158.8C851.9,1158.2,852.9,1157.6,853.2,1157C854.9,1154,856.4,1150.9,855.6,1147.2C857,1153.1,861.9,1154.4,866.6,1155.9C871.3,1157.4,879.1,1156.8,885.2,1158.4C887.471024,1158.866079,889.805792,1158.933754,892.1,1158.6L893.9,1158.1C897.8,1156.9,902.5,1158.5,905.6,1154.7C907,1154,907.6,1155.2,908.2,1156C914.5,1158.4,921.3,1155.5,927.6,1158.2C929.3,1158.9,930.5,1156.5,931.4,1155C932.3,1153.5,936.4,1153.7,938.9,1153.6C947.3,1153.5,955.7,1154.4,963.6,1150.4C965.1,1149.6,967.5,1147.8,968.2,1148.2C974.6,1152.7,981.4,1151,988.2,1150.4C996.7,1149.5,1005.1,1150.7,1013.7,1149.2C1018.8,1148.4,1023.7,1146.2,1029.1,1146.3C1044.9,1146.8,1060.5,1144.2,1076.3,1143.4C1081.8,1143.1,1087.4,1142.1,1092.9,1141.4C1084.574081,1139.192294,1076.077616,1137.687014,1067.5,1136.9C1055.6,1135.6,1043.6,1135.2,1032,1133C1020.4,1130.8,1011.9,1127.6,1001.3,1128.8C998.6,1129.2,995.9,1128.8,993.2,1128.7C990.4,1126.2,987.3,1127.5,984.4,1128.4C981.5,1129.3,976.6,1130.7,973.3,1128.9C965.8,1124.8,959.4,1127.1,953,1130.9L951.1,1131.7C949.1,1128,945.6,1126.9,941.8,1126.2C938,1125.5,936,1123.7,933.6,1126.5C931.2,1129.3,935.4,1130.1,935.1,1133.4C929.2,1125.9,923.3,1119.4,913.4,1125.1C910.5,1126.4,912.3,1129.9,910.2,1132.4C910.3,1128.9,907.9,1127.5,906.8,1125.4C905.7,1123.3,901.8,1123.7,899.7,1121.8C897.6,1119.9,896.7,1117.4,893.5,1117.2C890.3,1117,891.2,1121.1,888.9,1122C886.4,1119.6,885.6,1116.2,882.7,1114.7C881.879156,1114.518941,881.032683,1114.485082,880.2,1114.6C879.1,1114.8,879.9,1117.1,878.7,1116.1C877.5,1115.1,878.5,1114.3,879.7,1113.9C880.285988,1113.621248,880.799415,1113.210506,881.2,1112.7C886.5,1103.6,886.5,1103.6,897.1,1106.9L902.2,1108.7C903.7,1109.1,905.6,1109.8,906.7,1108.5C909.8,1104.5,913.8,1105.8,917.8,1105.9C921.8,1106,926.4,1105.9,926.4,1099.4C926.3,1095.3,929.3,1094.3,933.5,1096.3C933.208928,1096.906552,932.569509,1097.266225,931.9,1097.2C929.8,1097.1,927.6,1097,927.3,1099.8C927,1102.6,928.7,1104.1,931.2,1104.4C935.6,1104.9,940,1106.2,944.6,1106C949.2,1105.8,951.9,1105.4,951.8,1100.2C951.8,1097.8,953.4,1096.2,956.1,1095.7C954.8,1098.2,950.9,1100.7,954.5,1103.1C958.1,1105.5,963,1104,966.7,1102.2C970.4,1100.4,969.8,1096.7,967.6,1093.5C967.1,1093,966.2,1093.7,966,1093.3C965.8,1092.9,966.7,1091.9,967.1,1091.3C967.82701,1090.810233,968.244392,1089.975468,968.2,1089.1C967.6,1088,966,1086.9,968,1085.7C967.2,1083.5,968.8,1084.2,969.8,1084.2L973,1084.7C974.041064,1084.62492,975.011291,1085.231312,975.4,1086.2C976.1,1087.4,976.9,1088.8,978.7,1088.3C980.5,1087.8,982.3,1082.7,983.4,1088.7C983.3,1091.2,983.5,1093.4,987.1,1092.8C991.9,1090.1,995.2,1084.7,999.9,1082.9C1004.6,1081.1,1010.9,1083.4,1016.5,1083C1018,1082.9,1019.6,1082.3,1021.1,1082.3C1029.6,1082.5,1037.8,1079.7,1046.2,1080C1054.9,1082.3,1063.5,1079.8,1072.2,1079.9C1088.2,1080.2,1104.1,1077.7,1119.9,1076.6Q1157.5,1073.7,1195.2,1071.7C1195.9,1070.6,1198.7,1071.9,1197.9,1069.3L1138.2,1063.4C1140.4,1060.7,1142.9,1061.1,1145.3,1061.1C1147.7,1061.1,1150.8,1060.6,1150.1,1057.2C1149.4,1053.8,1148.5,1050.4,1144.9,1049.1C1144.3,1048.8,1142.8,1049.8,1142.1,1050.6C1141.4,1051.4,1142.9,1052.6,1143.7,1053.4C1144.5,1054.2,1147,1054,1146.5,1056.8C1140.3,1053.7,1135.5,1056.4,1131.6,1060.9C1129.9,1063,1134.8,1061.3,1134.3,1063C1126.7,1067,1120.5,1057.1,1113.1,1062.1C1112.7,1062.3,1111.3,1061.5,1110.8,1060.9C1108.4,1057.9,1105.2,1058.4,1102.1,1058.4L1090.1,1058.4C1090.7,1057.1,1090.7,1056.9,1090.9,1056.8C1098.4,1050.9,1100,1050.9,1107.9,1055.9C1110.1,1057.2,1115.3,1057.3,1114.4,1055.3C1111.5,1048.6,1117.4,1050.8,1119.3,1049.6C1121.2,1048.4,1124,1047.8,1127,1046.8C1125.6,1046.1,1125,1045.4,1124.5,1045.5C1116.4,1046.6,1108.4,1046.7,1100.8,1042.9C1099.2,1042.2,1096.3,1042.6,1095.9,1044C1092.9,1052.7,1086.3,1048.9,1080.8,1048.8C1077.8,1048.7,1077.6,1046.9,1078.5,1044.6C1077.855443,1042.789619,1076.474969,1041.336489,1074.7,1040.6C1072.966111,1040.090116,1071.19359,1039.722235,1069.4,1039.5C1059.6,1038.2,1049.9,1038.2,1040.7,1042.2C1040.3,1044.8,1042.9,1043.2,1043.7,1044.5C1039.4,1042.9,1034.9,1043.3,1030.7,1042.2C1026.5,1041.1,1025.3,1040,1022.3,1039.9C1018.5,1042.4,1016.9,1040,1015.5,1037C1014.658846,1036.702607,1013.741154,1036.702607,1012.9,1037C1002.4,1042.2,993.4,1033.6,983.4,1033.7C982.3,1033.7,981.5,1031.9,980.6,1031C979.7,1030.1,976.4,1029.9,974.1,1029.5C976.4,1028.5,978.6,1026,981,1027.6C986.2,1031.1,990.2,1028.8,994.2,1025.4C996.1,1023.8,998.6,1022.6,1000.9,1024.4C1003.2,1026.2,1002.2,1028.8,1000.8,1031C999.805887,1031.497056,999.402944,1032.705887,999.9,1033.7C1000.397056,1034.694113,1001.605887,1035.097056,1002.6,1034.6C1001.972894,1034.872556,1001.472556,1035.372894,1001.2,1036C1003.8,1039.3,1007.1,1038.4,1010.4,1037.8C1013.7,1037.2,1016.9,1037.6,1019.5,1035.3C1022.1,1033,1021.6,1031.7,1023.1,1030.3C1026.4,1027.4,1029.5,1023.8,1033.9,1029.5C1035.7,1031.8,1040.4,1032.5,1041,1028.9C1042,1023.3,1046.9,1023.9,1049.7,1021.5C1052.5,1019.1,1054.7,1014.7,1058.9,1019.5C1059.2,1019.8,1060.3,1019.4,1060.8,1018.9C1064.5,1015.2,1068.7,1017,1072.8,1017.9C1076.9,1018.8,1079,1018.1,1081.6,1016.1C1084.2,1014.1,1089.2,1012.7,1093.5,1013.9C1097.8,1015.1,1100.2,1014.2,1103.1,1012.2C1112.3,1011.7,1121.6,1011.1,1130.8,1010.9C1135.7,1010.7,1140.6,1011.2,1143.6,1004.6C1145.2,1009.5,1148.6,1009.8,1151.7,1011.1C1160.4,1014.5,1168.7,1010.3,1177.4,1011.1C1186.1,1011.9,1194.1,1010.2,1202.2,1011.2C1210.3,1012.2,1218,1006.6,1226.1,1010.5C1226.8,1010.8,1228.1,1009.8,1229.1,1009.3C1232.453455,1007.874101,1236.05608,1007.126386,1239.7,1007.1C1256.8,1006.4,1273.9,1006,1291,1005.3C1308.1,1004.6,1327.4,1003.4,1345.9,1002.4C1344.341238,1000.91645,1342.250534,1000.123425,1340.1,1000.2C1311.4,998.4,1282.7,995.6,1253.9,994C1245.2,993.6,1235.1,996.9,1227.3,989.5C1226.8,989.1,1225.5,989.4,1224.7,989.6C1217.7,991.2,1210.7,990.4,1203.7,990.4C1194.7,990.3,1185,987.5,1176.9,990C1166.4,993.4,1156.3,989.2,1146.2,991.8C1144.149201,992.224415,1142.047395,991.351967,1140.9,989.6C1138.8,986.7,1136.7,986.7,1134.1,988.8C1129.5,992.4,1124.1,993.5,1118.5,993.9C1118.2,992,1119.6,990.9,1120.4,989.7M266.8,973.7L274.1,973.7C271.7,973.8,269.3,973.7,266.8,973.7ZM333,954.4C331.706658,955.05878,330.326155,955.530172,328.9,955.8C330.277968,955.422389,331.198428,954.125376,331.1,952.7C331.1,951.1,329.5,949.8,332.5,949.2C335.5,948.6,333.2,953.4,335.9,953.5C335.3,954.9,333.9,953.9,333,954.4ZM252.3,1029.2L252.3,1029.2ZM318.3,1023.5C315.8,1022.1,312.5,1020.9,309.2,1021.5C297.4,1023.6,285.5,1022.2,273.6,1022.9L274.3,1022.9C281.3,1022.9,288.1,1020.1,295.1,1021.7C298.000616,1022.250468,300.96863,1022.35165,303.9,1022C307.2,1021.5,310.5,1020.6,313.9,1021.7C322.6,1024.4,326.4,1024.8,333.7,1023.7C328.6,1025.9,323.7,1026.6,318.3,1023.5ZM336.9,1023.2L336.3,1023.2C337,1023,337.2,1023.2,336.9,1023.2ZM558.5,784.3C556.8,795.6,554.6,806.8,552.3,817.9C552.211753,818.574352,552.391249,819.256437,552.8,819.8C550.2,830.9,547.5,841.9,543.5,852.5C541.7,854.5,539.5,854.7,537,854.4C530.1,853.9,523.3,853.3,516.4,852.4C504.8,851.6,493.2,850.3,481.7,849.3C479.2,849.1,476.8,848.5,474.4,849.5C469.5,850,464.8,848.8,458.6,847.3C461.9,845.7,463.9,844.6,466,843.7C491.4,832.8,514.5,818.2,536.2,801.3C541.2,797.5,543.4,792.3,546,787.1C549.6,776.2,551.8,765,553.9,753.8C554.4,751,554.6,748.1,555.6,745.6C556.074258,745.366893,556.633027,745.382993,557.093075,745.643021C557.553124,745.903048,557.855108,746.373461,557.9,746.9C560.249537,759.239373,560.452514,771.891611,558.5,784.3ZM717.3,1338.2C717,1339.5,716.6,1340.9,716.2,1342.2C716.6,1340.9,716.9,1339.5,717.3,1338.2ZM754.6,1309.6C754.8,1311.8,754.4,1314,756,1315.7C752.4,1314.6,753.8,1312.1,754.6,1309.6ZM779,848.8C761.9,850.7,744.7,852,727.5,853.8C716.1,855,716.2,855.3,711.4,845.7C704.7,826.3,699.6,806.5,698.1,785.9C699.7,782.3,697.2,779,697.3,775.5C697.381158,770.442534,697.815549,765.396917,698.6,760.4C699.7,756.8,698.7,752.8,701.2,748.9C703.6,752.4,703.1,756.2,704,759.7C704.2,760.5,704.4,761.1,704.2,760.2L704.8,760C707.4,770,710.3,779.9,712.4,789.9C713.7,796,717.3,799.9,721.8,803.3C743.4,819.5,765.8,834.5,791.5,843.7C792.49095,844.205254,793.428941,844.808249,794.3,845.5C789.9,849.9,784.2,848.3,779,848.8ZM883.5,1170.4C883.943269,1170.065076,884.411275,1169.764215,884.9,1169.5C884.330074,1169.885617,883.82396,1170.357991,883.4,1170.9C883,1171.4,883.1,1172.2,882.9,1172.7C881.6,1176.2,881.8,1172.1,881.2,1172.4C880.5,1170.1,882.8,1171.1,883.5,1170.4ZM1004,1034.7C1004.805513,1034.621159,1005.618647,1034.68892,1006.4,1034.9Z" transform="matrix(1 0 0 1 0 0.000001)" fill="rgb(127,204,226)" stroke="none" stroke-width="1"/><path id="eOueFM9ArZH7" d="M859.1,272.5C863.8,271.7,863.3,275.1,863.4,277.9C863.5,280.7,864.4,283.2,863.2,285.8C860.7,292.7,861.6,300,860.8,307.1C857.5,338.1,851.2,368.1,833.9,394.6C817.7,419.2,797.1,438.1,766.6,442.4C751.1,444.7,735.7,442.9,718.5,439.3C733,431.7,747.2,426.7,758.9,417.4C763.9,413.2,767,411.4,769.8,408C765.7,410.1,762.5,412.5,756.2,414.8C743.5,420.8,730.4,426,714.9,427.3C720.8,420.9,725.8,415.2,730.9,409.6L764.5,374.3C765.944354,372.584951,767.280284,370.781447,768.5,368.9C773.6,359.7,782.4,353.7,788.9,345.6C792.6,340.9,797.4,336.9,801.6,332.6C792.1,343.1,781,352,771.1,362C769.049871,364.102218,766.646765,365.828393,764,367.1C752.8,375.2,744.1,386,733.6,394.9C726.5,400.8,720.6,408,713,413.4C708.3,412.7,712.3,408.4,710.3,406.6C711,397.9,714.6,390,718,382C718.3,374.8,723.8,370.2,726.1,364.9C719.8,369.8,719.8,372.6,715.5,378C706.5,389.5,702.7,403.5,696.4,416.5C693.7,412.4,692,406.5,691.5,399.6C690.834102,392.082747,690.800652,384.522851,691.4,377C694.4,340.8,712.6,314.4,744.5,297.4C769.8,283.9,797,276.3,825.6,273.6C830,273.2,834.4,271.9,839,272.5C845.669813,273.399446,852.430187,273.399446,859.1,272.5Z" opacity="0" fill="rgb(128,204,226)" stroke="none" stroke-width="1"/><path id="eOueFM9ArZH8" d="M565,396.9C564.646726,403.32634,563.332119,409.66342,561.1,415.7C555.1,406.2,552.6,395.8,546.3,387.3C540.5,381.3,536.9,373.8,532.2,367C532.1,366.7,532.1,366.1,531.9,366C531.7,365.9,531.5,366,531.9,366.4C532.3,366.8,531.7,366.2,532.1,367C536,374.1,541.4,380.4,542.2,388.9C545.5,398.4,549.1,407.8,549.3,419L485.5,360.4C474.8,353.1,466.2,343.6,457,334.7C454.6,332.3,452.5,329.8,450.8,328.2C464.4,342.3,479,356.8,491.9,372.9C501.3,385.3,513.1,395.5,523.2,407.2C529.1,413.9,535.4,420.3,542.4,427.8C533.509084,426.641033,524.762311,424.563255,516.3,421.6C507.7,421,500.8,416.3,493.8,412.1C487.928793,408.551853,482.374842,404.503491,477.2,400C485.8,408.1,498,414.1,508,423C516.7,429.8,527.8,432,537.6,438.6C531.226323,441.160094,524.462667,442.614281,517.6,442.9C510.923863,442.100298,504.176137,442.100298,497.5,442.9C467.4,440.1,444,425.6,426.9,401C409.8,376.4,401.9,350.8,398.4,322.5C396.5,306.3,394.9,290,393.1,273.7C397.9,272,403.1,274,407.9,272.6L407.9,272.2C411.9,271.6,415.9,271.1,419.9,272.5C429.6,273.8,439.4,274.9,449.1,276.5C483.5,282.1,515.3,294,540.4,319.2C555.4,334.1,563,353,565,374.1C566.1,381.7,565.3,389.3,565,396.9Z" opacity="0" fill="rgb(128,204,226)" stroke="none" stroke-width="1"/><path id="eOueFM9ArZH9" d="M692.9,320.4C690.2,346.4,676.2,365.8,657.2,382.3L643.8,393.6C642.4,394.7,641.2,397.5,638.9,395.4C636.6,393.3,639,392.1,639.7,390.6C644,380.5,648.4,370.5,650.8,359.7C650.8,359.2,656.8,325.7,655.8,322.8C655.4,325,652.8,339,651.2,345.3C650.49576,348.791445,649.457656,352.207142,648.1,355.5C643,365.6,639.7,376.8,632.1,385.7C629.2,384.5,629.4,381.9,629.4,379.4C628.9,363.2,627.6,346.9,627.4,330.6C627.4,328.2,627.5,325.7,626.6,323.4C624.6,310,626.7,304.7,627.1,301.1C626.4,301.8,622.4,284.3,623.7,275.7C625.6,269.3,624.3,256.2,624.3,256.2C623.7,261.1,624.6,265.5,622.3,270.7C621.038725,281.922577,620.404406,293.20677,620.4,304.5C620.5,318.5,620.1,332.4,620.7,346.3C620.81606,347.099265,620.782148,347.91316,620.6,348.7C620.4,352,620.1,360.1,619.7,360.7C617.9,368.1,620.2,375.8,617.8,383.2C617.4,384.5,617.7,386,615.6,385.6C609.3,379.5,607.1,370.8,602.3,363.7C594.9,352.7,592.8,340,591,327.2C590.8,325.1,591.2,322.9,589.8,321.1C590.7,329.7,591,338.2,592.5,346.7C593.1,348.1,599.6,367.2,601.1,374.5L609.9,396.9C578.9,377.5,557.3,353.2,553.8,316.6C553.2,312.4,553.2,303.3,553.8,295.6C555.2,279.9,560.6,265.3,567.2,251.2C580.2,223.3,598.4,199.1,620,177.4C622.5,174.9,624.3,173,627.5,176.8C649,202.5,671.4,227.7,683.7,259.7C688.2,271.5,691.9,283.5,692.9,296.2C693.600003,304.251481,693.600003,312.348519,692.9,320.4Z" opacity="0" fill="rgb(128,204,226)" stroke="none" stroke-width="1"/><path id="eOueFM9ArZH10" d="M777,477.4C764.6,479.9,752.8,484.9,739,489.2C757.5,460.7,780.2,441.3,813.3,436.6C821.312701,435.816441,829.381073,435.782962,837.4,436.5C861.1,439.3,882.4,448.9,902.7,460.9C923,472.9,940.3,485.7,955.8,502.3C958.5,505.1,959.3,506.7,956,509.8C930,534.9,901.4,556.2,867,568.5C832.6,580.8,798.4,578.7,767.7,555.9C757,548,749.1,537.7,741.6,526.9C740.8,525.6,739.4,524.4,741.1,522.8C742.8,521.2,744.1,522.6,745.4,523.2C754.944916,527.826001,764.972672,531.380992,775.3,533.8C785.1,532.3,787.4,536.6,780.7,531.2C769.1,526.1,757.3,521.2,747,513.8C745.95348,512.953072,744.952105,512.051834,744,511.1C748.7,509.1,753.7,511,758.4,509.7C772.9,510.7,787.3,511,801.7,509.4C809.789642,508.783483,817.915706,508.816924,826,509.5C826.193305,509.572308,826.409888,509.485675,826.5,509.3C826.5,509.1,826.3,508.9,826.3,508.6C826.448944,508.029295,826.918521,507.598849,827.5,507.5L833.6,507.5C835.4,507.1,837.2,506.5,839.1,507C848,507.6,856.1,507,856.7,506.3C857.3,505.6,860.5,506.3,863.6,505.9C863,505.4,873.4,502.2,873.8,501.4C876.9,500.4,855.4,506,846.6,504.1C842.5,502.7,838.1,503.2,833.9,503.4C821.6,503.9,809.3,502.3,797,502C787,503.1,777.2,499.9,767.2,501.2L762.9,501.5C757,502.3,751.2,502.7,745.4,501.2C749.8,494.6,757.2,491.9,763.7,488.4C770.2,484.9,777.7,482.6,784.8,479.8C786.1,478.5,790.8,477.5,792.6,476.9L798,475.6C791.3,475.6,777.3,477.3,777,477.4Z" opacity="0" fill="rgb(127,204,226)" stroke="none" stroke-width="1"/><path id="eOueFM9ArZH11" d="M472.9,479.8C483.5,484.2,494.4,487.9,504,494.6C505.044374,495.378596,506.045838,496.21315,507,497.1C506.5,501.1,503.3,500.4,500.8,500.5C485.5,501.2,470.3,501.7,455,502.2C439.7,502.7,427.2,503.2,413.2,503.3C400,505.5,386.7,504.3,373.5,504.6C378.7,505.5,383.7,505.3,388.8,505.6C391.154482,505.763273,393.493981,506.097487,395.8,506.6C396.2,507.3,405.2,506.6,414.2,508.1C415.69128,508.568621,417.238068,508.837628,418.8,508.9C443.2,508.1,467.4,510.9,491.7,510.5C496.9,510.4,502.6,510.1,506.6,514.8C498.2,523.1,473,531.7,472,532.2C464.3,535.9,453.8,536.7,456.2,536.6C463.5,537.3,478.3,534.3,481,533.7L516.6,524.2C501.5,547.6,479.6,568.5,448.3,574.5C423.7,579.3,400.5,573.5,378,563.7C350.5,551.5,326.4,534.2,304.6,513.7C296.6,506.2,296.6,505.9,304.4,498.6C330.5,474.3,358.8,453.4,393.3,442.3C402.071096,439.422939,411.121141,437.478855,420.3,436.5C428.318095,435.80025,436.381905,435.80025,444.4,436.5C462,438.6,477.2,446.1,490.5,457.4C501.1,466.5,510.6,476.7,517.8,490.1C504.5,485.3,492.3,480,479.1,477.4C478.9,477.3,467.8,474.1,461.5,474.1C457.413908,474.268906,453.340694,474.66955,449.3,475.3C457.5,475.1,465.7,474.8,472.9,479.8Z" transform="matrix(1 0 0 1 0.000008 0.000082)" opacity="0" fill="rgb(127,204,226)" stroke="none" stroke-width="1"/></g></g><path id="eOueFM9ArZH12" d="M105.9,937.3C12.590219,751.923299,25.323888,530.837835,139.3,357.4" fill="none" stroke="rgb(127,204,226)" stroke-width="14" stroke-miterlimit="10" stroke-dashoffset="608.31" stroke-dasharray="608.31"/><path id="eOueFM9ArZH13" d="M1124.4,363.3C1249.11544,559.017152,1246.132192,810.002495,1116.8,1002.7" fill="none" stroke="rgb(127,204,226)" stroke-width="14" stroke-miterlimit="10" stroke-dashoffset="676.67" stroke-dasharray="676.67"/><path id="eOueFM9ArZH14" d="M181.3,262.9C181.910615,264.954357,182.312647,267.065021,182.5,269.2C182.716522,271.506991,182.581653,273.833483,182.1,276.1C181.703872,278.558271,180.963255,280.948444,179.9,283.2C178.876058,285.634994,177.530779,287.921969,175.9,290C173.022229,293.802716,169.419529,296.997564,165.3,299.4C161.449446,301.625641,157.20488,303.085772,152.8,303.7C148.343352,304.212388,143.829925,303.873033,139.5,302.7C130.161216,299.988702,122.194375,293.843874,117.2,285.5C114.957486,281.621155,113.496639,277.340533,112.9,272.9C112.335543,268.477693,112.675762,263.9868,113.9,259.7C115.139752,255.122286,117.28168,250.83843,120.2,247.1C122.841383,243.71941,126.0987,240.869257,129.8,238.7C133.710408,236.40256,138.164641,235.194047,142.7,235.2L142.7,242.7C141.264201,242.57267,139.817781,242.639945,138.4,242.9C136.769182,243.222062,135.188588,243.760137,133.7,244.5C132.071109,245.226288,130.52825,246.131879,129.1,247.2C127.644322,248.223033,126.361481,249.472116,125.3,250.9C122.764423,253.9799,120.983736,257.609763,120.1,261.5C119.302695,265.012914,119.200778,268.647931,119.8,272.2C120.493072,275.723916,121.850563,279.083706,123.8,282.1C125.810696,285.243641,128.347775,288.017514,131.3,290.3C134.282413,292.604747,137.628307,294.395984,141.2,295.6C144.625761,296.670244,148.217142,297.110696,151.8,296.9C155.398942,296.596353,158.900881,295.576371,162.1,293.9C165.600531,292.024453,168.640483,289.394381,171,286.2C172.114879,284.836576,173.086652,283.36216,173.9,281.8C174.706371,280.215009,175.311076,278.535272,175.7,276.8C176.118126,274.964373,176.286315,273.080666,176.2,271.2C175.999906,269.049516,175.529532,266.932831,174.8,264.9Z" fill="rgb(127,204,226)" stroke="none" stroke-width="1"/><path id="eOueFM9ArZH15" d="M166.2,196.5L171.1,191.8L191.1,212.8L217.5,187.7L197.5,166.7L202.4,162L248.6,210.4L243.6,215.1L221.8,192.2L195.4,217.3L217.2,240.3L212.3,245Z" fill="rgb(127,204,226)" stroke="none" stroke-width="1"/><path id="eOueFM9ArZH16" d="M285.8,181.1L280.3,185.2L240.2,131.7L245.7,127.6Z" fill="rgb(127,204,226)" stroke="none" stroke-width="1"/><path id="eOueFM9ArZH17" d="M321.9,149.1L348.6,133L351.9,138.3L319.3,157.9L284.8,100.6L290.7,97.1Z" fill="rgb(127,204,226)" stroke="none" stroke-width="1"/><path id="eOueFM9ArZH18" d="M383.8,115.7L412.2,102.9L414.8,108.6L380.1,124.1L352.8,63.1L359,60.3Z" fill="rgb(127,204,226)" stroke="none" stroke-width="1"/><path id="eOueFM9ArZH19" d="M512.6,79.6L506,81L500,52.8L467.6,20.8L475.9,19L502,45.8L514.9,10.7L523.2,9L506.6,51.4Z" fill="rgb(127,204,226)" stroke="none" stroke-width="1"/><path id="eOueFM9ArZH20" d="M629.7,33.1C630.061323,37.913967,629.414199,42.750364,627.8,47.3C626.387956,51.564723,624.144747,55.507333,621.2,58.9C618.18001,62.159959,614.587105,64.83769,610.6,66.8C606.315488,68.86271,601.651785,70.020125,596.9,70.2C592.160276,70.529719,587.402165,69.917962,582.9,68.4C574.391552,65.440081,567.411141,59.215281,563.5,51.1C561.470516,46.732913,560.315468,42.010803,560.1,37.2C559.756925,32.394258,560.368686,27.568143,561.9,23C563.31078,18.743114,565.592546,14.82665,568.6,11.5C571.547002,8.134281,575.155188,5.411121,579.2,3.5C587.870362,-0.489496,597.726717,-1.060879,606.8,1.9C615.349171,4.790307,622.353372,11.036321,626.2,19.2C628.261575,23.560893,629.450548,28.282817,629.7,33.1ZM622.3,33.6C622.096762,29.850346,621.251141,26.163437,619.8,22.7C618.369166,19.386955,616.334562,16.368959,613.8,13.8C611.22944,11.269993,608.165966,9.295755,604.8,8C601.115024,6.550665,597.14589,5.968982,593.2,6.3C589.227347,6.46105,585.337333,7.484737,581.8,9.3C578.648123,11.008383,575.862146,13.318705,573.6,16.1C571.32876,18.894708,569.660444,22.129198,568.7,25.6C567.616863,29.194674,567.176777,32.952329,567.4,36.7C567.603238,40.449654,568.448859,44.136563,569.9,47.6C571.330834,50.913045,573.365438,53.931041,575.9,56.5C578.443921,59.063091,581.514909,61.042172,584.9,62.3C592.424306,65.013418,600.729374,64.544001,607.9,61C611.102979,59.325393,613.927985,57.010931,616.2,54.2C618.396315,51.356934,620.056717,48.137788,621.1,44.7C622.101763,41.090029,622.5071,37.340659,622.3,33.6Z" fill="rgb(127,204,226)" stroke="none" stroke-width="1"/><path id="eOueFM9ArZH21" d="M717.1,48.2C716.782079,51.160003,716.145043,54.076955,715.2,56.9C714.227191,59.912022,712.663348,62.699743,710.6,65.1C708.401663,67.652162,705.624252,69.640926,702.5,70.9C699.1,72.3,695,72.7,690,72.2C685,71.7,681,70.5,678.1,68.4C675.289869,66.536377,672.959892,64.035079,671.3,61.1C669.786169,58.348169,668.834396,55.32289,668.5,52.2C668.119069,49.247429,668.085506,46.260385,668.4,43.3L672.6,1.5L679.4,2.2L675.2,43.2C674.875101,45.959394,674.908713,48.749235,675.3,51.5C675.60066,53.622394,676.242261,55.68227,677.2,57.6C678.716741,60.435445,681.09905,62.712652,684,64.1C685.12609,64.738079,686.338685,65.209644,687.6,65.5C688.609758,65.789417,689.650453,65.957271,690.7,66L693.7,66C695.022719,65.996532,696.337405,65.794273,697.6,65.4C699.025783,64.987993,700.401001,64.41778,701.7,63.7C703.153831,62.795046,704.439575,61.644643,705.5,60.3C706.813846,58.639557,707.859826,56.783785,708.6,54.8C709.54362,52.187998,710.148549,49.465817,710.4,46.7L714.5,5.7L721.3,6.4Z" fill="rgb(127,204,226)" stroke="none" stroke-width="1"/><path id="eOueFM9ArZH22" d="M759.5,81.7L752.9,80.1L769.1,15.2L789.1,20.1C795.7,21.8,800.5,24.5,803.6,28.3C806.7,32.1,807.6,36.9,806.1,42.8C805.157256,47.02357,802.611804,50.716268,799,53.1C795.4,55.5,790.9,56.3,785.4,55.4L796.4,90.9L788.3,88.9L778,54.3L767,51.6ZM768.5,45.5L780.3,48.4C782.809028,49.083047,785.399732,49.419502,788,49.4C789.901205,49.334215,791.770534,48.892374,793.5,48.1C794.913783,47.477839,796.125905,46.473509,797,45.2C797.94107,43.947981,798.621177,42.519756,799,41C799.31647,39.487757,799.384024,37.934003,799.2,36.4C798.95989,34.858153,798.379144,33.389206,797.5,32.1C796.316443,30.629796,794.855408,29.406604,793.2,28.5C790.904773,27.263338,788.447535,26.354496,785.9,25.8L774.2,22.9Z" fill="rgb(127,204,226)" stroke="none" stroke-width="1"/><path id="eOueFM9ArZH23" d="M908.5,123.9L953.9,86.4L963.1,91.3L931.8,150.4L925.8,147.2L952.9,96.1L952.7,96.1L904.2,135.9L901.1,134.2L906.8,71.8L906.6,71.8L879.5,122.8L873.5,119.7L904.9,60.6L914,65.4Z" fill="rgb(127,204,226)" stroke="none" stroke-width="1"/><path id="eOueFM9ArZH24" d="M970.6,177.2L965.1,173.2L1003.9,118.8L1009.5,122.7Z" fill="rgb(127,204,226)" stroke="none" stroke-width="1"/><path id="eOueFM9ArZH25" d="M1045.5,226.7L1045.7,226.7L1084,185L1089,189.6L1043.8,238.9L1037.5,233.2L1046.8,164L1046.7,164L1008,206.1L1003,201.5L1048.2,152.2L1054.5,157.9Z" fill="rgb(127,204,226)" stroke="none" stroke-width="1"/><path id="eOueFM9ArZH26" d="M1122.8,226L1136.5,243.4C1139.106518,246.771516,1141.196128,250.512591,1142.7,254.5C1144.18016,258.601489,1144.892041,262.940572,1144.8,267.3C1143.860128,282.268035,1133.277962,294.877436,1118.7,298.4C1114.317525,299.349678,1109.782475,299.349678,1105.4,298.4C1101.11036,297.537882,1097.032671,295.838844,1093.4,293.4C1089.837987,291.080154,1086.665434,288.211357,1084,284.9L1070.3,267.5ZM1079.4,269L1087.6,279.3C1090.336398,282.903364,1093.729298,285.956974,1097.6,288.3C1100.888689,290.206445,1104.527751,291.430802,1108.3,291.9C1111.739471,292.239497,1115.211995,291.865009,1118.5,290.8C1121.752,289.725469,1124.795988,288.102009,1127.5,286C1130.200991,283.852295,1132.502788,281.245848,1134.3,278.3C1136.092959,275.337065,1137.250759,272.033929,1137.7,268.6C1138.097997,264.837158,1137.758323,261.032813,1136.7,257.4C1135.35985,253.085566,1133.185362,249.076353,1130.3,245.6L1122.1,235.2Z" fill="rgb(127,204,226)" stroke="none" stroke-width="1"/></g></g></svg>