<svg id="elYTnR8brBA1" xmlns="http://www.w3.org/2000/svg" xmlns:xlink="http://www.w3.org/1999/xlink" viewBox="0 0 1500 1500" shape-rendering="geometricPrecision" text-rendering="geometricPrecision"><style><![CDATA[#elYTnR8brBA17_ts {animation: elYTnR8brBA17_ts__ts 5000ms linear infinite alternate forwards}@keyframes elYTnR8brBA17_ts__ts { 0% {transform: translate(861.349945px,502.949982px) scale(0,0)} 10% {transform: translate(861.349945px,502.949982px) scale(1,1)} 30% {transform: translate(861.349945px,502.949982px) scale(0,0)} 50% {transform: translate(861.349945px,502.949982px) scale(1,1)} 64% {transform: translate(861.349945px,502.949982px) scale(0,0)} 90% {transform: translate(861.349945px,502.949982px) scale(1,1)} 100% {transform: translate(861.349945px,502.949982px) scale(0,0)}} #elYTnR8brBA18_to {animation: elYTnR8brBA18_to__to 5000ms linear infinite alternate forwards}@keyframes elYTnR8brBA18_to__to { 0% {transform: translate(681.350401px,823.069824px)} 22% {transform: translate(681.350401px,810.819824px)} 26% {transform: translate(681.350401px,810.819824px)} 74% {transform: translate(681.350403px,835.569824px)} 78% {transform: translate(681.350403px,835.569824px)} 100% {transform: translate(681.350401px,823.069824px)}} #elYTnR8brBA19_ts {animation: elYTnR8brBA19_ts__ts 5000ms linear infinite alternate forwards}@keyframes elYTnR8brBA19_ts__ts { 0% {transform: translate(791.699982px,712.478668px) scale(0,0)} 20% {transform: translate(791.699982px,712.478668px) scale(0,0)} 30% {transform: translate(791.699982px,712.478668px) scale(1,1)} 44% {transform: translate(791.699982px,712.478668px) scale(0,0)} 50% {transform: translate(791.699982px,712.478668px) scale(1,1)} 64% {transform: translate(791.699982px,712.478668px) scale(0,0)} 76% {transform: translate(791.699982px,712.478668px) scale(1,1)} 100% {transform: translate(791.699982px,712.478668px) scale(0,0)}} #elYTnR8brBA20_ts {animation: elYTnR8brBA20_ts__ts 5000ms linear infinite alternate forwards}@keyframes elYTnR8brBA20_ts__ts { 0% {transform: translate(629.700012px,555.050018px) scale(0,0)} 10% {transform: translate(629.700012px,555.050018px) scale(0,0)} 20% {transform: translate(629.700012px,555.050018px) scale(1,1)} 38% {transform: translate(629.700012px,555.050018px) scale(0,0)} 50% {transform: translate(629.700012px,555.050018px) scale(1,1)} 60% {transform: translate(629.700012px,555.050018px) scale(0,0)} 78% {transform: translate(629.700012px,555.050018px) scale(1,1)} 90% {transform: translate(629.700012px,555.050018px) scale(0,0)} 100% {transform: translate(629.700012px,555.050018px) scale(0,0)}} #elYTnR8brBA21_ts {animation: elYTnR8brBA21_ts__ts 5000ms linear infinite alternate forwards}@keyframes elYTnR8brBA21_ts__ts { 0% {transform: translate(572.399963px,457.699997px) scale(0,0)} 14% {transform: translate(572.399963px,457.699997px) scale(0,0)} 24% {transform: translate(572.399963px,457.699997px) scale(1,1)} 34% {transform: translate(572.399963px,457.699997px) scale(0,0)} 50% {transform: translate(572.399963px,457.699997px) scale(1,1)} 70% {transform: translate(572.399963px,457.699997px) scale(0,0)} 86% {transform: translate(572.399963px,457.699997px) scale(1,1)} 100% {transform: translate(572.399963px,457.699997px) scale(0,0)}} #elYTnR8brBA22 {animation: elYTnR8brBA22_s_do 5000ms linear infinite alternate forwards}@keyframes elYTnR8brBA22_s_do { 0% {stroke-dashoffset: 626.12} 50% {stroke-dashoffset: 0} 100% {stroke-dashoffset: 626.12}} #elYTnR8brBA23 {animation: elYTnR8brBA23_s_do 5000ms linear infinite alternate forwards}@keyframes elYTnR8brBA23_s_do { 0% {stroke-dashoffset: 684.08} 50% {stroke-dashoffset: 0} 100% {stroke-dashoffset: 684.08}}]]></style><g id="elYTnR8brBA2" transform="matrix(1 0 0 1 106.801528 60.0802)"><g id="elYTnR8brBA3"><path id="elYTnR8brBA4" d="M187.6,273.5L183.2,278.8L131.3,234.6L135.8,229.3Z" fill="rgb(158,216,233)" stroke="none" stroke-width="1"/><path id="elYTnR8brBA5" d="M246.6,199.9L246.8,199.9L207.9,157.2L213,152.5L258.9,202.9L252.5,208.7L183.2,192.9L183.1,192.9L222.3,236.1L217.2,240.7L171.3,190.3L177.7,184.5Z" fill="rgb(158,216,233)" stroke="none" stroke-width="1"/><path id="elYTnR8brBA6" d="M304.6,156.9L304.7,156.9L291.6,96.3L297.8,92.2L313.2,163.6L307.4,167.4L248.3,124.8L254.7,120.6Z" fill="rgb(158,216,233)" stroke="none" stroke-width="1"/><path id="elYTnR8brBA7" d="M369.2,124.1L402.2,108.5L404.9,114.2L365.7,132.8L336.5,71.2L374.7,53.1L377.4,58.9L345.5,74L355.4,94.9L385.2,80.8L388,86.6L358.1,100.7Z" fill="rgb(158,216,233)" stroke="none" stroke-width="1"/><path id="elYTnR8brBA8" d="M455.2,36.4C451,33.1,446.1,32.3,440.6,34C438.90973,34.561972,437.297022,35.334728,435.8,36.3C434.3521,37.253117,433.068708,38.435189,432,39.8C429.804485,42.764595,429.24122,46.632352,430.5,50.1C431.4,53.1,432.9,55.1,435.1,56.2C437.418781,57.343292,439.926329,58.054893,442.5,58.3C445.461181,58.521171,448.431873,58.587928,451.4,58.5C454.454306,58.405526,457.509026,58.674073,460.5,59.3C463.324857,59.881634,465.987549,61.076432,468.3,62.8C470.7,64.6,472.5,67.4,473.7,71.3C474.669053,74.058762,474.910152,77.020838,474.4,79.9C473.847093,82.541496,472.794921,85.053132,471.3,87.3C469.707766,89.575144,467.747596,91.56911,465.5,93.2C463.308766,94.803089,460.879096,96.051669,458.3,96.9C454.391633,98.12594,450.279588,98.56773,446.2,98.2C442.065328,97.74899,438.127931,96.194754,434.8,93.7L439.5,87.5C441.647342,89.42438,444.272091,90.736754,447.1,91.3C450.294035,91.989994,453.616735,91.782325,456.7,90.7C458.367219,90.158633,459.949539,89.384306,461.4,88.4C462.825684,87.375314,464.075314,86.125684,465.1,84.7C466.118504,83.2591,466.833012,81.625938,467.2,79.9C467.597887,78.106612,467.494091,76.238278,466.9,74.5C466.355703,72.494954,465.244628,70.689457,463.7,69.3C462.238192,68.086122,460.533256,67.199555,458.7,66.7C456.710062,66.169431,454.659456,65.900499,452.6,65.9L445.8,65.9C443.526929,65.919258,441.255137,65.785623,439,65.5C436.790967,65.335958,434.626344,64.794802,432.6,63.9C430.579081,63.07814,428.768037,61.813826,427.3,60.2C425.504627,58.156745,424.20431,55.727204,423.5,53.1C422.561153,50.301514,422.287246,47.322771,422.7,44.4C423.172215,41.781808,424.194744,39.293654,425.7,37.1C427.241202,34.927949,429.174308,33.06267,431.4,31.6C433.645864,30.077016,436.106244,28.897381,438.7,28.1C442.113372,26.968795,445.709986,26.49377,449.3,26.7C452.96381,27.026261,456.495932,28.226497,459.6,30.2Z" fill="rgb(158,216,233)" stroke="none" stroke-width="1"/><path id="elYTnR8brBA9" d="M539.2,75.8L532.3,76.9L521.9,16.1L499.5,19.9L498.4,13.6L550.2,4.8L551.2,11.1L528.8,14.9Z" fill="rgb(158,216,233)" stroke="none" stroke-width="1"/><path id="elYTnR8brBA10" d="M657.9,68.3L651,68.1L653.1,0L660,0.2Z" fill="rgb(158,216,233)" stroke="none" stroke-width="1"/><path id="elYTnR8brBA11" d="M752.3,68.4L752.5,68.4L761.6,11.4L768.4,12.5L757.7,79.8L749.1,78.4L718.2,14.4L718,14.4L708.8,72L702,70.9L712.7,3.6L721.3,5Z" fill="rgb(158,216,233)" stroke="none" stroke-width="1"/><path id="elYTnR8brBA12" d="M856.6,110.3L850.2,107.6L876.9,44.9L896.2,53.1C902.6,55.9,907,59.4,909.5,63.7C912,68,912.1,73.1,909.7,78.7C908.051354,82.779341,904.902077,86.071767,900.9,87.9C896.9,89.7,892.2,89.8,886.8,88L892.1,125.5L884.3,122.1L879.6,85.7L869,81.2ZM871.5,75.3L882.8,80.2C885.210774,81.285261,887.774034,81.99353,890.4,82.3C892.299141,82.616908,894.244618,82.514515,896.1,82C897.64995,81.619318,899.06719,80.82428,900.2,79.7C901.292313,78.52772,902.172124,77.174164,902.8,75.7C903.369528,74.262419,903.707067,72.743491,903.8,71.2C903.826995,69.598452,903.448602,68.016079,902.7,66.6C901.799513,64.882925,900.537131,63.381715,899,62.2C896.887943,60.592441,894.566563,59.280357,892.1,58.3L880.8,53.5Z" fill="rgb(158,216,233)" stroke="none" stroke-width="1"/><path id="elYTnR8brBA13" d="M934,140.9L965.2,159.7L961.9,165.2L924.8,142.7L960,84.4L996.1,106.3L992.9,111.7L962.6,93.4L950.6,113.3L978.9,130.3L975.6,135.8L947.4,118.7Z" fill="rgb(158,216,233)" stroke="none" stroke-width="1"/><path id="elYTnR8brBA14" d="M1054.5,164C1055,158.7,1052.9,154.2,1048.4,150.6C1047.023648,149.481239,1045.511723,148.540486,1043.9,147.8C1042.278629,147.118964,1040.554936,146.713389,1038.8,146.6C1037.086168,146.509429,1035.374678,146.817497,1033.8,147.5C1032.076866,148.301774,1030.568811,149.501363,1029.4,151C1027.5,153.4,1026.6,155.8,1026.9,158.2C1027.225527,160.764485,1028.040267,163.242651,1029.3,165.5C1030.706448,168.128981,1032.276188,170.667284,1034,173.1C1035.752343,175.599274,1037.227683,178.281711,1038.4,181.1C1039.460495,183.803004,1039.937592,186.699664,1039.8,189.6C1039.7,192.5,1038.3,195.6,1035.7,198.8C1033.913996,201.084991,1031.573115,202.875077,1028.9,204C1026.405955,205.074893,1023.715744,205.619746,1021,205.6C1018.273856,205.498117,1015.57788,204.992621,1013,204.1C1010.445892,203.130775,1008.052369,201.782311,1005.9,200.1C1002.716249,197.540517,1000.066107,194.380733,998.1,190.8C996.153672,187.076504,995.255028,182.894354,995.5,178.7L1003.3,179.2C1002.879909,182.071971,1003.224847,185.00394,1004.3,187.7C1005.512925,190.709831,1007.516948,193.335792,1010.1,195.3C1011.479681,196.414086,1013.033942,197.292581,1014.7,197.9C1016.311511,198.597268,1018.044349,198.971018,1019.8,199C1021.538967,198.993945,1023.263999,198.689528,1024.9,198.1C1026.648916,197.437665,1028.174461,196.293505,1029.3,194.8C1030.654162,193.251178,1031.523487,191.338663,1031.8,189.3C1031.99897,187.411906,1031.794453,185.503084,1031.2,183.7C1030.540177,181.77584,1029.668137,179.931139,1028.6,178.2L1024.9,172.5C1023.623226,170.60077,1022.4547,168.630969,1021.4,166.6C1020.34396,164.662433,1019.60143,162.569848,1019.2,160.4C1018.766587,158.246727,1018.835023,156.022553,1019.4,153.9C1020.106295,151.29397,1021.368554,148.871796,1023.1,146.8C1024.953057,144.492246,1027.314541,142.644128,1030,141.4C1032.392193,140.230303,1035.039847,139.68014,1037.7,139.8C1040.356973,139.824906,1042.979522,140.403911,1045.4,141.5C1047.923844,142.511767,1050.283028,143.893575,1052.4,145.6C1055.236083,147.820981,1057.61349,150.571981,1059.4,153.7C1061.169682,156.921682,1062.130547,160.524924,1062.2,164.2Z" fill="rgb(158,216,233)" stroke="none" stroke-width="1"/><path id="elYTnR8brBA15" d="M1068.3,255.7L1063.5,250.7L1108.4,208.3L1092.8,191.7L1097.4,187.3L1133.5,225.5L1128.8,229.9L1113.2,213.3Z" fill="rgb(158,216,233)" stroke="none" stroke-width="1"/><circle id="elYTnR8brBA16" r="591.4" transform="matrix(1 0 0 1 638.1 679.3)" fill="rgb(144,164,210)" stroke="none" stroke-width="1"/><g id="elYTnR8brBA17_ts" transform="translate(861.349945,502.949982) scale(0,0)"><path id="elYTnR8brBA17" d="M922.9,494.1C895.938806,490.316332,874.019142,470.45783,867.6,444C864.9,433.2,863.3,422.3,861.7,411.3C858.3,431,857,451.3,844.1,468.1C831.2,484.9,814.4,493.8,793.2,495.7C798.8,496.7,803.1,499.8,807.8,502C817,506.4,826.2,511.3,832.5,519.7C849.4,542,859.5,566.9,861.3,594.6C868,551.1,881,512,929.5,495.9C926.6,495.1,924.8,494.4,922.9,494.1ZM861.9,565.3C856,537.3,849.8,510,818.3,498.3C848.7,490.9,857.5,474.2,861.8,438.3C864.6,467.4,871.5,491.7,904.4,497.7C874,511.1,865.8,537.7,861.9,565.3Z" transform="translate(-861.349945,-502.949982)" fill="rgb(157,216,232)" stroke="none" stroke-width="1"/></g><g id="elYTnR8brBA18_to" transform="translate(681.350401,823.069824)"><path id="elYTnR8brBA18" d="M115.6,952.2C117.6,953.9,120.3,953.7,126.2,952.8C136,951.4,145.8,952.1,155.7,951.8C161.5,951.6,167.6,952.5,172.8,948.7C173.3,948.3,174.2,947.9,174.6,948.1C182.4,951.9,189.9,946.7,197.8,947.6C205.7,948.5,213.7,946.4,221.3,947.7C228.9,949,237.7,944.3,246.2,947.5C249.6,948.9,253,949,253.7,954.6C256.6,949.7,260.4,949.7,264.4,948.9C278.5,945.8,292.7,946.7,306.9,946.5C309.5,946.4,314.1,948.6,313.2,942.4C313.1,941.1,314.8,941.2,315.9,941.2C319.3,941.3,322.7,940.7,326,943.1C327.151621,943.994689,328.631158,944.353583,330.064717,944.085985C331.498276,943.818387,332.748702,942.949901,333.5,941.7C335.4,939,332.2,938,330.9,936.7C306.232609,911.550498,284.64735,883.553443,266.6,853.3C241.4,811.1,223.1,766.1,212.7,718.1C207.901111,695.923958,204.692942,673.433354,203.1,650.8C202.1,637.7,202,624.6,202.1,611.5C202.591376,571.102555,208.614022,530.962798,220,492.2C233.578403,445.740182,254.437361,401.727105,281.8,361.8C302,332.2,326.1,306,352.2,281.6C357.9,276.4,363.3,270.5,371.1,266.3C362.2,298.3,356.2,330,354.7,362.5C355.8,364.8,355.1,367.2,355.3,369.5C355.087936,370.129779,354.747416,370.708664,354.3,371.2C353.499977,383.52036,353.499977,395.87964,354.3,408.2L355.2,410.2C355.1,412.7,355.8,415.2,354.7,417.6C356.256324,446.151745,360.746641,474.467549,368.1,502.1C402.233395,630.967351,492.163489,737.841859,613.3,793.5C650.272217,810.51139,689.457655,822.226625,729.7,828.3C759.297385,832.89246,789.281204,834.50053,819.2,833.1C854.976718,831.423811,890.410478,825.344654,924.7,815C970.876498,801.183868,1014.508762,779.975615,1053.9,752.2C1070.3,740.5,1085.6,727.6,1101.6,713.5C1084,795.3,1047,865.7,992,927.6C1000.8,925.9,1007.7,931.8,1015.9,932.4C1019,932.6,1022.5,933.1,1025.2,935.3C1027.9,937.5,1031.4,937.6,1034.9,935.9C1038.4,934.2,1037.9,934.7,1039.8,937.4C1040.2,938,1041.6,938.7,1042,938.5C1048.4,935,1054.5,940.4,1061,938.8C1067.571546,937.153204,1074.325466,936.346766,1081.1,936.4C1088.2,936.3,1095.7,935.4,1100.7,943.4C1103.2,947.2,1109,946.6,1113.5,944.9C1115.5,944.2,1118.8,944.9,1117.6,940.2C1116.8,937.3,1120.7,938.5,1121.9,939C1129.958148,942.342235,1138.786197,943.380829,1147.4,942C1144.2,945.5,1140.6,944.8,1137.9,946.1C1135.2,947.4,1132.5,946.9,1135.3,950.7C1136.1,951.7,1135.3,952.9,1134,952.9C1132.7,952.9,1128,953.4,1128.2,950.8C1128.4,948.2,1126.2,948,1124.7,947.9C1117.7,947.2,1113.8,950.4,1112.1,957.9C1111.6,960.1,1109.5,960.7,1107.4,960.4C1097.2,959,1086.9,960,1076.3,957.7C1078.8,956,1080.7,954.2,1084,955.2C1087.3,956.2,1089.3,956.5,1090.6,953.1C1091.9,949.7,1092,948.2,1090,946.3C1088,944.4,1084.9,943.1,1081.6,944.8C1078.3,946.5,1074.5,950.6,1069.5,950.9C1068.4,951,1067,951.8,1066.4,951.3C1064.1,949.7,1062.6,946.6,1058.7,948.9C1053.2,952,1047.1,954.3,1044.7,960.9C1043.5,964.1,1042.9,964.7,1039.4,962.9C1032.8,959.4,1024.8,961,1017.8,958.4C1017,958.1,1016,958.5,1015.2,958.2C1014.4,957.9,1011.6,954,1008.3,957C1005,960,1002.3,965.2,1001.1,969.9C999.9,974.6,1004.9,972.5,1006.9,973.4C1008.9,974.3,1013.6,973.8,1014,970.3C1014.4,966.8,1016.3,967,1017.8,967.7C1023.7,970.4,1029.9,970.6,1036.3,969.6L1036.6,971.2C1034.4,972.3,1032.2,973.3,1030.1,974.5C1028,975.7,1026.4,975.5,1027.5,978.1C1028.6,980.7,1027.9,981.1,1026.3,981.1C1024.7,981.1,1022.5,981.3,1022,979.1C1020.5,972.8,1016.2,976.3,1014.2,977.6C1012.2,978.9,1006.7,979.9,1010.6,984.8C1011.9,986.5,1010.2,988.7,1006.7,988.5C999.3,988.1,992,987.1,984.4,986.3C985.3,983.7,987.1,983.2,988.7,983.6C990.3,984,993.1,983.2,993.7,980.8C994.3,978.4,994.7,975.9,992.8,974C990.9,972.1,988.7,973.5,986.8,974.4C985.242681,975.237895,983.739704,976.173081,982.3,977.2C978.8,979.6,975.4,981,972.7,976.2C971,977.6,973.6,980.8,971.4,980C961.1,976.6,962,985.5,958.7,990.4C962.1,991.8,964.7,988.6,967.9,990.5C966.7,993.2,966.2,996.6,962.3,996.9C959.9,997.1,958.1,997.5,959.2,1000.1C960.3,1002.7,962,1003.7,964.6,1002.6C965.5,1002.2,966.3,1001.3,967.3,1000.8C968.3,1000.3,968,992,974.5,996.7C976.7,998.3,980.4,996.7,984,998.5C989.5,1001.1,982.6,1002.6,984.9,1004.2C987.2,1005.8,987.9,1003.4,989,1002C991.7,998.5,993.9,997.9,998,1001C1002.1,1004.1,1005.6,998,1005.9,996.5C1006.7,991,1009.1,993.3,1011.8,994.2C1014.5,995.1,1017.1,999.5,1020.3,994.2C1021,993,1023.3,995,1024.6,996.2C1025.9,997.4,1028.8,1000.7,1031.2,1002.5C1033.6,1004.3,1036,1005.4,1037.3,1001.3C1038.6,997.2,1043.9,994.8,1045.7,998.1C1049.2,1004.2,1054.4,1000.3,1058.5,1001.8C1059.1,1002.9,1061.9,1001.8,1061,1004.4C1059.4,1009.5,1064.7,1005.5,1065.5,1009C1065.6,1009.5,1061.4,1010.5,1063.4,1011.6C1067.5,1013.8,1071.4,1011.4,1074.9,1008.9C1074.4,1006.5,1071.2,1009.6,1071.2,1007.2C1071.2,1004.8,1073.1,1004.9,1074.5,1004.2C1081.6,1000.7,1094.3,1003,1100.7,1009.2C1104.7,1013,1108.7,1015.3,1114,1012C1114.7,1011.5,1115.6,1010.7,1115.6,1010C1115.6,1009.3,1114.4,1008.5,1113.3,1008.4C1110.6,1008.2,1107.4,1008.7,1107.1,1003.9C1111.9,1006.1,1116.3,1006,1121.1,1004.9C1125.9,1003.8,1128.7,1003.1,1132.1,1006.6C1135.5,1010.1,1135.7,1005.5,1136.4,1004.3L1136.9,1008.4C1136.270381,1009.397543,1135.702645,1010.432827,1135.2,1011.5C1141.222608,1011.193332,1147.070162,1009.370271,1152.2,1006.2C1153.7,1005.2,1155.6,1003.4,1157.4,1005.6C1160.8,1010,1165,1010,1169.8,1008.5C1171.510187,1008.099399,1173.289813,1008.099399,1175,1008.5C1181.3,1009.8,1187.1,1009.1,1193.5,1007.6C1199.9,1006.1,1209.2,1007,1217,1007.6C1224.8,1008.2,1230.9,1008.5,1237.9,1007.6C1241.7,1007.1,1245.1,1006.2,1249.1,1009.9C1253.1,1013.6,1258.5,1010.3,1263.4,1010.7C1284.7,1012.6,1306.1,1013.6,1327.4,1015C1338.1,1015.8,1348.7,1016.8,1359.4,1017.7C1360.7,1017.8,1362.1,1017.7,1362.7,1019.7C1357.5,1020.3,1352.4,1021.1,1347.3,1021.3C1321.9,1022.4,1296.6,1022.8,1271.3,1024.5C1262.9,1025.1,1254.3,1026.1,1246.1,1026.8C1237.9,1027.5,1232,1030.4,1224.6,1029.2C1215.5,1027.7,1206.2,1029.4,1197.3,1028.7C1188.4,1028,1177.7,1032.6,1168.1,1028.1C1167,1027.6,1165.2,1027.7,1164.5,1026.9C1162,1023.7,1160,1021.4,1157.7,1027.2C1157,1028.8,1154.5,1028,1152.8,1028.1L1125.3,1029.4C1123.569539,1029.657226,1121.863602,1030.058623,1120.2,1030.6C1116.1,1031.5,1112,1030.9,1107.8,1031.1C1103.6,1031.3,1102.2,1030.5,1100.5,1035.2C1098.8,1039.9,1092.9,1038.4,1089.4,1036.7C1085.9,1035,1080.6,1033.9,1076.1,1037.4C1073.9,1039.1,1071,1038.9,1071.2,1034.5C1068.7,1037.2,1066.2,1040,1062.6,1041.4C1060.7207,1042.009876,1059.262111,1043.505865,1058.7,1045.4C1057,1049.6,1053.4,1050.2,1049.9,1047.3C1046.4,1044.4,1040.5,1044.8,1039.4,1050.2C1038.3,1055.6,1036,1055.3,1031.6,1055.4C1025.1,1055.6,1018.6,1056.6,1012.2,1054.4C1010.7,1053.8,1008.2,1054.4,1008.5,1051.8C1008.8,1049.2,1010.5,1049.1,1012.3,1048.7C1014.1,1048.3,1014.5,1048.5,1015.6,1048.3C1018.2,1047.9,1018.6,1046.2,1018,1044C1017.4,1041.8,1015.8,1040.8,1013.5,1041.7C1011.2,1042.6,1010.6,1043.6,1009.1,1044.6C1005.6,1047.1,1001.9,1048.8,997.6,1046.1C994.9,1044.4,992.6,1045.7,991.1,1047C998.1,1051.3,1006.4,1052.8,1014.3,1055.3C1018.055905,1056.43629,1022.013776,1056.743367,1025.9,1056.2C1029.1,1055.7,1032.9,1053.2,1033.9,1059C1034.295792,1059.52695,1034.947917,1059.795472,1035.6,1059.7C1044.1,1055.3,1052.8,1061.3,1061.6,1058.9C1070.4,1056.5,1079.2,1055.7,1088.2,1057.9C1091.5,1058.8,1095,1059,1094,1063.9C1098.7,1069.9,1109.8,1069.2,1112.7,1062.5C1113.006382,1061.773709,1113.595218,1061.203432,1114.330946,1060.92046C1115.066674,1060.637488,1115.885893,1060.666205,1116.6,1061C1125.2,1063.6,1133.9,1065.8,1143.3,1063.1C1143.3,1063.8,1143.4,1064.6,1143.4,1065.3L1132.9,1068.8C1131.8,1069.2,1129.8,1069.2,1130.7,1071.1C1131.6,1073,1134.3,1073.2,1131.3,1074.9C1128.3,1076.6,1125.4,1075.2,1124.6,1073.8C1120.2,1065.7,1115.4,1071.2,1110.8,1072.9C1109.7,1073.4,1108.8,1074.5,1106.1,1076.7L1117.7,1076.7C1121.8,1076.7,1126.2,1075.6,1129.3,1079.6C1129.5,1079.9,1130.2,1080.3,1130.4,1080.2C1137.8,1075.2,1144.2,1085.3,1151.1,1081.3C1149.3,1078.8,1153,1073.6,1157.5,1073.6C1159.7,1073.7,1161.8,1074.4,1164,1073.7C1163.7,1070.9,1160.5,1071.4,1159.3,1069.4C1160.1,1067.5,1162.1,1066,1163.5,1067.2C1166.224285,1069.504419,1167.73643,1072.934406,1167.6,1076.5C1167.5,1079.3,1165.3,1079.1,1163.3,1079.3C1161.3,1079.5,1158.5,1078.5,1155.2,1081.4L1214.9,1087.3C1215.7,1087.9,1217,1088.2,1216.2,1089.7C1189.2,1091.4,1162.1,1092,1135.3,1095.4C1119.6,1097.3,1103.9,1097.9,1088.2,1098.3C1080.2,1098.5,1071.7,1101.3,1063.6,1097.7C1057.2,1096.8,1051.3,1099.8,1044.9,1100C1037,1100.3,1029.2,1101.3,1021.3,1100.8C1017.8,1100.6,1015.6,1101.9,1012.6,1104.4C1007.6,1108.4,1004.8,1112.3,1004,1118.5C1003.6,1121.6,995.4,1123.8,992.6,1122.2C991.982872,1121.945197,991.506922,1121.434803,991.295789,1120.801404C991.084656,1120.168005,991.159179,1119.474119,991.5,1118.9C992.3,1116.8,993.5,1115,995.8,1114.3C998.1,1113.6,995.8,1113.1,996,1113.9C996.2,1114.7,996,1114.1,995.7,1114.2C993.6,1114.6,991.6,1115,991,1112.2C990.4,1109.4,989.4,1109.8,987.6,1110.1C986.830186,1110.151251,986.112527,1110.507143,985.605809,1111.08893C985.099091,1111.670718,984.845088,1112.430439,984.9,1113.2C984.8,1115.7,985.6,1118.8,983,1120.4C980.4,1122,975.8,1122.1,972.2,1122.8C968.6,1123.5,969.1,1121.1,969.2,1118.9C969.3,1116.7,971,1115.8,972.6,1113.8C969.4,1114.7,967.9,1116.2,968,1118.7C968.2,1123.3,965.2,1124.1,961.6,1124.3C957.671838,1124.563736,953.726431,1124.226522,949.9,1123.3C947.1,1122.6,943.2,1123.3,943,1118.9C942.8,1114.5,947.2,1116.4,949.4,1115.1C945.9,1112.8,941,1114.4,941.5,1117.7C942.6,1124,938.7,1124.1,934.6,1124.3C930.5,1124.5,925,1122.5,921.7,1127.8C921,1128.9,919.2,1128,918,1127.4C913.9,1125.3,909.3,1124.6,905,1123C900.7,1121.4,899.2,1122,898.5,1126.3C898.138147,1129.60303,896.041524,1132.462062,893,1133.8C899.4,1132.2,901.2,1137,903.8,1140.5C906.5,1140.1,906.1,1135.9,909.3,1136.5C912.5,1137.1,913.2,1139,914.8,1140.8C916.4,1142.6,920,1141.9,921.7,1144.4C923.4,1146.9,923.9,1147,924.8,1148.4C925.7,1149.8,925.8,1150.4,927.2,1150C928.6,1149.6,927.4,1148.1,927.6,1147.2C928.028512,1145.278557,929.268708,1143.63712,931,1142.7C933.379626,1141.490996,936.12266,1141.206006,938.7,1141.9C941.215453,1142.728489,943.484118,1144.172185,945.3,1146.1C947.1,1147.9,948.2,1150.4,951.6,1151.8C951,1149.2,948.2,1147.7,949.2,1145.7C950.2,1143.7,953.1,1144.7,955.2,1144.4C960.4,1143.5,965.6,1142.4,968.6,1148.9C969.3,1150.5,971.7,1149.4,972.6,1148.4C976.7,1143.7,980.8,1144.6,986,1147C990.899178,1149.098011,996.422829,1149.205615,1001.4,1147.3C1004,1146.3,1006.9,1145.3,1009.4,1147.7C1012.5,1147.7,1015.6,1148,1018.6,1147.7C1029,1146.6,1038.6,1149.8,1048.5,1151.8C1056.6,1153.5,1065,1153.4,1073.2,1154.3C1085.570962,1155.549374,1097.858503,1157.519387,1110,1160.2C1105.7,1160.8,1101.4,1161.7,1097.1,1162C1079.1,1163.4,1061,1164.3,1043,1166.2C1037.590103,1166.773675,1032.215474,1167.641628,1026.9,1168.8C1019.7,1170.5,1012.3,1168,1004.9,1169.4C1003.1,1169.7,1000.8,1169.5,998.7,1169.8C994.3,1170.5,989.7,1170.9,986.1,1167.8C982.5,1164.7,982.3,1167.1,980.7,1168.6C972,1173.2,962.5,1171.4,953.3,1171.7C950.5,1171.8,947.4,1170.9,946.6,1175C946.4,1175.7,945.6,1176.3,945.1,1176.2C939,1174.6,933.2,1178.4,927.1,1176.8C925.1,1176.2,922.5,1175,920.3,1177.5C918.1,1180,917,1178.3,915.2,1178.2C904.3,1177.6,893.4,1177.4,882.7,1175C877.5,1173.8,871.6,1172.7,870.5,1165.8C870.2,1166.2,869.8,1166.7,870,1167C871.8,1170.6,866.3,1175.5,869.9,1177.1C873.5,1178.7,875,1182.1,878.6,1184.3C880.1,1179.2,883.1,1179.6,886.4,1182.2C889.7,1184.8,894,1183.6,897.8,1184.4C899.4,1184.7,903.8,1183.8,900.9,1188.2C899.3,1189.9,894.5,1189.6,897.7,1194.4C899.5,1192.6,897.8,1188.9,901,1188.2C910.3,1181.5,914.4,1189.9,920.4,1196.1C917.2,1188.7,917.4,1188.4,923.8,1188.5C928.3,1188.5,932.9,1187.2,935.9,1192.6C936.9,1194.5,938.9,1192.5,940.4,1191.7C941.9,1190.9,944.8,1187.7,948,1189.9C948.2,1193.5,950.7,1193.8,953.6,1193.7C966.5,1193.3,979.3,1192.3,992.2,1192C996.6,1191.9,998.8,1194.9,1002.8,1195.3C1023.1,1197.3,1043.4,1200.2,1063.6,1203.3C1054.4,1206.1,1044.9,1205.7,1035.5,1206.8C1026.1,1207.9,1013.5,1207.6,1003,1210.2C993.204283,1212.51993,983.166498,1213.661351,973.1,1213.6C968.8,1213.5,964.5,1212.4,960.3,1214.5C959.2,1215.1,957.1,1214.7,955.9,1214C944.7,1207.5,934.7,1216.4,924.1,1216.6C923.2,1216.6,922.3,1218.4,921.3,1219.5C919.7,1218,921.9,1213.5,917.3,1214.8C912.7,1216.1,915.4,1218.2,915.4,1220.2C915.4,1222.2,915.9,1221.8,916,1222.7C916.1,1223.6,915.4,1226.2,913.4,1226.6C911.4,1227,910.4,1228.4,909.1,1227.1C907.8,1225.8,909.2,1224.3,909.9,1223C911.8,1219.4,908.3,1218.7,906.8,1216.7C904.3,1221,901.9,1224.4,896.6,1220.3C891.3,1216.2,892,1222.1,891.9,1223.7C891.8,1229.8,888.4,1229.7,884,1228.8C881.3,1228.3,878.4,1228.1,875.6,1227.7C874.9,1225,878.3,1224.6,879,1222.6C868.3,1220.2,867.6,1220.7,865,1232C864.2,1233.6,863.2,1234.6,861.3,1233.3C860.235339,1233.072992,859.196624,1232.737923,858.2,1232.3C855.6,1231.2,853.1,1228.7,850.5,1229.3C847.9,1229.9,848.4,1233.7,847.4,1236C846.4,1238.3,843,1238.8,841.5,1240.9L838.6,1242.2C833.2,1239,837.6,1233.4,835,1228.1C833.5,1231,834.2,1233.2,834.5,1235.2C834.8,1237.2,835.8,1241.2,833.5,1243.9C838,1247.7,843.6,1248.1,849.1,1248.9C862.4,1250.8,875.7,1252.9,888.9,1256.4C880.3,1257.4,871.7,1258.8,863,1259.4C849.898309,1260.094999,836.899645,1262.105101,824.2,1265.4C816.7,1267.3,808.9,1264.9,801.4,1266.9C800.732379,1266.906432,800.087869,1266.655789,799.6,1266.2C796.2,1263.2,793.1,1260.7,788.4,1264.8C783.7,1268.9,782,1271.2,781.9,1276.3C781.9,1276.6,781.4,1276.9,781.1,1277.3C778.5,1277.4,780.1,1272.5,776.9,1273.7C775.4,1274.2,774.7,1275.7,774.3,1277.3C772.3,1285.6,772.3,1285.6,763,1282.6C766.6,1279.9,767.2,1276.4,766.1,1272.4C757.7,1274.4,750.9,1277.8,752.6,1288.8C751,1288.2,750.1,1288.1,749.5,1287.6C746.9,1285.6,744.3,1282,741.4,1282.8C738.5,1283.6,739.7,1288.1,738.9,1290.9C738.1,1293.7,734.7,1294.5,733.5,1297.3C730.7,1289.5,736.2,1280.6,728.5,1273C728.5,1281.7,728.1,1289.7,728.7,1297.5C729,1302.3,733,1303.7,737.8,1301.6C738.6,1301.3,739,1300.8,740,1301.6C741,1302.4,745.6,1303.1,747.6,1301.2C751.1,1298,754.6,1293.8,760.4,1296.6C761.15089,1297.049586,762.033953,1297.226199,762.9,1297.1C770.2,1295.8,770.2,1295.8,775.1,1299.7C775.7,1294.9,780.2,1292.9,782.8,1289.6C785.4,1286.3,788.5,1289,791.2,1291.4C797.3,1297,804.2,1300.4,812.7,1297.4C817.4,1295.7,818.9,1299.1,820.3,1302.4C821,1304,822.7,1306.5,823.7,1304.4C827.2,1297,831.2,1302.7,836,1303.2C832.3,1306,830.9,1309.2,831.7,1313C828.6,1312.9,830.1,1308.1,826.8,1309.3C825.400355,1309.955761,824.423608,1311.270612,824.2,1312.8C822.2,1321.1,822.1,1321.1,812.9,1318.1C815.6,1315.5,818.6,1313,817.2,1308.8C816.968294,1307.755469,816.363933,1306.831152,815.5,1306.2C814.3,1305.6,813.9,1307.2,813.1,1307.8C812.3,1308.4,811,1314.7,807.8,1309.1L806.2,1310.1C803.1,1313.1,802.8,1318.3,805.4,1322.5C805.671462,1323.292821,805.598944,1324.163046,805.2,1324.9C804.7,1326.1,803.7,1326.1,802.6,1325.3C799.7,1323.2,796.8,1321.3,794.1,1319.1C791.4,1316.9,790.4,1317.2,789.9,1320.7C789.4,1324.2,787.8,1329.6,782.9,1333.1C780.6,1325.1,785.9,1316,778.3,1308.3C778.3,1317,778.1,1324.5,778.4,1332C778.6,1335.5,778.1,1337.4,774.3,1337.1C770.5,1336.8,769,1333.8,768.6,1330.1C767.4,1333.2,765.7,1336,769.1,1338.4C767.2,1340.7,767.8,1346.2,764.8,1345.5C761.8,1344.8,762.9,1339.1,761.2,1335.9C761.4,1327.9,764.2,1320.3,765.1,1313.3C763,1319.7,763.7,1327.6,759.7,1334.4C757,1330.8,759.6,1326.4,757.8,1321.8C756.4,1326.7,755.4,1330.9,754.1,1335C753.8,1336.1,753.5,1337.7,752,1338C750.5,1338.3,749.8,1337,749.4,1335.7C749,1334.4,747.6,1333.3,744.9,1333.3C742.2,1333.3,743.2,1335.6,742.7,1336.7C742.2,1337.8,742.6,1339.2,741.2,1339.1C739.8,1339,739.4,1337.6,739.8,1336.2C741.421583,1330.47597,741.72924,1324.459583,740.7,1318.6C737.9,1321.3,738.4,1324.4,737.8,1326.8C736,1334.4,731.5,1336.4,725.1,1332.1C722.5,1330.4,723.2,1333.1,722.8,1334.2C717.8,1335.7,722.9,1337.1,722.9,1338.5C722.9,1339.9,721.5,1343.8,717.9,1343.1C716.6,1342.9,716.1,1343.7,715.3,1344.5C711.8,1348.2,711.8,1348.1,705.6,1347.3C707.1,1345.8,709.9,1344.4,708,1342.4C706.1,1340.4,703.6,1343.4,701.1,1343.5C698.6,1343.6,697.3,1347.7,698.5,1351C696.1,1351.5,694.8,1349.5,693,1349.1C691.2,1348.7,689.1,1346.1,688.1,1348.8C687.1,1351.5,690.3,1352,691.9,1352.4C702.4,1354.6,712.8,1358.9,723.2,1351.1C724.2,1350.3,731.2,1350.2,734.8,1352.2C738.4,1354.2,739.4,1353.2,741.5,1351C743.6,1348.8,748.7,1347.2,752.7,1350C756.7,1352.8,761.2,1353.2,765.9,1353C770.6,1352.8,772.4,1352.2,774.9,1355.4C777.4,1358.6,777.8,1355.4,779.2,1354.7C780.6,1354,784.3,1354.2,785,1356.2C785.7,1358.2,783.2,1359,781.1,1359.6C777.1,1360.7,774.7,1367.3,769.2,1362.7C770.3,1361.6,773.2,1360.1,771,1358.2C768.8,1356.3,766.5,1360,763.5,1359.4C762.5,1359.2,760,1362,761.2,1364.5C761.5,1365.2,763.5,1365.1,762.3,1366.6C761.1,1368.1,760.4,1367.4,759.3,1367C758.68807,1366.763338,758.140095,1366.386605,757.7,1365.9C753,1362,749.9,1363.4,747.8,1368.7C747.410134,1369.441446,746.864284,1370.089643,746.2,1370.6C742.3,1367.5,745.8,1362.3,741.3,1358C741.3,1362.3,741.2,1365.2,741.4,1368.1C741.6,1371,739.8,1373.1,736.3,1372.5C734,1369.9,732,1372.3,729.8,1372.8C728.5,1371.5,728.7,1370.1,729.5,1368.6C730.3,1365.1,731.2,1361.6,732.4,1356.5C728,1361.2,728.6,1366.1,726.5,1370C724.7,1371.2,726.1,1363.4,723.3,1368.6C721.5,1372,720.7,1374.6,716.5,1371.5C715.5,1370.8,714,1371.8,713,1372.7C712,1373.6,709.6,1373.5,708.6,1371.4C711.2,1369.9,710.3,1367.4,710.6,1364.9C709.8,1366.9,711.9,1369.7,708.4,1370.1C704.9,1370.5,701.8,1372.5,697.9,1370.3C694,1368.1,693.3,1375,689.5,1373.4C688.3,1370.5,693,1369.9,691.5,1366.9C689.2,1366.3,689,1368.6,688.1,1369.8C684.2,1375.4,683.6,1375.4,679.7,1369C676.8,1370.4,675.6,1377.6,670.5,1372.2C669.8,1371.5,669.2,1372.9,668.5,1373.3C662,1377.7,656.8,1377.4,648.1,1374.7C645,1373.8,640.4,1374.8,637.3,1377.9C636,1379.3,633.9,1381.6,632.7,1377.6C631.5,1373.6,629.6,1377.1,628.3,1376.1C626.4,1379.8,623.2,1376.2,621.5,1377C615.2,1380.2,610.4,1374.2,604.7,1375.1C605.2,1372.2,604.9,1372,604.5,1372.4C602.4,1374.7,599.4,1372.3,598,1373C591.7,1376.5,586.1,1372.6,580.5,1371.5C574.393484,1370.135161,568.217867,1369.100328,562,1368.4C552.2,1367.5,542.2,1369.4,532.2,1367.4C524.8,1365.9,517.3,1364.5,509.9,1362.3L523.8,1360.7C525.4,1360.5,527.1,1360.4,526.7,1358.2C526.3,1356,525.3,1356.7,523.6,1357.4C521.9,1358.1,518.4,1356.7,516.2,1355.6C506.4,1351,496,1352.9,485.9,1352.9C472.1,1353.1,458.8,1349.3,445.3,1346.9C461.7,1345.8,477.7,1341.5,494.4,1342.7C501.9,1343.2,509.9,1341.1,517.3,1339.6C524.7,1338.1,528.4,1340.1,533.8,1340.6C536.8,1340.8,539.3,1341.5,541.1,1338.2C542.1,1336.4,544.1,1335.2,546.1,1336.3C554.9,1341.1,564.5,1335.3,573.5,1338.5C575.4,1339.1,577.8,1338.5,580.5,1335.7L573.2,1335.7C571.8,1332.9,576.9,1332.5,575.3,1329.7C574.4,1334.2,571.6,1334.7,567.8,1333.1L563.4,1323.6C558,1325.9,564,1328.5,562.9,1331.4C559.9,1331.5,556.3,1333.8,555.5,1327.8C555.1,1324.9,553,1325.7,552,1327.5C550.1,1331.2,548.5,1330.6,545.5,1328.4C542.5,1326.2,540.2,1327.4,537.9,1328.2C530.3,1330.8,523.3,1331.4,516.3,1326.5C511.3,1323.1,504.9,1324.9,499.3,1322.7C493.7,1320.5,489.5,1319.5,484.6,1316.5C494.1,1315.1,503.6,1314,512.9,1312C520.6,1310.4,527.9,1307.3,536.1,1307.9C539.6,1308.2,539.6,1305.7,536,1298.6C534.7,1298.7,535,1299.7,534.9,1300.5C534.8,1301.3,534.7,1302.2,534.6,1304.1C531.3,1299.8,526.5,1301.2,523,1298.9C524.6,1297.4,526.7,1295.9,524.9,1292.6C525.650591,1294.920982,524.895465,1297.464566,523,1299C518.3,1299.3,516.6,1296,515.3,1292.4C514.7,1290.8,514.5,1288.1,512.2,1289.2C509.9,1290.3,512.1,1292.1,512.8,1293.6C513.037238,1294.247013,513.204851,1294.917465,513.3,1295.6C508.1,1297.5,505.3,1296.3,505.5,1290.7C503.8,1289.9,503,1290.8,502.4,1291.7C500.7,1294.4,499.6,1296.7,495.9,1293.1C494.3,1291.5,490.5,1292,487.3,1292.7C481,1294.1,474.9,1294.9,468,1291.7C459.671086,1287.941481,450.637684,1285.998447,441.5,1286C433,1286,426.5,1282.4,420.2,1277.5C419.2,1276.7,417.8,1274.8,417.1,1275.6C412.7,1280.7,409.8,1275.7,406.3,1274.4C402.8,1273.1,399,1274.3,395.4,1275.5C389.8,1277.2,384.9,1277.5,383.3,1270.1C382.8,1267.8,380.8,1267.1,378.6,1267.5C376.4,1267.9,374.6,1268.5,374.7,1271.1C374.8,1273.7,374.8,1275,372.8,1273.5C369.2,1270.8,364.8,1272,360.4,1270.2C362.8,1267.2,367.4,1266.4,367,1261.8C366.9,1260.8,369,1260.5,369.6,1261.5C370.2,1262.5,371.5,1265.5,374.3,1263.5C377.1,1261.5,379.1,1260.2,377.7,1256.6C376.3,1253,378.6,1252.9,380.7,1253.1C385.4,1253.5,390,1254.3,396.6,1255.2C391.1,1257.4,386,1258.2,387.7,1264.2C388.6,1267.3,390,1269.7,393.5,1266.2C397,1262.7,397.5,1259.7,401.7,1264.2C402.8,1265.3,404.3,1263.2,405.3,1262.1C408.6,1258.7,409.8,1254.2,410.5,1249.1L424.9,1255.5C425.9,1256,427.5,1257,427.6,1255.7C428.2,1249.1,433.7,1245.3,436.2,1239.8C437.6,1238.8,438.7,1239.3,439.8,1240.3C441.9,1243,441.8,1246,441.2,1249C440.3,1253.6,441.4,1257.6,444.7,1262C445.168903,1255.673978,445.135465,1249.320735,444.6,1243C444.6,1242.2,444.3,1243.1,444.6,1242.4C446,1239.4,442.1,1233.5,446.5,1233.8C450.9,1234.1,453.9,1232.6,457.2,1235.7C460.5,1238.8,459.9,1240.5,460.4,1244C462.8,1241.9,463.1,1239.3,463.9,1237C463.7,1237,463.5,1236.8,463.3,1236.9C456.5,1239.2,460.9,1232,458,1230.6C455.1,1229.2,450.1,1230.7,452.5,1224.5C453.6,1221.5,451.2,1219.2,448.7,1217.9C446.2,1216.6,444.9,1218.9,444,1221C443.1,1223.1,441.8,1223.8,439.8,1223.2C435.4,1221.8,430.8,1221.2,426.4,1219.9C424.8,1219.4,423.3,1218.2,424.8,1216.6C429.2,1211.8,422.9,1210.8,421.6,1208.6C420.3,1206.4,417.1,1208.8,417.2,1212.1C417.422711,1214.290663,416.776328,1216.481184,415.4,1218.2C414.2,1219.5,412.9,1220.9,410.9,1219.8C408.9,1218.7,409.5,1217.3,410.1,1215.4C411.8,1209.7,410.1,1207,404.8,1206.1C403.6,1205.8,402,1206.2,401.6,1204.6C401.2,1203,403.4,1202.5,404.2,1201.3C405,1200.1,405.7,1198.8,404.6,1197.3C404.2,1198.8,404.7,1200.6,403.5,1201.8C395.8,1206,394.5,1205.5,385.6,1194.4C387,1198.2,387.5,1200.9,384,1201.5C380.5,1202.1,374.4,1202.8,372,1196.5C367.7,1200.5,363.6,1202,358.2,1198.8C355.066639,1197.061697,351.267165,1197.024078,348.1,1198.7C320.3,1198.4,293.5,1190.8,266.1,1187C278,1183.7,290,1182.8,302,1181.9C307,1181.6,311.9,1181.6,316.5,1179.3C321.1,1177,328.5,1175.7,334.7,1175.1C340.9,1174.5,347,1175.9,353,1174.3C353.642087,1174.043983,354.357913,1174.043983,355,1174.3C364.8,1181.2,374.2,1170.6,384.1,1173.5C387.3,1174.4,388,1170.1,388.1,1167.2C388.4,1159.3,390.4,1157.2,398,1157.1C399.5,1157,401.2,1156.9,402,1158.5C402.8,1160.1,401.7,1161.1,400.9,1162.1C400.1,1163.1,398,1166.6,394.9,1166.7C399.4,1172.1,406.9,1171.7,409.9,1165.6C411.8,1161.9,413.6,1162,416.6,1164C421.4,1167.1,424.1,1166,424.9,1160.3C425.7,1154.6,428.7,1155.2,432,1155.4C437,1155.8,442,1156.8,447.1,1156.8C448.5,1156.8,450.4,1157,450.7,1158.9C451,1160.8,449.4,1161.5,448.1,1162.3C446.8,1163.1,441.8,1162.4,442.2,1167C442.189877,1168.130371,442.86045,1169.155953,443.9,1169.6C447.4,1170.5,448.8,1167.3,450.9,1165.6C453,1163.9,455.3,1161.8,458.5,1163.1C463.8,1165.2,466.3,1162.4,468,1157.4C466.3,1156,462.5,1156.8,462.3,1153.5C462.1,1150.2,464,1150.6,466.5,1148.9C466.1,1149.2,464.5,1148.8,465.2,1149.3C465.9,1149.8,465.4,1149.6,465,1149.8C459.5,1153.2,450.4,1152.8,445.5,1148.9C445.4,1148.8,445.1,1148.6,445.1,1148.4C443.8,1139.3,440.4,1143.7,436.7,1146.8C433,1149.9,430.6,1149.8,427.7,1147.2C424.8,1144.6,428.1,1142,428.7,1139.1C426,1142.4,422.8,1144.4,418.6,1144.2C417.5,1144.1,416.1,1144.5,415.4,1143.7C413,1140.8,411.1,1140.5,406.9,1141.1C402.7,1141.7,399.6,1141.5,398.3,1146.1C397.896678,1146.971131,396.931304,1147.432832,396,1147.2C391.3,1144.9,384.9,1147.3,381.4,1141.5C380.6,1140.1,379.6,1137.7,377,1140.4C372.4,1145.2,370.5,1144.8,366.1,1138.7C364.1,1136.5,360.3,1137.9,358.5,1135.2C356.7,1132.5,354.1,1132,351.5,1130.5C350.2,1132.1,351.4,1134.5,349.7,1135.7C344.1,1139.5,337.4,1139,331.8,1134.3C329.8,1132.6,328.2,1130.5,325.7,1129.4C325.172414,1129.033267,324.495221,1128.958024,323.9,1129.2C326.9,1135.7,326.7,1135.9,319.2,1135.4C316.6,1135.2,314.1,1136.1,311.4,1136.1C308.7,1136.1,306.1,1136.2,305.2,1133.5C303.5,1128.4,300.3,1130,297.6,1131.8C293,1134.8,289.3,1134.6,283.9,1132.9C278.5,1131.2,271.1,1130.2,264.6,1132.4C261.2,1133.6,257.8,1134,254.6,1131.9C252.634607,1131.799906,250.665393,1131.799906,248.7,1131.9C235.7,1132.7,223,1130.6,210.3,1128.2C197.6,1125.8,181.7,1126.3,167.5,1124.1C158.5,1122.8,149.4,1122.2,140.3,1121.2C139.5,1120.6,138.2,1120.3,139,1118.9C164,1117.7,188.9,1114.5,213.9,1114.5C216.106302,1114.581084,218.300183,1114.135452,220.3,1113.2C223.3,1111.6,225.9,1110.1,229.1,1112.8C230.1,1113.6,230.8,1112,231,1110.9C233.1,1108.6,235.8,1109.2,238.4,1109.1C249.4,1109,260.5,1109.2,271.6,1108C273.099649,1107.692976,274.654378,1107.796624,276.1,1108.3C282.8,1111.7,289.5,1110.9,296.5,1109.1C306.2,1106.6,316.4,1108.5,326.5,1107.4C321.9,1100,318.5,1098.6,312.8,1101.9C312.183928,1102.085665,311.532158,1102.119969,310.9,1102C306.7,1099.1,302.8,1096,298.2,1102.1C296.7,1104.1,293.2,1103.2,291.9,1100.1C290.6,1097,291.5,1095.6,294.5,1094.5C297.5,1093.4,299.6,1093.6,302.6,1092.6C299.6,1092.1,302,1086.7,297.6,1088.2C296.9,1088.4,293.6,1087.4,296.5,1090.3C299.4,1093.2,295.9,1093.6,294,1094.6C286.2,1099,274.1,1097.6,266.4,1091.2C263.6,1088.9,261.1,1085.9,256.8,1086.8C256.3,1087.8,257.1,1087.9,257.7,1088.1C260.2,1088.8,263.6,1089.2,262.9,1092.7C262.2,1096.2,258.7,1095.5,255.9,1094.7C253.1,1093.9,248.5,1094.6,244.8,1095.1C241.1,1095.6,235,1095.8,232.8,1089.9C231.9,1087.4,230.4,1088.4,228.6,1088.6C223.3,1089.3,218.8,1092.1,213.8,1093.7L203.6,1092.3C204.5,1089.3,201.6,1090.7,200.7,1089.8C195.5,1089.8,190.3,1089.9,185.1,1088.7C182.2,1088,179,1087.8,176.3,1089.9C173.6,1092,172.1,1091,169.9,1091.1C154.9,1091.5,139.8,1088.4,124.8,1091C122.4,1091.4,120,1091.3,118.5,1088.7C117,1086.1,115.9,1087.3,114.3,1087.2C85.9,1086.4,57.4,1085,29.1,1082.2C21.9,1081.4,14.7,1081.1,7.5,1080.6C5.2,1080.4,2.7,1080.7,0,1078.4C7.3,1077.5,13.9,1077.3,20.4,1076.9C47.7,1075.6,75.1,1075,102.4,1073.8C108.4,1073.6,114.6,1074,120.1,1070.5C120.907479,1070.110672,121.812838,1069.971386,122.7,1070.1C134.8,1071.4,146.8,1069.5,158.9,1069.8C169.4,1070.1,179.8,1069.1,190.2,1068.7C192.242065,1066.878934,195.215921,1066.557436,197.6,1067.9C202.8,1070.2,207.5,1069.6,213,1068.8C220.766839,1067.514039,228.627451,1066.878501,236.5,1066.9C245.7,1067,254.9,1066.5,264.1,1066.8C264.9,1066.5,266.2,1066.7,265.5,1065.1L263.9,1063.4C261,1061.1,257.3,1063.1,254.1,1061.8C252.493674,1061.431064,250.847737,1061.263111,249.2,1061.3C243.2,1061.2,237.2,1061.7,231.3,1060.9C217.7,1058.7,204,1058.1,190.4,1056.3C186.724991,1055.884826,183.083009,1055.216572,179.5,1054.3L175.9,1052.9C175.077823,1052.244976,174.903051,1051.065265,175.5,1050.2L175.9,1050.4C184.3,1047.1,193.1,1048.1,201.7,1047.1C223.2,1044.7,244.9,1045.4,266.4,1042C279,1039.9,292,1041.5,304.9,1040.3C311.5,1041.7,318.5,1037.4,324.8,1040.3C331.1,1043.2,337.7,1044.4,344.4,1040.7C345.463843,1040.301136,346.636157,1040.301136,347.7,1040.7C348.5,1040.7,347.3,1039.3,347.7,1040.1C348.1,1040.9,347.5,1040.4,347.1,1040.4C344.910487,1040.485088,342.749192,1040.924101,340.7,1041.7C337.8,1042.9,333.8,1046.2,333.3,1039.3C333.3,1038.9,331.8,1038.3,331.7,1038.5C326.8,1044,321.7,1038.1,316.7,1038.6L299.1,1040.5C293.018121,1041.082904,286.901541,1041.2166,280.8,1040.9C277.366968,1040.249826,274.241139,1038.493743,271.9,1035.9C269.924139,1033.521343,266.992254,1032.145299,263.9,1032.145299C260.807746,1032.145299,257.875861,1033.521343,255.9,1035.9C253.8,1038.2,251.6,1039.3,249,1038.5C241.970776,1036.753994,234.741209,1035.946972,227.5,1036.1C225.6,1036.1,223.2,1036,222.8,1033.5C222.4,1031,225,1030.6,226.8,1029.9C228.6,1029.2,232.7,1028.3,234.2,1023.9C235.7,1019.5,240.5,1021.3,243.9,1023.6C250.6,1028.1,255.6,1026.4,258.1,1018.5C259.1,1015.7,261.3,1015,263.7,1014.7C273.8,1013.4,283.8,1015.7,293.9,1016.1C295.1,1016.1,296.6,1016.6,296.7,1018.2C296.8,1019.8,295.7,1020.6,294.6,1021.3C292.712436,1022.450101,290.497013,1022.942417,288.3,1022.7C285.8,1022.7,283.8,1023.5,284.3,1026.5C284.8,1029.5,286.9,1029.8,289.2,1029.7C291.410629,1029.45689,293.516371,1028.628401,295.3,1027.3C300.3,1023.8,305.4,1022.8,311.4,1025.2C317.4,1027.6,325.3,1022.8,328.3,1015.7C331.3,1008.6,333.7,1010.1,338.4,1011.9C347.1,1015.1,356.7,1014.2,365.3,1017.6C367.5,1018.5,369.2,1016.7,370.1,1014.9C372.5,1009.6,375.2,1006.1,382.3,1005.4C386.2,1005.1,390.3,1002.4,395,1002.5C399.7,1002.6,398.6,1004.1,398.2,1006.5C397.712432,1008.859368,397.009487,1011.169042,396.1,1013.4C395.4,1015.3,395,1017.2,395.9,1019.1C396.8,1021,405.2,1027.4,406.3,1026.5C409.3,1024,408.1,1020.4,408.1,1017.3C408,1009.6,407.4,1001.9,401.4,996.5C402.8,999.9,402.6,1001.1,399.9,1001C395.291854,1001.099681,390.682106,1000.899257,386.1,1000.4C385.4,1000.3,384.6,1000.2,384.3,999.7C379.9,991.4,375.3,996.9,370.7,999.5C369.2,1000.3,367.6,1001.2,365.8,1000.3C356.4,996,346.9,996.5,337.1,999C332.5,1000.2,327.5,998.8,322.8,999C308.5,999.3,294.8,995.1,280.8,994.4C261.7,993.5,242.9,990.9,224,988.9C220.8,988.5,217.3,988.4,214.8,984.8C219.9,981.8,225.5,982,230.7,981.6C251.4,980,272.2,979.2,292.9,977.2C299.378002,976.670329,305.800375,975.599934,312.1,974C318.6,973.9,325,975.2,331.5,974.6C338,974,341.5,970.6,347.2,970.8C346.3,969.2,345.4,968.1,344.7,966.8C344,965.5,341.4,966.2,339.7,966.8C342.6,973.8,335.3,972.1,332.9,974.6C327.8,973.6,322.5,976,317.5,973.8C312.5,971.6,309.5,965,302.7,964.6C303.1,967.3,306,967.3,306.5,969.2C307,971.1,306.5,973.9,304,973.1C297.8,971.2,291.8,973.7,285.8,973C283.6,972.7,280.8,972.9,280.2,970.4C279,964.8,275.5,966.6,272.2,967.5C271.340005,967.665611,270.523152,968.005966,269.8,968.5C264.2,973.7,258.4,972.8,252.5,969.4C242.8,969.6,233.1,968.2,223.5,970.5C207.843291,971.467231,192.137979,971.333569,176.5,970.1C168.311916,969.402052,160.166973,968.267101,152.1,966.7C141.6,964.9,130.8,966.6,120.3,964.9C118.6,962.3,116.1,962.3,113.4,962.1C96,960.9,78.6,959.5,61.2,957.4C77.8,954.7,94.8,955.2,112.1,952.8C113.300873,953.025739,114.542881,952.812824,115.6,952.2Z" transform="translate(-681.350401,-823.069824)" fill="rgb(157,216,233)" stroke="none" stroke-width="1"/></g><g id="elYTnR8brBA19_ts" transform="translate(791.699982,712.478668) scale(0,0)"><path id="elYTnR8brBA19" d="M792.6,669C792.4,684.7,802,705.3,824.5,708.1C801.5,717.2,795.3,736.6,791.3,758.7C784.3,727.4,783.6,726.3,758.9,707.5C769.9,707.1,777.3,701.2,782.9,693.2C788.5,685.2,790.2,676,790.1,666.4C792.7,665.6,791.5,668.4,792.6,669Z" transform="translate(-791.699982,-712.478668)" fill="rgb(157,216,233)" stroke="none" stroke-width="1"/></g><g id="elYTnR8brBA20_ts" transform="translate(629.700012,555.050018) scale(0,0)"><path id="elYTnR8brBA20" d="M596,551.2C616.4,548.8,626.6,534.8,628.7,508.2C631.2,510.2,630.6,512.8,630.9,515.2C632.4,530,638.3,542,652.4,548.9C655.3,550.3,658.3,550.4,663.4,551.2C638.9,560.5,633.1,580.5,629.2,601.9C628.2,591.3,624.7,581.8,620.3,572.4C615.9,563,607.2,556.4,596,551.2Z" transform="translate(-629.700012,-555.050018)" fill="rgb(157,216,233)" stroke="none" stroke-width="1"/></g><g id="elYTnR8brBA21_ts" transform="translate(572.399963,457.699997) scale(0,0)"><path id="elYTnR8brBA21" d="M538.3,453.9C559.6,451.3,566.9,441.5,572.4,409.9C577.2,440.5,585.6,452,606.5,453.6C581.5,463.4,576.1,484,572.4,505.5C568.6,484.3,563.6,463.5,538.3,453.9Z" transform="translate(-572.399963,-457.699997)" fill="rgb(157,216,233)" stroke="none" stroke-width="1"/></g><path id="elYTnR8brBA22" d="M142.2,361.4C28.069385,537.179885,15.366799,760.197756,108.8,947.8L112.7,955.8L113.8,958.2" fill="none" stroke="rgb(157,216,233)" stroke-width="12" stroke-miterlimit="10" stroke-dashoffset="626.12" stroke-dasharray="626.12"/><path id="elYTnR8brBA23" d="M1137.3,366.4C1263.01552,564.448891,1259.956409,818.041336,1129.5,1013" transform="matrix(1.016092 0.022081 0.022081 -1.016092 -34.21019 1364.453656)" fill="none" stroke="rgb(157,216,233)" stroke-width="12" stroke-miterlimit="10" stroke-dashoffset="684.08" stroke-dasharray="684.08"/></g></g></svg>