<svg id="eVvQ5qCzTiu1" xmlns="http://www.w3.org/2000/svg" xmlns:xlink="http://www.w3.org/1999/xlink" viewBox="0 0 624.7 675" shape-rendering="geometricPrecision" text-rendering="geometricPrecision"><style><![CDATA[#eVvQ5qCzTiu6 {animation: eVvQ5qCzTiu6_c_o 4000ms linear infinite normal forwards}@keyframes eVvQ5qCzTiu6_c_o { 0% {opacity: 1} 12.5% {opacity: 0} 87.5% {opacity: 0} 100% {opacity: 1}} #eVvQ5qCzTiu7 {animation: eVvQ5qCzTiu7_c_o 4000ms linear infinite normal forwards}@keyframes eVvQ5qCzTiu7_c_o { 0% {opacity: 0} 12.5% {opacity: 0} 25% {opacity: 1} 37.5% {opacity: 0} 100% {opacity: 0}} #eVvQ5qCzTiu8 {animation: eVvQ5qCzTiu8_c_o 4000ms linear infinite normal forwards}@keyframes eVvQ5qCzTiu8_c_o { 0% {opacity: 0} 37.5% {opacity: 0} 50% {opacity: 1} 62.5% {opacity: 0} 100% {opacity: 0}} #eVvQ5qCzTiu9 {animation: eVvQ5qCzTiu9_c_o 4000ms linear infinite normal forwards}@keyframes eVvQ5qCzTiu9_c_o { 0% {opacity: 0} 62.5% {opacity: 0} 75% {opacity: 1} 87.5% {opacity: 0} 100% {opacity: 0}}]]></style><defs><path id="eVvQ5qCzTiu2" d="M61.6,290.1L63,281.4C63.3,279.4,64.1,277.4,65.2,275.7C66.3,274.2,67.8,273.1,69.5,272.4C71.3,271.7,73.3,271.5,75.2,271.8C77.1,272.1,78.9,272.9,80.3,274.1C81.8,275.3,82.8,276.8,83.4,278.6C84,280.6,84.1,282.7,83.7,284.7L82.3,293.4L61.6,290.1ZM81.1,284.4C81.4,282.9,81.3,281.4,80.9,279.9C80.5,278.6,79.7,277.4,78.6,276.5C77.5,275.6,76.1,275,74.7,274.8C73.3,274.5,71.8,274.7,70.4,275.2C69.1,275.7,68,276.6,67.2,277.7C66.3,279,65.7,280.5,65.5,282L64.7,287.5L80.2,290L81.1,284.4ZM88.3,252.6L90.8,253.3L86.9,268L66.6,262.6L70.4,248.3L73,249L69.9,260.4L76.1,262L78.9,251.9L81.3,252.5L78.6,262.7L85.2,264.5L88.3,252.6ZM92.8,246C92,247.1,91,247.9,89.8,248.6L88,246.8C89,246.2,89.9,245.4,90.7,244.5C91.5,243.5,92.2,242.3,92.6,241.1C93.2,239.9,93.4,238.5,93.1,237.1C92.9,236.2,92.3,235.4,91.4,235.1C90.8,234.9,90.1,234.9,89.5,235.2C88.9,235.5,88.3,236,87.9,236.5L86.2,238.9C85.5,240,84.7,241.1,83.8,242.1C83.1,242.9,82.3,243.5,81.3,243.9C80.2,244.3,79,244.2,77.9,243.8C75.7,243,74.3,240.9,74.3,238.6C74.2,237.1,74.5,235.5,75,234.1C75.5,233,76,231.9,76.7,230.9C77.3,229.9,78.2,229.1,79.1,228.4L81,230.2C80.2,230.9,79.5,231.6,78.8,232.4C78.2,233.2,77.8,234.1,77.4,235C76.8,236.2,76.7,237.6,77,238.9C77.3,239.8,77.9,240.6,78.8,241C79.4,241.2,80.1,241.2,80.7,240.9C81.3,240.6,81.8,240.1,82.3,239.6C82.9,238.8,83.5,238,84,237.1C84.7,236,85.5,234.9,86.4,233.9C87.1,233.2,88,232.6,88.9,232.2C90,231.8,91.1,231.9,92.2,232.3C94.4,233.1,95.8,235.2,95.8,237.5C95.8,239,95.6,240.6,95,242C94.5,243.4,93.7,244.8,92.8,246ZM80.7,220.7L81.9,217.9L101.1,226.4L99.9,229.2L80.7,220.7ZM101.6,201.8L103,199.2L110.2,203.1C110.5,204.5,110.5,205.9,110.2,207.2C110,208.7,109.5,210.1,108.8,211.4C107.9,213.1,106.5,214.7,104.9,215.8C103.3,216.8,101.5,217.4,99.6,217.5C97.7,217.6,95.8,217.1,94.1,216.2C92.4,215.3,90.9,213.9,89.9,212.3C88.9,210.7,88.4,208.8,88.4,206.9C88.4,204.9,88.9,202.9,89.9,201.2C90.6,199.8,91.6,198.6,92.8,197.5C93.9,196.6,95.2,195.9,96.6,195.6L97.3,198.1C95.1,198.8,93.3,200.3,92.3,202.3C91.6,203.6,91.2,205.1,91.2,206.6C91.2,208,91.6,209.4,92.3,210.6C93.1,211.8,94.2,212.8,95.5,213.5C96.7,214.2,98.2,214.6,99.6,214.5C101,214.5,102.4,214,103.6,213.2C104.9,212.4,105.9,211.3,106.5,210C107.4,208.5,107.8,206.7,107.7,205L101.6,201.8ZM108.7,171.7L126,183.6L124.6,185.6L104.6,187.2L117.5,196L115.8,198.5L98.5,186.6L99.9,184.6L119.9,183L107,174.2L108.7,171.7ZM138.3,164.4L140.3,166.1L130.5,177.8L114.5,164.3L124,152.9L126,154.6L118.4,163.6L123.3,167.8L130.1,159.7L132,161.4L125.3,169.4L130.5,173.8L138.3,164.4ZM129.7,146.7L136,140.5C137.4,139,139.2,138,141.2,137.4C142.9,136.8,144.8,136.7,146.6,137.2C150.4,138.3,153.3,141.3,154.3,145.1C154.7,146.9,154.6,148.8,154,150.5C153.2,152.4,152.1,154.2,150.6,155.6L144.3,161.8L129.7,146.7ZM148.7,153.8C149.9,152.8,150.7,151.5,151.2,150C151.7,148.7,151.8,147.3,151.4,145.9C151,144.5,150.3,143.2,149.3,142.2C148.3,141.2,147.1,140.4,145.7,140C144.3,139.7,142.9,139.7,141.6,140.1C140.1,140.6,138.8,141.4,137.7,142.5L133.6,146.5L144.6,157.8L148.7,153.8ZM157.9,121.5L160.2,119.7L173,136.4L170.6,138.2L157.9,121.5ZM182.6,104.4L194.1,122L192,123.4L172.9,117.1L181.4,130.2L178.9,131.8L167.5,114.2L169.5,112.9L188.6,119.2L180.1,106L182.6,104.4ZM226.4,106.1L220.2,92.1L218.4,106.8L217.2,107.4L205.1,98.9L211.2,112.8L208.6,113.9L200.1,94.7L202.4,93.7L216.4,103.7L218.3,86.7L220.5,85.7L229.1,104.9L226.4,106.1ZM229.3,82.7L232.2,81.8L239,101.6L236.1,102.6L229.3,82.7ZM257.6,90.8L246.8,93.6L245.9,99.3L242.9,100.1L246.8,77.4L249.7,76.6L264.3,94.5L261.2,95.3L257.6,90.8ZM256,88.8L249,79.9L247.3,91L256,88.8ZM287.6,90.9L285.4,75.8L279.7,89.5L278.3,89.7L269,78.2L271.1,93.3L268.3,93.7L265.3,72.9L267.8,72.6L278.5,85.9L285,70.1L287.4,69.8L290.4,90.5L287.6,90.9ZM296.7,69.3L299.7,69.1L300.8,90.1L297.8,90.1L296.7,69.3ZM316.3,88.3C316.2,87.3,317,86.5,318,86.4C318,86.4,318.1,86.4,318.1,86.4C319.1,86.4,319.9,87.2,319.9,88.2C319.9,88.2,319.9,88.3,319.9,88.3C319.9,89.3,319,90.2,318,90.2C317,90.1,316.2,89.3,316.3,88.3C316.3,88.3,316.3,88.3,316.3,88.3L316.3,88.3ZM337.4,69.9L346.2,71.1C348.2,71.3,350.2,72.1,351.9,73.2C353.4,74.3,354.6,75.7,355.4,77.4C356.1,79.2,356.3,81.1,356,83C355.8,84.9,355.1,86.7,353.9,88.2C352.7,89.7,351.2,90.8,349.4,91.4C347.5,92,345.4,92.2,343.4,91.9L334.6,90.7L337.4,69.9ZM343.6,89.3C345.1,89.5,346.7,89.4,348.1,88.9C349.4,88.4,350.6,87.6,351.5,86.5C352.4,85.4,352.9,84,353.1,82.6C353.3,81.2,353.1,79.7,352.6,78.4C352.1,77.1,351.2,76,350,75.2C348.7,74.4,347.2,73.8,345.7,73.6L340.1,72.9L337.9,88.5L343.6,89.3ZM375.5,95.7L374.9,98.2L360.1,94.6L365,74.2L379.4,77.7L378.8,80.3L367.3,77.5L365.8,83.7L376.1,86.2L375.5,88.7L365.2,86.2L363.6,92.8L375.5,95.7ZM382.2,100C381.1,99.2,380.2,98.3,379.6,97.1L381.4,95.2C382,96.2,382.8,97.2,383.7,97.9C384.8,98.7,386,99.3,387.2,99.8C388.4,100.3,389.8,100.4,391.1,100.2C392.1,100,392.8,99.3,393.1,98.3C393.3,97.7,393.3,97.1,393,96.5C392.7,95.9,392.2,95.3,391.7,94.9L389.2,93.2C388,92.5,386.9,91.7,385.9,90.9C385.1,90.2,384.5,89.4,384.1,88.4C383.7,87.3,383.7,86.1,384.2,85.1C384.5,84.1,385.1,83.1,386,82.5C386.9,81.8,388,81.3,389.2,81.3C390.7,81.2,392.3,81.5,393.7,82C394.9,82.4,396,82.9,397,83.6C397.9,84.2,398.8,85,399.5,85.9L397.8,87.9C397.2,87.1,396.4,86.4,395.5,85.8C394.7,85.2,393.8,84.7,392.9,84.4C391.7,83.9,390.3,83.8,389,84.1C388.1,84.3,387.3,85,387,85.9C386.8,86.5,386.8,87.2,387.1,87.8C387.5,88.4,387.9,89,388.5,89.4L390.9,91.1C392.1,91.8,393.2,92.5,394.2,93.4C395,94,395.6,94.8,396,95.8C396.4,96.9,396.4,98.1,395.9,99.1C395.6,100.1,395,101.1,394.1,101.7C393.2,102.4,392.1,102.8,390.9,102.9C389.3,102.9,387.8,102.7,386.3,102.2C384.8,101.7,383.5,100.9,382.2,100ZM407.3,87.3L410.1,88.5L402,107.9L399.3,106.7L407.3,87.3ZM426.7,107.8L429.3,109.1L425.6,116.4C424.2,116.7,422.8,116.8,421.4,116.6C420,116.3,418.6,115.9,417.3,115.2C415.5,114.4,413.9,113,412.8,111.4C411.7,109.9,411.1,108.1,410.9,106.2C410.8,104.3,411.2,102.3,412.1,100.6C413,98.9,414.3,97.4,415.9,96.3C417.5,95.3,419.3,94.8,421.2,94.7C423.2,94.7,425.2,95.2,427,96.1C428.4,96.8,429.7,97.7,430.7,98.9C431.7,100,432.4,101.2,432.8,102.6L430.3,103.4C429.5,101.3,427.9,99.5,425.9,98.5C424.6,97.8,423.1,97.5,421.6,97.5C420.2,97.5,418.8,97.9,417.6,98.7C416.4,99.5,415.5,100.6,414.8,101.9C413.4,104.5,413.6,107.6,415.3,110C416.1,111.2,417.3,112.2,418.6,112.9C420.1,113.7,421.9,114.1,423.6,113.9L426.7,107.8ZM456.9,114.1L445.5,131.8L443.4,130.4L441.4,110.4L432.8,123.6L430.3,121.9L441.7,104.3L443.8,105.7L445.9,125.7L454.4,112.5L456.9,114.1ZM464.9,143.6L463.3,145.7L451.4,136.2L464.5,119.8L476.1,129L474.4,131.1L465.2,123.7L461.2,128.7L469.4,135.3L467.8,137.3L459.6,130.7L455.3,136L464.9,143.6ZM482.4,134.6L488.7,140.8C490.2,142.2,491.3,143.9,492,145.8C492.6,147.6,492.7,149.5,492.3,151.3C491.8,153.1,490.8,154.8,489.5,156.2C488.2,157.6,486.5,158.6,484.6,159.1C482.8,159.6,480.9,159.5,479.2,158.9C477.2,158.3,475.4,157.2,474,155.7L467.7,149.6L482.4,134.6ZM475.7,153.8C476.8,154.9,478.1,155.7,479.6,156.2C480.9,156.6,482.4,156.7,483.7,156.3C485.1,155.9,486.3,155.1,487.3,154.1C488.3,153.1,489.1,151.8,489.5,150.4C489.8,149,489.7,147.6,489.3,146.3C488.7,144.9,487.9,143.6,486.8,142.5L482.7,138.5L471.7,149.8L475.7,153.8ZM508.2,162.1L510.1,164.5L493.7,177.6L491.8,175.3L508.2,162.1ZM525.9,186.5L508.6,198.4L507.2,196.3L513,177.1L500.1,185.9L498.4,183.4L515.7,171.6L517.1,173.6L511.3,192.9L524.2,184L525.9,186.5ZM525.3,230.3L539.1,223.8L524.3,222.4L523.8,221.1L532,208.9L518.2,215.3L517,212.7L536,203.8L537,206L527.4,220.2L544.4,221.8L545.5,224L526.5,233L525.3,230.3ZM548.7,232.7L549.7,235.5L530,242.8L529,240L548.7,232.7ZM541.3,261.2L538.2,250.5L532.5,249.7L531.7,246.7L554.5,250.1L555.3,252.9L537.7,267.9L536.9,264.9L541.3,261.2ZM543.3,259.5L551.9,252.3L540.8,250.8L543.3,259.5ZM541.8,291.1L556.9,288.6L543.1,283.2L542.9,281.8L554.1,272.3L539.1,274.7L538.6,271.9L559.4,268.5L559.8,270.9L546.6,282L562.6,288.1L563,290.5L542.3,294L541.8,291.1ZM563.7,299.7L564,302.7L543,304.3L542.8,301.3L563.7,299.7ZM545.2,319.7C546.2,319.6,547,320.4,547.1,321.4C547.1,321.4,547.1,321.5,547.1,321.5C547.1,322.5,546.3,323.3,545.3,323.3C545.2,323.3,545.2,323.3,545.1,323.3C544.2,323.4,543.4,322.6,543.3,321.7C543.3,321.6,543.3,321.6,543.3,321.5C543.3,320.5,544.1,319.7,545.1,319.7C545.1,319.7,545.2,319.7,545.2,319.7ZM564.1,340.5L563.1,349.3C562.9,351.3,562.2,353.3,561.1,355C560.1,356.6,558.7,357.8,557,358.6C555.2,359.3,553.3,359.6,551.4,359.4C547.5,359.1,544.2,356.6,542.8,353C542.2,351,542,349,542.2,346.9L543.2,338.1L564.1,340.5ZM544.8,347.1C544.6,348.6,544.8,350.2,545.3,351.6C545.7,352.9,546.6,354.1,547.7,354.9C548.9,355.7,550.3,356.2,551.7,356.4C553.1,356.6,554.6,356.4,555.9,355.8C557.2,355.3,558.3,354.4,559,353.2C559.8,351.9,560.4,350.4,560.5,348.8L561.1,343.2L545.4,341.4L544.8,347.1ZM539.1,379.2L536.6,378.6L539.8,363.7L560.3,368.2L557.2,382.7L554.6,382.1L557.2,370.5L550.9,369.2L548.6,379.5L546.1,378.9L548.4,368.6L541.7,367.2L539.1,379.2ZM535,386C535.7,384.9,536.7,383.9,537.8,383.2L539.7,385C537.6,386.4,536,388.5,535.4,390.9C534.8,392.2,534.7,393.6,535,394.9C535.3,395.8,536,396.5,536.9,396.8C537.5,397,538.2,397,538.8,396.6C539.4,396.3,539.9,395.9,540.3,395.3C540.9,394.5,541.4,393.6,541.9,392.7C542.6,391.5,543.4,390.4,544.2,389.4C544.8,388.6,545.6,388,546.6,387.6C547.6,387.2,548.8,387.1,549.9,387.5C550.9,387.9,551.9,388.5,552.6,389.3C553.3,390.2,553.8,391.3,553.8,392.5C554,394,553.8,395.6,553.3,397C552.9,398.2,552.4,399.3,551.7,400.4C551.1,401.3,550.4,402.2,549.5,402.9L547.5,401.2C548.3,400.6,549,399.8,549.5,398.9C550.1,398.1,550.6,397.2,550.8,396.2C551.3,395,551.4,393.6,551.1,392.3C550.8,391.4,550.1,390.7,549.2,390.4C548.6,390.2,547.9,390.2,547.3,390.5C546.7,390.9,546.2,391.3,545.8,391.9C545.2,392.7,544.6,393.6,544.1,394.5C543.5,395.7,542.7,396.8,541.9,397.8C541.3,398.6,540.5,399.2,539.5,399.6C538.4,400,537.3,400,536.2,399.7C535.2,399.3,534.3,398.7,533.6,397.9C532.9,396.9,532.4,395.8,532.3,394.6C532.2,393.1,532.4,391.6,532.9,390.1C533.4,388.6,534.1,387.2,535,386ZM548.3,410.7L547.2,413.5L527.6,405.9L528.7,403.1L548.3,410.7ZM528.2,430.6L527,433.2L519.6,429.7C519.3,428.3,519.2,426.9,519.4,425.5C519.6,424.1,520,422.7,520.6,421.4C521.4,419.6,522.7,418,524.3,416.8C527.4,414.5,531.6,414.1,535.1,415.9C536.9,416.7,538.4,418,539.5,419.6C540.5,421.2,541.1,422.9,541.2,424.8C541.3,426.8,540.9,428.8,540,430.6C539.3,432,538.4,433.3,537.3,434.4C536.2,435.4,535,436.1,533.6,436.5L532.7,434.1C534.8,433.3,536.5,431.7,537.5,429.6C538.2,428.3,538.5,426.8,538.4,425.3C538.3,423.9,537.9,422.5,537.1,421.3C536.3,420.1,535.1,419.2,533.8,418.6C532.5,418,531,417.7,529.6,417.8C528.2,417.9,526.9,418.4,525.7,419.2C524.5,420.1,523.6,421.3,522.9,422.6C522.1,424.2,521.8,425.9,522,427.7L528.2,430.6ZM522.6,460.9L504.7,449.9L506,447.8L525.9,445.3L512.6,437.1L514.2,434.5L532.1,445.6L530.8,447.6L510.8,450.2L524.2,458.4L522.6,460.9ZM493.3,469.6L491.2,468L500.5,455.9L517.2,468.7L508.2,480.4L506.1,478.9L513.3,469.5L508.1,465.5L501.8,473.9L499.7,472.4L506.1,464L500.7,459.9L493.3,469.6ZM502.8,486.9L496.7,493.4C495.3,494.9,493.6,496.1,491.7,496.8C490,497.5,488.1,497.6,486.3,497.2C484.4,496.8,482.7,495.8,481.3,494.5C478.4,491.9,477.2,487.9,478.3,484.2C479,482.3,480,480.5,481.4,479L487.4,472.6L502.8,486.9ZM483.4,480.7C482.3,481.8,481.6,483.1,481.1,484.6C480.7,485.9,480.7,487.4,481.1,488.7C481.5,490.1,482.3,491.3,483.4,492.3C485.4,494.4,488.5,495.1,491.2,494.1C492.6,493.5,493.9,492.6,494.9,491.5L498.8,487.3L487.3,476.5L483.4,480.7ZM475.8,513.4L473.5,515.3L460,499.2L462.3,497.3L475.8,513.4ZM451.8,531.6L439.6,514.6L441.6,513.1L461,518.5L451.8,505.8L454.3,504L466.5,521.1L464.5,522.5L445.2,517.2L454.3,529.9L451.8,531.6ZM408,532L414.9,545.7L416,530.9L417.2,530.3L429.6,538.2L422.8,524.6L425.4,523.3L434.8,542.1L432.6,543.2L418.2,533.9L417,551L414.8,552.1L405.4,533.3L408,532ZM406.2,555.5L403.4,556.6L395.7,537L398.5,535.9L406.2,555.5ZM377.5,548.7L388.2,545.4L388.8,539.7L391.8,538.8L389,561.7L386.1,562.5L370.8,545.3L373.8,544.4L377.5,548.7ZM379.3,550.7L386.7,559.2L387.9,548L379.3,550.7ZM347.7,550L350.6,565L355.6,551.1L357,550.8L366.8,561.8L364,546.9L366.8,546.3L370.7,567L368.3,567.4L356.9,554.6L351.2,570.7L348.8,571.2L344.8,550.5L347.7,550ZM339.6,572.1L336.6,572.4L334.5,551.5L337.4,551.2L339.6,572.1ZM319.1,554C319.2,555,318.4,555.8,317.4,555.9C317.4,555.9,317.3,555.9,317.3,555.9C316.3,556,315.6,555.2,315.5,554.1C315.4,553.1,316.2,552.3,317.2,552.2C317.2,552.2,317.3,552.2,317.3,552.2C318.2,552.1,319,552.9,319.1,553.8C319.1,553.9,319.1,553.9,319.1,554ZM298.8,573.4L290,572.6C287.9,572.5,285.9,571.8,284.2,570.7C282.6,569.8,281.4,568.4,280.6,566.7C279.8,565,279.4,563,279.6,561.1C279.8,557.2,282.3,553.8,285.9,552.4C287.8,551.7,289.9,551.5,291.9,551.7L300.7,552.4L298.8,573.4ZM291.8,554.3C290.2,554.1,288.7,554.3,287.2,554.9C285.9,555.4,284.8,556.3,284,557.4C283.2,558.6,282.7,560,282.6,561.4C282.5,562.8,282.7,564.3,283.3,565.6C283.9,566.8,284.8,567.9,286,568.6C287.3,569.4,288.8,569.9,290.4,570L296.1,570.5L297.4,554.8L291.8,554.3ZM259.6,549.3L260.1,546.8L275,549.7L271.1,570.3L256.5,567.5L257,564.9L268.6,567.2L269.8,560.8L259.5,558.8L260,556.3L270.3,558.3L271.6,551.7L259.6,549.3ZM252.7,545.4C253.8,546.1,254.7,547,255.5,548.1L253.7,550.1C253.1,549.1,252.3,548.2,251.3,547.5C250.2,546.8,249,546.2,247.8,545.8C246.5,545.4,245.1,545.3,243.8,545.6C242.9,545.8,242.1,546.6,241.9,547.5C241.7,548.1,241.7,548.8,242.1,549.4C242.4,550,242.9,550.5,243.5,550.9L246,552.5C247.2,553.1,248.3,553.8,249.4,554.6C250.2,555.2,250.9,556,251.3,557C251.8,558,251.8,559.2,251.4,560.3C251.2,561.4,250.6,562.3,249.7,563C248.8,563.8,247.7,564.2,246.6,564.3C245.1,564.5,243.5,564.4,242,563.9C240.8,563.5,239.7,563,238.7,562.4C237.7,561.9,236.8,561.1,236.1,560.2L237.7,558.2C238.4,559,239.1,559.6,240,560.2C240.8,560.8,241.8,561.2,242.8,561.4C244,561.9,245.4,562,246.7,561.6C247.6,561.3,248.3,560.5,248.6,559.6C248.8,559,248.7,558.3,248.4,557.8C248,557.2,247.5,556.7,246.9,556.3C246.1,555.7,245.3,555.2,244.4,554.7C243.2,554.1,242.1,553.3,241,552.5C240.2,551.9,239.6,551.1,239.1,550.2C238.7,549.2,238.6,548,239,546.9C239.3,545.9,239.9,544.9,240.7,544.2C241.6,543.5,242.7,543,243.9,542.9C245.5,542.7,247,542.9,248.5,543.4C250,543.8,251.4,544.5,252.7,545.4ZM228.2,559.2L225.4,558.2L232.5,538.4L235.4,539.5L228.2,559.2ZM207.9,539.7L205.3,538.5L208.6,531C209.9,530.6,211.3,530.5,212.7,530.7C214.2,530.8,215.6,531.2,217,531.8C218.8,532.6,220.4,533.8,221.6,535.4C222.8,536.9,223.5,538.7,223.7,540.6C223.9,542.5,223.6,544.4,222.8,546.2C222,548,220.8,549.5,219.2,550.6C217.7,551.7,215.9,552.4,214,552.5C212,552.6,209.9,552.2,208.1,551.4C206.7,550.8,205.4,549.9,204.3,548.8C203.3,547.8,202.5,546.5,202.1,545.1L204.6,544.2C205.4,546.3,207,548,209.1,548.9C210.5,549.6,212,549.8,213.5,549.7C214.9,549.6,216.2,549.1,217.4,548.3C219.8,546.6,221.1,543.7,220.8,540.8C220.4,537.8,218.5,535.3,215.7,534.2C214.1,533.5,212.4,533.2,210.7,533.4L207.9,539.7ZM177.4,534.7L188,516.6L190.1,517.8L193.1,537.7L201,524.2L203.6,525.7L193,543.8L190.9,542.6L187.9,522.7L180,536.2L177.4,534.7ZM168.1,505.6L169.6,503.5L181.9,512.5L169.6,529.5L157.6,520.8L159.1,518.6L168.7,525.6L172.5,520.4L163.9,514.2L165.4,512.1L174,518.3L178,512.8L168.1,505.6ZM151,515.5L144.4,509.6C142.8,508.3,141.6,506.6,140.9,504.7C140.2,503,140,501.1,140.3,499.3C140.8,497.4,141.6,495.7,142.9,494.2C144.2,492.8,145.8,491.7,147.6,491.1C149.4,490.6,151.3,490.5,153.1,491C155.1,491.6,156.9,492.6,158.4,494L165,499.9L151,515.5ZM156.8,496C155.6,495,154.3,494.2,152.8,493.8C151.5,493.4,150,493.4,148.7,493.9C147.3,494.3,146.1,495.1,145.2,496.2C144.2,497.3,143.5,498.6,143.2,500C142.9,501.4,143.1,502.8,143.6,504.1C144.2,505.5,145.1,506.8,146.3,507.8L150.5,511.6L161,499.8L156.8,496ZM123.9,489.2L121.9,486.9L137.7,473L139.7,475.3L123.9,489.2ZM105.1,465.6L121.9,453L123.4,455L118.4,474.5L130.9,465L132.7,467.4L116,480.1L114.5,478.1L119.4,458.6L106.9,468L105.1,465.6ZM103.7,421.8L90.2,429L105,429.8L105.7,431L98,443.6L111.5,436.5L112.8,439.1L94.2,448.9L93.1,446.7L102,432.1L85,431.3L83.8,429.1L102.4,419.3L103.7,421.8ZM80.2,420.6L79,417.8L98.4,409.7L99.6,412.4L80.2,420.6ZM86.3,391.8L89.8,402.3L95.6,402.8L96.5,405.8L73.6,403.5L72.7,400.7L89.5,384.9L90.5,387.9L86.3,391.8ZM84.3,393.5L76,401.1L87.2,402.1L84.3,393.5ZM84.3,361.9L69.4,365.2L83.4,369.9L83.7,371.3L72.9,381.4L87.8,378.2L88.4,381L67.9,385.4L67.3,383L79.9,371.3L63.7,366L63.2,363.6L83.7,359.1L84.3,361.9ZM62,354.4L61.7,351.4L82.5,348.8L82.9,351.8L62,354.4ZM79.6,333.5C78.6,333.6,77.8,332.8,77.7,331.8C77.7,331.8,77.7,331.7,77.7,331.7C77.6,330.8,78.4,330,79.3,329.9C79.4,329.9,79.4,329.9,79.5,329.9C80.4,329.8,81.3,330.5,81.4,331.4C81.4,331.5,81.4,331.5,81.4,331.6C81.5,332.6,80.7,333.4,79.7,333.5C79.7,333.5,79.6,333.5,79.6,333.5Z"/></defs><g id="eVvQ5qCzTiu3"><g id="eVvQ5qCzTiu4"><g id="eVvQ5qCzTiu5" transform="matrix(2.099236 0 0 2.099236 -178.63248 -336.667418)"><path id="eVvQ5qCzTiu6" d="M204.3,256.1L237.3,256.1C232.1,261.9,228.1,268.7,225.6,276.1C221.9,286.3,220.1,297.1,220.4,308C220.2,320.7,222.3,333.2,226.7,345.1C230.9,355.7,236.6,361.2,243.9,361.2C245.4,361.2,248.5,359.2,252.7,355.2C257.7,350.3,261.8,344.4,264.6,337.9C268.3,328.8,270.1,319,269.8,309.1C270,301.4,268.1,293.8,264.3,287.1C260.6,280.5,256,277,250.5,277C249.3,277.2,248.3,277.7,247.4,278.5C246,279.8,244.7,281.2,243.4,282.7C244.3,277.2,246.6,272.1,250,267.7C253.6,262.9,257.1,260.5,260.4,260.5C263.7,260.5,270.5,264.7,276.9,273.2C283.4,281.5,286.9,291.8,286.8,302.3C286.8,314.4,281.5,327.8,270.7,342.7C259.9,357.6,249.4,365.1,238.4,365.1C227.4,365.5,217.2,359.5,212.2,349.7C206.5,338.4,203.6,325.9,203.9,313.3C203.7,303.5,205.6,293.7,209.4,284.7C213.1,275.8,217.9,267.5,223.7,259.8L205.9,259.8C197.1,259.6,188.4,262.3,181.2,267.3C174.8,271.7,171.1,279.1,171.3,286.9C171.5,293.5,173.3,300,176.6,305.8C180.1,312.2,186.3,318.1,195.3,323.1C187.1,323.4,179.2,320.3,173.3,314.6C167.4,308.8,164.2,300.8,164.5,292.6C164.5,280.9,168.5,272.1,176.6,265.8C184.4,259.4,194.2,256,204.3,256.1Z" transform="matrix(1 0 0 1 8.695203 2.799681)" fill="rgb(0,0,0)" stroke="none" stroke-width="1"/><path id="eVvQ5qCzTiu7" d="M324.6,284.9C327.6,284.8,330.5,285.5,333.1,286.9C336.6,289,339.7,291.6,342.4,294.6L310.3,326.7C311.7,329.3,314.1,331.3,316.9,332.2C319.7,333.1,322.7,333.5,325.7,333.5C328.8,333.5,331.9,332.8,334.7,331.3C337.4,329.9,340,328.3,342.4,326.4C339.5,331.2,335.5,335.3,330.9,338.5C326.6,341.2,321.5,342.7,316.4,342.7C308.5,342.7,303,340.1,299.7,335C296.5,330.2,294.8,324.6,294.9,318.8C294.9,308.6,297.7,300.5,303.5,294.3C308.8,288.2,316.5,284.7,324.6,284.9ZM309.2,323.6L318.4,314.6C323,309.5,325.2,305.8,325.2,303.1C325.5,300.6,324.7,298,323,296.1C321.5,294.4,319.4,293.4,317.1,293.5C314,293.5,311.6,295.2,309.8,299C308,303.1,307.1,307.5,307.2,311.9C307.2,314,307.4,316,307.6,318.1C307.8,320,308.4,321.9,309.2,323.6Z" transform="matrix(1 0 0 1 -84.761758 -0.726635)" opacity="0" fill="rgb(0,0,0)" stroke="none" stroke-width="1"/><path id="eVvQ5qCzTiu8" d="M396,348.6C396.4,358.3,393,367.8,386.6,375.2C380.2,382.7,373.2,386.2,365.2,386.2C357.2,386.2,355.1,384.5,352.7,381C350.3,376.8,349.2,372.1,349.4,367.3C349.3,363.5,349.9,359.7,351.2,356.1C353.4,350.9,356.5,346.2,360.4,342.1C357.3,342.1,354.7,340.3,352.3,337C349.8,332.8,348.7,328,349,323.1C349,311.7,352.7,302.5,360.4,295.7C366.8,289.2,375.5,285.5,384.6,285.3L396,285.3L396,348.6ZM383.7,324.9C377.3,331.1,371,337.2,364.8,343.6C360.1,349.6,357.5,357,357.3,364.7C357.3,369.8,358.4,373.3,360.6,375.2C365.7,379.9,373.6,379.6,378.3,374.5C378.3,374.5,378.3,374.5,378.3,374.5C378.9,373.9,379.3,373.3,379.7,372.6C382.5,368.6,383.9,363.7,383.7,358.8L383.7,324.9ZM361.5,313.3C361.3,316.6,362.1,319.8,363.7,322.7C364.9,324.7,367.1,325.8,369.4,325.8C371.8,325.7,374.1,325,376.2,323.8C378.9,322.3,381.4,320.5,383.7,318.5L383.7,289.3C377.5,289.1,371.6,291.8,367.7,296.5C363.7,301.2,361.5,307.1,361.5,313.3Z" transform="matrix(1 0 0 1 -138.155109 -14.601059)" opacity="0" fill="rgb(0,0,0)" stroke="none" stroke-width="1"/><path id="eVvQ5qCzTiu9" d="M450.1,285.6L450.1,334.4C450,335.2,450.6,336,451.4,336.1C451.4,336.1,451.4,336.1,451.4,336.1L451.9,336.1L454.7,335.2L460,332.2C458.6,334.9,456.7,337.3,454.3,339.2C452.2,341.2,449.5,342.5,446.6,342.7C441.6,341.5,438,337.1,437.8,331.9L437.8,324.9C432.3,330.2,427.9,334.6,424.2,337.7C420.5,340.8,417.1,342.7,414.5,342.7C411.9,342.7,408.8,341,406.6,337.4C404,333.1,402.8,328.1,403.1,323.1C403.1,311.3,406.3,302,412.9,295.4C419.8,288.7,429.1,285.2,438.7,285.6L450.1,285.6ZM415.6,313.3C415.4,316.6,416.2,319.8,417.8,322.7C419,324.7,421.2,325.8,423.5,325.8C425.9,325.7,428.2,325,430.3,323.8C433,322.3,435.5,320.5,437.8,318.5L437.8,289.3C431.6,289.1,425.7,291.8,421.7,296.5C417.8,301.2,415.6,307.2,415.6,313.3Z" transform="matrix(1 0 0 1 -197.190997 -0.726635)" opacity="0" fill="rgb(0,0,0)" stroke="none" stroke-width="1"/></g></g></g></svg>