<svg xmlns="http://www.w3.org/2000/svg" viewBox="0 0 1693.16 2017.7"><defs><style>.cls-1{fill:none;}.cls-2{fill:#fff;}</style></defs><g id="Layer_2" data-name="Layer 2"><g id="Layer_1-2" data-name="Layer 1"><g id="Layer_2-2" data-name="Layer 2"><g id="_ÎÓÈ_1" data-name=" ÎÓÈ 1"><path class="cls-1" d="M303.27,885.8v970.1l-37.7,158.2-230.1-1.6L3.67,1844.1c-.8-53.4,5.1-270.6,11.2-404.7,6.5-145.5,30.4-382.1,58.6-592.7s119.4-353.8,208.4-434.1a448.5,448.5,0,0,1,57.6-43.8c5.6,27,12.3,71.6,18,144C379.17,789.2,303.27,885.8,303.27,885.8Z"/><path d="M266.37,2015.2l-231.8-1.6-.2-.9L2.57,1844.2h0c-.8-54.2,5.1-269.8,11.2-404.8,6.3-141.7,29.3-374.3,58.6-592.7,13.1-97.7,40.5-187.3,81.5-266.3,34.3-66.1,78.3-124.4,127.2-168.5a452.84,452.84,0,0,1,57.8-43.9l1.4-.9.3,1.6c7.1,34.8,13.2,83.3,18,144.1,11.2,143-4.1,236.9-19,290.6s-32.9,79.9-35.2,82.9V1856h0Zm-230-3.7,228.3,1.5,37.6-157.3V885.4l.2-.3c.2-.2,19.1-24.7,35.1-82.6,14.7-53.5,30-147.1,18.8-289.6-4.7-59.8-10.6-107.7-17.6-142.3a447.13,447.13,0,0,0-56.2,42.8c-63.7,57.5-175.5,190.2-208.1,433.5-29.2,218.3-52.2,450.9-58.6,592.5C10,1571.6,4,1790.7,4.67,1844Z"/><path class="cls-1" d="M846.57,432.5l-23.2,19.9c-26.7,3.6-87.1-7-153.4-23.6-42.2-10.6-86.2-24.3-127.4-36.1-31.3-9-61.8-18.3-85.2-27.6-29.2-11.6-48.3-23.7-54.6-30.9l-.6-.7a6.42,6.42,0,0,1-.9-1.3c-20.7-31.4-8.7-74.8,19.5-166,19.6-63.3,28.2-84.2,52.7-103.8A205.09,205.09,0,0,0,482,98.9c.7,2.2,1.4,4.3,2.2,6.5,17.8,50,56.2,100,85.3,119.4,22.8,15.2,87.9,59.7,140.4,97.8,17.6,12.7,33.6,24.7,46.3,34.6C782.57,377.9,819.17,409,846.57,432.5Z"/><path d="M811.37,454.2c-28.6,0-78.9-8.6-141.7-24.3-29.1-7.3-59.3-16.2-88.5-24.8l-38.9-11.4c-24.1-6.9-59.1-17.2-85.3-27.6-31.3-12.4-49.2-24.5-55-31.1l-.4-.4-.3-.4a8.84,8.84,0,0,0-.8-1.1v-.2c-21-32.1-8.5-76.9,19.4-167,20-64.8,28.9-85,53-104.4l1.5-1.2.3,1.9A204.6,204.6,0,0,0,483,98.6c.7,2.2,1.4,4.3,2.2,6.5,18.2,51,57.4,100.5,84.9,118.8,21.8,14.5,87.4,59.3,140.5,97.8,18.8,13.6,34.3,25.3,46.3,34.7,21.1,16.5,51.5,41.9,90.4,75.2l1,.9-1,.8-23.2,19.9-.2.3h-.3A88.77,88.77,0,0,1,811.37,454.2ZM472.67,64.4c-22.6,18.7-31.4,39.3-50.9,102.1-27.7,89.5-40.1,133.9-19.6,165.2h.1a10,10,0,0,0,.7,1l.3.4.3.4c6.1,6.9,25.3,19,54.2,30.5,26.1,10.3,61.1,20.7,85.1,27.5l39,11.4c29.1,8.6,59.2,17.5,88.4,24.8,72.4,18.1,128,26.7,152.7,23.6,5.8-5.1,13.2-11.4,22-18.9-38.5-33-68.6-58-89.5-74.4-11.9-9.4-27.4-21-46.2-34.6-53.1-38.5-118.6-83.3-140.4-97.8-27.4-18.3-66.7-66.5-85.7-119.9-.8-2.2-1.6-4.3-2.3-6.6A219.84,219.84,0,0,1,472.67,64.4Z"/><path class="cls-1" d="M1389.87,885.8v970.1l-7.9,158.2H311.17l-7.9-158.2V885.8s75.9-96.6,54.2-373c-5.7-72.4-12.4-117-18-144a615.34,615.34,0,0,1,62.7-35.3l.6.7c15.8,19.2,80.8,42.7,139.8,58.5,105,33.5,237,65.5,280.8,59.7,9.3.2,17.1,0,23.1-.1h1.2c5.8.2,13.3.3,22.1.1,40.4,6.2,170.9-25.2,276.2-58.5,60.3-15.8,128.2-40,144.5-59.7l.6-.7a612.78,612.78,0,0,1,62.6,35.3c-5.5,26.9-12.3,71.6-18,144C1314,789.2,1389.87,885.8,1389.87,885.8Z"/><path d="M1383.07,2015.2h-1073v-1l-7.8-158.3V885.4l.2-.3c.2-.2,19.1-24.7,35.1-82.6,14.7-53.5,30-147.1,18.8-289.6-4.8-60.7-10.8-109.1-17.9-143.9l-.2-.7.6-.4a629.62,629.62,0,0,1,62.8-35.4l.8-.3.5.6.3.4.3.4c16.3,19.7,85.3,43.6,139.3,58,106.5,34,237,65.5,280.4,59.8h.2c7.9.2,15.7.1,23-.1h1.2c6.8.2,14.4.3,22.1.1h.1c40.2,6.1,169.2-24.9,275.8-58.6,55.9-14.6,127.1-38.9,143.9-59.2l.3-.4.3-.3.5-.8.8.4a609.87,609.87,0,0,1,62.8,35.4l.6.4-.2.7c-7.1,34.9-13.1,83.3-17.9,143.9-11.2,142.5,4.1,236.1,18.8,289.6,16.1,57.9,34.9,82.4,35.1,82.6l.3.3v970.5ZM312.17,2013H1381l7.8-157.2V886.2c-2.2-3-20-28.2-35.2-82.9s-30.2-147.6-19-290.6c4.8-60.2,10.8-108.5,17.9-143.4a618.78,618.78,0,0,0-61.1-34.4c-17.3,20.8-88.9,45.3-145.1,60-97.6,30.9-214,59.4-264.3,59.4a88.84,88.84,0,0,1-12.3-.8c-7.7.1-15.3.1-22-.1h-1.1c-7.4.2-15.1.2-23.1.1a88.91,88.91,0,0,1-12.1.7c-52.4,0-171-29.1-269.1-60.5-54.3-14.5-123.7-38.6-140.4-58.8h0a627.91,627.91,0,0,0-61.2,34.4c7.1,34.8,13.1,83,17.9,143.4,11.2,143-4.1,236.9-19,290.6s-32.9,79.9-35.2,82.9v969.7Z"/><path class="cls-1" d="M1689.57,1844.1l-31.9,168.4-230.1,1.6-37.7-158.2V885.8s-75.9-96.6-54.2-373c5.7-72.4,12.5-117.1,18-144a447.81,447.81,0,0,1,57.6,43.8c89.1,80.3,180.2,223.6,208.4,434.1s52.1,447.2,58.7,592.7C1684.37,1573.5,1690.37,1790.7,1689.57,1844.1Z"/><path d="M1426.77,2015.2l-38-159.3V886.2c-2.2-3-20-28.2-35.2-82.9s-30.2-147.6-19-290.6c4.8-60.6,10.8-109.1,18-144.1l.3-1.6,1.4.9a458,458,0,0,1,57.8,43.9c48.9,44.1,92.9,102.4,127.2,168.5,41,79,68.4,168.6,81.5,266.3,29.3,218.4,52.3,451,58.6,592.7,6.1,135,12.1,350.6,11.2,404.8v.2l-32,169.3h-.9ZM1391,1855.7l37.5,157.3,228.3-1.5,31.7-167.5c.8-53.2-5.3-272.4-11.2-404.6-6.4-141.6-29.4-374.2-58.6-592.5-32.6-243.3-144.4-376-208.1-433.5a452.45,452.45,0,0,0-56.2-42.8c-7,34.7-12.9,82.6-17.6,142.3-11.2,142.5,4.1,236.1,18.8,289.6,16.1,57.9,34.9,82.4,35.1,82.6l.3.3v970.3Z"/><path class="cls-1" d="M1291.87,332.2a5.49,5.49,0,0,1-.8,1.3l-.6.7c-6,6.8-24,18.6-50.9,29.4-25.2,10.1-58.5,19.2-93.6,30.3-105.3,33.3-235.8,64.7-276.2,58.5-8.8.2-16.3.1-22.1-.1h-1.2c-6,.1-13.8.3-23.1.1l23.2-19.9c27.4-23.5,64.1-54.6,90.4-75.3,12.7-9.9,28.8-21.9,46.3-34.6,52.5-38.1,117.6-82.6,140.4-97.8,29.1-19.4,67.5-69.4,85.3-119.4.8-2.2,1.6-4.3,2.3-6.5a203.12,203.12,0,0,0,8.4-36.5c24.5,19.6,33.1,40.5,52.7,103.8C1300.57,257.4,1312.57,300.8,1291.87,332.2Z"/><path d="M882,454.3a88.84,88.84,0,0,1-12.3-.8c-7.7.1-15.3.1-22-.1h-1.1c-7.4.2-15.2.2-23.2.1h-2.8l2.1-1.9,23.2-20c26.5-22.7,63.7-54.3,90.4-75.2,11.7-9.2,27.3-20.9,46.3-34.7,53.1-38.5,118.7-83.3,140.5-97.8,27.4-18.3,66.7-67.7,84.9-118.8.8-2.2,1.5-4.3,2.2-6.5a215.49,215.49,0,0,0,8.5-36.3l.2-2,1.5,1.2c24.2,19.4,33,39.6,53,104.4,28,90.1,40.4,134.9,19.5,166.9l-.2.3-.8,1.1-.3.4-.3.3c-6.2,7-24.4,18.9-51.2,29.7-18,7.2-40.1,13.9-63.6,21l-30.1,9.3C1048.67,425.8,932.27,454.3,882,454.3Zm-12.1-3h0c40.2,6.1,169.2-24.9,275.8-58.6l30.2-9.2c23.4-7.1,45.5-13.9,63.3-21,26.5-10.7,44.5-22.3,50.5-29.1l.2-.3.3-.3.7-1v-.3c20.5-31.2,8.1-75.6-19.6-165.1-19.5-62.9-28.3-83.4-50.8-102a221.24,221.24,0,0,1-8.3,34.7c-.7,2.3-1.5,4.4-2.3,6.6-19,53.4-58.3,101.7-85.7,119.9-21.8,14.5-87.3,59.3-140.4,97.8-19,13.8-34.6,25.4-46.2,34.6-26.7,20.9-63.9,52.4-90.4,75.2l-21,18.1c7,0,13.7,0,20.2-.2h1.2c6.8.2,14.4.3,22.1.1Z"/><path class="cls-1" d="M1219.67,62.4a203.12,203.12,0,0,1-8.4,36.5c-.7,2.2-1.5,4.3-2.3,6.5-22.5-8.6-62.5-23.6-87.5-31.1-36.2-10.9-122.3-15.2-159.9-17.4-26.5-1.5-77.4-2.3-113.8-2.1s-89.1.6-116.2,2.1c-37.6,2.2-123.7,6.5-159.9,17.4-25,7.5-65,22.5-87.5,31.1-.8-2.2-1.5-4.3-2.2-6.5a205.09,205.09,0,0,1-8.5-36.5c10.8-8.6,24.7-17,43.9-28.6C572.17.7,791,3,846.47,4.1h.3c55.4-1.1,274.2-3.4,329,29.7C1195.07,45.4,1209,53.8,1219.67,62.4Z"/><path d="M483.57,106.8l-.4-1c-.8-2.2-1.6-4.3-2.3-6.6a208.1,208.1,0,0,1-8.5-36.7v-.6l.5-.4c10.7-8.5,24.2-16.7,43-28.1l1.1-.6C571.27,0,782.87,1.7,846.47,3.1h.3c63.5-1.4,275.1-3.1,329.6,29.7,19.2,11.7,33.1,20.1,44,28.7l.5.4v.6a205.48,205.48,0,0,1-8.5,36.7c-.7,2.3-1.5,4.4-2.3,6.6l-.3,1-1.1-.3c-21.8-8.4-62.1-23.6-87.4-31.2-33.9-10.2-111.1-14.5-152.5-16.9l-7.2-.4c-27.1-1.5-79.1-2.3-113.7-2.1s-88.2.5-116.1,2.1l-7.1.4c-41.6,2.4-118.8,6.7-152.7,16.9-26.4,8-69.9,24.4-87.4,31.2Zm375.2-53.1c33.9,0,78.5.7,102.9,2.1l7.1.4c41.5,2.4,118.9,6.8,153.1,17,24.9,7.6,64.4,22.4,86.5,30.8l1.8-5.4a213.57,213.57,0,0,0,8.4-35.7c-10.7-8.5-24.4-16.8-43.4-28.2-53.9-32.5-265-30.8-328.4-29.5h-.3C783,3.9,571.87,2.2,518,34.7l-1,.6c-18.5,11.1-31.9,19.2-42.4,27.5A218.74,218.74,0,0,0,483,98.6l1.8,5.4c18.2-6.9,60.6-23,86.6-30.8,34.2-10.2,111.5-14.6,153.1-17l7-.4c28-1.6,81.1-2.3,116.3-2.1Z"/><path class="cls-1" d="M1209,105.4c-17.8,50-56.2,100-85.3,119.4-22.8,15.2-87.9,59.7-140.4,97.8-27.3-3.4-68.3-8.1-89-8.1h-95.4c-20.7,0-61.7,4.7-89,8.1-52.5-38.1-117.6-82.6-140.4-97.8-29.1-19.4-67.5-69.4-85.3-119.4,22.5-8.6,62.5-23.6,87.5-31.1,36.2-10.9,122.3-15.2,159.9-17.4,27.1-1.5,79.6-2.3,116.2-2.1s87.3.6,113.8,2.1c37.6,2.2,123.7,6.5,159.9,17.4C1146.47,81.8,1186.47,96.8,1209,105.4Z"/><path d="M983.57,323.7h-.5c-29.4-3.7-68.7-8.1-88.8-8.1h-95.4c-20.1,0-59.4,4.4-88.8,8.1h-.4l-.4-.2c-53.1-38.5-118.6-83.3-140.4-97.8-27.4-18.3-66.7-66.5-85.7-119.9l-.4-1,1-.4c17.5-6.7,61.1-23.2,87.6-31.2,34.2-10.2,111.5-14.6,153.1-17l7-.4c28-1.6,81.1-2.3,116.3-2.1s86.7.6,113.9,2.1l7.1.4c41.5,2.4,118.9,6.8,153.1,17,25.3,7.7,65.7,22.9,87.5,31.2l1,.4-.4,1c-19,53.4-58.3,101.7-85.7,119.9-21.8,14.5-87.3,59.3-140.4,97.8Zm-498-217.6c18.3,50.7,57.2,99.6,84.5,117.8,21.7,14.5,87.1,59.1,140.1,97.6,29.5-3.7,68.6-8.1,88.7-8.1h95.4c20.1,0,59.3,4.4,88.7,8.1,53-38.5,118.4-83.1,140.1-97.6,27.3-18.2,66.2-67.1,84.5-117.8-22-8.5-61.5-23.3-86.4-30.8-33.9-10.2-111.1-14.5-152.5-16.9l-7.2-.4c-27.1-1.5-79.1-2.3-113.7-2.1s-88.2.5-116.1,2.1l-7.1.4c-41.5,2.4-118.7,6.7-152.6,16.9-25.9,7.8-68.3,23.8-86.4,30.8Z"/><path class="cls-1" d="M983.27,322.6c-17.5,12.7-33.6,24.7-46.3,34.6-26.3,20.7-63,51.8-90.4,75.3-27.4-23.5-64-54.6-90.4-75.3-12.7-9.9-28.7-21.9-46.3-34.6,27.3-3.4,68.3-8.1,89-8.1h95.4C915,314.5,956,319.2,983.27,322.6Z"/><path d="M846.57,433.9l-.7-.6c-38.9-33.4-69.3-58.7-90.4-75.2-11.9-9.4-27.4-21-46.2-34.6l-2.2-1.6,2.7-.4c29.5-3.7,68.9-8.1,89.1-8.1h95.4c20.2,0,59.6,4.4,89.1,8.1l2.7.4-2.2,1.6c-19,13.8-34.6,25.4-46.2,34.6-26.7,20.9-63.9,52.4-90.4,75.2ZM712.77,323.3c17.8,12.9,32.6,24.1,44.1,33.1,20.9,16.4,51.1,41.5,89.7,74.6,26.5-22.7,63.3-53.8,89.7-74.6,11.2-8.8,26.1-19.9,44.1-33.1-29.1-3.6-66.6-7.7-86.1-7.7h-95.4C779.37,315.6,741.87,319.7,712.77,323.3Z"/><path d="M955.87,344.2c-27.5-3.4-40.9-4.6-61.6-4.6h-95.4c-20.7,0-34.1,1.2-61.6,4.6l-.2-2.1c26.3-3.3,40.7-4.7,61.8-4.7h95.4c21.1,0,35.5,1.4,61.9,4.7Z"/><rect x="2.74" y="1847.19" width="2.2" height="0.5" transform="translate(-1842.01 1770.69) rotate(-87.5)"/><path class="cls-1" d="M1312.27,1631.2l-75.7,198.3H453.87l-75.7-198.3s81-118.7,110.5-186.7c33.6-77.6,74.8-207.3,74.8-207.3H1127s41.3,129.7,74.9,207.3C1231.37,1512.5,1312.27,1631.2,1312.27,1631.2Z"/><path d="M1237.37,1830.6H453.17L377,1631.1l.3-.5c.9-1.2,81.2-119.4,110.4-186.5,33.2-76.6,74.4-205.9,74.8-207.2l.3-.8h565l.2.8c.5,1.3,41.7,130.6,74.9,207.2,29.1,67.1,109.5,185.3,110.3,186.5l.4.5Zm-782.7-2.2h781.2l75.2-197.1c-5.6-8.2-81.9-121.2-110.2-186.4-31.9-73.6-71.2-195.8-74.7-206.6H564.27c-3.4,10.8-42.7,133-74.7,206.6-28.2,65.2-104.5,178.2-110.1,186.4Z"/></g><g id="_ÎÓÈ_2" data-name=" ÎÓÈ 2"><path d="M395.27,341.1a32.28,32.28,0,0,1-2.5-2.6l1.7-1.4a25.9,25.9,0,0,0,2.3,2.5Z"/><path d="M878.17,469.6h-5.8v-2.2h7v2.2Zm8.3-.3v-2.1l3.2-.3,3.7-.5.3,2.2-3.8.4a32,32,0,0,1-3.4.3Zm-21.2-.1-7-.3v-2.2l7,.4Zm-56.1-.2h-7.1v-2.2l7,.2Zm7-.1v-2.2c2.4,0,4.7-.2,6.9-.4l.2,2.2Zm-21.2-.4-7-.5.2-2.2,7,.6Zm56.3,0-7-.3V466l7.1.3Zm-21-.4v-2.2h7.1V468h-7Zm70.2-.4-.2-2.1,6.9-.9.3,2.2ZM781,467.3l-7-.8.3-2.2,6.9.8Zm133.5-1.4-.3-2.1,7-1,.3,2.2ZM767,465.5l-7-1,.4-2.2,6.9,1.1Zm161.4-1.5-.3-2.1,7-1,.3,2.1Zm-175.3-.7-7-1.2.4-2.2,6.9,1.3Zm189.3-1.3-.4-2.2,7-1.1.3,2.2Zm-203.2-1.2-6.9-1.4.5-2.1,6.8,1.3Zm217.1-1-.4-2.2,6.9-1.1.4,2.1ZM725.37,458l-6.9-1.5.5-2.2,6.9,1.5Zm244.7-.6-.3-2.1,6.9-1.2.4,2.1ZM984,455l-.4-2.2,6.9-1.3.4,2.2Zm-272.3-.1-6.9-1.6.5-2.1,6.9,1.6Zm286.1-2.6-.4-2.1,6.9-1.3.4,2.1ZM698,451.7l-6.9-1.7.6-2.1,6.8,1.7Zm313.6-2.1-.4-2.1,6.9-1.4.4,2.1Zm-327.3-1.3-6.8-1.8.5-2.1,6.8,1.8Zm341.1-1.6-.5-2.1,6.9-1.5.5,2.1Zm-354.7-1.9-6.8-1.9.6-2.1,6.7,1.9Zm368.4-1.1-.4-2.1,6.8-1.6.5,2.1Zm-382-2.6-6.8-1.9.6-2.1,6.8,1.9Zm395.7-.6-.5-2.1,6.9-1.6.5,2.1Zm-409.3-3.2-6.7-1.9.6-2.1,6.7,1.9Zm423-.1-.5-2.1,6.8-1.7.6,2.1Zm13.7-3.4-.6-2.1,6.8-1.8.6,2.1ZM630,433.4l-6.7-1.9.6-2.1,6.7,2Zm463.8-3.2-.6-2.1,6.8-1.9.6,2.1Zm-477.3-.7-6.8-2,.6-2.1,6.8,2Zm490.8-3.1-.6-2.1,6.8-1.9.6,2.1ZM603,425.5l-6.8-2.1.7-2.1,6.7,2.1Zm517.9-3-.7-2.1,6.8-2,.6,2.1Zm-531.4-1.1-6.7-2.1.6-2.1,6.7,2.1Zm544.8-3-.6-2.1,6.7-2,.6,2Zm-558.2-1.2-6.7-2.1.6-2,6.7,2Zm571.7-3-.7-2.1,6.7-2.2.6,2.1ZM562.67,413l-6.7-2.1.6-2.1,6.7,2.2Zm598.4-3.2-.7-2.1,6.7-2.3.7,2.1Zm-611.8-1-6.7-2.1.6-2.1,6.7,2.1Zm625.1-3.6-.7-2.1,6.6-2.3.8,2Zm-638.5-.5-6.8-1.9.6-2.1,6.8,1.9Zm-13.6-3.9-6.7-2.1.7-2.1,6.7,2.1Zm665.4-.4-.8-2,6.6-2.5.8,2Zm-678.8-3.9-6.7-2.3.7-2,6.7,2.2Zm691.9-1.1-.8-2,6.6-2.6.8,2Zm-705.2-3.5-6.6-2.4.7-2.1a67.32,67.32,0,0,0,6.6,2.4Zm718.3-1.7-.8-2,6.5-2.7.8,2ZM482.37,387l-6.6-2.6.8-2,6.5,2.6Zm744.5-2.3-.9-2,6.5-2.8.8,2Zm-757.6-2.9-6.5-2.7.8-2,6.5,2.7Zm770.5-2.8-.9-2,6.3-3,.9,2Zm-783.5-2.7-6.4-2.9.8-1.9,6.5,2.8Zm796.2-3.4-1-2,6.3-3.1,1,1.9Zm-809-2.4-6.4-3.1,1-1.9,6.3,3Zm821.5-4.1-1-1.9,6.1-3.4,1.1,1.9Zm-834.2-2.2-6.2-3.3,1-1.9,6.2,3.3Zm846.4-4.8-1.1-1.9c2.1-1.3,4.1-2.5,5.9-3.8l1.2,1.8c-1.8,1.3-3.9,2.6-6,3.9Zm-858.8-1.9-6.1-3.6,1.2-1.9,6,3.6Zm870.6-6.1-1.3-1.7a66.12,66.12,0,0,0,5.3-4.4l1.5,1.6c-1.6,1.4-3.4,2.9-5.5,4.5ZM406.37,350c-2.1-1.4-4-2.8-5.8-4.2l1.4-1.7,5.6,4.1Z"/><path d="M1299.17,341.6l-1.8-1.2a8.62,8.62,0,0,0,1.3-2.8l2.1.5A9.69,9.69,0,0,1,1299.17,341.6Z"/><path d="M397,1679.8l-1.7-1.3,2-2.8,1.8,1.3Z"/><path d="M403.17,1671.2l-1.8-1.2,4-5.8,1.8,1.3Zm8-11.5-1.8-1.3,4-5.8,1.8,1.3Zm8-11.7-1.8-1.2,3.9-5.8,1.8,1.2Zm7.8-11.7-1.8-1.2,3.9-5.8,1.8,1.2Zm7.7-11.7-1.8-1.2,3.8-5.9,1.8,1.1c-1.2,2.1-2.5,4-3.8,6Zm7.6-11.9-1.8-1.1,3.8-6,1.8,1.2c-1.3,2-2.5,4-3.8,5.9Zm7.6-11.9-1.9-1.1,3.7-6,1.9,1.1Zm7.4-12-1.9-1.1,3.7-6,1.8,1.1q-1.8,3.2-3.6,6Zm7.3-12-1.9-1.1,3.6-6,1.9,1.1Zm7.2-12.1-1.9-1.1c1.2-2,2.4-4,3.5-6.1l1.9,1.1Zm7-12.2-1.8-1.1c1.1-2,2.3-4,3.4-6.1l1.9,1.1c-1.1,2.1-2.3,4.1-3.5,6.1Zm7-12.2-1.9-1.1,3.4-6.1,1.9,1Zm6.8-12.3-1.9-1.1c1.1-2,2.2-4.1,3.4-6.1l1.9,1Zm6.7-12.4-1.9-1,3.3-6.3,1.9,1.1Zm6.6-12.5-2-1c1.1-2.1,2.2-4.1,3.2-6.2l2,1c-1.1,2-2.2,4.1-3.2,6.2Zm6.3-12.5-1.9-1,3.1-6.3,2,1Zm6.3-12.6-2-1c1-2.1,2-4.2,3.1-6.3l1.9.9Zm6-12.7-1.9-.9c1-2.2,1.9-4.3,2.9-6.4l2,.9Zm5.9-12.8-2-.9c1-2.2,1.9-4.3,2.9-6.4l2,.8Zm5.7-12.9-2-.9,2.7-6.5,2,.9Zm5.4-13-2-.8,2.7-6.6,2,.9Zm5.3-13.1-2-.8c.9-2.1,1.7-4.3,2.6-6.5l2,.8c-.9,2.2-1.7,4.4-2.6,6.5Zm5.2-13.1-2.1-.8,2.6-6.5,2,.7c-.9,2.2-1.7,4.4-2.5,6.6Zm5-13.1-2.1-.8c.9-2.2,1.7-4.4,2.5-6.6l2,.8Zm4.9-13.2-2-.8,2.4-6.6,2,.8Zm4.9-13.3-2.1-.7,2.4-6.6,2.1.7Zm4.7-13.2-2-.7c.8-2.3,1.6-4.5,2.3-6.7l2.1.8Zm4.7-13.3-2-.7,2.3-6.6,2.1.7Zm4.7-13.3-2.1-.7c.8-2.2,1.6-4.4,2.3-6.6l2.1.7c-.8,2.2-1.6,4.4-2.3,6.6Zm4.6-13.3-2.1-.7c.8-2.2,1.5-4.5,2.3-6.6l2,.7Zm4.5-13.3-2.1-.7,2.3-6.7,2,.7Zm4.5-13.4-2.1-.7c.8-2.3,1.5-4.5,2.2-6.6l2.1.6c-.7,2.2-1.5,4.4-2.2,6.7Zm4.4-13.3-2.1-.7,2.2-6.7,2.1.7Zm4.4-13.4-2.1-.7c.8-2.5,1.5-4.7,2.2-6.7l2,.7Z"/><path d="M607.47,1241.2l-2.1-.7,1.1-3.3,2,.6S608.17,1239,607.47,1241.2Z"/><path d="M392.67,1667.3l-1.8-1.3,2.1-2.8,1.7,1.3Z"/><path d="M398.77,1658.7l-1.8-1.2,4.1-5.8,1.8,1.3Zm8.1-11.5-1.8-1.3c1.2-1.8,2.6-3.7,3.9-5.8l1.8,1.2C409.47,1643.4,408.07,1645.3,406.87,1647.2Zm7.9-11.7-1.8-1.2c1.3-1.9,2.6-3.8,3.9-5.9l1.8,1.2C417.37,1631.7,416.07,1633.6,414.77,1635.5Zm7.8-11.7-1.8-1.2,3.8-5.9,1.9,1.2c-1.4,2-2.6,4-3.9,5.9Zm7.7-11.8-1.8-1.2,3.8-5.9,1.8,1.1C432.77,1608,431.47,1610,430.27,1612Zm7.6-11.9-1.8-1.2,3.7-5.9,1.8,1.1Zm7.5-12-1.9-1.1,3.7-6,1.9,1.1Zm7.3-12-1.8-1.1,3.6-6,1.9,1.1ZM460,1564l-1.9-1.1,3.6-6,1.9,1.1Zm7.1-12.1-1.9-1.1,3.6-6.1,1.8,1.1Zm7-12.2-1.9-1.1,3.5-6.1,1.9,1Zm6.9-12.3-1.9-1.1c1.2-2,2.3-4.1,3.4-6.1l1.9,1Zm6.8-12.4-1.9-1,3.3-6.2,1.9,1Zm6.6-12.4-1.9-1,3.2-6.3,2,1Zm6.5-12.6-2-.9c1.1-2.1,2.2-4.2,3.2-6.3l2,1Zm6.3-12.5-2-1c1.1-2.1,2.1-4.2,3.1-6.3l2,.9Zm6.1-12.7-1.9-.9,3-6.4,1.9.9Zm6-12.7-2-1c1-2.1,2-4.2,2.9-6.3l2,.8c-.9,2.2-1.9,4.3-2.9,6.5Zm5.8-12.9-2-.9.8-1.7,2-4.7,2,.8-2.1,4.8Zm5.6-12.9-2-.9,2.7-6.5,2,.9Zm5.4-13.1-2-.8c.8-2.1,1.7-4.3,2.6-6.5l2,.8c-.9,2.2-1.8,4.4-2.6,6.5Zm5.2-13.1-2-.8c.8-2.1,1.7-4.3,2.5-6.5l2.1.8c-.9,2.2-1.7,4.4-2.6,6.5Zm5.1-13.1-2-.8c.8-2.2,1.7-4.3,2.5-6.5l2,.7c-.8,2.2-1.6,4.4-2.5,6.6Zm5-13.2-2-.7,2.4-6.6,2.1.7Zm4.9-13.2-2-.7,2.4-6.7,2,.8Zm4.8-13.2-2-.8,2.4-6.6,2,.7Zm4.8-13.3-2-.7c.7-2.3,1.5-4.5,2.3-6.7l2,.7c-.7,2.2-1.5,4.5-2.3,6.7Zm4.7-13.3-2.1-.7c.8-2.3,1.6-4.5,2.3-6.7l2.1.7c-.8,2.2-1.5,4.5-2.3,6.7Zm4.6-13.3-2.1-.7c.8-2.3,1.6-4.5,2.3-6.7l2.1.7c-.8,2.2-1.5,4.4-2.3,6.7Zm4.6-13.4-2.1-.7,2.3-6.6,2,.7Zm4.5-13.3-2.1-.7c.8-2.3,1.5-4.5,2.2-6.7l2.1.7c-.7,2.2-1.5,4.4-2.2,6.7Zm4.4-13.4-2.1-.7c.8-2.3,1.6-4.6,2.2-6.7l2.1.7c-.7,2.1-1.4,4.4-2.2,6.7Zm4.4-13.4-2.1-.7c.8-2.5,1.6-4.7,2.2-6.7l2.1.7C594.57,1249.3,593.87,1251.5,593.07,1254Z"/><path d="M597.27,1240.9l-2-.7c.7-2.2,1-3.3,1-3.3l2.1.6Z"/><path d="M1293.57,1679.8l-2.1-2.8,1.8-1.3,2,2.8Z"/><path d="M1287.37,1671.2l-4-5.7,1.8-1.3,4,5.8Zm-8-11.5-4-5.8,1.8-1.3,3.9,5.8Zm-8-11.7c-1.3-1.8-2.6-3.8-3.9-5.8l1.8-1.2c1.3,2,2.6,4,3.9,5.8Zm-7.8-11.7-3.9-5.8,1.8-1.2,3.9,5.8Zm-7.7-11.7c-1.3-2-2.6-3.9-3.9-6l1.9-1.1,3.8,5.9Zm-7.7-11.9-3.7-5.9,1.8-1.2,3.8,6Zm-7.5-11.9-3.7-6,1.9-1.1c1.2,2,2.4,4,3.7,6Zm-7.4-12-3.7-6,1.9-1.1,3.7,6Zm-7.3-12-3.6-6,1.9-1.1,3.6,6Zm-7.2-12.1-3.5-6.1,1.8-1.1,3.6,6.1Zm-7.1-12.2c-1.1-2-2.3-4-3.4-6.1l1.8-1.1,3.5,6.1Zm-6.9-12.2-3.4-6.2,1.9-1c1.1,2,2.2,4.1,3.4,6.1ZM1198,1528l-3.4-6.2,1.9-1,3.4,6.1Zm-6.7-12.4-3.3-6.2,1.9-1.1,3.3,6.3Zm-6.6-12.5c-1-2.1-2.1-4.2-3.2-6.2l1.9-1,3.3,6.2Zm-6.4-12.5c-1-2.1-2-4.2-3.1-6.3l2-1c1,2.1,2,4.2,3.1,6.3Zm-6.2-12.6-3-6.4,1.9-.9,3.1,6.3Zm-6-12.7-3-6.4,2-.9c.9,2.1,1.9,4.2,2.9,6.4Zm-5.9-12.8-2.9-6.5,2-.8c1,2.1,1.9,4.2,2.9,6.4Zm-5.7-12.9-2.7-6.5,2-.9,2.7,6.5Zm-5.4-13-2.7-6.5,2-.9,2.7,6.6Zm-5.3-13.1c-.9-2.1-1.8-4.3-2.6-6.5l2-.8c.9,2.2,1.7,4.4,2.6,6.5Zm-5.2-13.1-2.5-6.6,2-.7,2.6,6.5Zm-5-13.1c-.8-2.2-1.6-4.4-2.5-6.6l2.1-.8,2.4,6.6Zm-4.9-13.2c-.8-2.2-1.6-4.4-2.5-6.6l2.1-.8,2.4,6.6Zm-4.9-13.3-2.4-6.6,2.1-.7,2.4,6.6Zm-4.7-13.2-2.4-6.6,2-.8,2.4,6.7Zm-4.7-13.3-2.4-6.6,2.1-.7c.7,2.2,1.5,4.4,2.3,6.6Zm-4.7-13.3-2.3-6.6,2.1-.7c.7,2.2,1.5,4.4,2.3,6.6Zm-4.6-13.3c-.7-2.2-1.5-4.5-2.2-6.6l2-.7c.8,2.1,1.5,4.4,2.3,6.6Zm-4.5-13.3-2.2-6.7,2-.7,2.3,6.7Zm-4.5-13.4c-.7-2.3-1.5-4.5-2.2-6.7l2.1-.6,2.2,6.6Zm-4.4-13.3-2.2-6.7,2.1-.7,2.2,6.7Zm-4.4-13.4-2.1-6.7,2-.7c.7,2,1.4,4.2,2.2,6.7Z"/><path d="M1083.07,1241.2l-1.1-3.4,2.1-.6s.4,1.1,1.1,3.3Z"/><path d="M1297.87,1667.3l-2-2.8,1.7-1.3,2.1,2.8Z"/><path d="M1291.77,1658.7l-4.1-5.7,1.8-1.3,4.1,5.8Zm-8.1-11.5c-1.2-1.9-2.6-3.8-4-5.9l1.8-1.2,4,5.8Zm-7.9-11.7c-1.3-1.9-2.6-3.8-3.9-5.9l1.8-1.2c1.3,2.1,2.6,4,3.9,5.9Zm-7.8-11.7-3.9-5.9,1.8-1.2c1.4,2,2.6,4,3.9,5.9Zm-7.7-11.8-3.8-6,1.8-1.1,3.8,5.9Zm-7.6-11.9c-1.2-2-2.5-4-3.8-6l1.9-1.1,3.7,5.9Zm-7.5-12-3.7-6,1.9-1.1c1.2,2,2.4,4,3.7,6Zm-7.3-12c-1.3-2-2.5-4-3.7-6l1.9-1.1,3.6,6Zm-7.3-12.1-3.6-6,1.9-1.1,3.6,6Zm-7.1-12.1-3.6-6.1,1.9-1.1,3.5,6.1Zm-7.1-12.2-3.4-6.2,1.9-1,3.4,6.1Zm-6.8-12.3-3.4-6.2,1.9-1c1.1,2,2.2,4.1,3.4,6.1Zm-6.8-12.4-3.3-6.2,1.9-1,3.3,6.2Zm-6.6-12.4-3.3-6.3,2-1c1,2.1,2.1,4.2,3.2,6.3Zm-6.5-12.6c-1.1-2-2.1-4.1-3.2-6.2l2-1,3.1,6.3Zm-6.3-12.5-3.1-6.4,2-.9,3,6.3Zm-6.1-12.7c-1.1-2.1-2.1-4.2-3.1-6.4l2-.9,3,6.4Zm-6-12.7c-1-2.2-2-4.3-2.9-6.5l1.9-.8,3,6.3Zm-5.8-12.9-.8-1.7c-.6-1.6-1.3-3.2-2-4.8l2-.8c.7,1.6,1.3,3.2,2,4.7l.8,1.7Zm-5.6-12.9-2.7-6.5,2-.9,2.7,6.5Zm-5.4-13.1c-.9-2.1-1.7-4.3-2.6-6.5l2-.8c.9,2.2,1.8,4.4,2.6,6.5Zm-5.2-13.1c-.9-2.1-1.7-4.3-2.6-6.5l2-.8c.9,2.2,1.7,4.4,2.6,6.5Zm-5.1-13.1c-.9-2.2-1.7-4.4-2.5-6.6l2-.7c.8,2.2,1.7,4.3,2.5,6.5Zm-5-13.2c-.9-2.2-1.7-4.4-2.5-6.6l2-.7c.9,2.2,1.7,4.4,2.5,6.6Zm-4.9-13.2c-.9-2.2-1.7-4.4-2.5-6.6l2.1-.8,2.4,6.7Zm-4.9-13.2c-.8-2.3-1.6-4.5-2.3-6.7l2-.7,2.4,6.6Zm-4.7-13.3-2.4-6.7,2.1-.7c.8,2.2,1.5,4.4,2.3,6.7Zm-4.7-13.3c-.8-2.2-1.5-4.5-2.3-6.7l2-.7,2.4,6.7Zm-4.6-13.3c-.8-2.3-1.6-4.5-2.3-6.7l2.1-.7c.7,2.2,1.5,4.4,2.2,6.7Zm-4.6-13.4-2.2-6.6,2-.7,2.3,6.6Zm-4.5-13.3c-.7-2.3-1.5-4.5-2.2-6.7l2.1-.7c.7,2.2,1.4,4.4,2.2,6.7Zm-4.4-13.4c-.8-2.3-1.5-4.6-2.2-6.7l2-.7c.7,2.2,1.5,4.4,2.2,6.7Zm-4.4-13.4c-.8-2.5-1.6-4.7-2.2-6.7l2.1-.7c.6,2,1.3,4.2,2.2,6.7Z"/><path d="M1093.17,1240.9c-.6-2.2-1-3.4-1-3.4l2.1-.6s.3,1.1,1,3.3Z"/><rect x="303.27" y="1875.7" width="3.5" height="2.17"/><path d="M1378.37,1877.9h-7v-2.2h7Zm-13.9,0h-7v-2.2h7Zm-13.9,0h-7v-2.2h7Zm-14,0h-6.9v-2.2h6.9Zm-13.9,0h-6.9v-2.2h6.9Zm-13.9,0h-7v-2.2h7Zm-13.9,0h-7v-2.2h7Zm-13.9,0h-7v-2.2h7Zm-13.9,0h-7v-2.2h7Zm-14,0h-6.9v-2.2h6.9Zm-13.9,0h-6.9v-2.2h6.9Zm-13.9,0h-7v-2.2h7Zm-13.9,0h-7v-2.2h7Zm-13.9,0h-7v-2.2h7Zm-13.9,0h-7v-2.2h7Zm-14,0h-6.9v-2.2h6.9Zm-13.9,0h-6.9v-2.2h6.9Zm-13.9,0h-6.9v-2.2h6.9Zm-13.9,0h-7v-2.2h7Zm-13.9,0h-7v-2.2h7Zm-13.9,0h-7v-2.2h7Zm-14,0h-6.9v-2.2h6.9Zm-13.9,0h-6.9v-2.2h6.9Zm-13.9,0h-6.9v-2.2h6.9Zm-13.9,0h-7v-2.2h7Zm-13.9,0h-7v-2.2h7Zm-13.9,0h-7v-2.2h7Zm-14,0h-6.9v-2.2h6.9Zm-13.9,0h-6.9v-2.2h6.9Zm-13.9,0h-6.9v-2.2h6.9Zm-13.9,0h-7v-2.2h7Zm-13.9,0h-7v-2.2h7Zm-13.9,0h-7v-2.2h7Zm-13.9,0h-7v-2.2h7Zm-14,0h-6.9v-2.2h6.9Zm-13.9,0h-6.9v-2.2h6.9Zm-13.9,0h-7v-2.2h7Zm-13.9,0h-7v-2.2h7Zm-13.9,0h-7v-2.2h7Zm-13.9,0h-7v-2.2h7Zm-14,0h-6.9v-2.2h6.9Zm-13.9,0h-6.9v-2.2h6.9Zm-13.9,0h-7v-2.2h7Zm-13.9,0h-7v-2.2h7Zm-13.9,0h-7v-2.2h7Zm-13.9,0h-7v-2.2h7Zm-14,0h-6.9v-2.2h6.9Zm-13.9,0h-6.9v-2.2h6.9Zm-13.9,0h-6.9v-2.2h6.9Zm-13.9,0h-7v-2.2h7Zm-13.9,0h-7v-2.2h7Zm-13.9,0h-7v-2.2h7Zm-14,0h-6.9v-2.2h6.9Zm-13.9,0h-6.9v-2.2h6.9Zm-13.9,0H620v-2.2h6.9Zm-13.9,0h-7v-2.2h7Zm-13.9,0h-7v-2.2h7Zm-13.9,0h-7v-2.2h7Zm-13.9,0h-7v-2.2h7Zm-14,0h-6.9v-2.2h6.9Zm-13.9,0h-6.9v-2.2h6.9Zm-13.9,0h-7v-2.2h7Zm-13.9,0h-7v-2.2h7Zm-13.9,0h-7v-2.2h7Zm-13.9,0h-7v-2.2h7Zm-14,0h-6.9v-2.2h6.9Zm-13.9,0H453v-2.2h6.9Zm-13.9,0h-7v-2.2h7Zm-13.9,0h-7v-2.2h7Zm-13.9,0h-7v-2.2h7Zm-13.9,0h-7v-2.2h7Zm-14,0h-6.9v-2.2h6.9Zm-13.9,0h-6.9v-2.2h6.9Zm-13.9,0h-6.9v-2.2h6.9Zm-13.9,0h-7v-2.2h7Zm-13.9,0h-7v-2.2h7Zm-13.9,0h-7v-2.2h7Z"/><rect x="1385.27" y="1875.7" width="3.5" height="2.17"/><rect x="4.18" y="1844.55" width="2.2" height="3.5" transform="translate(-1840.27 1793.58) rotate(-88.2)"/><path d="M292.67,1856.6l-7.2-.2v-2.2l7.1.2Zm-14.3-.4-7.1-.3v-2.1l7.2.2Zm-14.3-.5-7.1-.2v-2.2l7.2.2Zm-14.3-.4-7.1-.3v-2.1l7.1.2Zm-14.3-.5-7.1-.2v-2.2l7.1.2Zm-14.2-.4-7.2-.3V1852l7.1.2Zm-14.3-.5-7.2-.2v-2.2l7.2.2Zm-14.3-.4-7.1-.3v-2.1l7.2.2Zm-14.3-.5-7.1-.2v-2.2l7.1.2Zm-14.3-.4-7.1-.3v-2.1l7.1.2Zm-14.2-.5-7.2-.2v-2.2l7.1.2Zm-14.3-.4-7.2-.3v-2.1l7.1.2Zm-14.3-.5-7.1-.2v-2.2l7.2.2Zm-14.3-.4-7.1-.3v-2.1l7.2.2Zm-14.3-.5-7.1-.2v-2.2l7.1.2Zm-14.2-.4-7.2-.3v-2.1l7.1.2Zm-14.3-.5-7.2-.2V1847l7.1.2Zm-14.3-.4-7.1-.3v-2.1l7.2.2Zm-14.3-.5-7.1-.2v-2.2l7.2.2Zm-14.3-.4-7.1-.3v-2.1l7.1.2Z"/><rect x="300.48" y="1853.79" width="2.2" height="3.5" transform="translate(-1562.51 2098.69) rotate(-88.2)"/><rect x="1685.94" y="1845.57" width="3.5" height="2.17" transform="translate(-57.17 53.92) rotate(-1.8)"/><path d="M1400.47,1856.6v-2.2l7.1-.2v2.2Zm14.3-.4V1854l7.1-.2v2.1Zm14.3-.5v-2.2l7.2-.2v2.2Zm14.3-.4v-2.2l7.2-.2v2.1Zm14.3-.5v-2.2l7.1-.2v2.2Zm14.3-.4v-2.2l7.1-.2v2.1Zm14.2-.5v-2.2l7.1-.2v2.2Zm14.3-.4v-2.2l7.2-.2v2.1Zm14.3-.5v-2.2l7.2-.2v2.2Zm14.3-.4v-2.2l7.2-.2v2.1Zm14.3-.5v-2.2l7.1-.2v2.2Zm14.2-.4v-2.2l7.1-.2v2.1Zm14.3-.5V1849l7.1-.2v2.2Zm14.3-.4v-2.2l7.2-.2v2.1Zm14.3-.5v-2.2l7.2-.2v2.2Zm14.3-.4v-2.2l7.1-.2v2.1Zm14.2-.5v-2.2l7.1-.2v2.2Zm14.3-.4v-2.2l7.1-.2v2.1Zm14.3-.5v-2.2l7.2-.2v2.2Zm14.3-.4v-2.2l7.2-.2v2.1Z"/><rect x="1389.68" y="1854.87" width="3.5" height="2.17" transform="translate(-57.61 44.62) rotate(-1.8)"/><rect x="303.27" y="1860.1" width="3.5" height="2.17"/><path d="M1378.37,1862.3h-7v-2.2h7Zm-13.9,0h-7v-2.2h7Zm-13.9,0h-7v-2.2h7Zm-14,0h-6.9v-2.2h6.9Zm-13.9,0h-6.9v-2.2h6.9Zm-13.9,0h-7v-2.2h7Zm-13.9,0h-7v-2.2h7Zm-13.9,0h-7v-2.2h7Zm-13.9,0h-7v-2.2h7Zm-14,0h-6.9v-2.2h6.9Zm-13.9,0h-6.9v-2.2h6.9Zm-13.9,0h-7v-2.2h7Zm-13.9,0h-7v-2.2h7Zm-13.9,0h-7v-2.2h7Zm-13.9,0h-7v-2.2h7Zm-14,0h-6.9v-2.2h6.9Zm-13.9,0h-6.9v-2.2h6.9Zm-13.9,0h-6.9v-2.2h6.9Zm-13.9,0h-7v-2.2h7Zm-13.9,0h-7v-2.2h7Zm-13.9,0h-7v-2.2h7Zm-14,0h-6.9v-2.2h6.9Zm-13.9,0h-6.9v-2.2h6.9Zm-13.9,0h-6.9v-2.2h6.9Zm-13.9,0h-7v-2.2h7Zm-13.9,0h-7v-2.2h7Zm-13.9,0h-7v-2.2h7Zm-14,0h-6.9v-2.2h6.9Zm-13.9,0h-6.9v-2.2h6.9Zm-13.9,0h-6.9v-2.2h6.9Zm-13.9,0h-7v-2.2h7Zm-13.9,0h-7v-2.2h7Zm-13.9,0h-7v-2.2h7Zm-13.9,0h-7v-2.2h7Zm-14,0h-6.9v-2.2h6.9Zm-13.9,0h-6.9v-2.2h6.9Zm-13.9,0h-7v-2.2h7Zm-13.9,0h-7v-2.2h7Zm-13.9,0h-7v-2.2h7Zm-13.9,0h-7v-2.2h7Zm-14,0h-6.9v-2.2h6.9Zm-13.9,0h-6.9v-2.2h6.9Zm-13.9,0h-7v-2.2h7Zm-13.9,0h-7v-2.2h7Zm-13.9,0h-7v-2.2h7Zm-13.9,0h-7v-2.2h7Zm-14,0h-6.9v-2.2h6.9Zm-13.9,0h-6.9v-2.2h6.9Zm-13.9,0h-6.9v-2.2h6.9Zm-13.9,0h-7v-2.2h7Zm-13.9,0h-7v-2.2h7Zm-13.9,0h-7v-2.2h7Zm-14,0h-6.9v-2.2h6.9Zm-13.9,0h-6.9v-2.2h6.9Zm-13.9,0H620v-2.2h6.9Zm-13.9,0h-7v-2.2h7Zm-13.9,0h-7v-2.2h7Zm-13.9,0h-7v-2.2h7Zm-13.9,0h-7v-2.2h7Zm-14,0h-6.9v-2.2h6.9Zm-13.9,0h-6.9v-2.2h6.9Zm-13.9,0h-7v-2.2h7Zm-13.9,0h-7v-2.2h7Zm-13.9,0h-7v-2.2h7Zm-13.9,0h-7v-2.2h7Zm-14,0h-6.9v-2.2h6.9Zm-13.9,0H453v-2.2h6.9Zm-13.9,0h-7v-2.2h7Zm-13.9,0h-7v-2.2h7Zm-13.9,0h-7v-2.2h7Zm-13.9,0h-7v-2.2h7Zm-14,0h-6.9v-2.2h6.9Zm-13.9,0h-6.9v-2.2h6.9Zm-13.9,0h-6.9v-2.2h6.9Zm-13.9,0h-7v-2.2h7Zm-13.9,0h-7v-2.2h7Zm-13.9,0h-7v-2.2h7Z"/><rect x="1385.27" y="1860.1" width="3.5" height="2.17"/><rect x="4.19" y="1829.46" width="2.2" height="3.5" transform="translate(-1825.18 1778.97) rotate(-88.2)"/><path d="M292.67,1841l-7.2-.2v-2.2l7.1.3Zm-14.3-.4-7.1-.2v-2.2l7.2.2Zm-14.3-.5-7.1-.2v-2.2l7.2.3Zm-14.3-.4-7.1-.3v-2.1l7.1.2Zm-14.3-.5-7.1-.2v-2.2l7.1.3Zm-14.2-.4-7.2-.2v-2.2l7.1.2Zm-14.3-.5-7.2-.2v-2.2l7.2.3Zm-14.3-.4-7.1-.2v-2.2l7.2.2Zm-14.3-.5-7.1-.2V1835l7.1.3Zm-14.3-.4-7.1-.2v-2.2l7.1.2Zm-14.2-.5-7.2-.2v-2.2l7.1.3Zm-14.3-.4-7.2-.2v-2.2l7.1.2Zm-14.3-.5-7.1-.2v-2.2l7.2.3Zm-14.3-.4-7.1-.2v-2.2l7.2.2Zm-14.3-.5-7.1-.2v-2.2l7.1.3Zm-14.2-.4-7.2-.2v-2.2l7.1.2Zm-14.3-.5-7.2-.2v-2.2l7.1.3Zm-14.3-.4-7.1-.2V1831l7.2.2Zm-14.3-.5-7.1-.2v-2.2l7.2.3Zm-14.3-.4-7.1-.2v-2.2l7.1.2Z"/><rect x="300.39" y="1837.7" width="2.2" height="3.5" transform="translate(-1546.52 2083.01) rotate(-88.2)"/><rect x="1686.75" y="1829.18" width="3.5" height="2.17" transform="translate(-56.66 53.94) rotate(-1.8)"/><path d="M1400.47,1841v-2.1l7.1-.3v2.2Zm14.3-.4v-2.2l7.1-.2v2.2Zm14.3-.5V1838l7.2-.3v2.2Zm14.3-.4v-2.2l7.2-.2v2.1Zm14.3-.5v-2.1l7.1-.3v2.2Zm14.3-.4v-2.2l7.1-.2v2.2Zm14.2-.5v-2.1l7.1-.3v2.2Zm14.3-.4v-2.2l7.2-.2v2.2Zm14.3-.5v-2.1l7.2-.3v2.2Zm14.3-.4v-2.2l7.2-.2v2.2Zm14.3-.5v-2.1l7.1-.3v2.2Zm14.2-.4v-2.2l7.1-.2v2.2Zm14.3-.5v-2.1l7.1-.3v2.2Zm14.3-.4V1833l7.2-.2v2.2Zm14.3-.5v-2.1l7.2-.3v2.2Zm14.3-.4v-2.2l7.1-.2v2.2Zm14.2-.5v-2.1l7.1-.3v2.2Zm14.3-.4v-2.2l7.1-.2v2.2Zm14.3-.5v-2.1l7.2-.3v2.2Zm14.3-.4v-2.2l7.2-.2v2.2Z"/><rect x="1388.99" y="1839.87" width="3.5" height="2.17" transform="translate(-57.14 44.59) rotate(-1.8)"/><rect x="715.31" y="325.74" width="3.5" height="2.17" transform="translate(-34.9 91.14) rotate(-7.1)"/><path d="M726,326.4l-.3-2.1,6.9-.9.2,2.2Zm241.7-.2-6.9-.8.2-2.2,6.9.8Zm-228-1.4-.2-2.1,6.9-.8.2,2.2Zm214.2-.2-6.9-.7.3-2.2,6.9.8Zm-200.4-1.3-.2-2.1,6.9-.7.2,2.2Zm186.6-.1-6.9-.6.2-2.2,6.9.6ZM767.27,322l-.2-2.1,6.9-.6.2,2.2Zm159.1,0-6.9-.6v-2.1l6.9.5Zm-145.3-1-.2-2.2,7-.4v2.2Zm131.4,0-6.9-.4v-2.2l7,.4Zm-13.8-.6h-6.9v-2.2h7Zm-103.8,0v-2.2h7v2.2h-7Zm90-.1H878v-2.2h6.9Zm-13.8,0h-7v-2.2h7Zm-13.9,0h-6.9v-2.2h6.9Zm-13.9,0h-6.9v-2.2h6.9Zm-13.8,0h-6.9v-2.2h6.9Zm-13.9,0h-6.9v-2.2h6.9Z"/><polygon points="977.97 327.4 974.47 327 974.77 324.8 978.17 325.3 977.97 327.4"/><rect x="481.2" y="95.33" width="3.5" height="2.17" transform="translate(-2.47 179.48) rotate(-21)"/><path d="M1202.17,94.4l-6.5-2.5.7-2,6.6,2.4Zm-710.7-.2-.7-2.1,6.5-2.5.8,2.1Zm697.6-4.8-6.6-2.4.8-2.1,6.5,2.5Zm-684.4-.2-.8-2,6.6-2.5.8,2.1Zm671.2-4.7-6.6-2.4.8-2,6.6,2.4Zm-658-.2-.8-2,6.6-2.4.8,2Zm644.8-4.6-6.6-2.3.7-2.1,6.6,2.4Zm-631.6-.2-.8-2,6.6-2.4.8,2.1Zm618.4-4.4-6.6-2.3.7-2.1,6.6,2.3Zm-605.2-.2-.7-2.1,6.6-2.3.7,2.1Zm591.9-4.4-6.7-2.2.7-2,6.7,2.2Zm-578.6-.2-.7-2,6.7-2.2.6,2.1Zm565.3-4.1-1.7-.5-5.1-1.4.6-2.1,5.1,1.5,1.7.5Zm-552-.1-.6-2.1,1.1-.3c1.7-.6,3.7-1.1,5.7-1.6l.5,2.1L572,65.7Zm538.4-3.3-6.8-1.4.4-2.1,6.9,1.3Zm-524.8-.2-.5-2.1,6.9-1.4.4,2.2Zm511.1-2.4-7-1.1.4-2.1,6.9,1Zm-497.4-.1-.3-2.2,6.9-1,.4,2.1Zm483.5-2-7-.9.3-2.1,7,.9Zm-469.6,0-.3-2.2,7-.9.3,2.2c-2.4.3-4.7.5-7,.9Zm455.7-1.7-7-.8.2-2.1,7,.8ZM626,56.3l-.2-2.1,7-.8.2,2.2Zm427.8-1.4-7-.6.2-2.2,7,.7ZM640,54.9l-.2-2.2,7-.6.2,2.1Zm399.8-1.3-7-.5.2-2.2,7,.6ZM654,53.6l-.2-2.2,7-.6L661,53Zm371.8-1.1-7-.5.2-2.2,7,.5ZM668,52.5l-.2-2.2,7-.5.2,2.1Zm343.8-1-7-.5V48.8l7.1.5ZM682,51.4V49.3l7-.5V51Zm315.8-.9-7-.4V47.9l7,.5ZM696,50.5V48.3l7-.4v2.2Zm287.8-.8-7.1-.4.2-2.2,7,.4Zm-273.7,0-.2-2.2,7-.4.2,2.1Zm259.6-.8-7-.4V46.3l7,.4Zm-245.6-.1V46.7l7-.4v2.1Zm231.6-.7-7-.3V45.6l7,.3Zm-217.6,0V45.9l7-.3v2.2Zm203.6-.6-7-.2V45.2l7,.2Zm-189.6,0V45.4l7-.3v2.2Zm175.5-.4h-7V44.8l7,.2Zm-161.4,0V44.9h7V47Zm147.4-.3h-7V44.5h7Zm-133.4,0V44.6h7v2.2Zm119.4-.2h-7.1V44.3h7Zm-105.3,0V44.4h7v2.2Zm91.2-.2h-7V44.2h7Zm-77.2,0V44.2h7v2.1Zm63.2-.1h-7V44.1h7Zm-21.1,0V44.1h7v2.2Zm-28.1,0V44.1h7.1v2.2Zm21.1,0h-7V44.1h7Z"/><rect x="1209.96" y="94.83" width="2.2" height="3.5" transform="translate(686.89 1192.59) rotate(-69)"/><rect x="846.27" y="4.1" width="2.2" height="310.43"/><circle class="cls-2" cx="815.47" cy="432.5" r="11.9"/><path d="M815.47,445.4a13,13,0,1,1,13-13v.1a12.9,12.9,0,0,1-12.9,12.9Zm0-23.7a10.8,10.8,0,1,0,10.8,10.8h0a10.79,10.79,0,0,0-10.8-10.8Z"/><circle class="cls-2" cx="876.27" cy="432.5" r="11.9"/><path d="M876.27,445.4a13,13,0,1,1,13-13v.1a12.9,12.9,0,0,1-12.9,12.9Zm0-23.7a10.8,10.8,0,1,0,10.8,10.8h0a10.79,10.79,0,0,0-10.8-10.8Z"/><path d="M948.27,1050h-1.7a8.82,8.82,0,0,1-6.8-10.3c20.4-98.9-19.5-213.3-48.6-296.8-10.3-29.4-19.1-54.8-23.4-74.1-14.8-67.4-.7-227.7-.1-234.5a8.7,8.7,0,0,1,17.3,1.5c-.2,1.7-14.4,164.4-.2,229.3,4,18.3,12.7,43.2,22.8,72.1,29.8,85.4,70.6,202.4,49.2,306A8.6,8.6,0,0,1,948.27,1050Z"/><path d="M801.77,1035.9H800a8.71,8.71,0,0,1-6.7-10.3c27.2-132,6-297.3-10.9-374.1-14.9-68.2,23.1-212.6,24.7-218.7a8.7,8.7,0,0,1,16.8,4.5c-.4,1.4-38.5,146.3-24.5,210.5,17.1,78.2,38.7,246.5,10.9,381.3A8.71,8.71,0,0,1,801.77,1035.9Z"/><polygon class="cls-2" points="800.17 1057.7 790.07 1055.5 794.37 1028 807.67 1030.8 800.17 1057.7"/><path d="M800.87,1059l-12-2.6,4.6-29.7L809,1030Zm-9.6-4.3,8.1,1.7,6.9-24.7-11-2.4Z"/><polygon class="cls-2" points="949.17 1072.7 938.97 1071.3 941.07 1043.5 954.47 1045.3 949.17 1072.7"/><path d="M950.07,1073.9l-12.2-1.6,2.2-30,15.7,2.1Zm-9.9-3.5,8.2,1.1,4.8-25.3-11.1-1.5Z"/><rect x="448.77" y="1815.1" width="3.5" height="2.17"/><path d="M1231.27,1817.3h-7v-2.2h7Zm-13.9,0h-7v-2.2h7Zm-13.9,0h-7v-2.2h7Zm-14,0h-6.9v-2.2h6.9Zm-13.9,0h-6.9v-2.2h6.9Zm-13.9,0h-6.9v-2.2h6.9Zm-13.9,0h-6.9v-2.2h6.9Zm-13.9,0H1127v-2.2h6.9Zm-13.9,0h-7v-2.2h7Zm-13.9,0h-7v-2.2h7Zm-13.9,0h-7v-2.2h7Zm-13.9,0h-7v-2.2h7Zm-13.9,0h-7v-2.2h7Zm-14,0h-6.9v-2.2h6.9Zm-13.9,0h-6.9v-2.2h6.9Zm-13.9,0h-6.9v-2.2h6.9Zm-13.9,0h-6.9v-2.2h6.9Zm-13.9,0h-6.9v-2.2h6.9Zm-13.9,0h-7v-2.2h7Zm-13.9,0h-7v-2.2h7Zm-13.9,0h-7v-2.2h7Zm-13.9,0h-7v-2.2h7Zm-13.9,0h-7v-2.2h7Zm-13.9,0h-7v-2.2h7Zm-14,0h-6.9v-2.2h6.9Zm-13.9,0h-6.9v-2.2h6.9Zm-13.9,0h-6.9v-2.2h6.9Zm-13.9,0h-6.9v-2.2h6.9Zm-13.9,0h-6.9v-2.2h6.9Zm-13.9,0h-7v-2.2h7Zm-13.9,0h-7v-2.2h7Zm-13.9,0h-7v-2.2h7Zm-13.9,0h-7v-2.2h7Zm-13.9,0h-7v-2.2h7Zm-14,0h-6.9v-2.2h6.9Zm-13.9,0h-6.9v-2.2h6.9Zm-13.9,0h-6.9v-2.2h6.9Zm-13.9,0h-6.9v-2.2h6.9Zm-13.9,0h-6.9v-2.2h6.9Zm-13.9,0h-7v-2.2h7Zm-13.9,0h-7v-2.2h7Zm-13.9,0h-7v-2.2h7Zm-13.9,0h-7v-2.2h7Zm-13.9,0h-7v-2.2h7Zm-13.9,0h-7v-2.2h7Zm-14,0h-6.9v-2.2h6.9Zm-13.9,0h-6.9v-2.2h6.9Zm-13.9,0h-6.9v-2.2h6.9Zm-13.9,0h-6.9v-2.2h6.9Zm-13.9,0h-7v-2.2h7Zm-13.9,0h-7v-2.2h7Zm-13.9,0h-7v-2.2h7Zm-13.9,0h-7v-2.2h7Zm-13.9,0h-7v-2.2h7Zm-13.9,0h-7v-2.2h7Zm-14,0h-6.9v-2.2h6.9Z"/><rect x="1238.17" y="1815.1" width="3.5" height="2.17"/><rect x="559.77" y="1247.8" width="3.5" height="2.17"/><path d="M1120.27,1249.9h-7v-2.1h7Zm-13.9,0h-7v-2.1h7Zm-13.9,0h-7v-2.1h7Zm-14,0h-6.9v-2.1h6.9Zm-13.9,0h-7v-2.1h7Zm-13.9,0h-7v-2.1h7Zm-13.9,0h-7v-2.1h7Zm-14,0h-6.9v-2.1h6.9Zm-13.9,0h-7v-2.1h7Zm-13.9,0h-7v-2.1h7Zm-13.9,0h-7v-2.1h7Zm-14,0h-6.9v-2.1h6.9Zm-13.9,0h-7v-2.1h7Zm-13.9,0h-7v-2.1h7Zm-13.9,0h-7v-2.1h7Zm-14,0h-6.9v-2.1h6.9Zm-13.9,0h-7v-2.1h7Zm-13.9,0h-7v-2.1h7Zm-13.9,0h-7v-2.1h7Zm-14,0h-6.9v-2.1h6.9Zm-13.9,0h-7v-2.1h7Zm-13.9,0h-7v-2.1h7Zm-14,0H807v-2.1h6.9Zm-13.9,0h-6.9v-2.1H800Zm-13.9,0h-7v-2.1h7Zm-13.9,0h-7v-2.1h7Zm-14,0h-6.9v-2.1h6.9Zm-13.9,0h-6.9v-2.1h6.9Zm-13.9,0h-7v-2.1h7Zm-13.9,0h-7v-2.1h7Zm-14,0h-6.9v-2.1h6.9Zm-13.9,0h-6.9v-2.1h6.9Zm-13.9,0h-7v-2.1h7Zm-13.9,0h-7v-2.1h7Zm-14,0h-6.9v-2.1h6.9Zm-13.9,0H626v-2.1h6.9Zm-13.9,0h-7v-2.1h7Zm-13.9,0h-7v-2.1h7Zm-14,0h-6.9v-2.1h6.9Zm-13.9,0h-6.9v-2.1h6.9Z"/><rect x="1127.27" y="1247.8" width="3.5" height="2.17"/></g><g id="_ÎÓÈ_3" data-name=" ÎÓÈ 3"><path d="M1424.77,2017.7l-32.6-136.7-6.7,136.7H307.77L301,1881.1l-32.6,136.6-235.9-1.6-.5-2.9L.07,1844.5v-.2c-.8-54.4,5.1-270.1,11.2-405.1,6.3-141.7,29.3-374.5,58.6-592.9,13.1-98,40.7-187.8,81.8-267.1,34.4-66.4,78.6-124.9,127.8-169.3a460.14,460.14,0,0,1,56-42.8l6.5-4.2c17-10.7,35.5-21,55-30.8-19.8-32.8-7.2-78,20.4-167,19.9-64.2,28.8-85,52.4-104.4l7-5.6v.2c9.8-7.1,21.9-14.4,37.7-24l1.1-.6C570.57-2.5,782.77-.8,846.47.6h.3c63.6-1.4,275.9-3.1,330.9,30.1,15.7,9.5,28.5,17.2,38.7,24.6v-.2l4.6,3.7,1,.8,1.4,1.1c23.6,19.4,32.5,40.2,52.4,104.4,27.6,89,40.2,134.2,20.5,167,19.4,9.7,37.8,20.1,54.9,30.9l6.4,4a459.42,459.42,0,0,1,56.1,42.9c49.2,44.4,93.4,102.9,127.8,169.3,41.2,79.3,68.7,169.1,81.8,267.1,29.3,218.4,52.3,451.1,58.6,592.9,6.1,135,12.1,350.7,11.2,405v.6l-32.4,171.3h-2.9Zm-1112.3-5h1068.2l8.3-166.9,39.7,166.9,227.9-1.6,31.5-167.1c.9-54.4-5.1-269.7-11.2-404.6-6.3-141.6-29.3-374.2-58.6-592.5-13-97.3-40.3-186.7-81.2-265.4-34.2-65.9-78-123.9-126.7-167.9a453.89,453.89,0,0,0-56.9-43.2l-1.9-1.3a627.66,627.66,0,0,0-60-33.8l-3.2-1.5,2.4-2.3c20.3-31.1,7.9-75.5-19.7-164.9-19.8-63.9-28.5-83.9-51.8-102.7l-.5-.5-.9-.7-.5-.4c-10.6-8.2-24.6-16.6-42.3-27.3-53.9-32.5-264.9-30.8-328.3-29.4h-.3C783,4.2,572,2.5,518.07,35l-1,.6c-17.9,10.8-30.9,18.7-41.3,26.7l-1.9,1.6c-23.3,18.8-32,38.8-51.7,102.7-27.7,89.4-40.1,133.8-19.7,164.9l.2.3.9,2.6-1.9,1a615.34,615.34,0,0,0-60.1,33.7l-2.7,1.8a453.12,453.12,0,0,0-56.1,42.7c-48.7,44-92.5,102-126.7,167.9-40.8,78.7-68.2,168.1-81.2,265.4-29.3,218.3-52.3,450.9-58.6,592.5-6.1,134.8-12,350.2-11.2,404.6l31.6,167.1,227.8,1.6,39.8-166.8Z"/></g><g id="_ÎÓÈ_4" data-name=" ÎÓÈ 4"><rect class="cls-2" x="796.47" y="333.5" width="100.2" height="38"/><path d="M897.67,372.5H795.47v-40h102.2Zm-100.2-2h98.2v-36h-98.2Z"/><rect x="800.57" y="337.2" width="2" height="3.5"/><path d="M802.57,360.7h-2v-7h2Zm0-10h-2v-7h2Z"/><rect x="800.57" y="363.7" width="2" height="3.5"/><rect x="888.97" y="337.2" width="2" height="3.5"/><path d="M891,360.7h-2v-7h2Zm0-10h-2v-7h2Z"/><rect x="888.97" y="363.7" width="2" height="3.5"/></g></g></g></g></svg>