<svg xmlns="http://www.w3.org/2000/svg" viewBox="0 0 288.9 288.9"><defs><style>.cls-1{font-size:52px;font-family:SaolDisplay-Regular, Saol Display;}</style></defs><title>text-svg-1</title><g id="Layer_2" data-name="Layer 2"><g id="Layer_1-2" data-name="Layer 1"><text class="cls-1" transform="translate(101.1 52.8) rotate(-15.7)">T</text><text class="cls-1" transform="translate(130.9 43.8) rotate(2.7)">H</text><text class="cls-1" transform="translate(165 45.3) rotate(20.9)">E</text><text class="cls-1" transform="matrix(0.85, 0.53, -0.53, 0.85, 193.13, 57.03)"> </text><text class="cls-1" transform="matrix(0.73, 0.69, -0.69, 0.73, 200.79, 60.22)">A</text><text class="cls-1" transform="translate(223.9 81.2) rotate(61.6)">N</text><text class="cls-1" transform="translate(240 110.5) rotate(80.1)">T</text><text class="cls-1" transform="matrix(-0.05, 1, -1, -0.05, 244.57, 141.95)">I</text><text class="cls-1" transform="translate(243.9 155.2) rotate(98.9)"> </text><text class="cls-1" transform="translate(244.2 162.6) rotate(109.9)">T</text><text class="cls-1" transform="matrix(-0.62, 0.78, -0.78, -0.62, 234.15, 192.12)">H</text><text class="cls-1" transform="translate(213 218.9) rotate(146.5)">E</text><text class="cls-1" transform="translate(187.1 235) rotate(157.6)"> </text><text class="cls-1" transform="matrix(-0.98, 0.19, -0.19, -0.98, 180.02, 239.32)">R</text><text class="cls-1" transform="translate(149.6 245.5) rotate(-173.8)">E</text><text class="cls-1" transform="matrix(-0.92, -0.39, 0.39, -0.92, 120.21, 242.74)">V</text><text class="cls-1" transform="translate(93.5 232.2) rotate(-140)">O</text><text class="cls-1" transform="matrix(-0.55, -0.84, 0.84, -0.55, 68.99, 211.56)">L</text><text class="cls-1" transform="matrix(-0.29, -0.96, 0.96, -0.29, 53.6, 189.19)">U</text><text class="cls-1" transform="translate(44.3 160.4) rotate(-89.1)">T</text><text class="cls-1" transform="translate(45.5 128.7) rotate(-76.9)">I</text><text class="cls-1" transform="translate(46.9 116.5) rotate(-64.1)">O</text><text class="cls-1" transform="matrix(0.7, -0.72, 0.72, 0.7, 60.22, 87.73)">N</text></g></g></svg>