<svg viewBox="0 0 264 264" fill="none" xmlns="http://www.w3.org/2000/svg">
<path d="M160.9 51.8C162.7 52.2 163 53.1 162.5 54.2L162.9 54.5L172.8 39.7L172.4 39.4C168.3 43.7 165.3 46.5 162.6 48.4C159.6 50.5 157.9 50.5 155.2 49.9L141.5 46.9L146.4 24.8L154.9 26.7C160.2 27.9 160 31.8 159.4 37.2L159.9 37.3L164 18.8L163.5 18.7C161.8 23.9 160.3 27.3 155 26.1L146.5 24.2L151.2 2.89999L164.2 5.79999C166.8 6.39999 168.5 7.29999 170 9.79999C171.4 12.2 172.9 15.7 175.3 21.3L175.7 21.2L172.9 4.79999H172.5C172.5 6.09999 171.7 6.69999 169.9 6.29999L155 2.99999C153 2.49999 151.7 2.29999 149.1 1.69999C147 1.19999 145.9 0.899994 144.4 0.599994L143.3 0.399994L143.2 0.899994H143.3C146.2 1.49999 146.6 1.99999 146 4.89999L137.6 42.7C137 45.6 136.4 45.8 133.5 45.2H133.4L133.3 45.7L134.4 45.9C136 46.3 137 46.4 139.1 46.9C141.7 47.5 142.9 47.8 145 48.3L160.9 51.8Z" fill="black"/>
<path d="M199.1 23L175.7 53.9C173.9 56.3 173.2 56.3 170.9 54.5H170.8L170.5 54.9L171.4 55.6C172.8 56.6 173.8 57.1 175.6 58.5C177.7 60.1 178.6 61 180.3 62.3L181.9 63.5L182.2 63.1L181.1 62.3C178.4 60.2 177.7 58.9 179.4 56.7L190.6 41.9L197.7 47.3C202.1 50.6 200.3 54 197.5 58.6L197.9 58.7L209.3 43.6L208.9 43.3C205.2 47.3 202.5 49.8 198.1 46.5L191 41.1L204.7 23.1L214.7 30.7C216.9 32.4 218 33.9 218.3 36.8C218.5 39.6 218.5 43.4 218.3 49.5L218.8 49.6L223.1 33.5L222.7 33.4C222.1 34.6 221.2 34.8 219.7 33.7L207.1 24.2C205.9 23.3 205 22.7 203.3 21.4C201.6 20.2 200.8 19.5 199.5 18.5L198.6 17.8L198.3 18.2H198.4C200.7 20 200.9 20.7 199.1 23Z" fill="black"/>
<path d="M237.3 59L203.3 77.7C200.8 79.1 200.1 78.9 198.7 76.3V76.2L198.2 76.5L198.7 77.5C199.6 79 200.3 79.9 201.4 81.9C202.7 84.2 203.2 85.4 204.2 87.3L205.2 89.1L205.7 88.8L205 87.6C203.3 84.6 203.3 83.1 205.7 81.8L221.9 72.8L226.3 80.6C229 85.4 226 87.8 221.6 90.9L221.9 91.2L238.4 82L238.2 81.6C233.2 83.8 229.7 85 227 80.2L222.6 72.4L242.4 61.4L248.5 72.3C249.9 74.7 250.3 76.5 249.4 79.3C248.5 82 246.9 85.5 244.3 91L244.7 91.3L255.1 78.3L254.8 78C253.8 78.8 252.8 78.6 251.9 77L244.2 63.2C243.4 61.9 242.8 61 241.8 59.1C240.7 57.3 240.3 56.3 239.5 54.9L239 53.9L238.5 54.2V54.3C240 56.9 239.9 57.6 237.3 59Z" fill="black"/>
<path d="M238.7 105.4C225.1 106.3 215.3 115.3 216 127C216.7 138.7 227.6 146.5 241.2 145.6C254.8 144.8 264.5 135.7 263.8 124C263.1 112.3 252.3 104.5 238.7 105.4ZM263.2 124.1C263.9 135.5 253.8 139.4 240.9 140.2C228.1 141 217.4 138.4 216.6 127C215.9 115.6 226.2 111.7 239 110.9C251.9 110.1 262.5 112.7 263.2 124.1Z" fill="black"/>
<path d="M259.4 166.6C258.2 169.3 257.6 169.7 254.9 168.5L219.4 153.1C216.7 152 216.5 151.3 217.7 148.6V148.5L217.2 148.3L216.8 149.3C216.2 150.8 216 151.9 215.1 153.8C214.2 155.7 213.6 156.7 213 158.1L212.6 159.1L213.1 159.3V159.2C214.3 156.5 214.9 156.1 217.6 157.3L234.1 164.4L230.1 173.6L205.2 176.1C204.8 177.1 204.7 177.9 204.1 179.2C203 181.8 202.9 181.6 201.6 184.6L202 184.8C203.5 181.9 204.7 180.9 211 180.2L223.8 178.9C225.1 176 226.5 174.9 229.7 174.4L229.6 174.7C225.7 183.6 228.8 191 234.8 193.6C242 196.8 248.9 192.1 252.2 184.5L255.1 177.7C256 175.8 256.4 174.5 257.5 172.1C258.4 170.1 258.9 169.1 259.5 167.7L259.9 166.7L259.4 166.6ZM251.8 184C248.6 191.5 243.8 191.7 237 188.7C229.5 185.5 227.3 181.8 230.4 174.7L234.7 164.7L256.1 174L251.8 184Z" fill="black"/>
<path d="M223.2 206.2C224.7 212.9 225.5 217.1 225.6 220.2C225.7 223.1 225.2 223.8 223.2 225.5L218.6 229.4L191.4 197.5C189.5 195.3 189.7 194.6 191.9 192.7H192L191.6 192.3L190.8 193C189.6 194.1 188.9 195 187.3 196.3C185.7 197.6 184.7 198.2 183.5 199.2L182.7 199.9L182.9 200.2H183C185.2 198.3 185.9 198.3 187.8 200.5L215 232.4L210.4 236.3C208.4 237.9 207.7 238.3 204.8 237.8C201.8 237.2 197.8 235.8 191.4 233.2L191.2 233.6L206.3 243.4L206.6 243.1C205.7 242.1 205.7 241.1 207.1 239.9L212.8 235C213.8 234.2 215.2 232.9 217.1 231.3C219.1 229.7 220.5 228.5 221.5 227.7L227.2 222.8C228.6 221.6 229.6 221.8 230.4 222.8L230.8 222.6L223.6 206.1L223.2 206.2Z" fill="black"/>
<path d="M182.3 253.2C179.5 254 178.9 253.7 178.1 250.9L167.9 213.5C167.1 210.7 167.6 210.2 170.4 209.4H170.5L170.4 208.9L169.3 209.2C167.8 209.6 166.7 209.9 164.7 210.5C162.7 211.1 161.6 211.3 160.1 211.7L145.5 215.7C143.7 216.1 143 215.6 142.9 214.3H142.5L140.5 233.1L140.9 233.2C142.4 227.5 143.9 222.6 145.4 219.7C147 216.4 148.6 215.6 151.2 214.9L162.5 211.8L173.5 252.3C174.3 255.1 173.8 255.6 171 256.4H170.9L171 256.9L172.1 256.6C173.7 256.1 174.7 255.7 176.7 255.1C178.8 254.5 179.9 254.4 181.4 254L182.5 253.7L182.3 253.2Z" fill="black"/>
<path d="M131 217C128.4 216.6 127.1 216.3 125 216L109 213.4C107.2 213.1 106.8 212.2 107.2 211.1L106.6 210.8L97.5 226.1L97.9 226.4C101.6 221.8 104.5 218.9 107.1 216.8C110 214.5 111.7 214.5 114.4 214.9L128.3 217.2L124.7 239.5L116.1 238.1C110.7 237.2 110.7 233.3 111 227.9L110.5 227.8L107.5 246.5L108 246.6C109.5 241.4 110.7 237.9 116.1 238.8L124.7 240.2L121.2 261.8L108.1 259.7C105.4 259.2 103.7 258.4 102.1 256C100.5 253.6 98.8 250.3 96.1 244.8L95.7 244.9L99.4 261.1L99.8 261C99.9 259.6 100.6 259 102.4 259.3L117.5 261.8C119.6 262.1 120.9 262.3 123.5 262.7C125.6 263 126.6 263.2 128.2 263.5L129.3 263.7L129.4 263.2H129.3C126.4 262.7 125.9 262.2 126.4 259.3L132.6 221.1C133.1 218.2 133.7 217.9 136.6 218.4H136.7L136.8 217.9L135.7 217.7C134.2 217.4 133.1 217.3 131 217Z" fill="black"/>
<path d="M95.5 207.5C94.8 208.8 93.8 209 92.4 208.1C90.8 207 88.6 203 84.3 200.1C79 196.6 70.2 196 65.2 203.5C61.9 208.4 63.4 214.5 68.2 221.1L71.7 226C76.3 232.3 77.4 236.4 74.7 240.5C72.2 244.2 67.2 245.5 61.6 241.7C57.6 239 54 234.5 54.6 221.9L54.1 221.8L51.2 236.8L51.6 236.9C52.4 235.4 53.6 235.6 54.7 236.3C56.3 237.4 58.3 240.3 61.2 242.2C67.1 246.1 74.3 245.8 78.2 240C81.9 234.5 79.4 227.9 75.9 223.1L72.4 218.3C68 212.2 66.6 206.7 69.5 202.4C72.4 198.1 78.8 197.1 84 200.6C87.1 202.7 92.9 207.3 91.3 223.6L91.8 223.7L95.9 207.6L95.5 207.5Z" fill="black"/>
<path d="M60.8 176C62.8 179.1 66.4 185.6 58.5 200L58.9 200.2L69 187L68.7 186.7C67.5 187.6 66.5 187.4 65.6 186C64.6 184.4 64.1 179.8 61.3 175.5C57.9 170.2 49.9 166.2 42.3 171.2C37.4 174.3 36.4 180.6 38.2 188.5L39.5 194.4C41.3 201.9 40.7 206.2 36.6 208.9C32.8 211.4 27.7 210.6 24 204.9C21.3 200.8 19.8 195.3 25.3 183.9L24.9 183.7L16.4 196.4L16.7 196.7C18 195.6 19.1 196.3 19.8 197.4C20.9 199 21.6 202.5 23.5 205.4C27.4 211.4 34.1 213.9 40 210.1C45.6 206.4 45.8 199.4 44.5 193.6L43.2 187.8C41.6 180.4 42.5 174.8 46.8 172C51.1 169.2 57.4 170.7 60.8 176Z" fill="black"/>
<path d="M48.9 131.6C48.8 123.5 43 116.7 36.1 113.5L35.9 114C42.2 117.3 45.6 121.9 45.6 128.5C45.7 138.7 35.9 147 20.7 147.1C8.9 147.2 1.9 139.5 1.8 131.5C1.7 125.7 5 120.5 15.7 114L15.5 113.6L0 120V120.4C1.2 120.3 2.3 120.7 2.3 122.6C2.4 124.5 1.1 127.3 1.1 131.5C1.2 139.4 8.5 151.2 25 151.1C38.8 151 49 143.1 48.9 131.6Z" fill="black"/>
<path d="M7.10001 91.4C8.50001 88.8 9.10001 88.5 11.7 89.8L46.2 107.4C48.8 108.7 48.9 109.4 47.6 112V112.1L48.1 112.3L48.6 111.3C49.3 109.9 49.7 108.8 50.6 106.9C51.5 105 52.2 104.1 52.9 102.7L53.4 101.7L52.9 101.5V101.6C51.5 104.2 50.9 104.5 48.3 103.2L31 94.4L42.2 72.3L59.5 81.1C62.1 82.4 62.2 83.1 60.9 85.7V85.8L61.4 86L61.9 85C62.6 83.6 63 82.5 63.9 80.6C64.8 78.7 65.5 77.8 66.2 76.4L66.7 75.4L66.2 75.2V75.3C64.8 77.9 64.2 78.2 61.6 76.9L27.1 59.3C24.5 58 24.4 57.3 25.7 54.7V54.6L25.2 54.4L24.7 55.4C24 56.8 23.7 57.9 22.7 59.8C21.8 61.7 21.1 62.6 20.4 64L19.9 65L20.4 65.3V65.2C21.8 62.6 22.4 62.3 25 63.6L41.6 72L30.4 94L13.8 85.6C11.2 84.3 11.1 83.6 12.4 81V80.9L11.9 80.7L11.4 81.7C10.7 83.1 10.4 84.2 9.40001 86.1C8.50001 88 7.80001 88.9 7.10001 90.3L6.60001 91.3L7.10001 91.4Z" fill="black"/>
<path d="M44 41L70.4 69.2C72.5 71.3 72.3 72 70.2 74L70.6 74.4L71.4 73.7C72.5 72.6 73.2 71.8 74.7 70.3C76.2 68.9 77.2 68.3 78.3 67.2L79.1 66.5L78.7 66.1C76.6 68.1 75.9 68.1 73.9 66L47.5 37.8C45.4 35.7 45.6 35 47.7 33L47.3 32.6L46.5 33.3C45.4 34.4 44.7 35.3 43.2 36.7C41.7 38.1 40.7 38.7 39.6 39.8L38.8 40.5L39.2 40.9C41.3 38.9 42 38.9 44 41Z" fill="black"/>
<path d="M97.6 55.8C105 52.3 108.6 44.2 108.7 36.6H108.2C107.8 43.7 105.1 48.6 99.1 51.4C89.9 55.8 78.3 50.4 71.8 36.6C66.8 25.9 70.8 16.3 78 12.9C83.2 10.5 89.4 11.3 99.7 18.2L100 17.8L87.8 6.5L87.5 6.8C88 7.8 88.1 9 86.4 9.8C84.7 10.6 81.6 10.6 77.8 12.4C70.7 15.7 63 27.3 70 42.3C75.9 54.7 87.3 60.6 97.6 55.8Z" fill="black"/>
</svg>
