<svg xmlns="http://www.w3.org/2000/svg" viewBox="0 0 254.3 254.1"><defs><style>.cls-1{font-size:38px;font-family:SaolDisplay-Regular, Saol Display;}</style></defs><title>monogram-contact_1</title><g id="Layer_2" data-name="Layer 2"><g id="Layer_1-2" data-name="Layer 1"><text class="cls-1" transform="translate(140.1 31.4) rotate(18.9)">W</text><text class="cls-1" transform="matrix(0.81, 0.59, -0.59, 0.81, 173.36, 43.59)">E</text><text class="cls-1" transform="translate(191.2 57.3) rotate(44.8)"> </text><text class="cls-1" transform="matrix(0.6, 0.8, -0.8, 0.6, 195.68, 60.65)">T</text><text class="cls-1" transform="translate(209.8 79) rotate(67.9)">H</text><text class="cls-1" transform="translate(219.3 102.4) rotate(82.3)">E</text><text class="cls-1" transform="translate(221.8 124.8) rotate(90.9)"> </text><text class="cls-1" transform="translate(222.3 131.1) rotate(99.1)">P</text><text class="cls-1" transform="translate(219.3 151.5) rotate(112)">E</text><text class="cls-1" transform="translate(211.2 172.1) rotate(125.9)">O</text><text class="cls-1" transform="matrix(-0.76, 0.65, -0.65, -0.76, 197.29, 191.35)">P</text><text class="cls-1" transform="matrix(-0.88, 0.48, -0.48, -0.88, 181.74, 204.95)">L</text><text class="cls-1" transform="translate(164.2 214.8) rotate(164.2)">E</text><text class="cls-1" transform="translate(142.3 220.4) rotate(173)"> </text><text class="cls-1" transform="translate(136.3 221.9) rotate(-178.1)">A</text><text class="cls-1" transform="matrix(-0.96, -0.27, 0.27, -0.96, 113.15, 221.34)">R</text><text class="cls-1" transform="translate(91 215.2) rotate(-150.6)">E</text><text class="cls-1" transform="matrix(-0.79, -0.62, 0.62, -0.79, 71.63, 203.68)"> </text><text class="cls-1" transform="translate(66.3 200.5) rotate(-133)">A</text><text class="cls-1" transform="matrix(-0.5, -0.87, 0.87, -0.5, 50.49, 183.49)">L</text><text class="cls-1" transform="translate(40.3 166.1) rotate(-107.7)">L</text><text class="cls-1" transform="translate(34.4 146.4) rotate(-99.6)"> </text><text class="cls-1" transform="translate(32.7 140.5) rotate(-90.9)">N</text><text class="cls-1" transform="matrix(0.25, -0.97, 0.97, 0.25, 32.29, 115.93)">O</text><text class="cls-1" transform="translate(38 92.9) rotate(-61.9)">B</text><text class="cls-1" transform="translate(48.2 73.2) rotate(-48.1)">O</text><text class="cls-1" transform="translate(63.9 55.5) rotate(-34.1)">D</text><text class="cls-1" transform="translate(81.8 43.1) rotate(-21.5)">Y</text><text class="cls-1" transform="matrix(0.99, -0.16, 0.16, 0.99, 101.54, 35.24)">S</text></g></g></svg>