<?xml version="1.0" encoding="utf-8"?>
<!-- Generator: Adobe Illustrator 24.0.0, SVG Export Plug-In . SVG Version: 6.00 Build 0)  -->
<svg version="1.1" id="Layer_1" xmlns="http://www.w3.org/2000/svg" xmlns:xlink="http://www.w3.org/1999/xlink" x="0px" y="0px"
	 viewBox="0 0 400 400" style="enable-background:new 0 0 400 400;" xml:space="preserve">
<style type="text/css">
	.st0{fill:#FFFFFF;}
</style>
<g>
	<path class="st0" d="M251.1,29.3l3.2-26.2l5,1.8l-2.5,17.9l10.5-14.9l5.8,2.1l-2,18.4l9.9-15.4l4.9,1.8l-14.8,21.9l-5.2-1.9
		l1.9-19.8l-11.4,16.2L251.1,29.3z"/>
	<path class="st0" d="M290.4,46.8l14.4-21.3l15.8,10.7l-2.4,3.6L306.6,32l-3.2,4.7l10.7,7.2l-2.4,3.6L301,40.3l-3.9,5.8l11.9,8
		l-2.4,3.6L290.4,46.8z"/>
	<path class="st0" d="M339.3,90.9l17.1-12.7l-4.5-6.1l3.5-2.6l12.1,16.4l-3.5,2.6l-4.5-6.1l-17.1,12.7L339.3,90.9z"/>
	<path class="st0" d="M355.2,115.4l23.4-10.6l2.1,4.7l-9.2,4.2l4.2,9.2l9.2-4.2l2.1,4.7l-23.4,10.6l-2.1-4.7l10.2-4.6l-4.2-9.2
		l-10.2,4.6L355.2,115.4z"/>
	<path class="st0" d="M369.3,151.6l25.1-5.3l3.9,18.6l-4.2,0.9l-2.8-13.6l-5.6,1.2l2.6,12.6l-4.2,0.9l-2.6-12.6l-6.8,1.4l2.9,14
		l-4.2,0.9L369.3,151.6z"/>
	<path class="st0" d="M374.6,211.6l25.4,3.5l-1.1,8.2c-0.4,3.1-0.8,5.1-1.2,6c-0.6,1.4-1.6,2.5-3,3.3c-1.4,0.8-3.1,1.1-5.2,0.8
		c-1.6-0.2-2.8-0.7-3.8-1.4c-1-0.7-1.7-1.5-2.2-2.5c-0.5-1-0.8-1.9-0.8-2.8c-0.1-1.3,0.1-3.1,0.4-5.4l0.5-3.3l-9.6-1.3L374.6,211.6z
		 M395,219.7l-7.2-1l-0.4,2.8c-0.3,2-0.3,3.4-0.2,4.1c0.2,0.7,0.5,1.3,1,1.8c0.5,0.5,1.1,0.7,1.9,0.9c0.9,0.1,1.7,0,2.4-0.5
		c0.7-0.5,1.1-1.1,1.4-1.9c0.2-0.6,0.4-1.8,0.7-3.7L395,219.7z"/>
	<path class="st0" d="M367.6,247.9l24.1,8.8l-6.5,17.9l-4.1-1.5l4.8-13l-5.3-2l-4.4,12.1l-4.1-1.5l4.4-12.1l-6.6-2.4l-4.9,13.5
		l-4.1-1.5L367.6,247.9z"/>
	<path class="st0" d="M364.5,287.8c2.2,1.4,3.8,2.9,4.9,4.6c0.8,1.2,1.3,2.5,1.7,3.9c0.3,1.4,0.4,2.8,0.1,4c-0.3,1.7-1,3.4-2.2,5.2
		c-2.1,3.2-4.7,5.1-7.9,5.7c-3.2,0.6-6.6-0.2-10.1-2.5c-3.5-2.2-5.6-5-6.3-8.1c-0.7-3.2-0.1-6.3,2-9.5c2.1-3.2,4.7-5.1,7.9-5.7
		C357.7,284.8,361,285.6,364.5,287.8z M361.7,292.4c-2.4-1.6-4.7-2.2-6.6-1.9c-2,0.3-3.5,1.3-4.7,3.1c-1.1,1.7-1.4,3.6-0.9,5.5
		s2,3.7,4.5,5.3c2.5,1.6,4.7,2.2,6.6,2c1.9-0.3,3.5-1.3,4.6-3.1c1.2-1.8,1.5-3.6,1-5.5C365.7,295.8,364.2,294,361.7,292.4z"/>
	<path class="st0" d="M329.2,314.9l18,18.3l-5.9,5.8c-2.3,2.2-3.8,3.5-4.7,4c-1.3,0.8-2.8,1-4.4,0.8c-1.6-0.2-3.1-1.1-4.6-2.5
		c-1.1-1.1-1.8-2.3-2.2-3.4c-0.3-1.2-0.4-2.3-0.2-3.3c0.2-1.1,0.6-2,1.1-2.7c0.7-1,1.9-2.4,3.6-4l2.4-2.4l-6.8-6.9L329.2,314.9z
		 M340.4,333.7l-5.1-5.2l-2,2c-1.5,1.4-2.3,2.5-2.6,3.2c-0.3,0.7-0.4,1.4-0.3,2c0.1,0.7,0.4,1.3,1,1.8c0.7,0.7,1.4,1,2.2,1.1
		c0.8,0,1.6-0.2,2.3-0.6c0.5-0.3,1.5-1.2,2.8-2.5L340.4,333.7z"/>
	<path class="st0" d="M301.3,339.4l13.7,21.4l-4.4,2.8l-11.4-17.8l-10.8,6.9l-2.3-3.6L301.3,339.4z"/>
	<path class="st0" d="M271.1,356.6l9.1,24l-17.8,6.7l-1.5-4.1l12.9-4.9l-2-5.3l-12,4.6l-1.5-4l12-4.6l-2.5-6.5l-13.4,5.1l-1.5-4
		L271.1,356.6z"/>
	<path class="st0" d="M190.8,371.4l5.6-0.1l2.3,5.8l10.3-0.2l2-5.9l5.5-0.1l-9.5,25.8l-5.5,0.1L190.8,371.4z M200.5,381.4l3.7,9.5
		l3.3-9.6L200.5,381.4z"/>
	<path class="st0" d="M175.1,369.7l-5.2,25.1l-10.7-2.2c-2.7-0.6-4.6-1.2-5.7-1.9c-1.1-0.7-1.9-1.7-2.4-3c-0.5-1.3-0.6-2.7-0.3-4.2
		c0.4-1.9,1.3-3.3,2.6-4.3c1.4-1,3.2-1.4,5.5-1.3c-1-0.9-1.7-1.8-2.3-2.7c-0.6-0.9-1.2-2.5-2-4.7l-2.1-5.5l6.1,1.3l2.5,6.2
		c0.9,2.2,1.5,3.6,1.9,4.2c0.4,0.6,0.8,1.1,1.3,1.4c0.5,0.3,1.3,0.6,2.5,0.8l1,0.2l2.2-10.5L175.1,369.7z M167,383.2l-3.8-0.8
		c-2.4-0.5-4-0.7-4.6-0.6c-0.6,0.1-1.2,0.3-1.6,0.8c-0.4,0.4-0.7,1-0.9,1.8c-0.2,0.8-0.1,1.6,0.3,2.2c0.3,0.6,0.9,1.1,1.7,1.4
		c0.4,0.1,1.6,0.4,3.7,0.9l4,0.8L167,383.2z"/>
	<path class="st0" d="M137.5,359.8L127,383.2l-17.4-7.8l1.8-4l12.6,5.7l2.3-5.2l-11.8-5.3l1.8-3.9l11.7,5.3l2.9-6.4l-13.1-5.9
		l1.8-3.9L137.5,359.8z"/>
	<path class="st0" d="M70.2,313.6l4.1,3.9l-2.4,5.8l7.4,7.1l5.6-2.7l4,3.8l-25,11.6l-3.9-3.8L70.2,313.6z M70,327.5l-4.1,9.3
		l9.1-4.5L70,327.5z"/>
	<path class="st0" d="M60.3,301l-21.1,14.2l-2.9-4.3l17.5-11.8l-7.2-10.7l3.6-2.4L60.3,301z"/>
	<path class="st0" d="M42.3,271l-23.5,9.7l-2-4.8l19.5-8.1L31.4,256l4-1.7L42.3,271z"/>
	<path class="st0" d="M26.6,215.7L1,216.9l-0.2-5l16.6-11.3l-17.1,0.8L0,196.6l25.6-1.3l0.3,5.2L9.7,211.7l16.7-0.8L26.6,215.7z"/>
	<path class="st0" d="M14,175.7c-2.6-0.5-4.7-1.2-6.3-2.3c-1.2-0.8-2.2-1.8-3-3c-0.8-1.2-1.4-2.4-1.7-3.7c-0.4-1.7-0.4-3.6,0-5.6
		c0.7-3.7,2.4-6.5,5.1-8.3s6.1-2.4,10.2-1.6c4.1,0.7,7.1,2.4,9,5c1.9,2.6,2.5,5.8,1.9,9.5c-0.7,3.8-2.4,6.5-5,8.3S18,176.4,14,175.7
		z M14.8,170.4c2.9,0.5,5.1,0.2,6.9-0.8c1.7-1.1,2.8-2.6,3.1-4.6c0.4-2-0.1-3.8-1.3-5.4c-1.2-1.6-3.3-2.6-6.2-3.1
		c-2.9-0.5-5.2-0.3-6.8,0.7c-1.7,1-2.7,2.6-3,4.7c-0.4,2.1,0,3.9,1.3,5.5C9.8,168.9,11.9,169.9,14.8,170.4z"/>
	<path class="st0" d="M12.4,127l4.1-9.4c0.8-1.9,1.5-3.2,2-4.1c0.6-0.8,1.2-1.5,2-2c0.8-0.5,1.7-0.8,2.7-1s2.1,0,3.1,0.5
		c1.1,0.5,2,1.2,2.7,2.2c0.7,1,1,2.1,1,3.3c1-1.3,2.2-2.1,3.6-2.4c1.3-0.3,2.7-0.2,4.1,0.4c1.1,0.5,2,1.2,2.8,2.1
		c0.8,0.9,1.3,2,1.5,3.1c0.2,1.1,0.1,2.3-0.3,3.7c-0.3,0.8-1,2.8-2.3,5.8l-3.5,8L12.4,127z M18.4,123.9l5.4,2.3l1.3-3.1
		c0.8-1.9,1.3-3,1.4-3.5c0.3-0.9,0.2-1.6,0-2.3c-0.3-0.7-0.8-1.2-1.5-1.5c-0.7-0.3-1.4-0.4-2-0.2c-0.6,0.2-1.2,0.7-1.6,1.4
		c-0.3,0.4-0.9,1.8-1.8,4L18.4,123.9z M27.8,128l6.3,2.7l1.9-4.4c0.7-1.7,1.2-2.8,1.3-3.3c0.2-0.8,0.1-1.5-0.2-2.1
		c-0.3-0.7-0.9-1.2-1.7-1.5c-0.7-0.3-1.4-0.4-2-0.3c-0.6,0.1-1.2,0.5-1.7,1c-0.5,0.6-1.2,1.9-2.2,4.1L27.8,128z"/>
	<path class="st0" d="M42.3,95.7c-2.1-1.6-3.6-3.2-4.6-4.8c-0.7-1.2-1.2-2.6-1.4-4c-0.2-1.4-0.2-2.8,0.1-4c0.4-1.7,1.2-3.4,2.5-5.1
		c2.2-3,5-4.8,8.2-5.2c3.2-0.4,6.5,0.6,9.9,3.1c3.3,2.5,5.3,5.3,5.8,8.5c0.5,3.2-0.3,6.3-2.5,9.4c-2.3,3.1-5,4.8-8.2,5.3
		C48.9,99.1,45.6,98.1,42.3,95.7z M45.4,91.3c2.3,1.7,4.5,2.5,6.5,2.3c2-0.2,3.6-1.1,4.8-2.8c1.2-1.7,1.6-3.5,1.2-5.4
		c-0.4-1.9-1.8-3.8-4.2-5.6c-2.4-1.7-4.5-2.5-6.4-2.3c-1.9,0.2-3.5,1.1-4.8,2.8c-1.3,1.7-1.7,3.5-1.3,5.5
		C41.6,87.7,43,89.5,45.4,91.3z"/>
	<path class="st0" d="M62.4,51.3l7.2-6.2c1.6-1.4,3-2.3,4-2.8c1.4-0.6,2.9-0.9,4.5-0.7c1.6,0.2,3.1,0.7,4.6,1.6
		c1.5,0.9,3,2.2,4.6,4.1c1.4,1.6,2.4,3.2,3,4.7c0.7,1.8,1,3.6,0.9,5.2c-0.1,1.2-0.6,2.6-1.4,3.9c-0.6,1-1.7,2.2-3.1,3.4l-7.4,6.3
		L62.4,51.3z M69.2,51.3l11.1,12.9l2.9-2.5c1.1-0.9,1.8-1.7,2.2-2.2c0.5-0.7,0.8-1.4,0.9-2.2c0.1-0.7-0.1-1.7-0.6-2.8
		c-0.5-1.1-1.4-2.4-2.7-3.9c-1.3-1.5-2.4-2.5-3.4-3.1c-1-0.6-1.9-0.9-2.7-0.9c-0.9,0-1.7,0.2-2.6,0.6c-0.7,0.3-1.8,1.2-3.4,2.6
		L69.2,51.3z"/>
	<path class="st0" d="M115.9,44l-5.1-9.5l-15.3-8.7l5.4-2.9l10.1,6.1l0.4-11.7l5.3-2.8L115.3,32l5.1,9.5L115.9,44z"/>
	<path class="st0" d="M139.8,23.8l4.7-1.9c0.8,1.5,1.7,2.6,2.8,3.1c1.1,0.5,2.4,0.5,3.9,0.1c1.6-0.5,2.7-1.1,3.3-2.1
		c0.6-0.9,0.8-1.8,0.5-2.7c-0.2-0.6-0.5-1-0.9-1.3c-0.5-0.3-1.2-0.5-2.1-0.6c-0.6,0-2.1,0-4.3,0.1c-2.9,0.1-5-0.2-6.3-0.8
		c-1.9-0.9-3.1-2.4-3.7-4.3c-0.4-1.3-0.3-2.5,0.1-3.8c0.4-1.3,1.2-2.4,2.4-3.4c1.2-1,2.7-1.7,4.6-2.2c3.1-0.9,5.6-0.9,7.6,0
		c2,0.9,3.3,2.5,4,4.7l-4.9,1.6c-0.6-1.2-1.3-2-2.2-2.3c-0.9-0.4-2-0.3-3.4,0.1c-1.4,0.4-2.5,1-3.1,1.9c-0.4,0.5-0.5,1.1-0.4,1.8
		c0.2,0.6,0.6,1,1.2,1.3c0.8,0.3,2.5,0.5,5,0.3s4.5,0,5.9,0.2c1.3,0.3,2.5,0.9,3.4,1.7c1,0.9,1.7,2.1,2.1,3.6c0.4,1.4,0.4,2.8,0,4.3
		c-0.4,1.5-1.3,2.7-2.5,3.7c-1.3,1-3,1.8-5.1,2.4c-3.1,0.9-5.7,0.9-7.8-0.1C142.5,28.3,140.9,26.4,139.8,23.8z"/>
</g>
</svg>
