<svg enable-background="new 0 0 489 489" viewBox="0 0 489 489" xmlns="http://www.w3.org/2000/svg"><path d="m440.1 422.7-28-315.3c-.6-7-6.5-12.3-13.4-12.3h-57.6c-.8-52.6-43.8-95.1-96.6-95.1s-95.8 42.5-96.6 95.1h-57.6c-7 0-12.8 5.3-13.4 12.3l-28 315.3c0 .4-.1.8-.1 1.2 0 35.9 32.9 65.1 73.4 65.1h244.6c40.5 0 73.4-29.2 73.4-65.1 0-.4 0-.8-.1-1.2zm-195.6-395.7c37.9 0 68.8 30.4 69.6 68.1h-139.2c.8-37.7 31.7-68.1 69.6-68.1zm122.3 435h-244.6c-25.4 0-46-16.8-46.4-37.5l26.8-302.3h45.2v41c0 7.5 6 13.5 13.5 13.5s13.5-6 13.5-13.5v-41h139.3v41c0 7.5 6 13.5 13.5 13.5s13.5-6 13.5-13.5v-41h45.2l26.9 302.3c-.4 20.7-21.1 37.5-46.4 37.5z"/></svg>