<svg xmlns="http://www.w3.org/2000/svg" viewBox="0 0 2475.12 1037.72"><defs><style>.cls-1{fill:#79b142;}.cls-2{fill:#e53030;}</style></defs><g id="Layer_2" data-name="Layer 2"><g id="Layer_22" data-name="Layer 22"><path class="cls-1" d="M2.88,744.42H77.76c4.91,0,2.62,2.29.33,6.21C66,770.25,65,803.61,65,812.76V854H163.1v-41.2c0-9.15-1-42.51-13.08-62.13-2.61-3.92-4.9-6.21,0-6.21H224.9c4.91,0,2.62,2.29.33,6.21-12.1,19.62-13.08,53-13.08,62.13V905c0,9.16,1,42.51,13.08,62.13,2.29,3.92,4.58,6.21-.33,6.21H150c-4.9,0-2.61-2.29,0-6.21,12.1-19.62,13.08-53,13.08-62.13v-41.2H65V905c0,9.16,1,42.51,13.08,62.13,2.29,3.92,4.58,6.21-.33,6.21H2.88c-4.9,0-2.61-2.29,0-6.21C15,947.48,16,914.13,16,905V812.76c0-9.15-1-42.51-13.08-62.13C.27,746.71-2,744.42,2.88,744.42Z"/><path class="cls-1" d="M245.17,967.1c12.1-19.62,13.08-53,13.08-62.13V884c0-9.15-1-42.5-13.08-62.12-2.62-3.93-4.58-5.24,0-6.22L305,801c1.31-.33,2.29.33,2.29,2V905c0,9.16,1,42.51,13.08,62.13,2.28,3.92,4.57,6.21-.33,6.21H245.17C240.59,973.31,242.55,971,245.17,967.1Zm3.27-201.75c0-16.35,13.73-30.08,30.41-30.08a30.25,30.25,0,1,1-30.41,30.08Z"/><path class="cls-1" d="M700.34,859.52c22.56,0,36.95,7.85,45.45,17.66-.32-44.8-8.83-67-34-67-17.66,0-21.91,18.63-27.14,28.77-6.22,12.1-15.7,17.33-24.2,17.33-11.77,0-21.58-9.48-18.31-22.56,6.87-27.8,46.76-33.35,68.67-33.35,38.25,0,85,18.63,83.38,83-1.31,43.81,4.25,70.63,13.08,83.71,3.92,5.55,2.94,6.21-.33,6.21H749.72c-3,0-4.58-1.64-4.58-4.58V952.05c-8.18,13.08-22.56,21.26-45.45,21.26-43.82,0-69.32-27.14-69.32-54.93v-2.62C630.37,874.89,673.86,859.52,700.34,859.52Zm12.75,102.67c31.07,0,32.38-39.56,32.38-61.8-1-9.48-9.49-30.41-32.7-30.41-15.37,0-33.35,13.41-33.35,44.47C679.42,936.69,690.53,962.19,713.09,962.19Z"/><path class="cls-1" d="M823.94,967.1C836,947.48,837,914.13,837,905V812.76c0-9.15-1-42.51-13.07-62.13-2.62-3.92-4.58-5.23,0-6.21l59.51-14.71c1.63-.33,2.61.33,2.61,2V905c0,9.16,1,42.51,13.08,62.13,2.29,3.92,4.58,6.21-.33,6.21H823.94C819.36,973.31,821.32,971,823.94,967.1Z"/><path class="cls-1" d="M978.92,859.52c22.56,0,37,7.85,45.45,17.66-.33-44.8-8.83-67-34-67-17.66,0-21.91,18.63-27.14,28.77C957,851,947.53,856.25,939,856.25c-11.77,0-21.58-9.48-18.31-22.56,6.86-27.8,46.76-33.35,68.66-33.35,38.26,0,85,18.63,83.38,83-1.3,43.81,4.25,70.63,13.08,83.71,3.93,5.55,3,6.21-.32,6.21h-57.23c-2.94,0-4.57-1.64-4.57-4.58V952.05c-8.18,13.08-22.56,21.26-45.45,21.26-43.82,0-69.32-27.14-69.32-54.93v-2.62C909,874.89,952.44,859.52,978.92,859.52Zm12.75,102.67c31.07,0,32.37-39.56,32.37-61.8-1-9.48-9.48-30.41-32.69-30.41C976,870,958,883.39,958,914.45,958,936.69,969.11,962.19,991.67,962.19Z"/><path class="cls-1" d="M1086.82,984.75A28.63,28.63,0,0,1,1099.9,988c11.44,5.89,22.24,16.35,33.35,16.35,17.66,0,23.55-11.44,31.39-26.81.66-1.31,1.64-2.62,2.29-4.25-5.56-11.12-9.48-19.95-23.54-48.72L1111,858.54c-14.72-29.43-21.26-40.87-31.39-46.43-2-1-1.64-2.29,1.31-2.29h71.93c2.62,0,2,1.31.66,2.29-6.87,4.9-3.6,24.19,1.63,36,13.73,31.71,21.91,48.06,36.29,78.47,14.07-27.79,28.45-56.57,31.4-65.72,6.86-19.62,4.25-39.89-5.56-47.74-2-1.31-1.31-3.27,2-3.27h51c2.61,0,2,1.63-.66,3.6-10.46,7.52-20.6,23.54-32.37,45.12l-68.66,128.17c-16.35,30.74-43.16,51-68.34,51a47.69,47.69,0,0,1-25.83-7.84C1050.85,1014.51,1064.91,984.75,1086.82,984.75Z"/><path class="cls-1" d="M1341.21,859.52c22.56,0,37,7.85,45.45,17.66-.33-44.8-8.83-67-34-67-17.65,0-21.91,18.63-27.14,28.77-6.21,12.1-15.69,17.33-24.19,17.33-11.78,0-21.58-9.48-18.32-22.56,6.87-27.8,46.76-33.35,68.67-33.35,38.26,0,85,18.63,83.38,83-1.31,43.81,4.25,70.63,13.08,83.71,3.92,5.55,2.94,6.21-.33,6.21h-57.22c-2.94,0-4.58-1.64-4.58-4.58V952.05c-8.17,13.08-22.56,21.26-45.45,21.26-43.81,0-69.32-27.14-69.32-54.93v-2.62C1271.23,874.89,1314.72,859.52,1341.21,859.52ZM1354,962.19c31.06,0,32.37-39.56,32.37-61.8-1-9.48-9.48-30.41-32.7-30.41-15.37,0-33.35,13.41-33.35,44.47C1320.28,936.69,1331.4,962.19,1354,962.19Z"/><path class="cls-1" d="M1464.8,967.1c12.1-19.62,13.08-53,13.08-62.13V884c0-9.15-1-42.5-13.08-62.12-2.62-3.93-4.58-5.24,0-6.22L1524.31,801c1.64-.33,2.62.33,2.62,2v9.16a70.61,70.61,0,0,1,39.56-11.77c52.32,0,92.21,37.27,92.21,88.61,0,1.63-1,57.55,12.1,76.51,4.25,6.54,4.9,7.85.65,7.85h-74.88c-5.56,0-1.3-4.25,0-6.21,12.1-19.62,12.76-56.24,12.76-61.48,0-53.62-14.06-95.15-50-95.15-25.18,0-31.39,23.54-32.37,54.61V905c0,9.16,1,42.51,13.08,62.13,2.28,3.92,4.57,6.21-.33,6.21H1464.8C1460.22,973.31,1462.18,971,1464.8,967.1Z"/><path class="cls-1" d="M1775.42,744.42h74.88c4.9,0,2.61,2.29.32,6.21-12.09,19.62-13.08,53-13.08,62.13V854h98.1v-41.2c0-9.15-1-42.51-13.08-62.13-2.62-3.92-4.91-6.21,0-6.21h74.88c4.9,0,2.61,2.29.32,6.21-12.09,19.62-13.07,53-13.07,62.13V905c0,9.16,1,42.51,13.07,62.13,2.29,3.92,4.58,6.21-.32,6.21h-74.88c-4.91,0-2.62-2.29,0-6.21,12.1-19.62,13.08-53,13.08-62.13v-41.2h-98.1V905c0,9.16,1,42.51,13.08,62.13,2.29,3.92,4.58,6.21-.32,6.21h-74.88c-4.91,0-2.62-2.29,0-6.21,12.1-19.62,13.08-53,13.08-62.13V812.76c0-9.15-1-42.51-13.08-62.13C1772.8,746.71,1770.51,744.42,1775.42,744.42Z"/><path class="cls-1" d="M2075.91,859.52c22.56,0,37,7.85,45.45,17.66-.33-44.8-8.83-67-34-67-17.65,0-21.9,18.63-27.14,28.77-6.21,12.1-15.69,17.33-24.19,17.33-11.77,0-21.58-9.48-18.31-22.56,6.86-27.8,46.76-33.35,68.66-33.35,38.26,0,85,18.63,83.38,83-1.3,43.81,4.25,70.63,13.08,83.71,3.93,5.55,3,6.21-.32,6.21h-57.23c-2.94,0-4.57-1.64-4.57-4.58V952.05c-8.18,13.08-22.57,21.26-45.45,21.26-43.82,0-69.32-27.14-69.32-54.93v-2.62C2005.94,874.89,2049.42,859.52,2075.91,859.52Zm12.75,102.67c31.07,0,32.37-39.56,32.37-61.8-1-9.48-9.48-30.41-32.7-30.41C2073,870,2055,883.39,2055,914.45,2055,936.69,2066.1,962.19,2088.66,962.19Z"/><path class="cls-1" d="M2199.5,967.1c12.1-19.62,13.08-53,13.08-62.13V884c0-9.15-1-42.5-13.08-62.12-2.61-3.93-4.58-5.24,0-6.22L2259,801c1.64-.33,2.62.33,2.62,2v23.87c9.81-14.71,26.81-26.48,52.32-26.48,21.58,0,41.2,16.34,46.1,30.41,5.89,16.67-5.89,28.12-18.64,28.12-6.87,0-13.73-3-19-9.81-8.5-10.79-16.35-29.1-32.7-29.1-14.39,0-28.12,15.36-28.12,37.6V905c0,9.16,1,42.51,13.08,62.13,2.29,3.92,4.58,6.21-.33,6.21H2199.5C2194.92,973.31,2196.89,971,2199.5,967.1Z"/><path class="cls-1" d="M2371.49,809.82h.32c28.12,0,47.41-25.51,59.51-46.43,1.31-2.29,2.95-3.27,4.25-3.27,1.64,0,2.62,1.3,2.62,3.59v46.11h27.47a2.4,2.4,0,0,1,2.61,2.61V817a2.41,2.41,0,0,1-2.61,2.62h-27.47V893.2c0,31.06.65,54.93,19,54.93a19.44,19.44,0,0,0,13.74-6.21c3.59-3.6,5.23-.66,3.59,3.6-4.25,10.79-19.29,27.79-41.85,27.79-35,0-43.49-30.41-43.49-66V819.63h-17.65a2.41,2.41,0,0,1-2.62-2.62v-4.58A2.41,2.41,0,0,1,2371.49,809.82Z"/><path class="cls-2" d="M589.06,893.07A138.52,138.52,0,0,1,570.66,928a179.88,179.88,0,0,1-25.36,28.3q-6.91,6.33-14.26,12l-3.68,2.8-3.73,2.71q-1.86,1.37-3.76,2.66l-3.79,2.6c-5.14,3.34-10.27,6.62-15.56,9.64-2.63,1.52-5.28,3-7.95,4.43s-5.37,2.81-8.06,4.19a296.83,296.83,0,0,1-33.17,14.34c9.49-7.41,18.88-14.74,28-22.29,4.52-3.82,9.06-7.57,13.41-11.51S501.43,970,505.62,966s8.3-8.09,12.17-12.33,7.76-8.43,11.32-12.84a193.83,193.83,0,0,0,19-27.36,125.24,125.24,0,0,0,12.22-29.28,98.11,98.11,0,0,0,2.7-15,84.26,84.26,0,0,0,.07-14.81,73.55,73.55,0,0,0-2.64-14.2,60.42,60.42,0,0,0-5.33-12.82,40.34,40.34,0,0,0-3.43-5.22,22.47,22.47,0,0,0-1.64-1.85,4.26,4.26,0,0,0-.33-.31l-.15-.14-.32-.28c-.42-.36-.84-.73-1.27-1.07a41,41,0,0,0-10.74-6.56,34.2,34.2,0,0,0-11.58-2.61,38.05,38.05,0,0,0-12.23,1.39c-8.28,2.23-16.5,7.12-23.56,13.67a78.84,78.84,0,0,0-9.75,11l-1.09,1.51-1.8,2.61a18.73,18.73,0,0,1-4.61,4.39,18.82,18.82,0,0,1-18.11,1.54,18.56,18.56,0,0,1-5.3-3.56,17.75,17.75,0,0,1-2.08-2.36c-.29-.41-.6-.86-.85-1.26l-.14-.22-1.06-1.8c-.69-1.21-1.42-2.37-2.14-3.55a141,141,0,0,0-9.06-13.14A61.13,61.13,0,0,0,424,809.29,27.79,27.79,0,0,0,413.34,804a31.48,31.48,0,0,0-12.89,0,58.47,58.47,0,0,0-7.27,1.87,43.26,43.26,0,0,0-6.6,2.75,46.57,46.57,0,0,0-12,8.88,63.06,63.06,0,0,0-15.07,61.83,52.61,52.61,0,0,1-7.83-16.58,63.47,63.47,0,0,1-2.21-18.79,69.59,69.59,0,0,1,12-37.07,64.83,64.83,0,0,1,14.31-15,61.26,61.26,0,0,1,9.12-5.61,85.88,85.88,0,0,1,9.54-4,56.93,56.93,0,0,1,10.7-2.6,48.8,48.8,0,0,1,11.68-.31,49.33,49.33,0,0,1,11.71,2.58,57.16,57.16,0,0,1,10.5,5,69.58,69.58,0,0,1,8.9,6.47,96,96,0,0,1,7.57,7.16q3.27,3.45,6.17,7c1.79-2.15,3.66-4.22,5.63-6.23a93.8,93.8,0,0,1,16.65-13.52,82.24,82.24,0,0,1,20.22-9.3,71.57,71.57,0,0,1,23-3,68,68,0,0,1,23.06,5,75.11,75.11,0,0,1,19.55,12c.73.6,1.42,1.22,2.11,1.84l.51.46.66.63c.43.41.88.84,1.26,1.25a55.51,55.51,0,0,1,4.18,4.9,73.61,73.61,0,0,1,6.2,9.76,96.22,96.22,0,0,1,10.7,41.21A110.82,110.82,0,0,1,589.06,893.07Z"/><path class="cls-1" d="M755.9,318.92,743.63,349l82.3,33.59-5.1,12.51-82.31-33.6-12.3,30.14-10.56-4.31,29.67-72.72Z"/><path class="cls-1" d="M804.36,219.56l83.7,55.29-7.48,11.33L842.5,261l-29.82,45.15,38.08,25.15-7.48,11.33-83.71-55.28,7.49-11.33,37.32,24.65,29.82-45.15L796.88,230.9Z"/><path class="cls-1" d="M938.28,206.75l7.84,7.8L902.8,258.64l-71.55-70.31,43.32-44.09,7.89,7.76-33.8,34.4,23.76,23.35,27.38-27.86,7.59,7.46L880,217.21l24.42,24Z"/><path class="cls-1" d="M993.15,74.48,965.63,91.73l47.21,75.33-11.44,7.17L954.18,98.91,926.6,116.19l-6.06-9.67,66.55-41.71Z"/><path class="cls-1" d="M1114.65,66.41a58,58,0,0,1,4.1,20.59,47.31,47.31,0,0,1-3.59,18.74,45,45,0,0,1-10.82,15.46,56.17,56.17,0,0,1-37.66,14.49,45.2,45.2,0,0,1-18.35-4.22A47.48,47.48,0,0,1,1033.1,120a58.06,58.06,0,0,1-10.76-18,57.77,57.77,0,0,1-4.1-20.58,48,48,0,0,1,3.57-18.78,45.38,45.38,0,0,1,10.76-15.5,55.78,55.78,0,0,1,37.66-14.5,45.09,45.09,0,0,1,18.41,4.28,47.69,47.69,0,0,1,15.25,11.53A58,58,0,0,1,1114.65,66.41Zm-13,5a51.34,51.34,0,0,0-8.31-14.58,35.09,35.09,0,0,0-11.13-9A31,31,0,0,0,1069,44.55a40.74,40.74,0,0,0-27.37,10.53,31.37,31.37,0,0,0-7.68,11.32,34.73,34.73,0,0,0-2.23,14.18,50.91,50.91,0,0,0,3.6,16.38,50.87,50.87,0,0,0,8.3,14.55,35,35,0,0,0,11.15,9,31,31,0,0,0,13.28,3.21,41.22,41.22,0,0,0,27.37-10.54A30.6,30.6,0,0,0,1103,101.9a35,35,0,0,0,2.21-14.13A50.62,50.62,0,0,0,1101.65,71.42Z"/><path class="cls-1" d="M1161,7.33a55.65,55.65,0,0,1,16.7-.53,31.88,31.88,0,0,1,12.52,4.29,25.23,25.23,0,0,1,8.4,8.54,34.56,34.56,0,0,1,4.33,12.27,32.67,32.67,0,0,1-.33,13,27.51,27.51,0,0,1-5.45,11,33.37,33.37,0,0,1-10.46,8.37,50.42,50.42,0,0,1-15.47,4.93l-15.89,2.62,6.12,37-13.33,2.2-16.35-99Zm8.48,51.31a31.21,31.21,0,0,0,9.87-3.19A21.48,21.48,0,0,0,1186,50a17.64,17.64,0,0,0,3.44-7.27,22.55,22.55,0,0,0,.14-8.61q-1.56-9.47-8.28-13.81t-18.59-2.4l-15.89,2.63,6.74,40.75Z"/><path class="cls-1" d="M1316.17,18.47A5.16,5.16,0,0,1,1314.7,20a3,3,0,0,1-1.82.41,5,5,0,0,1-2.71-1.38q-1.53-1.29-3.84-2.88a32.41,32.41,0,0,0-5.62-3,25,25,0,0,0-8.13-1.73,24.09,24.09,0,0,0-8.08.69,17,17,0,0,0-6,2.93,13.5,13.5,0,0,0-3.85,4.69,15.66,15.66,0,0,0-1.6,6,11.33,11.33,0,0,0,1.6,7.09,17.72,17.72,0,0,0,5.13,5.07,41.1,41.1,0,0,0,7.46,3.9q4.2,1.73,8.6,3.56t8.57,4a30.9,30.9,0,0,1,7.36,5.37,22.11,22.11,0,0,1,5,7.56,24,24,0,0,1,1.36,10.61,33.93,33.93,0,0,1-3,12.18,28.61,28.61,0,0,1-7.2,9.59,30.63,30.63,0,0,1-11,6,39,39,0,0,1-14.37,1.5A43.61,43.61,0,0,1,1265,97.46,41.7,41.7,0,0,1,1252,87l4.34-6.16a4.91,4.91,0,0,1,1.44-1.2,3.2,3.2,0,0,1,1.82-.41,4,4,0,0,1,2,.87c.74.54,1.57,1.22,2.5,2s2,1.7,3.19,2.67a28.16,28.16,0,0,0,4.13,2.73,28.9,28.9,0,0,0,5.36,2.21,29.63,29.63,0,0,0,6.87,1.2,25.83,25.83,0,0,0,8.67-.76,18.1,18.1,0,0,0,6.64-3.31,16.15,16.15,0,0,0,4.4-5.49,19.27,19.27,0,0,0,1.9-7.38,12.56,12.56,0,0,0-1.57-7.58,17.12,17.12,0,0,0-5.08-5.21,37.31,37.31,0,0,0-7.47-3.83L1282.51,54q-4.38-1.74-8.58-3.91a28.57,28.57,0,0,1-7.36-5.4,22.43,22.43,0,0,1-4.91-7.87,26.92,26.92,0,0,1-1.32-11.28,26.61,26.61,0,0,1,2.75-10.13,26.33,26.33,0,0,1,6.59-8.4,29.51,29.51,0,0,1,10.12-5.49A35.36,35.36,0,0,1,1293.19.1a42.21,42.21,0,0,1,15.08,3.67,36.29,36.29,0,0,1,11.61,8.49Z"/><path class="cls-1" d="M1433.86,80.14a57.88,57.88,0,0,1-8.79,19.06,47.37,47.37,0,0,1-13.92,13.06,45.11,45.11,0,0,1-17.83,6.14,52.82,52.82,0,0,1-20.48-1.59,52.29,52.29,0,0,1-18.51-8.82A45.22,45.22,0,0,1,1342,93.79a47.49,47.49,0,0,1-5.55-18.26,57.88,57.88,0,0,1,1.88-20.91,58,58,0,0,1,8.79-19.06A47.78,47.78,0,0,1,1361,22.47a45.18,45.18,0,0,1,17.81-6.22,55.74,55.74,0,0,1,39,10.41,45.25,45.25,0,0,1,12.38,14.28,47.8,47.8,0,0,1,5.55,18.29A58.1,58.1,0,0,1,1433.86,80.14Zm-13.46-3.59a50.94,50.94,0,0,0,1.84-16.68A35.19,35.19,0,0,0,1418.55,46a31,31,0,0,0-8.81-10.43A40.79,40.79,0,0,0,1381.4,28a31.35,31.35,0,0,0-12.86,4.65,34.76,34.76,0,0,0-10.14,10.15,51,51,0,0,0-6.72,15.38,50.48,50.48,0,0,0-1.83,16.64,34.87,34.87,0,0,0,3.73,13.83,31,31,0,0,0,8.85,10.4,41.25,41.25,0,0,0,28.34,7.57A30.79,30.79,0,0,0,1403.6,102a35.14,35.14,0,0,0,10.09-10.13A50.73,50.73,0,0,0,1420.4,76.55Z"/><path class="cls-1" d="M1447.67,142.71l-12.41-5.52L1476,45.53l12.41,5.52Z"/><path class="cls-1" d="M1523.85,171.82l-5.81,9.82-49-29,51.06-86.35,11.63,6.88-45.25,76.52Z"/><path class="cls-1" d="M1659,186.65l-23.74-22.16-60.66,65-9.87-9.21,60.65-65-23.8-22.21,7.79-8.34,57.42,53.58Z"/><path class="cls-1" d="M1651.77,303.39l-8.83,6.66-37.5-49.14,79.73-60.86,37.51,49.14-8.8,6.71-29.26-38.34-26.49,20.21,23.7,31-8.45,6.46-23.7-31L1622.47,265Z"/><path class="cls-1" d="M1688.24,395.9l-4.76-9.36a4.54,4.54,0,0,1-.52-3,5.52,5.52,0,0,1,1.3-2.54l17.33-19.34-20.41-40.12-25.84,2.62a4.92,4.92,0,0,1-2.72-.42,4.43,4.43,0,0,1-2.21-2.17l-4.76-9.36,107.59-9.73,6.22,12.22Zm20.37-42.1,29.24-32.54c.86-1,1.9-2,3.1-3.23s2.51-2.4,3.92-3.64a76.6,76.6,0,0,1-9.78,1.6l-43.46,4.44Z"/><path class="cls-1" d="M1477.84,422.79a5.76,5.76,0,0,0-4.06-4c-27.72-7.43-56.37-15.11-85.54-18.68-33-4-62.73-2.1-88.4,5.78A161.41,161.41,0,0,0,1265.5,421c-21.5,12.66-37.85,29.31-47.26,48.17-9.54,19.11-11.67,40.8-5.9,59.7-7,7.48-13.64,15.28-19.8,23.3.67-16.12,1.82-32.22,3.93-48.21,4.62-35.15,14.67-69.39,24.7-103.33,17.62,4.34,38-.3,55.33-12.77s29.23-30.27,38.64-46h0a592.15,592.15,0,0,0,28.48-54.67,4.22,4.22,0,0,0-4.11-6c-17,1.12-34.47,2.28-51.53,5.86-19.34,4-35.72,10.84-48.67,20.2a96.09,96.09,0,0,0-16.48,15.13c-9.72,11.3-15.76,23.87-17.46,36.37a49.42,49.42,0,0,0,7.25,33.7v0a409.94,409.94,0,0,0-26.31,85.49,224.23,224.23,0,0,0-11.79-21.13c6.7-12.84,8.14-28.72,3.93-43.78s-13.65-29.24-27.41-41.37A119,119,0,0,0,1128.38,356c-17.4-9.24-38.55-14.77-62.86-16.44-21.46-1.48-43.11.07-64,1.57a4.72,4.72,0,0,0-3.93,2.61,4.77,4.77,0,0,0,.26,4.71c15.94,24.71,30,44.44,44.11,62.09s31.8,37.43,55,49.72c24,12.72,50.69,14.67,71.78,5.34a212,212,0,0,1,14.63,29q-.51,3.24-1,6.48a540.39,540.39,0,0,0-5.14,56.52c-.74,19.58-1.49,39.44,1.1,58.9,1.06,7.95,12,8.3,12.65,0,1.25-14.62,1-29.29,1.06-44A295.07,295.07,0,0,1,1216.91,541c25.76,18.19,62.13,22.57,97.72,11.69,34.22-10.46,62.93-32.36,86.51-52.4h0c23.56-20,47.49-42.88,75.31-71.94A5.8,5.8,0,0,0,1477.84,422.79Zm-252-90.69a206.29,206.29,0,0,0,3.78,32.45,186.79,186.79,0,0,0-11.88,19.84,42,42,0,0,1-4-24.55h0C1215,350.48,1219.17,341,1225.82,332.1Zm70.55,23.07c-2.76,3.83-5.45,7.25-8.14,10.35-14.92-2.12-30.09-3.82-45.15-5.06l.7-.89C1261.06,358.48,1278.72,357,1296.37,355.17Zm-59.88,14.28a4.19,4.19,0,0,0,1-.95c14.25,1.07,28.85,2.61,43.48,4.57a87.53,87.53,0,0,1-9.44,7.92c-15.12,10.9-33.07,15.18-48.19,11.52l-.17-.22A178,178,0,0,1,1236.49,369.45Zm14.87-18.87a172.31,172.31,0,0,1,32-27.69c11.21-4.14,23.52-8.09,37.89-9.4-4.51,8.63-8.9,16.5-13.36,24-1.69,2.81-3.47,5.68-5.31,8.54C1285.8,347.86,1268.59,349.38,1251.36,350.58Zm26.33-34c-4.52,3.06-8.91,6.34-13.11,9.78a89.74,89.74,0,0,1,13.26-27,4.15,4.15,0,0,0,.61-1.25c3.68-1.06,7.47-2,11.26-2.79,2.51-.52,5.18-1,8.18-1.49A179.51,179.51,0,0,0,1277.69,316.55Zm-23.88,18.85a4,4,0,0,0,0,.59,186.84,186.84,0,0,0-17.22,19.12,196.36,196.36,0,0,1-2.47-32.39,86.52,86.52,0,0,1,10.19-8.67,100.77,100.77,0,0,1,21.53-11.65A98.09,98.09,0,0,0,1253.81,335.4Zm39.66-24.89a223.66,223.66,0,0,1,19-18.7c7-.76,13.86-1.29,20.41-1.75-2.38,5-4.73,9.82-7.14,14.61A126.67,126.67,0,0,0,1293.47,310.51Zm136.56,148c-12.6,12.07-24.52,22.87-36.36,32.93-4.37,3.71-9,7.49-13.71,11.24-29.2-6.5-59-13.78-88.52-21.67a294.09,294.09,0,0,1,69.81-28.73C1382.29,451.77,1405.12,452.19,1430,458.55ZM1368,511.82A248,248,0,0,1,1346,526.2c-23.68-12-48-23.46-72.5-34,1.48-1,2.9-1.92,4.28-2.81C1307.2,497.35,1337.5,504.9,1368,511.82Zm-59.46-53.54a5,5,0,0,0-.45,1.25A313.21,313.21,0,0,0,1267,482.69a335.49,335.49,0,0,1,14.48-57.14,148.35,148.35,0,0,1,21.76-8.65,174.39,174.39,0,0,1,45.23-7.17A164.55,164.55,0,0,0,1308.51,458.28Zm47.91-16.57a301.66,301.66,0,0,0-30.58,10.14,153.34,153.34,0,0,1,38.81-40.07,5.33,5.33,0,0,0,1.7-1.95c6.79.3,13.67.87,20.48,1.71,5.52.68,11.45,1.59,18.31,2.84C1386.21,423.1,1368.35,433.1,1356.42,441.71Zm-127.86,32.6c7.74-15.5,20.87-29.42,38.16-40.52a345.2,345.2,0,0,0-12.8,58.08,314.2,314.2,0,0,0-32.08,27.37c-2.76-14.54-.37-30.71,6.72-44.93Zm31.82,27.13a5.66,5.66,0,0,0,2.57-1.3l.4.19c23.21,9.9,46.77,20.81,70.1,32.47a154.14,154.14,0,0,1-22.19,8.84c-30.75,9.4-62.47,6.3-85.07-8.27a5.6,5.6,0,0,0-.38-1.11l-.21-.53A304.29,304.29,0,0,1,1260.38,501.44Zm201-74.05c-7.34,7.56-14.45,14.72-21.65,21.79-18.89-5.54-37.32-8.17-60.3-8.54a378.25,378.25,0,0,1,45.54-22.3C1437.49,421.15,1449.79,424.32,1461.34,427.39Zm-312.62-44.9c10.22,10,17.29,21.38,20.56,33.07a52.35,52.35,0,0,1-1,31.89,230.63,230.63,0,0,0-18.54-23.13A253.8,253.8,0,0,0,1148.72,382.49Zm-7.37,47.31h0a4.8,4.8,0,0,0,1.54,1.13A222,222,0,0,1,1163.34,457l0,0a6,6,0,0,0-.38.64c-18.06,7.17-41,5-61.54-5.9a110.06,110.06,0,0,1-13.75-8.71C1105.63,438.09,1123.68,433.62,1141.35,429.8Zm-9.18-9.84c.59.56,1.18,1.14,1.8,1.74-18.61,4.13-37.26,8.87-55.52,14.1-4.14-3.6-8.31-7.63-12.68-12.26C1088.12,422.79,1110.43,421.59,1132.17,420Zm8.39-5.1a229.19,229.19,0,0,0-25.24-21.33,3.76,3.76,0,0,0-.16-.84,120.58,120.58,0,0,0-21.05-39.32,125.75,125.75,0,0,1,29.8,11,109.81,109.81,0,0,1,14.18,9A244.57,244.57,0,0,1,1140.56,414.86Zm-63.11-33.07a213.63,213.63,0,0,1,44.94,29.32c-21.77,1.51-43.58,2.58-64.93,3.19-2.81-3.27-5.53-6.55-8.1-9.75-6.91-8.62-13.79-17.76-20.95-27.84C1046.68,375.75,1062.75,378.55,1077.45,381.79Zm-41-33.17a278.11,278.11,0,0,1,27.93,20.9,170.56,170.56,0,0,0-28.55-2.57c-4.61,0-9.18.22-13.83.65-4-5.75-7.85-11.54-11.82-17.6C1018.59,349.43,1027.47,348.89,1036.48,348.62Zm46.41,25.27c-7.12-7.54-18-16.76-29.81-25.35,4.37.07,8.21.22,11.79.47,4.89.33,9.78.86,14.57,1.55a4.48,4.48,0,0,0,1,1.53,111.36,111.36,0,0,1,21.52,32.38C1095.8,380.65,1089.41,377.11,1082.89,373.89Z"/></g></g></svg>