<?xml version="1.0"?>
<svg xmlns="http://www.w3.org/2000/svg" xmlns:xlink="http://www.w3.org/1999/xlink" xmlns:svgjs="http://svgjs.com/svgjs" version="1.1" width="512" height="512" x="0" y="0" viewBox="0 0 512.027 512.027" style="enable-background:new 0 0 512 512" xml:space="preserve" class=""><g>
<g xmlns="http://www.w3.org/2000/svg">
	<g>
		<path d="M501.347,277.347h-416V64.013c0-5.891-4.776-10.667-10.667-10.667h-64c-5.891,0-10.667,4.776-10.667,10.667v288    c0,5.891,4.776,10.667,10.667,10.667h490.667c5.891,0,10.667-4.776,10.667-10.667v-64    C512.013,282.122,507.238,277.347,501.347,277.347z M490.68,341.347H21.347V74.68h42.667v213.333    c0,5.891,4.776,10.667,10.667,10.667h416V341.347z" fill="#c69533" data-original="#000000" style="" class=""/>
	</g>
</g>
<g xmlns="http://www.w3.org/2000/svg">
	<g>
		<path d="M501.347,170.68h-64c-5.891,0-10.667,4.776-10.667,10.667v53.333h-352v21.333h362.667c5.891,0,10.667-4.776,10.667-10.667    v-53.333h42.667v64h21.333v-74.667C512.013,175.456,507.238,170.68,501.347,170.68z" fill="#c69533" data-original="#000000" style="" class=""/>
	</g>
</g>
<g xmlns="http://www.w3.org/2000/svg">
	<g>
		<path d="M170.68,181.347h-96v21.333h95.872c0.657-0.071,1.32-0.075,1.978-0.012c5.383,0.514,9.331,5.295,8.817,10.678h21.333    c0.018-0.606,0.018-1.213,0-1.819C202.178,194.357,187.851,180.845,170.68,181.347z" fill="#c69533" data-original="#000000" style="" class=""/>
	</g>
</g>
<g xmlns="http://www.w3.org/2000/svg">
	<g>
		<path d="M512.013,384.013v-32H490.68v32c0.062,0.634,0.062,1.273,0,1.907c-0.527,5.365-5.302,9.287-10.667,8.76h-448    c-0.634,0.062-1.273,0.062-1.907,0c-5.365-0.527-9.286-5.302-8.76-10.667v-32H0.013v32c-0.018,0.606-0.018,1.213,0,1.819    c0.502,17.171,14.829,30.684,32,30.181h448c0.606,0.018,1.213,0.018,1.819,0C499.003,415.511,512.516,401.184,512.013,384.013z" fill="#c69533" data-original="#000000" style="" class=""/>
	</g>
</g>
<g xmlns="http://www.w3.org/2000/svg">
	<g>
		<path d="M85.347,394.68H42.68c-5.891,0-10.667,4.776-10.667,10.667v42.667c0,5.891,4.776,10.667,10.667,10.667h42.667    c5.891,0,10.667-4.776,10.667-10.667v-42.667C96.013,399.456,91.238,394.68,85.347,394.68z M74.68,437.347H53.347v-21.333H74.68    V437.347z" fill="#c69533" data-original="#000000" style="" class=""/>
	</g>
</g>
<g xmlns="http://www.w3.org/2000/svg">
	<g>
		<path d="M469.347,394.68H426.68c-5.891,0-10.667,4.776-10.667,10.667v42.667c0,5.891,4.776,10.667,10.667,10.667h42.667    c5.891,0,10.667-4.776,10.667-10.667v-42.667C480.013,399.456,475.238,394.68,469.347,394.68z M458.68,437.347h-21.333v-21.333    h21.333V437.347z" fill="#c69533" data-original="#000000" style="" class=""/>
	</g>
</g>
<g xmlns="http://www.w3.org/2000/svg">
	<g>
		<rect x="42.68" y="277.347" width="32" height="21.333" fill="#c69533" data-original="#000000" style="" class=""/>
	</g>
</g>
<g xmlns="http://www.w3.org/2000/svg">
</g>
<g xmlns="http://www.w3.org/2000/svg">
</g>
<g xmlns="http://www.w3.org/2000/svg">
</g>
<g xmlns="http://www.w3.org/2000/svg">
</g>
<g xmlns="http://www.w3.org/2000/svg">
</g>
<g xmlns="http://www.w3.org/2000/svg">
</g>
<g xmlns="http://www.w3.org/2000/svg">
</g>
<g xmlns="http://www.w3.org/2000/svg">
</g>
<g xmlns="http://www.w3.org/2000/svg">
</g>
<g xmlns="http://www.w3.org/2000/svg">
</g>
<g xmlns="http://www.w3.org/2000/svg">
</g>
<g xmlns="http://www.w3.org/2000/svg">
</g>
<g xmlns="http://www.w3.org/2000/svg">
</g>
<g xmlns="http://www.w3.org/2000/svg">
</g>
<g xmlns="http://www.w3.org/2000/svg">
</g>
</g></svg>
