<?xml version="1.0"?>
<svg xmlns="http://www.w3.org/2000/svg" xmlns:xlink="http://www.w3.org/1999/xlink" xmlns:svgjs="http://svgjs.com/svgjs" version="1.1" width="512" height="512" x="0" y="0" viewBox="0 0 480.00016 480" style="enable-background:new 0 0 512 512" xml:space="preserve" class=""><g><path xmlns="http://www.w3.org/2000/svg" d="m424 0c-27.804688.0507812-51.371094 20.480469-55.359375 48h-88.140625c-22.960938.03125-44.152344 12.328125-55.570312 32.25l-6.660157 11.65625c-4.28125 7.46875-12.230469 12.082031-20.839843 12.09375h-21.429688c-17.664062.019531-31.980469 14.335938-32 32v24h-104c-22.082031.027344-39.9726562 17.917969-40 40v104h32v32h48v-32h272v32h48v-32h32v-192.570312c29.070312-4.195313 49.960938-30.140626 47.855469-59.4375-2.101563-29.296876-26.484375-51.992188-55.855469-51.992188zm-264 136c.011719-8.832031 7.167969-15.988281 16-16h21.429688c14.347656-.019531 27.59375-7.707031 34.730468-20.15625l6.660156-11.65625c8.5625-14.941406 24.457032-24.167969 41.679688-24.1875h87.5v96h-208zm-144 64c.015625-13.25 10.75-23.984375 24-24h328v48h-352zm48 120h-16v-16h16zm-48-32v-48h352v48zm368 32h-16v-16h16zm40-224h-8v192h-32v-232c0-22.089844 17.910156-40 40-40s40 17.910156 40 40-17.910156 40-40 40zm0 0" fill="#c69533" data-original="#000000" style="" class=""/><path xmlns="http://www.w3.org/2000/svg" d="m424 32c-13.253906 0-24 10.746094-24 24s10.746094 24 24 24 24-10.746094 24-24c-.015625-13.25-10.75-23.984375-24-24zm0 32c-4.417969 0-8-3.582031-8-8s3.582031-8 8-8 8 3.582031 8 8c-.003906 4.417969-3.582031 7.996094-8 8zm0 0" fill="#c69533" data-original="#000000" style="" class=""/><path xmlns="http://www.w3.org/2000/svg" d="m304 96h32v32h16v-48h-48zm0 0" fill="#c69533" data-original="#000000" style="" class=""/><path xmlns="http://www.w3.org/2000/svg" d="m272 80h16v16h-16zm0 0" fill="#c69533" data-original="#000000" style="" class=""/></g></svg>
