<?xml version="1.0"?>
<svg xmlns="http://www.w3.org/2000/svg" xmlns:xlink="http://www.w3.org/1999/xlink" xmlns:svgjs="http://svgjs.com/svgjs" version="1.1" width="512" height="512" x="0" y="0" viewBox="0 0 512 511" style="enable-background:new 0 0 512 512" xml:space="preserve" class=""><g><path xmlns="http://www.w3.org/2000/svg" d="m195.542969 170.902344c-4.140625 0-7.5 3.359375-7.5 7.5v95.402344c0 4.132812-3.363281 7.5-7.5 7.5h-158.042969c-4.136719 0-7.5-3.367188-7.5-7.5v-250.804688c0-4.136719 3.363281-7.5 7.5-7.5h158.042969c4.136719 0 7.5 3.363281 7.5 7.5v95.402344c0 4.140625 3.359375 7.5 7.5 7.5 4.144531 0 7.5-3.359375 7.5-7.5v-95.402344c0-12.40625-10.09375-22.5-22.5-22.5h-158.042969c-12.40625 0-22.5 10.09375-22.5 22.5v250.804688c0 12.40625 10.09375 22.5 22.5 22.5h158.042969c12.40625 0 22.5-10.09375 22.5-22.5v-95.402344c0-4.140625-3.355469-7.5-7.5-7.5zm0 0" fill="#c69533" data-original="#000000" style="" class=""/><path xmlns="http://www.w3.org/2000/svg" d="m489.5 26.726562h-113.765625c-12.40625 0-22.5 10.09375-22.5 22.5v69.175782c0 4.140625 3.355469 7.5 7.5 7.5s7.5-3.359375 7.5-7.5v-69.175782c0-4.136718 3.363281-7.5 7.5-7.5h23.402344l.886719 9.132813c1.023437 10.519531 9.765624 18.449219 20.335937 18.449219h23.726563c10.070312 0 18.761718-7.511719 20.214843-17.480469l1.476563-10.101563h23.722656c4.136719 0 7.5 3.363282 7.5 7.5v198.351563c0 4.136719-3.363281 7.5-7.5 7.5h-113.765625c-4.136719 0-7.5-3.363281-7.5-7.5v-69.175781c0-4.140625-3.355469-7.5-7.5-7.5s-7.5 3.359375-7.5 7.5v69.175781c0 12.40625 10.09375 22.5 22.5 22.5h113.765625c12.40625 0 22.5-10.09375 22.5-22.5v-198.351563c0-12.40625-10.09375-22.5-22.5-22.5zm-40.039062 22.9375c-.386719 2.648438-2.695313 4.644532-5.371094 4.644532h-23.730469c-2.808594 0-5.132813-2.109375-5.402344-4.902344l-.746093-7.679688h36.40625zm0 0" fill="#c69533" data-original="#000000" style="" class=""/><path xmlns="http://www.w3.org/2000/svg" d="m451.085938 235.875c4.144531 0 7.5-3.359375 7.5-7.5 0-4.144531-3.355469-7.5-7.5-7.5h-36.9375c-4.144532 0-7.5 3.355469-7.5 7.5 0 4.140625 3.355468 7.5 7.5 7.5zm0 0" fill="#c69533" data-original="#000000" style="" class=""/><path xmlns="http://www.w3.org/2000/svg" d="m317.152344 121.171875c0-2.300781-1.054688-4.476563-2.863282-5.894531l-34.636718-27.222656c-2.257813-1.773438-5.332032-2.101563-7.914063-.847657-2.582031 1.253907-4.21875 3.875-4.21875 6.746094v39.015625l-20.78125-16.328125c-3.257812-2.5625-7.972656-1.996094-10.53125 1.261719-2.558593 3.257812-1.992187 7.972656 1.261719 10.53125l25.414062 19.96875-25.414062 19.96875c-3.253906 2.5625-3.820312 7.273437-1.261719 10.53125 2.5625 3.257812 7.277344 3.820312 10.53125 1.261718l20.78125-16.328124v39.015624c0 2.871094 1.636719 5.492188 4.21875 6.746094 1.042969.507813 2.164063.753906 3.277344.753906 1.652344 0 3.289063-.542968 4.636719-1.601562l34.636718-27.222656c1.808594-1.421875 2.863282-3.59375 2.863282-5.894532 0-2.300781-1.054688-4.476562-2.863282-5.894531l-27.136718-21.335937 27.136718-21.335938c1.808594-1.421875 2.863282-3.59375 2.863282-5.894531zm-19.632813 54.460937-15 11.785157v-23.578125zm-15-42.667968v-23.582032l15 11.789063zm0 0" fill="#c69533" data-original="#000000" style="" class=""/><path xmlns="http://www.w3.org/2000/svg" d="m101.523438 257.015625c33.550781 0 60.84375-27.296875 60.84375-60.847656s-27.292969-60.84375-60.84375-60.84375c-12.523438 0-24.550782 3.773437-34.785157 10.914062-3.394531 2.371094-4.226562 7.046875-1.855469 10.445313 2.367188 3.394531 7.042969 4.226562 10.441407 1.855468 7.703125-5.375 16.761719-8.21875 26.199219-8.21875 25.277343 0 45.84375 20.566407 45.84375 45.847657s-20.566407 45.847656-45.84375 45.847656c-25.28125 0-45.847657-20.566406-45.847657-45.847656 0-6.109375 1.179688-12.035157 3.503907-17.617188 1.59375-3.824219-.214844-8.214843-4.035157-9.808593-3.824219-1.59375-8.214843.214843-9.808593 4.039062-3.09375 7.417969-4.660157 15.285156-4.660157 23.386719 0 33.550781 27.296875 60.847656 60.847657 60.847656zm0 0" fill="#c69533" data-original="#000000" style="" class=""/><path xmlns="http://www.w3.org/2000/svg" d="m101.523438 112.347656c20.003906 0 36.277343-16.273437 36.277343-36.28125 0-20.003906-16.273437-36.277344-36.277343-36.277344-20.007813 0-36.28125 16.273438-36.28125 36.277344 0 20.007813 16.277343 36.28125 36.28125 36.28125zm0-57.558594c11.730468 0 21.277343 9.546876 21.277343 21.28125 0 11.734376-9.546875 21.277344-21.277343 21.277344-11.734376 0-21.28125-9.542968-21.28125-21.277344 0-11.734374 9.546874-21.28125 21.28125-21.28125zm0 0" fill="#c69533" data-original="#000000" style="" class=""/><path xmlns="http://www.w3.org/2000/svg" d="m101.523438 84.070312c4.140624 0 7.5-3.355468 7.5-7.5v-1.007812c0-4.140625-3.359376-7.5-7.5-7.5-4.144532 0-7.5 3.359375-7.5 7.5v1.007812c0 4.144532 3.355468 7.5 7.5 7.5zm0 0" fill="#c69533" data-original="#000000" style="" class=""/><path xmlns="http://www.w3.org/2000/svg" d="m169.578125 25.210938h-1.011719c-4.140625 0-7.5 3.355468-7.5 7.5 0 4.140624 3.359375 7.5 7.5 7.5h1.011719c4.140625 0 7.5-3.359376 7.5-7.5 0-4.144532-3.359375-7.5-7.5-7.5zm0 0" fill="#c69533" data-original="#000000" style="" class=""/><path xmlns="http://www.w3.org/2000/svg" d="m33.46875 40.210938h1.007812c4.140626 0 7.5-3.359376 7.5-7.5 0-4.144532-3.359374-7.5-7.5-7.5h-1.007812c-4.144531 0-7.5 3.355468-7.5 7.5 0 4.140624 3.355469 7.5 7.5 7.5zm0 0" fill="#c69533" data-original="#000000" style="" class=""/><path xmlns="http://www.w3.org/2000/svg" d="m168.566406 271.59375h1.011719c4.140625 0 7.5-3.355469 7.5-7.5 0-4.140625-3.359375-7.5-7.5-7.5h-1.011719c-4.140625 0-7.5 3.359375-7.5 7.5 0 4.144531 3.359375 7.5 7.5 7.5zm0 0" fill="#c69533" data-original="#000000" style="" class=""/><path xmlns="http://www.w3.org/2000/svg" d="m33.46875 271.59375h1.007812c4.140626 0 7.5-3.355469 7.5-7.5 0-4.140625-3.359374-7.5-7.5-7.5h-1.007812c-4.144531 0-7.5 3.359375-7.5 7.5 0 4.144531 3.355469 7.5 7.5 7.5zm0 0" fill="#c69533" data-original="#000000" style="" class=""/><path xmlns="http://www.w3.org/2000/svg" d="m126.238281 196.171875c0-13.632813-11.085937-24.71875-24.714843-24.71875-13.632813 0-24.71875 11.085937-24.71875 24.71875 0 13.628906 11.085937 24.71875 24.71875 24.71875 13.628906 0 24.714843-11.089844 24.714843-24.71875zm-34.433593 0c0-5.359375 4.359374-9.71875 9.71875-9.71875 5.359374 0 9.71875 4.359375 9.71875 9.71875 0 5.355469-4.359376 9.71875-9.71875 9.71875-5.359376-.003906-9.71875-4.363281-9.71875-9.71875zm0 0" fill="#c69533" data-original="#000000" style="" class=""/><path xmlns="http://www.w3.org/2000/svg" d="m331.1875 140.902344h-1c-4.144531 0-7.5 3.359375-7.5 7.5s3.355469 7.5 7.5 7.5h1c4.140625 0 7.5-3.359375 7.5-7.5s-3.359375-7.5-7.5-7.5zm0 0" fill="#c69533" data-original="#000000" style="" class=""/><path xmlns="http://www.w3.org/2000/svg" d="m360.234375 155.902344h1c4.144531 0 7.5-3.359375 7.5-7.5s-3.355469-7.5-7.5-7.5h-1c-4.144531 0-7.5 3.359375-7.5 7.5s3.359375 7.5 7.5 7.5zm0 0" fill="#c69533" data-original="#000000" style="" class=""/><path xmlns="http://www.w3.org/2000/svg" d="m391.28125 155.902344c4.144531 0 7.5-3.359375 7.5-7.5s-3.355469-7.5-7.5-7.5h-1c-4.140625 0-7.5 3.359375-7.5 7.5s3.359375 7.5 7.5 7.5zm0 0" fill="#c69533" data-original="#000000" style="" class=""/><path xmlns="http://www.w3.org/2000/svg" d="m165.996094 155.902344c4.144531 0 7.5-3.359375 7.5-7.5s-3.355469-7.5-7.5-7.5h-1c-4.144532 0-7.5 3.359375-7.5 7.5s3.355468 7.5 7.5 7.5zm0 0" fill="#c69533" data-original="#000000" style="" class=""/><path xmlns="http://www.w3.org/2000/svg" d="m196.042969 140.902344h-1c-4.140625 0-7.5 3.359375-7.5 7.5s3.359375 7.5 7.5 7.5h1c4.144531 0 7.5-3.359375 7.5-7.5s-3.355469-7.5-7.5-7.5zm0 0" fill="#c69533" data-original="#000000" style="" class=""/><path xmlns="http://www.w3.org/2000/svg" d="m226.09375 140.902344h-1c-4.144531 0-7.5 3.359375-7.5 7.5s3.355469 7.5 7.5 7.5h1c4.140625 0 7.5-3.359375 7.5-7.5s-3.359375-7.5-7.5-7.5zm0 0" fill="#c69533" data-original="#000000" style="" class=""/></g></svg>
