<svg id="Capa_1" enable-background="new 0 0 512 512" height="512" viewBox="0 0 512 512" width="512" xmlns="http://www.w3.org/2000/svg"><g><path d="m31.113 271.495v74.87h14.993v-29.921h7.773c12.392 0 22.475-10.082 22.475-22.475 0-12.392-10.082-22.474-22.475-22.474zm30.248 22.474c0 4.125-3.356 7.481-7.481 7.481h-7.773v-14.962h7.773c4.124 0 7.481 3.356 7.481 7.481z"/><path d="m195.942 286.583v-14.993h-44.99v74.902h44.99v-14.993h-29.997v-14.962h15.004v-14.993h-15.004v-14.961z"/><path d="m300.945 271.57h14.993v74.942h-14.993z"/><path d="m285.912 346.512v-75.033h-14.656l-22.502 25.296-22.57-25.296h-15.281v75.033h14.994v-52.834l22.875 25.637 22.147-24.898v52.095z"/><path d="m465.894 346.512h14.993v-75.033h-14.657l-22.501 25.296-22.571-25.296h-15.28v75.033h14.993v-52.835l22.876 25.638 22.147-24.898z"/><path d="m330.88 271.399v44.862c0 16.534 13.452 29.986 29.986 29.986s29.986-13.452 29.986-29.986v-44.862h-14.992v44.862c0 8.267-6.726 14.993-14.993 14.993s-14.993-6.726-14.993-14.993v-44.862z"/><path d="m485.085 234.083h-172.419l40.693-47.478 105.048 14.522v-54.44l35.45-7.098-24.421-76.721-121.857 60.414-8.261-16.289h-166.636l-8.261 16.289-55.023-27.279-6.66 13.433 54.901 27.219-5.249 10.35-89.995-13.846-24.886-4.983 14.044-44.116 36.192 17.943 6.66-13.433-51.841-25.702-24.421 76.721 35.45 7.098v54.44l105.179-14.54 41.158 47.496h-123.848v14.993h402.793l18.132 18.132v83.515l-18.132 18.132h-27.709v14.993h33.919l26.915-26.915v-95.935zm-195.231-60.359-27.671 60.359h-12.108l-27.416-60.359zm-68.856-14.993 10.648-36.745h49.266l10.648 36.745zm85.35 14.993h38.305l-51.734 60.359h-14.243zm137.066 10.195-78.456-10.846 4.945-5.769-3.158-6.227 76.669-11.796zm17.033-99.859 14.043 44.117-24.886 4.983-89.996 13.846-5.249-10.35zm-111.702 74.671h-41.575l-10.648-36.745h33.588zm-166.855-36.745h34.146l-10.648 36.745h-42.132zm-113.304 61.933v-34.637l76.669 11.796-3.171 6.253 4.975 5.741zm98.878-10.195h38.728l27.416 60.359h-13.839z"/><path d="m405.931 368.855h-372.806l-18.132-18.132v-83.515l18.132-18.132h27.964v-14.993h-34.174l-26.915 26.915v95.935l26.915 26.915h379.016z"/><path d="m420.797 368.855h15.312v14.993h-15.312z"/><path d="m153.081 432.112-15.343-31.088-15.344 31.088-34.308 4.985 24.825 24.199-5.861 34.17 30.687-16.134 30.686 16.134-5.861-34.17 24.826-24.199zm-4.57 35.946-10.773-5.664-10.774 5.664 2.058-11.996-8.716-8.497 12.045-1.75 5.387-10.915 5.387 10.915 12.045 1.75-8.716 8.497z"/><path d="m271.343 432.112-15.343-31.089-15.343 31.089-34.309 4.985 24.826 24.199-5.861 34.17 30.687-16.133 30.686 16.133-5.861-34.17 24.826-24.199zm-4.57 35.946-10.773-5.664-10.773 5.664 2.058-11.996-8.716-8.497 12.045-1.75 5.386-10.914 5.387 10.914 12.045 1.75-8.716 8.497z"/><path d="m389.606 432.112-15.344-31.088-15.343 31.088-34.309 4.985 24.826 24.199-5.861 34.17 30.686-16.134 30.687 16.134-5.861-34.17 24.825-24.199zm-4.57 35.946-10.774-5.664-10.773 5.664 2.058-11.996-8.716-8.497 12.045-1.75 5.387-10.915 5.387 10.915 12.045 1.75-8.716 8.497z"/><path d="m248.503 188.937h14.993v14.993h-14.993z"/><path d="m248.503 91.499h14.994v-14.993h14.993v-14.993h-14.993v-14.993h-14.994v14.993h-14.993v14.993h14.993z"/><path d="m292.906 16.533h14.993v14.993h-14.993z"/><path d="m203.524 16.533h14.993v14.993h-14.993z"/><path d="m323.469 61.513h14.993v14.993h-14.993z"/><path d="m173.538 61.513h14.993v14.993h-14.993z"/><path d="m120.84 315.416c8.981-2.946 15.487-11.403 15.487-21.357 0-12.392-10.082-22.474-22.474-22.474h-22.766v74.87h14.993v-27.159l13.253 27.202 16.993-.031zm-14.76-28.838h7.773c4.125 0 7.481 3.356 7.481 7.481s-3.356 7.481-7.481 7.481h-7.773z"/></g></svg>