<svg id="Capa_1" enable-background="new 0 0 512.044 512.044" height="512" viewBox="0 0 512.044 512.044" width="512" xmlns="http://www.w3.org/2000/svg"><g><path d="m508.709 349.446c-6.06-11.248-16.124-19.445-28.339-23.084-4.491-1.338-9.075-1.994-13.633-1.992l-1.353-2.609c-.019-.035-.037-.069-.056-.104-6.059-11.247-16.122-19.445-28.337-23.083-3.731-1.112-7.526-1.751-11.317-1.937v-131.392h.139c12.346 0 22.39-10.051 22.39-22.404v-45.274c0-12.354-10.044-22.404-22.39-22.404h-4.303l-1.783-26.861c-1.591-23.951-19.966-43.88-43.691-47.385-28.878-4.265-57.461 6.57-76.225 28.471-4.909-2.762-10.564-4.345-16.585-4.345h-22.396c-6.021 0-11.676 1.583-16.585 4.344-18.763-21.9-47.339-32.74-76.225-28.47-4.402.65-8.698 1.867-12.769 3.618-3.806 1.636-5.563 6.048-3.927 9.853 1.635 3.805 6.044 5.563 9.853 3.926 2.878-1.237 5.917-2.098 9.035-2.559 23.853-3.525 47.473 5.491 62.893 23.681-3.923 5.543-6.238 12.302-6.238 19.596v16.13h-89.289l1.717-25.866c.224-3.367.908-6.673 2.035-9.827 1.393-3.901-.64-8.192-4.541-9.585-3.899-1.394-8.192.639-9.586 4.541-1.592 4.458-2.56 9.127-2.875 13.877l-1.783 26.86h-4.303c-12.346 0-22.39 10.051-22.39 22.404v45.273c0 12.354 10.044 22.404 22.39 22.404h.139v132.842c-14.29 3.912-25.869 9.977-34.353 15.928v-2.709c0-9.649-7.851-17.5-17.5-17.5h-49c-9.649 0-17.5 7.851-17.5 17.5v81.64c0 4.142 3.357 7.5 7.5 7.5s7.5-3.358 7.5-7.5v-81.64c0-1.378 1.121-2.5 2.5-2.5h49c1.379 0 2.5 1.122 2.5 2.5v19.204.018 150.237c0 1.378-1.121 2.5-2.5 2.5h-49c-1.379 0-2.5-1.122-2.5-2.5v-52.602c0-4.142-3.357-7.5-7.5-7.5s-7.5 3.358-7.5 7.5v52.602c0 9.649 7.851 17.5 17.5 17.5h49c9.649 0 17.5-7.851 17.5-17.5v-15.369l91.57 36.269c17.52 6.939 35.912 10.38 54.248 10.38 24.223 0 48.347-6.006 70.226-17.888l74.918-40.684c3.64-1.977 4.988-6.53 3.012-10.17-1.978-3.64-6.531-4.988-10.17-3.012l-74.918 40.684c-34.525 18.75-75.272 21.208-111.792 6.743l-97.094-38.457v-115.855c10.129-10.541 34.602-24.599 66.644-24.599 29.004 0 47.715 2.515 60.669 8.153 4.216 1.835 11.241 5.329 19.439 9.555.016.008.032.016.047.024 25.01 12.893 60.906 32.582 61.384 32.845.042.023.083.045.126.068 15.889 8.331 22.051 28.07 13.737 44.002-1.55 2.971-4.16 5.157-7.351 6.156-3.178.997-6.557.692-9.51-.856l-99.295-52.064c-3.666-1.924-8.201-.509-10.125 3.159-1.923 3.668-.509 8.202 3.16 10.125l99.295 52.064c3.993 2.094 8.338 3.155 12.72 3.155 2.758 0 5.53-.42 8.237-1.268 1.888-.591 3.68-1.377 5.363-2.329l142.743-78.264c7.646-4.153 16.444-5.074 24.777-2.592 8.366 2.492 15.261 8.111 19.416 15.823 3.309 6.14 1.031 13.834-5.075 17.151l-92.253 50.098c-3.64 1.977-4.988 6.53-3.012 10.17 1.359 2.503 3.937 3.922 6.598 3.922 1.209 0 2.436-.293 3.572-.911l92.254-50.099c13.35-7.25 18.339-24.049 11.121-37.446zm-75.506-251.879v45.273c0 4.083-3.315 7.404-7.39 7.404h-40.049c-4.143 0-7.5 3.358-7.5 7.5s3.357 7.5 7.5 7.5h24.91v133.1c-3.401.957-6.724 2.289-9.907 4.017l-83.579 45.464v-182.58h33.576c4.143 0 7.5-3.358 7.5-7.5s-3.357-7.5-7.5-7.5h-33.576v-60.082h108.625c4.074 0 7.39 3.322 7.39 7.404zm-191.337-7.404h60.322v60.082h-60.322zm131.976-74.407c16.789 2.48 29.792 16.586 30.918 33.54l1.717 25.867h-89.29v-16.13c0-7.294-2.315-14.053-6.238-19.596 15.419-18.191 39.034-27.208 62.893-23.681zm-90.617 24.287c10.456 0 18.963 8.519 18.963 18.99v16.13h-60.322v-16.13c0-10.471 8.507-18.99 18.963-18.99zm-172.374 102.797v-45.273c0-4.083 3.315-7.404 7.39-7.404h108.625v60.082h-108.625c-4.075 0-7.39-3.322-7.39-7.405zm39.819 150.965c-6.055 0-11.818.441-17.291 1.208v-129.768h93.486v142.474c-3.834-1.898-7.105-3.454-9.54-4.514-15.135-6.589-35.07-9.4-66.655-9.4zm91.196 21.557v-150.117h60.322v182.58c-.919-.566-1.853-1.116-2.822-1.625-2.387-1.31-33.258-18.236-57.5-30.838zm82.292 80.579c1.764-10.979-.406-22.174-5.898-31.621l89.672-48.779c3.466-1.882 7.171-3.094 10.96-3.632.074-.007.147-.019.22-.029 4.5-.607 9.116-.266 13.598 1.069 7.731 2.303 14.202 7.281 18.419 14.109-2.389.842-4.731 1.871-7.003 3.105z"/><path d="m39.499 127.48 16.923.365c.056.001.11.002.165.002 4.066 0 7.407-3.252 7.495-7.338.09-4.141-3.195-7.57-7.336-7.66l-16.923-.365c-4.177-.107-7.571 3.196-7.66 7.336-.089 4.142 3.196 7.571 7.336 7.66z"/><path d="m46.866 88.25 14.474 8.787c1.216.738 2.559 1.09 3.885 1.09 2.534 0 5.007-1.285 6.418-3.609 2.149-3.541 1.021-8.154-2.52-10.303l-14.474-8.787c-3.539-2.15-8.153-1.021-10.303 2.519-2.149 3.541-1.021 8.154 2.52 10.303z"/><path d="m60.33 143.842-14.838 8.154c-3.63 1.995-4.955 6.555-2.961 10.185 1.365 2.484 3.932 3.89 6.58 3.89 1.221 0 2.459-.299 3.605-.929l14.838-8.154c3.63-1.995 4.955-6.555 2.961-10.185-1.995-3.63-6.553-4.958-10.185-2.961z"/><path d="m479.971 120.509c.088 4.086 3.428 7.338 7.495 7.338.055 0 .109 0 .165-.002l16.923-.365c4.141-.089 7.426-3.519 7.336-7.66s-3.497-7.451-7.66-7.336l-16.923.365c-4.141.09-7.426 3.519-7.336 7.66z"/><path d="m478.83 98.127c1.326 0 2.669-.352 3.885-1.09l14.474-8.787c3.541-2.149 4.669-6.762 2.52-10.303-2.15-3.542-6.764-4.669-10.303-2.519l-14.474 8.787c-3.541 2.149-4.669 6.762-2.52 10.303 1.411 2.324 3.883 3.609 6.418 3.609z"/><path d="m483.724 143.842c-3.63-1.996-8.19-.67-10.186 2.961-1.994 3.63-.669 8.19 2.961 10.185l14.838 8.154c1.146.63 2.384.929 3.605.929 2.647 0 5.215-1.405 6.58-3.89 1.994-3.63.669-8.19-2.961-10.185z"/></g></svg>