<svg id="_x33_0" enable-background="new 0 0 64 64" height="512" viewBox="0 0 64 64" width="512" xmlns="http://www.w3.org/2000/svg"><g><path d="m18 53c-1.654 0-3 1.346-3 3s1.346 3 3 3 3-1.346 3-3-1.346-3-3-3zm0 4c-.551 0-1-.448-1-1s.449-1 1-1 1 .448 1 1-.449 1-1 1z"/><path d="m50 53c-1.654 0-3 1.346-3 3s1.346 3 3 3 3-1.346 3-3-1.346-3-3-3zm0 4c-.551 0-1-.448-1-1s.449-1 1-1 1 .448 1 1-.449 1-1 1z"/><path d="m45 27h2v2h-2z"/><path d="m41 27h2v2h-2z"/><path d="m56 31h4c1.654 0 3-1.346 3-3s-1.346-3-3-3h-4c-.551 0-1-.448-1-1s.449-1 1-1h4c1.654 0 3-1.346 3-3 0-1.302-.839-2.402-2-2.816v-7.089l-2-.201c-5.784-.578-11.353-2.189-16.552-4.789l-.448-.223-.447.224c-2.067 1.034-4.195 1.904-6.369 2.622l-4.285-4.285-1.119 1.121c-.794.794-1.983 1.024-3.074.57-1.037-.428-1.706-1.429-1.706-2.55v-1.584h-8v1.584c0 1.121-.669 2.122-1.753 2.57-1.043.435-2.231.203-3.025-.589l-1.12-1.123-5.659 5.659 1.121 1.12c.794.794 1.025 1.982.569 3.074-.427 1.036-1.427 1.705-2.549 1.705h-1.584v8h1.584c1.121 0 2.122.669 2.57 1.753.309.739.268 1.546-.064 2.247h-.09c-1.103 0-2 .897-2 2v2c0 .752.423 1.401 1.039 1.743-1.963 2.547-3.039 5.645-3.039 8.914v7.343c-1.103 0-2 .897-2 2v2c0 1.103.897 2 2 2h8.08c-.047.328-.08.66-.08 1 0 3.859 3.14 7 7 7s7-3.141 7-7c0-.34-.033-.672-.08-1h18.16c-.047.328-.08.66-.08 1 0 3.859 3.14 7 7 7s7-3.141 7-7c0-.34-.033-.672-.08-1h4.08c1.103 0 2-.897 2-2v-2c0-1.103-.897-2-2-2h-15.534c3.85-2.664 7.164-6.065 9.719-10h4.815c1.654 0 3-1.346 3-3s-1.346-3-3-3h-4c-.551 0-1-.448-1-1s.449-1 1-1zm3-19.096v5.096h-8c0-1.103-.897-2-2-2h-6v-7.424c5.001 2.304 10.306 3.759 15.8 4.309zm-36.007 19.265c.005-.056.007-.112.007-.169v-2c0-.07-.014-.137-.021-.205.405-.081.805-.182 1.196-.314 2.16 8.279 7.227 15.587 14.36 20.519h-13.535v-15c0-1.307-.839-2.42-2.007-2.831zm-1.992-.169h-14.001v-2h14zm-8.001-12c0-4.411 3.589-8 8-8 .685 0 1.352.093 2 .26v2.088c-.636-.225-1.308-.348-2-.348-3.309 0-6 2.691-6 6s2.691 6 6 6c.821 0 1.622-.188 2.368-.51.097.682.21 1.361.346 2.033-.866.313-1.775.477-2.714.477-4.411 0-8-3.589-8-8zm10.136 3.368c-.638.403-1.376.632-2.136.632-2.206 0-4-1.794-4-4s1.794-4 4-4c.714 0 1.394.194 2 .546v3.863c0 .994.055 1.979.136 2.959zm1.864-2.959v-7.505l.2-.02c5.494-.549 10.799-2.004 15.8-4.308v7.424h-6c-1.103 0-2 .897-2 2v14c0 1.103.897 2 2 2h6v15.233c-9.906-6.184-16-17.066-16-28.824zm16-2.409h2v2h-2zm-6 14v-14h4v4h6v-4h4l.001 14zm-26.018-7.059c-.684-1.657-2.22-2.771-3.982-2.923v-4.035c1.763-.152 3.299-1.27 4-2.966.695-1.665.4-3.546-.74-4.903l2.853-2.854c1.358 1.14 3.241 1.434 4.946.723 1.657-.686 2.771-2.221 2.923-3.983h4.036c.152 1.762 1.269 3.298 2.966 4 1.665.693 3.545.399 4.903-.74l2.126 2.126c-2.586.719-5.233 1.224-7.928 1.498-1.287-.579-2.657-.884-4.085-.884-5.514 0-10 4.486-10 10 0 3.273 1.588 6.175 4.026 8h-5.804c.251-.989.18-2.053-.24-3.059zm-3.093 13.059h8.111c.551 0 1 .448 1 1v4c0 .552-.449 1-1 1h-9v-1.343c0-1.621.311-3.193.889-4.657zm-.889 8h9c1.654 0 3-1.346 3-3v-4c0-1.654-1.346-3-3-3h-7.098c.441-.71.955-1.379 1.539-2h13.559c.551 0 1 .448 1 1v15h-18zm-2 8v-2h10.111c-.587.574-1.068 1.251-1.425 2zm15 8c-2.757 0-5-2.243-5-5s2.243-5 5-5 5 2.243 5 5-2.243 5-5 5zm32 0c-2.757 0-5-2.243-5-5s2.243-5 5-5 5 2.243 5 5-2.243 5-5 5zm11-10v2h-4.685c-.357-.749-.839-1.426-1.425-2zm-17.315 2h-19.37c-.357-.749-.839-1.426-1.425-2h22.221c-.587.574-1.069 1.251-1.426 2zm12.315-18h4c.551 0 1 .448 1 1s-.449 1-1 1h-9v2h1.777c-2.608 3.694-5.942 6.842-9.777 9.238v-15.238h6c1.103 0 2-.897 2-2v-12h9c.551 0 1 .448 1 1s-.449 1-1 1h-4c-1.654 0-3 1.346-3 3s1.346 3 3 3h4c.551 0 1 .448 1 1s-.449 1-1 1h-4c-1.654 0-3 1.346-3 3s1.346 3 3 3z"/></g></svg>