<svg id="Capa_1" enable-background="new 0 0 512 512" height="512" viewBox="0 0 512 512" width="512" xmlns="http://www.w3.org/2000/svg"><g><g><path d="m252.14 463.686c-1.411 0-2.821-.397-4.055-1.191-1.571-1.009-3.229-2.056-4.967-3.132-3.522-2.18-4.61-6.803-2.43-10.325s6.805-4.608 10.324-2.429c.417.258.829.514 1.237.769.412-.243.829-.489 1.25-.735 3.574-2.095 8.167-.894 10.263 2.68 2.094 3.574.894 8.168-2.681 10.262-1.768 1.036-3.453 2.042-5.049 3.012-1.196.726-2.545 1.089-3.892 1.089z"/><path d="m218.017 444.307c-1.124 0-2.265-.253-3.339-.789-3.238-1.613-6.53-3.188-9.785-4.682-3.765-1.727-5.416-6.18-3.688-9.944s6.181-5.417 9.944-3.688c3.399 1.56 6.838 3.205 10.219 4.889 3.707 1.847 5.216 6.35 3.368 10.057-1.312 2.633-3.965 4.157-6.719 4.157zm-40.884-17.088c-.795 0-1.603-.127-2.397-.395-3.424-1.154-6.887-2.249-10.294-3.251-3.974-1.17-6.246-5.34-5.076-9.313 1.17-3.974 5.335-6.248 9.313-5.077 3.593 1.058 7.243 2.211 10.851 3.427 3.925 1.324 6.034 5.578 4.71 9.503-1.056 3.131-3.977 5.106-7.107 5.106zm-42.977-10.668c-.383 0-.771-.029-1.161-.09-3.552-.552-7.123-1.018-10.616-1.385-4.119-.433-7.108-4.123-6.676-8.242.433-4.119 4.117-7.103 8.242-6.676 3.739.393 7.56.891 11.354 1.481 4.094.637 6.896 4.471 6.259 8.564-.576 3.702-3.768 6.348-7.402 6.348z"/><path d="m83.947 414.818c-3.108 0-5.929-1.93-7.027-4.891-1.184-3.19-.072-6.777 2.709-8.738 1.562-1.102 3.123-2.242 4.643-3.391 3.305-2.499 8.008-1.844 10.506 1.459.804 1.063 1.281 2.272 1.449 3.505.679 1.045 1.106 2.275 1.19 3.607.261 4.134-2.879 7.696-7.014 7.958-1.919.121-3.848.274-5.731.457-.242.023-.484.034-.725.034z"/><path d="m115.841 385.956c-1.735 0-3.478-.598-4.895-1.82-3.138-2.705-3.487-7.441-.782-10.578 2.567-2.977 5.054-6.083 7.392-9.229 2.47-3.325 7.168-4.019 10.492-1.549 3.325 2.47 4.02 7.167 1.549 10.493-2.553 3.438-5.27 6.829-8.073 10.081-1.484 1.719-3.578 2.602-5.683 2.602zm26.446-41.621c-1.025 0-2.065-.211-3.062-.657-3.78-1.693-5.473-6.13-3.779-9.911 1.598-3.567 3.095-7.258 4.45-10.969 1.421-3.891 5.726-5.894 9.618-4.472 3.891 1.421 5.893 5.728 4.472 9.618-1.477 4.042-3.108 8.064-4.851 11.954-1.246 2.786-3.983 4.437-6.848 4.437zm13.795-47.373c-.378 0-.76-.028-1.145-.087-4.095-.626-6.905-4.454-6.279-8.548.593-3.872 1.079-7.853 1.445-11.831.38-4.125 4.039-7.161 8.156-6.781 4.125.38 7.161 4.031 6.781 8.156-.395 4.276-.917 8.558-1.555 12.726-.567 3.709-3.762 6.365-7.403 6.365zm1.557-49.34c-3.845 0-7.118-2.94-7.462-6.842-.351-3.975-.82-7.958-1.397-11.84-.608-4.097 2.22-7.912 6.316-8.521 4.095-.611 7.912 2.218 8.521 6.316.62 4.175 1.125 8.458 1.501 12.728.364 4.126-2.687 7.766-6.813 8.129-.223.02-.446.03-.666.03zm-10.41-48.232c-3.073 0-5.956-1.904-7.057-4.962-1.339-3.718-2.818-7.416-4.398-10.991-1.674-3.789.04-8.217 3.829-9.892 3.786-1.674 8.216.039 9.892 3.828 1.722 3.897 3.334 7.926 4.791 11.976 1.403 3.897-.619 8.194-4.517 9.597-.838.301-1.696.444-2.54.444zm-23.142-43.545c-2.305 0-4.579-1.059-6.049-3.059-2.317-3.153-4.789-6.271-7.346-9.267-2.688-3.151-2.314-7.885.837-10.573 3.15-2.69 7.885-2.314 10.573.837 2.791 3.271 5.49 6.675 8.021 10.12 2.453 3.337 1.736 8.032-1.601 10.485-1.336.983-2.893 1.457-4.435 1.457z"/><path d="m89.397 120.645c-1.587 0-3.186-.501-4.544-1.539-1.516-1.156-3.072-2.303-4.627-3.41-2.743-1.952-3.849-5.493-2.705-8.659s4.24-5.185 7.614-4.931c1.885.141 3.795.244 5.677.306 4.14.137 7.386 3.604 7.249 7.743-.047 1.417-.484 2.73-1.205 3.838-.147 1.302-.639 2.583-1.491 3.7-1.475 1.935-3.709 2.952-5.968 2.952z"/><path d="m129.059 113.538c-3.399 0-6.478-2.326-7.293-5.778-.951-4.031 1.545-8.071 5.577-9.022 3.943-.931 7.927-2.052 11.837-3.332 3.938-1.285 8.173.86 9.46 4.796 1.288 3.937-.859 8.172-4.796 9.46-4.31 1.41-8.702 2.646-13.056 3.673-.579.137-1.158.203-1.729.203zm47.598-19.767c-2.539 0-5.016-1.29-6.426-3.621-2.143-3.545-1.006-8.156 2.539-10.298 3.492-2.111 6.998-4.394 10.421-6.787 3.397-2.373 8.071-1.543 10.444 1.851 2.373 3.395 1.544 8.071-1.851 10.444-3.693 2.582-7.48 5.047-11.255 7.329-1.212.733-2.55 1.082-3.872 1.082z"/><path d="m217.109 61.707c-1.914 0-3.827-.728-5.291-2.185-2.936-2.922-2.946-7.67-.024-10.606 1.354-1.359 2.711-2.761 4.037-4.165 1.417-1.5 3.39-2.351 5.453-2.351h6c4.143 0 7.5 3.358 7.5 7.5s-3.357 7.5-7.5 7.5h-2.798c-.686.706-1.374 1.407-2.062 2.098-1.464 1.472-3.39 2.209-5.315 2.209z"/><path d="m260.102 57.4h-8.204c-4.143 0-7.5-3.358-7.5-7.5s3.357-7.5 7.5-7.5h8.204c4.143 0 7.5 3.358 7.5 7.5s-3.358 7.5-7.5 7.5z"/><path d="m294.889 61.707c-1.926 0-3.85-.736-5.315-2.209-.688-.691-1.376-1.392-2.062-2.098h-2.798c-4.143 0-7.5-3.358-7.5-7.5s3.357-7.5 7.5-7.5h6c2.063 0 4.036.851 5.453 2.351 1.326 1.404 2.684 2.805 4.037 4.165 2.922 2.936 2.911 7.685-.024 10.606-1.463 1.457-3.378 2.185-5.291 2.185z"/><path d="m382.926 113.536c-.571 0-1.15-.065-1.73-.202-4.352-1.027-8.744-2.264-13.055-3.675-3.937-1.289-6.083-5.524-4.795-9.461 1.288-3.936 5.517-6.083 9.461-4.795 3.911 1.28 7.894 2.401 11.836 3.332 4.031.952 6.527 4.992 5.575 9.023-.815 3.452-3.894 5.778-7.292 5.778zm-47.595-19.769c-1.321 0-2.659-.349-3.873-1.083-3.772-2.28-7.559-4.746-11.255-7.33-3.396-2.373-4.224-7.049-1.85-10.444 2.372-3.394 7.048-4.223 10.443-1.85 3.426 2.395 6.932 4.678 10.421 6.787 3.545 2.143 4.682 6.753 2.539 10.298-1.408 2.332-3.886 3.622-6.425 3.622z"/><path d="m422.602 120.644c-2.259 0-4.492-1.016-5.968-2.95-.853-1.117-1.343-2.396-1.49-3.697-.722-1.108-1.16-2.422-1.207-3.841-.137-4.14 3.109-7.606 7.249-7.743 1.886-.062 3.796-.165 5.678-.307 3.365-.254 6.472 1.765 7.615 4.931 1.145 3.167.037 6.708-2.707 8.66-1.557 1.107-3.113 2.254-4.626 3.408-1.359 1.038-2.958 1.539-4.544 1.539z"/><path d="m396.194 385.997c-2.105 0-4.199-.882-5.683-2.602-2.808-3.255-5.525-6.647-8.078-10.081-2.472-3.324-1.78-8.022 1.544-10.494 3.322-2.472 8.022-1.78 10.493 1.543 2.338 3.145 4.828 6.252 7.4 9.234 2.705 3.137 2.355 7.873-.781 10.578-1.416 1.223-3.159 1.822-4.895 1.822zm-26.468-41.632c-2.865 0-5.602-1.651-6.849-4.436-1.746-3.898-3.379-7.921-4.854-11.958-1.421-3.891.58-8.197 4.471-9.618 3.894-1.423 8.198.58 9.619 4.471 1.354 3.705 2.852 7.397 4.454 10.974 1.693 3.78.002 8.217-3.778 9.911-.997.445-2.038.656-3.063.656zm-13.808-47.391c-3.641 0-6.835-2.655-7.403-6.365-.639-4.165-1.162-8.448-1.557-12.732-.379-4.125 2.656-7.776 6.781-8.156 4.112-.379 7.776 2.655 8.156 6.781.366 3.985.853 7.967 1.445 11.834.628 4.095-2.183 7.922-6.277 8.55-.384.059-.767.088-1.145.088zm-1.559-49.364c-.222 0-.444-.01-.668-.03-4.126-.364-7.176-4.004-6.812-8.13.378-4.283.884-8.567 1.504-12.733.609-4.097 4.427-6.922 8.521-6.315 4.097.609 6.924 4.425 6.314 8.522-.575 3.872-1.046 7.857-1.398 11.846-.342 3.901-3.617 6.84-7.461 6.84zm10.422-48.255c-.844 0-1.701-.143-2.54-.445-3.897-1.403-5.92-5.699-4.517-9.597 1.457-4.047 3.07-8.079 4.797-11.982 1.676-3.789 6.105-5.501 9.893-3.825 3.789 1.675 5.501 6.104 3.826 9.893-1.584 3.581-3.065 7.28-4.402 10.995-1.101 3.057-3.984 4.961-7.057 4.961zm23.168-43.559c-1.544 0-3.101-.475-4.438-1.459-3.337-2.455-4.052-7.149-1.597-10.486 2.54-3.453 5.242-6.858 8.029-10.122 2.691-3.149 7.424-3.522 10.574-.832 3.149 2.69 3.521 7.424.832 10.574-2.554 2.989-5.027 6.107-7.354 9.269-1.469 1.998-3.742 3.056-6.046 3.056z"/><path d="m428.182 414.91c-.248 0-.498-.013-.749-.038-1.881-.188-3.812-.349-5.738-.479-4.133-.279-7.257-3.855-6.979-7.988.089-1.318.515-2.535 1.186-3.57.17-1.224.646-2.422 1.442-3.478 2.496-3.306 7.196-3.963 10.505-1.468 1.521 1.148 3.084 2.288 4.646 3.387 2.787 1.962 3.901 5.556 2.712 8.75-1.102 2.957-3.922 4.883-7.025 4.884z"/><path d="m287.987 444.384c-2.808 0-5.501-1.584-6.783-4.291-1.772-3.744-.176-8.216 3.567-9.989 3.576-1.694 7.191-3.341 10.746-4.896 3.79-1.662 8.216.07 9.877 3.865 1.66 3.795-.07 8.217-3.865 9.877-3.417 1.496-6.896 3.08-10.336 4.71-1.037.491-2.13.724-3.206.724zm42.995-17.16c-3.166 0-6.109-2.021-7.135-5.196-1.273-3.941.89-8.169 4.831-9.442 3.783-1.223 7.603-2.379 11.351-3.438 3.99-1.126 8.131 1.192 9.257 5.178s-1.192 8.13-5.179 9.256c-3.57 1.009-7.21 2.111-10.817 3.277-.767.247-1.543.365-2.308.365zm45.009-10.723c-3.653 0-6.854-2.673-7.408-6.396-.61-4.097 2.216-7.913 6.313-8.523 3.962-.59 7.951-1.087 11.857-1.477 4.12-.416 7.797 2.596 8.208 6.718s-2.597 7.796-6.718 8.208c-3.667.366-7.414.833-11.139 1.387-.373.056-.745.083-1.113.083z"/></g><path d="m251.693 512c-5.033 0-10.001-1.654-13.989-4.658-14.8-11.148-40.781-26.842-69.318-37.456-3.883-1.444-5.859-5.762-4.415-9.644 1.443-3.882 5.764-5.858 9.644-4.416 37.816 14.064 65.523 33.815 73.114 39.533 1.403 1.057 3.167 1.64 4.965 1.64 1.726 0 3.383-.524 4.791-1.515 18.61-13.098 50.793-31.067 85.304-42.214 47.59-15.37 88.73-15.092 122.288.827 1.473.699 2.782.369 3.431.108.647-.259 1.821-.92 2.404-2.438l19.918-51.848c.579-1.508.16-2.778-.142-3.4-.303-.626-1.044-1.749-2.598-2.233-20.481-6.387-87.97-33.887-96.463-119.576-.408-4.122 2.603-7.794 6.725-8.203 4.122-.411 7.795 2.602 8.203 6.724 7.583 76.518 67.743 101.042 86.001 106.736 5.078 1.584 9.317 5.235 11.633 10.017 2.313 4.776 2.547 10.358.643 15.315l-19.918 51.848c-1.919 4.995-5.867 8.999-10.835 10.986-4.968 1.989-10.594 1.812-15.432-.483-29.988-14.228-67.419-14.262-111.247-.106-42.492 13.725-75.164 35.901-81.282 40.208-3.95 2.779-8.592 4.248-13.425 4.248z"/><path d="m46.073 469.487c-2.425 0-4.852-.454-7.14-1.366-4.977-1.984-8.933-5.99-10.854-10.992l-19.91-51.829c-1.904-4.957-1.67-10.539.643-15.315 2.315-4.782 6.555-8.433 11.632-10.017 20.166-6.289 86.022-33.648 86.791-121.673-.001-.075 0-.167.001-.243l-.001-.083c-.769-87.959-66.625-115.319-86.79-121.608-5.077-1.583-9.317-5.233-11.633-10.016-2.313-4.777-2.547-10.359-.643-15.316l19.88-51.75c1.933-5.031 5.918-9.047 10.935-11.017 5.044-1.979 10.728-1.746 15.602.642 17.345 8.499 78.5 30.604 137.157-41.781 3.667-4.526 9.122-7.123 14.967-7.123h35.555c4.143 0 7.5 3.358 7.5 7.5s-3.357 7.5-7.5 7.5h-35.555c-1.299 0-2.506.571-3.313 1.567-6.929 8.55-25.957 29.957-52.952 44.044-34.079 17.785-68.552 18.378-102.459 1.763-1.511-.739-2.853-.412-3.519-.15-.651.255-1.831.912-2.416 2.434l-19.88 51.75c-.579 1.508-.16 2.778.142 3.4.304.626 1.044 1.748 2.597 2.232 13.217 4.122 38.649 14.49 60.49 37.618 24.095 25.516 36.488 58.57 36.835 98.245l-.001.219.001.209c-.347 39.767-12.74 72.821-36.835 98.337-21.842 23.129-47.273 33.496-60.49 37.618-1.553.484-2.293 1.607-2.597 2.233-.302.623-.721 1.893-.142 3.4l19.911 51.83c.583 1.519 1.758 2.179 2.406 2.437.65.261 1.966.59 3.446-.116 26.097-12.456 56.563-15.283 90.554-8.403 4.06.822 6.685 4.779 5.862 8.839-.821 4.059-4.778 6.685-8.839 5.863-30.726-6.22-58.02-3.785-81.116 7.238-2.619 1.251-5.468 1.88-8.322 1.88z"/><path d="m398.521 246.077c-.306 0-.614-.019-.926-.057-4.111-.506-7.034-4.249-6.528-8.36 10.174-82.667 76.069-109.396 96.022-115.619 1.554-.485 2.295-1.607 2.598-2.233.302-.623.721-1.893.142-3.4l-19.88-51.75c-.585-1.522-1.765-2.179-2.416-2.434-.666-.263-2.009-.589-3.519.15-33.908 16.615-68.381 16.021-102.459-1.763-26.995-14.087-46.023-35.494-52.952-44.044-.806-.996-2.014-1.567-3.313-1.567h-27.63c-4.143 0-7.5-3.358-7.5-7.5s3.357-7.5 7.5-7.5h27.63c5.845 0 11.3 2.597 14.968 7.125 14.83 18.299 68.544 75.397 137.157 41.78 4.873-2.389 10.56-2.623 15.602-.642 5.017 1.97 9.002 5.986 10.935 11.017l19.88 51.75c1.904 4.957 1.67 10.539-.643 15.316-2.315 4.782-6.556 8.433-11.633 10.016-17.786 5.547-76.524 29.377-85.601 103.131-.467 3.799-3.701 6.584-7.434 6.584z"/><g><path d="m305.792 260.585h-99.584c-4.143 0-7.5-3.358-7.5-7.5s3.357-7.5 7.5-7.5h99.584c4.143 0 7.5 3.358 7.5 7.5s-3.357 7.5-7.5 7.5z"/><path d="m289.638 308.955h-67.275c-4.143 0-7.5-3.358-7.5-7.5s3.357-7.5 7.5-7.5h67.275c4.143 0 7.5 3.358 7.5 7.5s-3.358 7.5-7.5 7.5z"/><path d="m309.638 333.841h-107.276c-4.143 0-7.5-3.358-7.5-7.5s3.357-7.5 7.5-7.5h107.275c4.143 0 7.5 3.358 7.5 7.5s-3.357 7.5-7.499 7.5z"/></g><g><path d="m212.785 230.256c-4.143 0-7.5-3.358-7.5-7.5v-27.006c-2.104.147-4.246-.574-5.851-2.177-2.929-2.929-2.929-7.678 0-10.606l8.047-8.047c2.146-2.145 5.371-2.787 8.174-1.626s4.63 3.896 4.63 6.929v42.533c0 4.142-3.357 7.5-7.5 7.5z"/><path d="m247.907 230.256c-11.245 0-20.394-9.149-20.394-20.394v-18.898c0-11.245 9.148-20.394 20.394-20.394s20.395 9.149 20.395 20.394v18.898c0 11.245-9.15 20.394-20.395 20.394zm0-44.686c-2.974 0-5.394 2.42-5.394 5.394v18.898c0 2.974 2.42 5.394 5.394 5.394 2.975 0 5.395-2.42 5.395-5.394v-18.898c0-2.974-2.42-5.394-5.395-5.394z"/><path d="m294.368 230.256c-11.245 0-20.395-9.149-20.395-20.394v-18.898c0-11.245 9.149-20.394 20.395-20.394s20.394 9.149 20.394 20.394v18.898c0 11.245-9.149 20.394-20.394 20.394zm0-44.686c-2.975 0-5.395 2.42-5.395 5.394v18.898c0 2.974 2.42 5.394 5.395 5.394 2.974 0 5.394-2.42 5.394-5.394v-18.898c0-2.974-2.42-5.394-5.394-5.394z"/></g></g></svg>