<?xml version="1.0" encoding="iso-8859-1"?>
<!-- Generator: Adobe Illustrator 19.0.0, SVG Export Plug-In . SVG Version: 6.00 Build 0)  -->
<svg version="1.1" id="Capa_1" xmlns="http://www.w3.org/2000/svg" xmlns:xlink="http://www.w3.org/1999/xlink" x="0px" y="0px"
	 viewBox="0 0 512.002 512.002" style="enable-background:new 0 0 512.002 512.002;" xml:space="preserve">
<g>
	<g>
		<g>
			<path d="M262.927,59.314c11.15,16.042,25.156,29.502,41.629,40.006l8.689,5.542c2.094,1.335,4.492,2.003,6.893,2.003
				c2.398,0,4.799-0.668,6.893-2.003l8.691-5.542c16.471-10.504,30.477-23.964,41.627-40.006c0.028-0.039,0.055-0.079,0.082-0.12
				c10.097-15.145,8.084-35.479-4.787-48.352c0,0,0-0.001-0.001-0.001c-14.43-14.43-37.913-14.43-52.345,0.002l-0.16,0.16
				l-0.162-0.162c-14.43-14.43-37.911-14.43-52.343,0c-12.871,12.872-14.885,33.207-4.788,48.353
				C262.871,59.233,262.898,59.274,262.927,59.314z M278.239,21.448c8.583-8.582,22.548-8.581,31.129-0.002l1.707,1.708
				c4.997,4.995,13.129,4.994,18.128-0.003l1.702-1.703c8.585-8.582,22.55-8.58,31.131-0.001c7.816,7.817,9.054,20.157,2.952,29.368
				c-10.004,14.375-22.564,26.439-37.332,35.857l-7.518,4.794l-7.519-4.794c-14.768-9.418-27.328-21.481-37.333-35.857
				C269.187,41.605,270.423,29.265,278.239,21.448z"/>
			<path d="M466.357,277.902v-31.751c0-19.583,3.688-38.729,10.96-56.909c2.665-6.663,1.168-13.954-3.907-19.028
				c-5.074-5.074-12.365-6.569-19.027-3.905c-3.814,1.526-7.674,2.884-11.568,4.094v-45.545c0-4.189-0.936-8.249-2.71-11.958
				c3.103-4.601,4.917-10.139,4.917-16.094c0-15.911-12.944-28.855-28.855-28.855s-28.855,12.944-28.855,28.855
				c0,5.119,1.346,9.927,3.693,14.1c-2.462,4.23-3.76,9.014-3.76,13.952c0,1.457-1.186,2.643-2.643,2.643H220.569
				c-4.143,0-7.5,3.357-7.5,7.5s3.357,7.5,7.5,7.5H384.6c9.729,0,17.643-7.914,17.643-17.643c0-0.894,0.097-1.774,0.277-2.634
				c4.065,2.191,8.712,3.438,13.646,3.438c4.102,0,8.003-0.866,11.54-2.415c0.067,0.531,0.109,1.068,0.109,1.612v49.379
				c-9.943,2.01-20.081,3.032-30.34,3.032h-56.543c-2.209-3.645-4.865-7.075-7.981-10.191c-20.39-20.391-53.568-20.391-73.96,0
				l-2.587,2.587c-0.223,0.225-0.586,0.225-0.809,0l-2.587-2.587c-20.391-20.389-53.568-20.391-73.959,0
				c-3.116,3.116-5.772,6.547-7.981,10.191h-56.543c-10.259,0-20.396-1.022-30.34-3.031v-49.38c0-0.542,0.037-1.081,0.105-1.614
				c3.538,1.551,7.44,2.417,11.544,2.417c4.935,0,9.583-1.247,13.649-3.439c0.18,0.861,0.274,1.743,0.274,2.636
				c0,9.729,7.914,17.643,17.643,17.643h61.137c4.143,0,7.5-3.357,7.5-7.5s-3.357-7.5-7.5-7.5H127.4
				c-1.457,0-2.643-1.186-2.643-2.643c0-4.922-1.309-9.714-3.767-13.941c2.351-4.175,3.699-8.987,3.699-14.11
				c0-15.911-12.944-28.855-28.855-28.855S66.979,80.895,66.979,96.806c0,5.958,1.815,11.499,4.921,16.101
				c-1.772,3.718-2.714,7.797-2.714,11.951v45.545c-3.895-1.209-7.755-2.568-11.569-4.094c-6.663-2.664-13.953-1.169-19.027,3.906
				c-5.074,5.073-6.57,12.364-3.906,19.027c7.272,18.18,10.96,37.326,10.96,56.909v31.751C18.182,289.661,0,316.929,0,347.045
				v43.856c0,26.507,21.564,48.071,48.071,48.071H71v60.675c0,6.812,5.542,12.354,12.354,12.354h41.007
				c6.812,0,12.354-5.542,12.354-12.354v-20.104h238.572v20.104c0,6.812,5.542,12.354,12.354,12.354h41.007
				c6.812,0,12.354-5.542,12.354-12.354v-60.675h22.929c26.507,0,48.071-21.564,48.071-48.071v-43.856
				C512,316.929,493.818,289.661,466.357,277.902z M416.166,110.661c-7.639,0-13.855-6.216-13.855-13.855
				c0-7.64,6.216-13.855,13.855-13.855c7.639,0,13.855,6.216,13.855,13.855S423.805,110.661,416.166,110.661z M189.654,177.685
				c14.542-14.542,38.205-14.544,52.747,0l2.587,2.587c6.072,6.07,15.951,6.07,22.023,0l2.587-2.587
				c14.542-14.544,38.204-14.542,52.746,0c13.178,13.178,15.254,33.986,4.945,49.506c-4.405,6.334-9.226,12.446-14.338,18.256
				l-3.01-5.503c-3.019-5.521-8.804-8.951-15.096-8.951c-6.293,0-12.078,3.431-15.097,8.951l-6.201,11.337
				c-0.203,0.371-0.506,0.675-0.878,0.878l-11.338,6.201c-5.041,2.757-8.329,7.821-8.864,13.47h-25.392
				c-16.315-12.667-30.569-27.677-42.368-44.64C174.401,211.67,176.477,190.862,189.654,177.685z M322.31,273.455
				c0,0.598-0.199,1.417-1.148,1.937l-11.339,6.201c-2.893,1.583-5.258,3.948-6.839,6.841l-6.201,11.338
				c-0.519,0.948-1.339,1.147-1.936,1.147c-0.598,0-1.418-0.199-1.937-1.147l-6.2-11.337c-1.583-2.895-3.948-5.26-6.842-6.842
				l-11.338-6.201c-0.948-0.519-1.147-1.339-1.147-1.937c0-0.597,0.199-1.417,1.147-1.936l11.337-6.2
				c2.894-1.582,5.259-3.947,6.842-6.841l6.201-11.338c0.52-0.949,1.339-1.148,1.937-1.148c0.597,0,1.416,0.199,1.936,1.148
				l6.201,11.339c1.582,2.892,3.947,5.257,6.84,6.839l11.338,6.201C322.111,272.039,322.31,272.858,322.31,273.455z M95.834,82.95
				c7.64,0,13.855,6.216,13.855,13.855c0,7.639-6.216,13.855-13.855,13.855c-7.639,0-13.855-6.216-13.855-13.855
				C81.979,89.166,88.194,82.95,95.834,82.95z M49.195,180.821c0.459-0.46,1.439-1.148,2.851-0.585
				c19.959,7.983,40.979,12.032,62.479,12.032h50.303c-3.605,14.463-1.267,30.242,7.439,43.301c0.026,0.041,0.054,0.081,0.082,0.12
				c9.176,13.201,19.74,25.298,31.521,36.14H75.216c-4.918,0-9.788,0.494-14.573,1.44v-27.118c0-21.5-4.048-42.521-12.032-62.479
				C48.047,182.264,48.735,181.281,49.195,180.821z M121.714,497.001H86v-58.028h12.786c8.152,0,16.002-2.084,22.928-5.847V497.001z
				 M375.286,464.544H136.714v-38.786c8.808,8.351,20.591,13.215,33.072,13.215H220.5c13.661,0,26.498-5.814,35.5-15.666
				c9.002,9.852,21.839,15.666,35.5,15.666h50.714c12.481,0,24.264-4.864,33.072-13.215V464.544z M426,497.001h-35.714v-63.875
				c6.925,3.763,14.776,5.847,22.928,5.847H426V497.001z M497.001,390.901H497c0,18.235-14.836,33.071-33.071,33.071h-50.715
				c-12.014,0-23.104-6.539-28.941-17.066c-0.122-0.22-0.264-0.423-0.405-0.627v-29.911c0-4.143-3.357-7.5-7.5-7.5
				s-7.5,3.357-7.5,7.5v34.094c-6.188,8.42-16.058,13.51-26.653,13.51H291.5c-11.402,0-21.962-5.897-28-15.496v-32.108
				c0-4.143-3.357-7.5-7.5-7.5s-7.5,3.357-7.5,7.5v32.108c-6.038,9.599-16.598,15.496-28,15.496h-50.714
				c-11.403,0-21.964-5.897-28-15.497v-32.108c0-4.143-3.357-7.5-7.5-7.5s-7.5,3.357-7.5,7.5v32.108
				c-6.038,9.599-16.598,15.496-28,15.496H48.071C29.836,423.973,15,409.137,15,390.901v-43.856
				c0-25.227,15.929-47.969,39.638-56.59c6.615-2.406,13.539-3.626,20.578-3.626h183.56c0.793,0.641,1.643,1.223,2.557,1.723
				l11.339,6.202c0.37,0.202,0.674,0.506,0.877,0.877l6.201,11.338c3.02,5.521,8.804,8.95,15.097,8.95
				c6.292,0,12.076-3.43,15.096-8.95l6.202-11.339c0.202-0.371,0.506-0.674,0.876-0.877l11.338-6.201
				c5.521-3.019,8.951-8.804,8.951-15.097c0-6.292-3.431-12.077-8.951-15.096l-4.568-2.499c5.667-6.403,10.993-13.168,15.861-20.171
				c0.027-0.04,0.055-0.08,0.081-0.12c8.706-13.059,11.044-28.838,7.44-43.301h50.302c21.499,0,42.52-4.048,62.48-12.033
				c1.408-0.562,2.389,0.126,2.85,0.585c0.46,0.461,1.148,1.443,0.585,2.852c-7.983,19.959-12.032,40.979-12.032,62.479v27.118
				c-4.786-0.946-9.655-1.44-14.573-1.44h-70.609c-4.143,0-7.5,3.357-7.5,7.5s3.357,7.5,7.5,7.5h70.609
				c7.039,0,13.963,1.22,20.578,3.626c23.709,8.621,39.638,31.363,39.638,56.59V390.901z"/>
			<path d="M149.268,50.903l7.035,3.848c0.37,0.202,0.673,0.506,0.876,0.877l3.848,7.033c3.019,5.521,8.804,8.951,15.096,8.951
				c6.293,0,12.078-3.431,15.097-8.95l3.848-7.034c0.203-0.371,0.506-0.675,0.877-0.878l7.035-3.847
				c5.521-3.021,8.95-8.806,8.95-15.098c-0.001-6.293-3.431-12.077-8.951-15.096l-7.032-3.846c-0.372-0.203-0.676-0.507-0.879-0.88
				L191.22,8.95c-3.021-5.519-8.805-8.949-15.098-8.949c-6.292,0-12.076,3.43-15.096,8.949l-3.849,7.036
				c-0.202,0.371-0.506,0.675-0.876,0.877l-7.034,3.847c-5.521,3.019-8.95,8.803-8.951,15.096
				C140.316,42.098,143.746,47.883,149.268,50.903z M156.465,33.87l7.036-3.848c2.893-1.583,5.257-3.948,6.838-6.839l3.848-7.035
				c0.519-0.948,1.339-1.147,1.936-1.147c0.598,0,1.418,0.199,1.937,1.147c0,0,0,0,0,0.001l3.847,7.032
				c1.582,2.893,3.946,5.258,6.841,6.842l7.034,3.847c0.949,0.519,1.147,1.339,1.148,1.936c0,0.598-0.199,1.418-1.148,1.938
				l-7.033,3.846c-2.893,1.582-5.258,3.946-6.841,6.84l-3.848,7.035c-0.52,0.949-1.339,1.148-1.937,1.148
				c-0.597,0-1.416-0.199-1.936-1.149l-3.848-7.034c-1.583-2.894-3.948-5.258-6.84-6.839l-7.033-3.847
				c-0.95-0.52-1.149-1.34-1.149-1.938C155.317,35.209,155.516,34.389,156.465,33.87z"/>
		</g>
	</g>
</g>
<g>
</g>
<g>
</g>
<g>
</g>
<g>
</g>
<g>
</g>
<g>
</g>
<g>
</g>
<g>
</g>
<g>
</g>
<g>
</g>
<g>
</g>
<g>
</g>
<g>
</g>
<g>
</g>
<g>
</g>
</svg>
