<svg id="eKe0pWxg5lA1" xmlns="http://www.w3.org/2000/svg" xmlns:xlink="http://www.w3.org/1999/xlink" viewBox="0 0 417 42.7" shape-rendering="geometricPrecision" text-rendering="geometricPrecision"><style><![CDATA[#eKe0pWxg5lA7_to {animation: eKe0pWxg5lA7_to__to 20000ms linear infinite normal forwards}@keyframes eKe0pWxg5lA7_to__to { 0% {transform: translate(-21.463474px,30.301256px)} 6.666667% {transform: translate(-21.463474px,30.301256px)} 43.333333% {transform: translate(441.596342px,30.301259px)} 100% {transform: translate(441.596342px,30.301259px)}} #eKe0pWxg5lA8_to {animation: eKe0pWxg5lA8_to__to 20000ms linear infinite normal forwards}@keyframes eKe0pWxg5lA8_to__to { 0% {transform: translate(27.564068px,16.601967px)} 6.666667% {transform: translate(20.042264px,19.586724px)} 13.333333% {transform: translate(27.564068px,16.601967px)} 20% {transform: translate(20.042264px,19.586724px)} 26.666667% {transform: translate(27.564068px,16.601967px)} 33.333333% {transform: translate(20.042264px,19.586724px)} 40% {transform: translate(27.564068px,16.601967px)} 46.666667% {transform: translate(20.042264px,19.586724px)} 53.333333% {transform: translate(27.564068px,16.601967px)} 60% {transform: translate(20.042264px,19.586724px)} 66.666667% {transform: translate(27.564068px,16.601967px)} 73.333333% {transform: translate(20.042264px,19.586724px)} 80% {transform: translate(27.564068px,16.601967px)} 86.666667% {transform: translate(20.042264px,19.586724px)} 93.333333% {transform: translate(27.564068px,16.601967px)} 100% {transform: translate(20.042264px,19.586724px)}} #eKe0pWxg5lA8_tr {animation: eKe0pWxg5lA8_tr__tr 20000ms linear infinite normal forwards}@keyframes eKe0pWxg5lA8_tr__tr { 0% {transform: rotate(0deg)} 6.666667% {transform: rotate(-3.912454deg)} 13.333333% {transform: rotate(0deg)} 20% {transform: rotate(-3.912454deg)} 26.666667% {transform: rotate(0deg)} 33.333333% {transform: rotate(-3.912454deg)} 40% {transform: rotate(0deg)} 46.666667% {transform: rotate(-3.912454deg)} 53.333333% {transform: rotate(0deg)} 60% {transform: rotate(-3.912454deg)} 66.666667% {transform: rotate(0deg)} 73.333333% {transform: rotate(-3.912454deg)} 80% {transform: rotate(0deg)} 86.666667% {transform: rotate(-3.912454deg)} 93.333333% {transform: rotate(0deg)} 100% {transform: rotate(-3.912454deg)}} #eKe0pWxg5lA9_tr {animation: eKe0pWxg5lA9_tr__tr 20000ms linear infinite normal forwards}@keyframes eKe0pWxg5lA9_tr__tr { 0% {transform: translate(50.2px,34.400005px) rotate(0deg)} 6.666667% {transform: translate(50.2px,34.400005px) rotate(15.350376deg)} 13.333333% {transform: translate(50.2px,34.400005px) rotate(0deg)} 20% {transform: translate(50.2px,34.400005px) rotate(15.350376deg)} 26.666667% {transform: translate(50.2px,34.400005px) rotate(0deg)} 33.333333% {transform: translate(50.2px,34.400005px) rotate(15.350376deg)} 40% {transform: translate(50.2px,34.400005px) rotate(0deg)} 46.666667% {transform: translate(50.2px,34.400005px) rotate(15.350376deg)} 53.333333% {transform: translate(50.2px,34.400005px) rotate(0deg)} 60% {transform: translate(50.2px,34.400005px) rotate(15.350376deg)} 66.666667% {transform: translate(50.2px,34.400005px) rotate(0deg)} 73.333333% {transform: translate(50.2px,34.400005px) rotate(15.350376deg)} 80% {transform: translate(50.2px,34.400005px) rotate(0deg)} 86.666667% {transform: translate(50.2px,34.400005px) rotate(15.350376deg)} 93.333333% {transform: translate(50.2px,34.400005px) rotate(0deg)} 100% {transform: translate(50.2px,34.400005px) rotate(15.350376deg)}} #eKe0pWxg5lA12_to {animation: eKe0pWxg5lA12_to__to 20000ms linear infinite normal forwards}@keyframes eKe0pWxg5lA12_to__to { 0% {transform: translate(438.46419px,30.301259px)} 56.666667% {transform: translate(438.46419px,30.301259px)} 93.333333% {transform: translate(-25.735557px,30.301256px)} 100% {transform: translate(-25.735557px,30.301256px)}} #eKe0pWxg5lA13_to {animation: eKe0pWxg5lA13_to__to 20000ms linear infinite normal forwards}@keyframes eKe0pWxg5lA13_to__to { 0% {transform: translate(27.564068px,16.601967px)} 6.666667% {transform: translate(18.730318px,20.477389px)} 13.333333% {transform: translate(27.564068px,16.601967px)} 20% {transform: translate(18.730318px,20.477389px)} 26.666667% {transform: translate(27.564068px,16.601967px)} 33.333333% {transform: translate(18.730318px,20.477389px)} 40% {transform: translate(27.564068px,16.601967px)} 46.666667% {transform: translate(18.730318px,20.477389px)} 53.333333% {transform: translate(27.564068px,16.601967px)} 60% {transform: translate(18.730318px,20.477389px)} 66.666667% {transform: translate(27.564068px,16.601967px)} 73.333333% {transform: translate(18.730318px,20.477389px)} 80% {transform: translate(27.564068px,16.601967px)} 86.666667% {transform: translate(18.730318px,20.477389px)} 93.333333% {transform: translate(27.564068px,16.601967px)} 100% {transform: translate(18.730318px,20.477389px)}} #eKe0pWxg5lA13_tr {animation: eKe0pWxg5lA13_tr__tr 20000ms linear infinite normal forwards}@keyframes eKe0pWxg5lA13_tr__tr { 0% {transform: rotate(0deg)} 6.666667% {transform: rotate(-6.417965deg)} 13.333333% {transform: rotate(0deg)} 20% {transform: rotate(-6.417965deg)} 26.666667% {transform: rotate(0deg)} 33.333333% {transform: rotate(-6.417965deg)} 40% {transform: rotate(0deg)} 46.666667% {transform: rotate(-6.417965deg)} 53.333333% {transform: rotate(0deg)} 60% {transform: rotate(-6.417965deg)} 66.666667% {transform: rotate(0deg)} 73.333333% {transform: rotate(-6.417965deg)} 80% {transform: rotate(0deg)} 86.666667% {transform: rotate(-6.417965deg)} 93.333333% {transform: rotate(0deg)} 100% {transform: rotate(-6.417965deg)}} #eKe0pWxg5lA14_tr {animation: eKe0pWxg5lA14_tr__tr 20000ms linear infinite normal forwards}@keyframes eKe0pWxg5lA14_tr__tr { 0% {transform: translate(49.7px,34.418838px) rotate(0deg)} 6.666667% {transform: translate(49.7px,34.418838px) rotate(12.023083deg)} 13.333333% {transform: translate(49.7px,34.418838px) rotate(0deg)} 20% {transform: translate(49.7px,34.418838px) rotate(12.023083deg)} 26.666667% {transform: translate(49.7px,34.418838px) rotate(0deg)} 33.333333% {transform: translate(49.7px,34.418838px) rotate(12.023083deg)} 40% {transform: translate(49.7px,34.418838px) rotate(0deg)} 46.666667% {transform: translate(49.7px,34.418838px) rotate(12.023083deg)} 53.333333% {transform: translate(49.7px,34.418838px) rotate(0deg)} 60% {transform: translate(49.7px,34.418838px) rotate(12.023083deg)} 66.666667% {transform: translate(49.7px,34.418838px) rotate(0deg)} 73.333333% {transform: translate(49.7px,34.418838px) rotate(12.023083deg)} 80% {transform: translate(49.7px,34.418838px) rotate(0deg)} 86.666667% {transform: translate(49.7px,34.418838px) rotate(12.023083deg)} 93.333333% {transform: translate(49.7px,34.418838px) rotate(0deg)} 100% {transform: translate(49.7px,34.418838px) rotate(12.023083deg)}}]]></style><g id="eKe0pWxg5lA2"><g id="eKe0pWxg5lA3"><rect id="eKe0pWxg5lA4" width="2.8" height="2.83" rx="0" ry="0" transform="matrix(1 0 0 0.276764 4.500724 39.099998)" fill="rgb(35,31,32)" stroke="none" stroke-width="1"/><path id="eKe0pWxg5lA5" d="M408.4,42.7L402.7,42.7L402.7,39.8L408.4,39.8ZM397,42.7L391.2,42.7L391.2,39.8L397,39.8ZM385.5,42.7L379.8,42.7L379.8,39.8L385.5,39.8ZM374,42.7L368.3,42.7L368.3,39.8L374,39.8ZM362.6,42.7L356.8,42.7L356.8,39.8L362.6,39.8ZM351.1,42.7L345.4,42.7L345.4,39.8L351.1,39.8ZM339.6,42.7L333.9,42.7L333.9,39.8L339.6,39.8ZM328.2,42.7L322.4,42.7L322.4,39.8L328.2,39.8ZM316.7,42.7L311,42.7L311,39.8L316.7,39.8ZM305.3,42.7L299.5,42.7L299.5,39.8L305.3,39.8ZM293.8,42.7L288.1,42.7L288.1,39.8L293.8,39.8ZM282.3,42.7L276.6,42.7L276.6,39.8L282.3,39.8ZM270.9,42.7L265.1,42.7L265.1,39.8L270.9,39.8ZM259.4,42.7L253.7,42.7L253.7,39.8L259.4,39.8ZM247.9,42.7L242.2,42.7L242.2,39.8L247.9,39.8ZM236.5,42.7L230.7,42.7L230.7,39.8L236.5,39.8ZM225,42.7L219.3,42.7L219.3,39.8L225,39.8ZM213.6,42.7L207.8,42.7L207.8,39.8L213.6,39.8ZM202.1,42.7L196.4,42.7L196.4,39.8L202.1,39.8ZM190.6,42.7L184.9,42.7L184.9,39.8L190.6,39.8ZM179.2,42.7L173.4,42.7L173.4,39.8L179.2,39.8ZM167.7,42.7L162,42.7L162,39.8L167.7,39.8ZM156.2,42.7L150.5,42.7L150.5,39.8L156.2,39.8ZM144.8,42.7L139,42.7L139,39.8L144.8,39.8ZM133.3,42.7L127.6,42.7L127.6,39.8L133.3,39.8ZM121.9,42.7L116.1,42.7L116.1,39.8L121.9,39.8ZM110.4,42.7L104.7,42.7L104.7,39.8L110.4,39.8ZM98.9,42.7L93.2,42.7L93.2,39.8L98.9,39.8ZM87.5,42.7L81.7,42.7L81.7,39.8L87.5,39.8ZM76,42.7L70.3,42.7L70.3,39.8L76,39.8ZM64.5,42.7L58.8,42.7L58.8,39.8L64.5,39.8ZM53.1,42.7L47.3,42.7L47.3,39.8L53.1,39.8ZM41.6,42.7L35.9,42.7L35.9,39.8L41.6,39.8ZM30.1,42.7L24.4,42.7L24.4,39.8L30.1,39.8ZM18.7,42.7L13,42.7L13,39.8L18.7,39.8Z" transform="matrix(1 0 0 0.276764 0.100724 28.110106)" fill="rgb(35,31,32)" stroke="none" stroke-width="1"/><rect id="eKe0pWxg5lA6" width="2.8" height="2.83" rx="0" ry="0" transform="matrix(1 0 0 0.276764 414.200724 39.099998)" fill="rgb(35,31,32)" stroke="none" stroke-width="1"/><g id="eKe0pWxg5lA7_to" transform="translate(-21.463474,30.301256)"><g id="eKe0pWxg5lA7" transform="scale(0.406226,0.406226) translate(-52.864428,-19.201969)"><g id="eKe0pWxg5lA8_to" transform="translate(27.564068,16.601967)"><g id="eKe0pWxg5lA8_tr" transform="rotate(0)"><path id="eKe0pWxg5lA8" d="M8.1,26.5C11.571353,28.520148,15.663335,29.196214,19.6,28.4C23.8,28,24,27.5,29.3,27.4C33.421372,27.274536,37.382934,28.998549,40.1,32.1L41.2,33.2C45.5,29.1,49.9,27.9,55.1,27.4L48.8,26.5C46.3,26.2,40.4,24,36.4,20.9C33.874837,18.801459,31.712564,16.30133,30,13.5C29.19936,8.709095,26.252715,4.546958,22,2.2C14.7,-2,5.6,0,1.7,6.7C0.778845,8.289402,0.231682,10.067683,0.1,11.9L0.1,11.9C-0.5,17.7,2.7,23.4,8.1,26.5ZM6.9,10.2C9.4,6,15.1,4.7,19.7,7.3L20.5,7.9C24.5,10.7,25.9,15.8,23.6,19.7C21.3,23.6,15.5,25.2,10.9,22.6L10.1,22C6.1,19.2,4.7,14.1,6.9,10.2Z" transform="translate(-27.564068,-16.601967)" fill="rgb(35,31,32)" stroke="none" stroke-width="1"/></g></g><g id="eKe0pWxg5lA9_tr" transform="translate(50.2,34.400005) rotate(0)"><path id="eKe0pWxg5lA9" d="M105.7,29C105.693686,28.922938,105.657861,28.851289,105.6,28.8L105.7,28.8C105.8,27.6,95.5,24.8,66.6,27.6L54.9,28.4C49.7,29,45.3,30.2,41,34.2C40.719011,34.581862,40.381862,34.919011,40,35.2C38.782805,36.529966,37.323478,37.615976,35.7,38.4L65.3,38.4C71.9,37.2,78.4,35.8,84.3,34.5C96.6,31.6,105.7,29,105.7,29ZM49.7,37.3C48.106816,37.094036,46.934921,35.705123,47,34.1C47.075573,33.329189,47.456338,32.620636,48.057443,32.132238C48.658548,31.64384,49.430042,31.416183,50.2,31.5C50.962347,31.549994,51.671161,31.909325,52.162107,32.494684C52.653054,33.080043,52.883493,33.840591,52.8,34.6C52.748749,35.369814,52.392857,36.087473,51.81107,36.594191C51.229282,37.100909,50.469561,37.354912,49.7,37.3Z" transform="translate(-50.2,-34.400005)" fill="rgb(35,31,32)" stroke="none" stroke-width="1"/></g><path id="eKe0pWxg5lA10" d="M47.6,34.2C47.514317,35.305126,48.229048,36.314158,49.3,36.6L49.7,32.1C48.581309,32.193701,47.693701,33.081309,47.6,34.2Z" fill="rgb(35,31,32)" stroke="none" stroke-width="1"/><path id="eKe0pWxg5lA11" d="M50.6,32.1L50.2,36.7C51.298978,36.600631,52.154326,35.702515,52.2,34.6C52.307695,33.49724,51.646478,32.464089,50.6,32.1Z" fill="rgb(35,31,32)" stroke="none" stroke-width="1"/></g></g><g id="eKe0pWxg5lA12_to" transform="translate(438.46419,30.301259)"><g id="eKe0pWxg5lA12" transform="scale(-0.406226,0.406226) translate(-52.864428,-19.201969)"><g id="eKe0pWxg5lA13_to" transform="translate(27.564068,16.601967)"><g id="eKe0pWxg5lA13_tr" transform="rotate(0)"><path id="eKe0pWxg5lA13" d="M8.1,26.5C11.571353,28.520148,15.663335,29.196214,19.6,28.4C23.8,28,24,27.5,29.3,27.4C33.421372,27.274536,37.382934,28.998549,40.1,32.1L41.2,33.2C45.5,29.1,49.9,27.9,55.1,27.4L48.8,26.5C46.3,26.2,40.4,24,36.4,20.9C33.874837,18.801459,31.712564,16.30133,30,13.5C29.19936,8.709095,26.252715,4.546958,22,2.2C14.7,-2,5.6,0,1.7,6.7C0.778845,8.289402,0.231682,10.067683,0.1,11.9L0.1,11.9C-0.5,17.7,2.7,23.4,8.1,26.5ZM6.9,10.2C9.4,6,15.1,4.7,19.7,7.3L20.5,7.9C24.5,10.7,25.9,15.8,23.6,19.7C21.3,23.6,15.5,25.2,10.9,22.6L10.1,22C6.1,19.2,4.7,14.1,6.9,10.2Z" transform="translate(-27.564068,-16.601967)" fill="rgb(35,31,32)" stroke="none" stroke-width="1"/></g></g><g id="eKe0pWxg5lA14_tr" transform="translate(49.7,34.418838) rotate(0)"><path id="eKe0pWxg5lA14" d="M105.7,29C105.693686,28.922938,105.657861,28.851289,105.6,28.8L105.7,28.8C105.8,27.6,95.5,24.8,66.6,27.6L54.9,28.4C49.7,29,45.3,30.2,41,34.2C40.719011,34.581862,40.381862,34.919011,40,35.2C38.782805,36.529966,37.323478,37.615976,35.7,38.4L65.3,38.4C71.9,37.2,78.4,35.8,84.3,34.5C96.6,31.6,105.7,29,105.7,29ZM49.7,37.3C48.106816,37.094036,46.934921,35.705123,47,34.1C47.075573,33.329189,47.456338,32.620636,48.057443,32.132238C48.658548,31.64384,49.430042,31.416183,50.2,31.5C50.962347,31.549994,51.671161,31.909325,52.162107,32.494684C52.653054,33.080043,52.883493,33.840591,52.8,34.6C52.748749,35.369814,52.392857,36.087473,51.81107,36.594191C51.229282,37.100909,50.469561,37.354912,49.7,37.3Z" transform="translate(-49.7,-34.418838)" fill="rgb(35,31,32)" stroke="none" stroke-width="1"/></g><path id="eKe0pWxg5lA15" d="M47.6,34.2C47.514317,35.305126,48.229048,36.314158,49.3,36.6L49.7,32.1C48.581309,32.193701,47.693701,33.081309,47.6,34.2Z" fill="rgb(35,31,32)" stroke="none" stroke-width="1"/><path id="eKe0pWxg5lA16" d="M50.6,32.1L50.2,36.7C51.298978,36.600631,52.154326,35.702515,52.2,34.6C52.307695,33.49724,51.646478,32.464089,50.6,32.1Z" fill="rgb(35,31,32)" stroke="none" stroke-width="1"/></g></g></g></g></svg>
