<svg xmlns="http://www.w3.org/2000/svg" viewBox="0 0 102.7 115.2"><title>icon-1</title><g id="ba70aaec-c802-4469-bae0-15770b35409e" data-name="Layer 2"><g id="e26b4369-0c36-4413-a90e-e464db6fdd17" data-name="Layer 1"><g id="fc2d708f-47ee-4ed2-9756-d1249414b881" data-name="ab3ab8fe-8b0b-452d-af74-968ea418968d"><g id="e6e729fc-ea0c-454f-89ef-51435ee95450" data-name="e5d3c594-5110-4fe1-9b82-37f5a4443e3e"><g id="a95845e5-1632-4686-a7fa-08e252f8a0e6" data-name="fd46afa7-2c55-47fa-87ca-c36301e31f13"><path d="M102.7,51.3H90.1c-.6-14.2-6.7-25.4-18.9-32.9A37.1,37.1,0,0,0,42.5,14C22.6,18.6,9.6,38.8,13.7,58.7s23.1,31.6,37.7,31V77.5l19,18.9L51.5,115.2V102.8c-18.3-.7-32.8-8.1-42.9-23.2C.7,67.8-1.7,54.7,1.2,40.8A51,51,0,0,1,60.6.9C89,6,103.6,31.3,102.7,51.3Z"/><path d="M51.5,63.1a11.4,11.4,0,1,1-2.1-22.7,7.4,7.4,0,0,1,2.1,0A11.4,11.4,0,0,1,61.8,52.8,11.5,11.5,0,0,1,51.5,63.1Z"/></g></g></g></g></g></svg>