<svg xmlns="http://www.w3.org/2000/svg" xmlns:xlink="http://www.w3.org/1999/xlink" viewBox="0 0 2550 2550"><defs><style>.cls-1{fill:url(#linear-gradient);}</style><linearGradient id="linear-gradient" x1="5365.95" y1="3031.02" x2="863.94" y2="-121.32" gradientTransform="translate(-921.77 463.07)" gradientUnits="userSpaceOnUse"><stop offset="0" stop-color="#402000"/><stop offset="0.11" stop-color="#553715"/><stop offset="0.72" stop-color="#c7b684"/><stop offset="0.99" stop-color="#f4e8b1"/></linearGradient></defs><g id="Layer_2" data-name="Layer 2"><g id="Layer_1-2" data-name="Layer 1"><path class="cls-1" d="M1275,2550h0c-172.11,0-339.09-33.71-496.3-100.21A1278.57,1278.57,0,0,1,100.21,1771.3C33.71,1614.09,0,1447.11,0,1275S33.71,935.91,100.21,778.71A1278.55,1278.55,0,0,1,778.7,100.21C935.91,33.71,1102.89,0,1275,0s339.09,33.71,496.3,100.21A1278.57,1278.57,0,0,1,2449.79,778.7C2516.29,935.91,2550,1102.89,2550,1275s-33.71,339.09-100.21,496.29a1278.55,1278.55,0,0,1-678.49,678.5C1614.09,2516.29,1447.11,2550,1275,2550Zm0-2500C599.53,50,50,599.53,50,1275S599.53,2500,1275,2500h0c675.47,0,1225-549.53,1225-1225S1950.47,50,1275,50Z"/><path class="cls-1" d="M1774.94,970.13A521.86,521.86,0,0,0,1589.1,1004q-8.82-17.09-18.25-33.84-21.52-38.28-46.11-74.69a1082.29,1082.29,0,0,0-131.25-159.08q-36.79-36.79-77.12-70c-1.32-1.1-2.66-2.18-4-3.26q-10-8.16-20.18-16.07-8.45-6.57-17-13-8.57,6.41-17,13Q1248,655,1238.06,663.13l-4,3.29q-39.54,32.67-75.84,69A1082.29,1082.29,0,0,0,1027,894.45q-24.87,36.81-46.67,75.68-9.51,17-18.42,34.26a522,522,0,0,0-186.92-34.26q-12.53,0-24.94.58v524.92a521.35,521.35,0,0,0,41.22,204.16q4.18,9.89,8.76,19.56a.08.08,0,0,0,0,0A522.63,522.63,0,0,0,903.62,1866.5q4.25,4.26,8.59,8.4a526.87,526.87,0,0,0,62.44,51.17q9.75,6.79,19.79,13.15,14.85,9.39,30.34,17.78,12.77,6.91,26,13.13,4.8,2.25,9.65,4.43t9.95,4.34q6.14,2.6,12.31,5,15.9,6.25,32.1,11.44,18.6,5.94,37.56,10.48a525.24,525.24,0,0,0,122.2,14.29h2c7.84,0,15.65-.21,23.43-.56a521.93,521.93,0,0,0,98.19-13.84q18.67-4.47,37-10.34,16.52-5.28,32.72-11.67,5.91-2.32,11.78-4.81,5-2.1,9.88-4.31t9.72-4.46q13.15-6.21,25.89-13.09,17.14-9.29,33.51-19.79,8.41-5.41,16.63-11.15a526.94,526.94,0,0,0,65.72-54.31q2.7-2.62,5.36-5.29A522.66,522.66,0,0,0,1750,1719.39q4.56-9.69,8.77-19.6A521.18,521.18,0,0,0,1800,1495.63V970.72Q1787.51,970.14,1774.94,970.13ZM1599.4,1153.74A1015.74,1015.74,0,0,1,1642,1313.45a373.58,373.58,0,0,1,7.37,47q1.58,17.12,1.6,34.65a372.8,372.8,0,0,1-60.89,204.62A376.73,376.73,0,0,1,1378.13,1756a371.13,371.13,0,0,1-46.41,10c-2,.31-4.08.59-6.13.87q-12.69,1.68-25.61,2.51v-50.27a.61.61,0,0,1,0,.12q8-.59,15.93-1.57a323,323,0,0,0,189.33-92.7,328.91,328.91,0,0,0,36.63-43.59,322.11,322.11,0,0,0,58.3-173.92q-.81-29.7-3.09-59.16a1166.43,1166.43,0,0,0-28.35-181l3.49-1.67Q1585.62,1159.25,1599.4,1153.74ZM1486,1218.37q17.91-13.77,37.14-25.85a1119.37,1119.37,0,0,1,24.28,161.39,276,276,0,0,1,3.09,41.22c0,4.08-.11,8.15-.29,12.19-5.58,127.14-97.87,232.14-219.06,257.14q-12.57,2.6-25.54,4c-1.86.2-3.74.39-5.61.55v-67.71q0-3.09,0-6.18t0-6.19q.29-22.17,2.58-43.81C1316.51,1412.36,1385.38,1295.71,1486,1218.37Zm-141.59,76.2a478.08,478.08,0,0,1,123.41-161.5q15.75-13.38,32.62-25.38,5.23,16.82,9.92,33.87-9.28,5.42-18.33,11.2-21.72,13.92-42,30a530.63,530.63,0,0,0-105.58,111.84ZM1300,1819.09c0,.12.11.24.16.35H1300Zm254.74-744.76q5.07-2.65,10.21-5.21,5.74,12.48,11.17,25.14,2.72,6.33,5.34,12.69-5.45,2.16-10.87,4.44-4.93,2.1-9.82,4.29-2.46,1.1-4.89,2.21c-.71-2.48-1.42-5-2.15-7.43q-4.47-15.3-9.37-30.51C1547.77,1078,1551.24,1076.16,1554.72,1074.33Zm-42.14-104.2q14.78,24.55,28.19,50c.69,1.31,1.37,2.64,2.06,4q-7.66,3.78-15.19,7.8-2.19-5.9-4.44-11.76-7.11-18.54-14.85-36.89-2.79-6.57-5.64-13.11-12.43-28.43-26.42-56.2Q1495.33,941.38,1512.58,970.13Zm-429.87,46.35q2.49-6.08,5-12.13,7.29-17.26,15.15-34.22a1128.22,1128.22,0,0,1,172.3-266.28,1128,1128,0,0,1,172.31,266.28q7.89,17.05,15.23,34.42,2.33,5.49,4.59,11c.62,1.52,1.22,3,1.84,4.56q7.62,18.86,14.58,38-4.41,2.94-8.75,6-5.07,3.52-10.06,7.19a526.12,526.12,0,0,0-41.82,34.11q-9.91,9-19.42,18.45t-18.26,19.21A521.75,521.75,0,0,0,1300,1271.16q-4.57,9.71-8.78,19.6-9.14,21.62-16.26,43.8-7.14-22.17-16.27-43.8-4.15-9.83-8.69-19.43a522.48,522.48,0,0,0-85.24-127.9q-9-10-18.57-19.54-9.32-9.3-19-18.1a524.79,524.79,0,0,0-41.33-33.8q-5.4-4-10.9-7.82-4.15-2.89-8.36-5.71,7-19.34,14.68-38.33C1081.73,1018.91,1082.21,1017.69,1082.71,1016.48Zm-18.16,202.4c100.24,77.34,168.84,193.77,182.77,326.25a480.08,480.08,0,0,1,2.62,50q0-3.27,0-6.54v80.34c-1.9-.17-3.8-.37-5.68-.58q-12.93-1.47-25.47-4.1c-123.63-26-216.94-135.27-218.32-266.19,0-1,0-2,0-2.93a276.26,276.26,0,0,1,1.94-32.6,1119.32,1119.32,0,0,1,24.81-169.71Q1046.53,1205,1064.55,1218.88ZM1040,1141.83q4.7-17,9.9-33.83,16.89,12,32.67,25.49a478.26,478.26,0,0,1,122.92,161.08,530.41,530.41,0,0,0-105-111.4q-20.26-16.07-42-30Q1049.37,1147.3,1040,1141.83Zm-29.59-121.7q13.37-25.44,28.1-50,16.17-27,33.92-52.85-13,26.13-24.73,52.85-2.85,6.54-5.64,13.11-7.75,18.35-14.85,36.89c-1.54,4-3,8-4.53,12l2.1,1.12c-1.06.57-2.11,1.15-3.16,1.73l1.06-2.85q-7.23-3.87-14.6-7.53C1008.85,1023.1,1009.62,1021.61,1010.41,1020.13Zm-35.72,75.21q5.5-12.93,11.36-25.67,5.22,2.6,10.36,5.32,4.82,2.55,9.58,5.21-4.8,14.9-9.18,29.89-1.18,4-2.32,8-2.64-1.21-5.29-2.4-4.92-2.2-9.9-4.32-4.81-2-9.66-4Q972.13,1101.37,974.69,1095.34Zm4.37,70.93,2.51,1.2a1169.21,1169.21,0,0,0-29,190.78q-1.34,19.41-2,38.92a322.6,322.6,0,0,0,57.87,183.23,328.72,328.72,0,0,0,37.3,44.54A322.63,322.63,0,0,0,1234,1717.5q7.92,1,15.93,1.63a2,2,0,0,1,.1-.21v50.31q-12.9-.88-25.55-2.63-3.09-.43-6.16-.91a373.11,373.11,0,0,1-194.52-93.26,377.78,377.78,0,0,1-63.76-75.5,372.78,372.78,0,0,1-59-201.8,377.7,377.7,0,0,1,2.67-44.88q1.6-13.32,4.11-26.34a1016.32,1016.32,0,0,1,44-169.65Q965.63,1159.84,979.06,1166.27ZM1250,1818.92v.43h-.2C1249.84,1819.2,1249.91,1819.06,1250,1818.92ZM800,1020.13h0v.65a471.89,471.89,0,0,1,139.89,28.89q-6.21,13.62-12.06,27.39-2.94,7-5.77,14A521.48,521.48,0,0,0,800,1070.72h0Zm362.38,929.3q2.07,4.27,4.46,8.37-5-1.17-10-2.44-19.41-5-38.15-11.52-7.82-2.71-15.49-5.7-14.37-5.6-28.28-12.06-13.47-6.27-26.49-13.35-12-6.56-23.64-13.77a477.95,477.95,0,0,1-151.53-150.29,471.59,471.59,0,0,1-73.26-253V1270.86a.08.08,0,0,0,0,0V1120.78h0a473.63,473.63,0,0,1,92.78,14.14q5.75,1.47,11.43,3.09a1067,1067,0,0,0-30.64,103.07q-9.45,38.91-16,78.48-1.71,10.37-3.2,20.77a431.54,431.54,0,0,0-3.48,54.8,422.48,422.48,0,0,0,33.4,165.43q6.12,14.45,13.23,28.32a423.8,423.8,0,0,0,77.85,106.77c.84.84,1.7,1.66,2.55,2.49a424.28,424.28,0,0,0,132.53,88.58q14.84,6.27,30,11.37a418.2,418.2,0,0,0,43,12,125,125,0,0,0-27.25,46,123.72,123.72,0,0,0-5.92,29.87q-.35,4.58-.34,9.22A124.23,124.23,0,0,0,1162.36,1949.43Zm187.17-46.51a75,75,0,0,1-149.19,0,74.28,74.28,0,0,1-.4-7.79,75.1,75.1,0,0,1,46.81-69.49c1.06-.43,2.14-.84,3.23-1.23a74.91,74.91,0,0,1,50,0c1.06.38,2.1.78,3.14,1.2a75.11,75.11,0,0,1,46.82,69.49A74.27,74.27,0,0,1,1349.53,1902.92ZM1750,1495.63a471.64,471.64,0,0,1-70.17,248.08A478.1,478.1,0,0,1,1525.15,1899q-11.31,7-23,13.43-13.3,7.26-27.11,13.69t-28.29,12.05q-7.39,2.86-14.9,5.5-19,6.66-38.76,11.71-5,1.29-10,2.45,2.4-4.11,4.48-8.4a124.23,124.23,0,0,0,12.43-54.3c0-3.1-.12-6.17-.34-9.22a124.55,124.55,0,0,0-32.83-75.49,421.41,421.41,0,0,0,43-11.81q16-5.29,31.57-11.89A423.75,423.75,0,0,0,1572,1700c1.48-1.44,3-2.86,4.43-4.32a424.12,424.12,0,0,0,77.74-106.57q7.17-14,13.33-28.52a422.31,422.31,0,0,0,33.41-165.43q0-21.3-2.07-42.26-3.18-23.92-7.43-47.62-5.46-30.39-12.65-60.4a1061.79,1061.79,0,0,0-31.8-107.21q5.09-1.42,10.2-2.74a472.3,472.3,0,0,1,92.81-14.12Zm0-424.92a521.24,521.24,0,0,0-120.91,19.93q-2.56-6.3-5.23-12.59-6.13-14.49-12.72-28.82A472,472,0,0,1,1750,1020.78Z"/><path class="cls-1" d="M764.92,661.14q-26.07,21.21-54.3,30.24a136.58,136.58,0,0,1-109-10.08q-25.32-13.69-45.51-38.52-19.93-24.51-28.31-52.25a136.23,136.23,0,0,1-5.26-55.28,141.86,141.86,0,0,1,17.59-53.49q14.48-26,40.54-47.15t54.42-30.08a144.16,144.16,0,0,1,56.11-6.45,135,135,0,0,1,53.2,16.28q25.44,13.84,45.38,38.36,20.21,24.84,28.44,52.4a137.55,137.55,0,0,1,5.11,55.41,140.26,140.26,0,0,1-17.75,53.62Q791,639.94,764.92,661.14ZM770,647.73q19.56-15.9,25.39-35.35A87.67,87.67,0,0,0,798,572.85a125.56,125.56,0,0,0-13.18-39A206,206,0,0,0,762.74,500a212.91,212.91,0,0,0-23-23.83,218,218,0,0,0-28.88-21.88,197.69,197.69,0,0,0-32.68-16.73,132.76,132.76,0,0,0-34.78-8.84,95.3,95.3,0,0,0-34.8,2.53q-17.24,4.49-32.76,17.1Q556.6,464,550.76,483.42A87.86,87.86,0,0,0,548.12,523a125.75,125.75,0,0,0,13,38.87,202.49,202.49,0,0,0,22,33.69,213,213,0,0,0,23.13,24,224.25,224.25,0,0,0,28.88,21.88,205.38,205.38,0,0,0,32.65,17,124.55,124.55,0,0,0,34.78,8.84,99,99,0,0,0,34.8-2.53Q754.47,660.36,770,647.73Z"/><path class="cls-1" d="M881.78,561.76a3.2,3.2,0,0,1,1-.76,6.42,6.42,0,0,1,2.41-1.64,16,16,0,0,1,2.72-2,7,7,0,0,0,1.7-1.21q8.48-6.2,11.83-13.85t-.07-17.9l-63-189a78.22,78.22,0,0,0-5.76-12.84,59,59,0,0,0-8.92-12.2,55.23,55.23,0,0,0-11.51-9.23,30.32,30.32,0,0,0-13.67-4.3l-2.65-.38a4.16,4.16,0,0,1-1.14-.25,4.72,4.72,0,0,0-1.14-.25l54.64-18.23,240.37,139.08L1030.2,242q-2.65-8-11.2-10.82a45,45,0,0,0-15.62-2.59,6.52,6.52,0,0,1-2,.26,27.36,27.36,0,0,0-3.29.25,31.06,31.06,0,0,0-3.42-.12l63-21a32.93,32.93,0,0,0-2.66,2.15,30.61,30.61,0,0,0-2.78,1.77,6.44,6.44,0,0,1-1.77,1q-17.7,12.64-11.37,31.62l79.49,238.29-8.34,2.79L845,331.56,908.59,522q3.54,10.62,10.82,14.73t18.15,3.85a15.63,15.63,0,0,1,4.93-.38,3.27,3.27,0,0,0,1.46-.06,3.22,3.22,0,0,1,1.45-.06l.76-.26.51.26Z"/><path class="cls-1" d="M1146.84,478.41A3.25,3.25,0,0,1,1148,478a3.28,3.28,0,0,1,1.2-.42,3,3,0,0,0,1.19-.42c1.06-.27,2-.56,2.79-.84a7.34,7.34,0,0,1,1.59-.43q10.34-3.36,16.24-9.66t5.72-17.5l-3.6-222q-.17-10.4-5.67-16.51t-15.15-9.15a7.63,7.63,0,0,0-2.21-.57,14.82,14.82,0,0,1-3.41-.94,3.32,3.32,0,0,0-1.41-.38,3.11,3.11,0,0,1-1.4-.38,1.13,1.13,0,0,1-.81-.38l209.57-3.4,1,61.59a1.12,1.12,0,0,1-.41-.79,1.24,1.24,0,0,0-.42-.8c-.28-.79-.7-2.25-1.27-4.38q-.84-2.39-1.47-4.57a19.57,19.57,0,0,0-1-3,93.4,93.4,0,0,0-7.24-14.68,63.11,63.11,0,0,0-10-12.64,47.11,47.11,0,0,0-13.35-9,39.89,39.89,0,0,0-17.26-3.32L1220,204.79l2.09,128.78,62.39-1a25.41,25.41,0,0,0,12.75-3.4,41.54,41.54,0,0,0,9.87-8.17,54.76,54.76,0,0,0,7.43-10.72q3.09-5.83,5.42-11.09a12.83,12.83,0,0,0,.76-2.41,15,15,0,0,1,1.14-3.22,10.89,10.89,0,0,0,.58-1.41,11.49,11.49,0,0,1,.58-1.41,2.29,2.29,0,0,1,.77-1.61l1.51,93.19a2.71,2.71,0,0,1-.83-2,20,20,0,0,1-1.24-2.78q-2.51-6-6-12.7a72.6,72.6,0,0,0-8.2-12.47,39.29,39.29,0,0,0-10.75-9.23,26,26,0,0,0-13.66-3.38l-62.39,1L1224,448q.19,12.81,7.28,17.28t18.67,4.3l43.19-.7a62.27,62.27,0,0,0,27.69-7.25A135.34,135.34,0,0,0,1346.91,444a219.17,219.17,0,0,0,23-22.77q10.61-12.18,18.43-23.1L1359.21,475Z"/><path class="cls-1" d="M1606.53,415.7q3.27-10.26-.19-17.85t-12-13.67a3,3,0,0,0-1.85-1.43,8.14,8.14,0,0,1-2.36-1.17,14.64,14.64,0,0,1-3.7-2.85l100.24,31.9a7.72,7.72,0,0,1-4.17-.07,25.78,25.78,0,0,0-5.06.07q-10.89-.11-18,3.92t-10.55,14.69l-40.76,128.07a10.81,10.81,0,0,1-3-1.6,2.49,2.49,0,0,1-.93-3,12.82,12.82,0,0,1,.21-3.29,17.41,17.41,0,0,0-1.1-7.77q-1.47-4-9.85-6.63a45.31,45.31,0,0,0-9.47-1.91,65.64,65.64,0,0,0-9.58-.22,139.68,139.68,0,0,1-42.81-6.64q-32-10.19-55-28.84a136.55,136.55,0,0,1-51.29-96.71q-2.42-28.68,7.29-59.18A137.88,137.88,0,0,1,1450,305.33a145,145,0,0,1,26.86-29.66,160.12,160.12,0,0,1,34.24-21.84,151.45,151.45,0,0,1,39.23-12.49,145.21,145.21,0,0,1,30.52-2.26,109.76,109.76,0,0,1,29.86,5.1,121.38,121.38,0,0,1,28.08,13.34,102.62,102.62,0,0,1,24,20.86,76.74,76.74,0,0,1,14.53,26.24,47.07,47.07,0,0,1-.24,29.1q-3.75,11.82-13.8,17t-22.25,1.32q-12.21-3.89-17.59-14t-1.62-21.93a16.77,16.77,0,0,1,4.51-7.59,33.11,33.11,0,0,1,7-4.71l1.75-.91,1.76-.91a13.71,13.71,0,0,0,1.82-1.1,16.22,16.22,0,0,1,1.82-1.1,13.92,13.92,0,0,0,5.1-6.77,18.09,18.09,0,0,0-1-14,41.63,41.63,0,0,0-9.11-12.14,59.75,59.75,0,0,0-13-9.17,80.81,80.81,0,0,0-12.5-5.44q-24.33-7.74-44.24-1.71a92.09,92.09,0,0,0-35.5,20.14,130.08,130.08,0,0,0-26.3,33.33A205.88,205.88,0,0,0,1487.28,342a220.21,220.21,0,0,0-7.4,31.8,201,201,0,0,0-2.5,35.47,196.33,196.33,0,0,0,3.88,35.81,122.44,122.44,0,0,0,11.66,33.05,97.37,97.37,0,0,0,20.92,27q12.83,11.63,31.84,17.68a76.54,76.54,0,0,0,12.08,2.8q6,.85,12.19,1.15h1.26Z"/><path class="cls-1" d="M1763.63,653.51q-26.43-20.75-41.47-46.29A136.59,136.59,0,0,1,1708,498.68q7.77-27.71,27.54-52.88,19.51-24.85,44.72-39.14A136.5,136.5,0,0,1,1833,389.34a141.85,141.85,0,0,1,56.06,5.37q28.5,8.39,54.93,29.14t41.34,46.44A144.31,144.31,0,0,1,2004,523.6a135,135,0,0,1-4.15,55.48q-7.89,27.88-27.41,52.73-19.77,25.17-44.84,39.3a137.49,137.49,0,0,1-52.91,17.19,140.09,140.09,0,0,1-56.22-5.49Q1790.07,674.26,1763.63,653.51Zm14.2,2q19.82,15.56,40.07,17a87.7,87.7,0,0,0,39.15-6.14,125.33,125.33,0,0,0,35.16-21.46,204.48,204.48,0,0,0,28.13-29,214.48,214.48,0,0,0,18.18-27.68,219.11,219.11,0,0,0,15-33,198.22,198.22,0,0,0,9.11-35.56,132.82,132.82,0,0,0,1-35.87,95.4,95.4,0,0,0-10.15-33.39q-8.17-15.83-23.9-28.18-19.52-15.32-39.76-16.72a87.77,87.77,0,0,0-39.14,6.13,125.37,125.37,0,0,0-35,21.31,201.65,201.65,0,0,0-28,28.87,211.32,211.32,0,0,0-18.3,27.84,225,225,0,0,0-15,33,204.44,204.44,0,0,0-9.4,35.61,124.6,124.6,0,0,0-1,35.86,98.94,98.94,0,0,0,10.14,33.4Q1762.09,643.15,1777.83,655.51Z"/><path class="cls-1" d="M208.45,1381.09a1.58,1.58,0,0,1,.33.63,1.91,1.91,0,0,1,.33.63,1.62,1.62,0,0,0,.33.62c.23.57.47,1.06.68,1.48a4,4,0,0,1,.37.85,21.17,21.17,0,0,0,6.64,8.24c2.63,1.84,6,2.44,10.14,1.78L350,1375.74q5.75-.91,8.7-4.45a18.55,18.55,0,0,0,3.87-9.12,4.08,4.08,0,0,0,.14-1.27,8.37,8.37,0,0,1,.25-2,1.7,1.7,0,0,0,.1-.8,1.89,1.89,0,0,1,.1-.81.64.64,0,0,1,.15-.48l18.49,115.85-34,5.43a.62.62,0,0,1,.41-.29.69.69,0,0,0,.4-.3c.42-.21,1.19-.57,2.33-1,.84-.44,1.64-.83,2.42-1.18a12,12,0,0,0,1.57-.81,53.06,53.06,0,0,0,7.56-5.18,35.12,35.12,0,0,0,6.21-6.54,26.43,26.43,0,0,0,3.92-8.11,22.12,22.12,0,0,0,.47-9.82L365.85,1400l-71.18,11.36,5.5,34.48a14.15,14.15,0,0,0,2.9,6.8,23,23,0,0,0,5.3,4.82,30.65,30.65,0,0,0,6.53,3.26q3.48,1.26,6.57,2.13a6.71,6.71,0,0,0,1.4.23,8.51,8.51,0,0,1,1.87.38,6.72,6.72,0,0,0,.83.21,6.72,6.72,0,0,1,.83.21,1.26,1.26,0,0,1,1,.3l-51.51,8.22a1.49,1.49,0,0,1,1-.62,10.3,10.3,0,0,1,1.44-.91c2.07-1.24,4.25-2.68,6.56-4.34a40.41,40.41,0,0,0,6.26-5.53,22.21,22.21,0,0,0,4.26-6.69,14.49,14.49,0,0,0,.79-7.83l-5.5-34.49-59.25,9.46q-7.08,1.13-9,5.4t-.9,10.68l3.8,23.88a35,35,0,0,0,6.22,14.77,75.43,75.43,0,0,0,11.83,13.07,123.58,123.58,0,0,0,14.44,11q7.59,4.9,14.26,8.38l-44.9-10.07Z"/><path class="cls-1" d="M332.13,1519.47a18.58,18.58,0,0,0,6-7.8,24.37,24.37,0,0,0,1.93-9.87c0-.47,0-1.47-.16-3a4.83,4.83,0,0,1,0-1.17,5,5,0,0,0,0-1.17l15.24,52.92a.46.46,0,0,0-.2-.29.46.46,0,0,1-.2-.29,3.56,3.56,0,0,1-.86-1.38,21,21,0,0,0-4.2-4.85c-1.41-1.15-3.49-1.33-6.21-.54a13.22,13.22,0,0,0-4.64,2.5l-55.84,43.11,71.76,7.29a13.36,13.36,0,0,0,4.27-.54q3.66-1,4.5-3.39a15.14,15.14,0,0,0,.93-4.46l.09-2.12a3.54,3.54,0,0,1,0-1.63.64.64,0,0,1,.1-.5l9.23,32.06a1.7,1.7,0,0,1-.4-.58,3.52,3.52,0,0,0-.86-1.39,17.5,17.5,0,0,0-1.46-2.61,24.2,24.2,0,0,0-6.89-7.33,18.54,18.54,0,0,0-9.24-3.4l-104.3-10.25-1.49-5.16Z"/><path class="cls-1" d="M333.22,1664.56a124.11,124.11,0,0,0-13.07,9.67,86.63,86.63,0,0,0-13.2,13.71,52.35,52.35,0,0,0-8.62,16.28,24.47,24.47,0,0,0,.88,17.28,22.45,22.45,0,0,0,5.57,7.83,37.86,37.86,0,0,0,8.41,5.93,36.05,36.05,0,0,0,9.79,3.42,28.54,28.54,0,0,0,9.7.31l-2.56,3.73q-14.6.49-23.68-7.36t-14.77-21.49a58.2,58.2,0,0,1-4.84-23.57,50.48,50.48,0,0,1,4.92-21.09,56.64,56.64,0,0,1,13.05-17.31,66.78,66.78,0,0,1,19.51-12.25,83.28,83.28,0,0,1,21.48-5.78,54.8,54.8,0,0,1,20.84,1.14,46.83,46.83,0,0,1,18.18,9.29q8.26,6.73,13.25,18.73a48.62,48.62,0,0,1,3.77,18.07A51.06,51.06,0,0,1,399,1699a48.45,48.45,0,0,1-9,15.49,40.14,40.14,0,0,1-14.34,10.7L334,1664ZM363.85,1702l.74-.55c2.84-1.35,5.87-3,9.12-4.89a55.77,55.77,0,0,0,9.1-6.69,55.15,55.15,0,0,0,7.56-8.33,27.33,27.33,0,0,0,4.6-9.64,18.68,18.68,0,0,0,.66-5.1,13.26,13.26,0,0,0-1-5.12q-2.84-6.8-8.47-9.27A29.11,29.11,0,0,0,374,1650a48.86,48.86,0,0,0-13,1.92,103,103,0,0,0-11,3.76q-3.11,1.29-6.12,2.78t-5.73,3.12l-.95.64Z"/><path class="cls-1" d="M322.31,1776.45a.91.91,0,0,1,.53.47,7.13,7.13,0,0,1,1.29,1.32c.63.5,1.14.93,1.54,1.31a5.58,5.58,0,0,1,.7.76,18.2,18.2,0,0,0,9,4.75,14,14,0,0,0,9.65-2.12l68.32-39.73q9.48-5.51,6.72-17.38a3.9,3.9,0,0,0-.27-1.13,9.67,9.67,0,0,1-.42-1.83,1.66,1.66,0,0,0-.2-.79,1.86,1.86,0,0,1-.2-.79l-.22-.39,20.37,35-7.74,4.5,2.14.57a32,32,0,0,1,12.39,6.6,43.86,43.86,0,0,1,9.06,11.13q5.71,9.82,7.17,17.89a29.83,29.83,0,0,1-.88,15,34.07,34.07,0,0,1-8.08,12.83,89.23,89.23,0,0,1-14.31,11.68c-3.41,2.15-6.89,4.27-10.43,6.33l-10.55,6.13-13.55,7.88-4.93,2.87a78.66,78.66,0,0,0-7,4.61c-.83.65-1.74,1.44-2.76,2.38a20.15,20.15,0,0,0-2.67,3,9.79,9.79,0,0,0-1.6,3.26,4.43,4.43,0,0,0,.57,3.42q1.8,3.11,6.21,3.77a26.8,26.8,0,0,0,7.29.3l-2.69,3.38a28.87,28.87,0,0,1-12.46-3.38,23.26,23.26,0,0,1-9.29-9.07,21.3,21.3,0,0,1-3-9.17,21,21,0,0,1,1.23-8.8,25.3,25.3,0,0,1,4.64-7.83,28.58,28.58,0,0,1,7.35-6.07l5.42-3.15L420,1818.83l4.84-2.81q2.71-1.57,5.89-3.68,3.94-2.56,8.68-6.22a47.38,47.38,0,0,0,8.18-8,22.71,22.71,0,0,0,4.52-9.37q1.08-5-2.07-10.45-7.65-13.15-22.25-15.55l-.3-.08-70.45,41q-5.22,3-6.6,7.57a20.17,20.17,0,0,0-.13,10.25,4,4,0,0,0,.27,1.13,5.65,5.65,0,0,1,.3,1.63,2.12,2.12,0,0,1,.4,1.57.92.92,0,0,1,.14.69Z"/><path class="cls-1" d="M451.84,1954.22a26.29,26.29,0,0,1-14.72-3.34,36.85,36.85,0,0,1-11.69-10.11,35.4,35.4,0,0,1-5.51-10.28,26.31,26.31,0,0,1-1.33-10.5,25,25,0,0,1,2.9-9.9,25.46,25.46,0,0,1,7.32-8.33l1.25-.94,65.05-49.08-9.71-12.87,3-2.29,3.51,4.64a37.67,37.67,0,0,0,7.9,8.06,21.9,21.9,0,0,0,8.34,3.8,31.17,31.17,0,0,0,9.11.56,61.06,61.06,0,0,0,10.41-1.82l2.56,3.4-17.69,13.35,16.72,22.15-3,2.3-16.72-22.16-65.41,49.35a56.17,56.17,0,0,0-4.73,4.13,41,41,0,0,0-5,5.7,18.29,18.29,0,0,0-3.18,6.75,8.16,8.16,0,0,0,1.75,7,11.21,11.21,0,0,0,4.91,3.72,23.85,23.85,0,0,0,6.25,1.6,37.59,37.59,0,0,0,6.45.18,48,48,0,0,0,5.68-.64.66.66,0,0,0,.5-.09Z"/><path class="cls-1" d="M475.64,1966.15a10.63,10.63,0,0,1,8.44-3.08,12.37,12.37,0,0,1,8.16,4.19,11.6,11.6,0,0,1,3.4,8.29,11,11,0,0,1-3.87,8,10.29,10.29,0,0,1-4.21,2.37,10.88,10.88,0,0,0-4.38,2.53,7.25,7.25,0,0,0-2.6,5.92,18.1,18.1,0,0,0,1.72,6.64,33.24,33.24,0,0,0,3.88,6.33q2.34,3,4.16,5a61.35,61.35,0,0,0,7.5,6.78,38.73,38.73,0,0,0,9,5.26,20.6,20.6,0,0,0,9.53,1.55,15,15,0,0,0,9.11-4.32q4.28-4,3.26-10.49a67.56,67.56,0,0,0-4.35-14.74q-3.33-8.2-7.48-17.64a97.35,97.35,0,0,1-6.16-18.85,47.82,47.82,0,0,1-.49-18.31q1.53-8.89,9.75-16.5a27.35,27.35,0,0,1,25.62-7.09,39.72,39.72,0,0,1,12.46,5.39,55.75,55.75,0,0,1,10.9,9.13,79.06,79.06,0,0,1,7,9.06,57.7,57.7,0,0,1,6.2,11.81,32.76,32.76,0,0,1,2.3,12.2,13.77,13.77,0,0,1-4.67,10.28,11,11,0,0,1-8.29,3.24,11.54,11.54,0,0,1-8-4,12.33,12.33,0,0,1-3.55-8.45,10.57,10.57,0,0,1,3.72-8.17,8.42,8.42,0,0,1,4.43-2.13,8.42,8.42,0,0,0,4.44-2.13,5.38,5.38,0,0,0,1.84-4.44,15.42,15.42,0,0,0-1.38-5.44,27.26,27.26,0,0,0-3-5.27,49.41,49.41,0,0,0-3.18-3.92,35.86,35.86,0,0,0-6.52-5.4,32.57,32.57,0,0,0-8.25-4,23.09,23.09,0,0,0-8.59-1,12.52,12.52,0,0,0-7.74,3.51q-4.28,4-3.18,10.57a70.74,70.74,0,0,0,4.42,14.82q3.33,8.22,7.56,17.56a92.4,92.4,0,0,1,6.25,18.78,48.8,48.8,0,0,1,.48,18.47q-1.54,9.06-9.75,16.66-6.57,6.08-13.83,7.31a33.17,33.17,0,0,1-14.39-.71,45.54,45.54,0,0,1-13.84-6.56,70,70,0,0,1-11.89-10.2,80.9,80.9,0,0,1-7.69-10.12,63.63,63.63,0,0,1-6.77-13.4,38.63,38.63,0,0,1-2.48-13.88A15.21,15.21,0,0,1,475.64,1966.15Z"/><path class="cls-1" d="M543.94,2070.25a12.6,12.6,0,0,1-4.31-9,12,12,0,0,1,3.29-9,11.76,11.76,0,0,1,8.65-3.89,12.8,12.8,0,0,1,9.25,3.68,13.08,13.08,0,0,1,4.46,8.86,11.64,11.64,0,0,1-3.3,9,12,12,0,0,1-8.79,4.06A12.81,12.81,0,0,1,543.94,2070.25Z"/><path class="cls-1" d="M572.14,2096.82a3.62,3.62,0,0,1,2.2.8l2.55,1.06a20.23,20.23,0,0,0,10.24,1.06q4.67-.84,8.42-5.87l74.17-99.68q3.88-5.22,3.28-9.28a18.79,18.79,0,0,0-2.49-7.16c-.69-1.07-1.37-2-2-2.9s-1.2-1.64-1.62-2.32a1.3,1.3,0,0,1-.45-.9l25.14,18.71q12.57,9.36,25.19,19a88.6,88.6,0,0,1,22.5,24.14,83.77,83.77,0,0,1,11.55,29.1,79.35,79.35,0,0,1-.22,30.67,75.13,75.13,0,0,1-37.09,49.84,78.82,78.82,0,0,1-29.38,9.11,83.34,83.34,0,0,1-31.29-2.77,88.9,88.9,0,0,1-29.49-14.55ZM698,2000.44l-80.32,107.94a13.91,13.91,0,0,0-3.07,6.93,11.6,11.6,0,0,0,1,5.93,17.5,17.5,0,0,0,3.81,5.2,52.57,52.57,0,0,0,5.21,4.44q12.39,9.21,25.31,10a59,59,0,0,0,25-3.74,78,78,0,0,0,22.38-13.2,104.54,104.54,0,0,0,30.34-40.77,77.7,77.7,0,0,0,6.22-25.24,57.93,57.93,0,0,0-3.65-24.9q-4.58-12-17-21.27Z"/><path class="cls-1" d="M767.46,2165.84a123.15,123.15,0,0,0-4.08,15.74,85.56,85.56,0,0,0-1.65,19,52.16,52.16,0,0,0,3.52,18.08,24.44,24.44,0,0,0,11.55,12.88,22.47,22.47,0,0,0,9.25,2.6,38.25,38.25,0,0,0,10.27-.67,36.16,36.16,0,0,0,9.76-3.5,28.43,28.43,0,0,0,7.74-5.86l.36,4.52q-11,9.55-23,9.16t-25-7.44A58,58,0,0,1,747.56,2215a50.3,50.3,0,0,1-9.43-19.5,56.37,56.37,0,0,1-.73-21.66,66.81,66.81,0,0,1,7.48-21.79,83.16,83.16,0,0,1,13.07-18,54.83,54.83,0,0,1,16.93-12.21,46.89,46.89,0,0,1,20-4.2q10.67,0,22.08,6.24a48.49,48.49,0,0,1,14.29,11.69,51.05,51.05,0,0,1,9,15.73A48.2,48.2,0,0,1,843,2169a40,40,0,0,1-4.43,17.33L767.69,2165Zm47.36,9.88.23-.89q2-4.24,4-9.54a57.17,57.17,0,0,0,2.87-10.92,55,55,0,0,0,.64-11.23,27,27,0,0,0-2.48-10.39,18.33,18.33,0,0,0-2.69-4.38,13.32,13.32,0,0,0-4-3.33q-6.46-3.51-12.42-1.89a29.34,29.34,0,0,0-11,5.76,48.79,48.79,0,0,0-8.92,9.68,105,105,0,0,0-6.23,9.86c-1.07,2-2.07,4-3,6s-1.77,4.05-2.51,6l-.33,1.09Z"/><path class="cls-1" d="M926.17,2275.09q-9.6,10.62-20.78,12T880.5,2283a57.92,57.92,0,0,1-20.19-13.08,50.22,50.22,0,0,1-11.57-18.31,56.19,56.19,0,0,1-3.19-21.43,66.79,66.79,0,0,1,5-22.5,68.07,68.07,0,0,1,12-19.66,58.48,58.48,0,0,1,17.19-13.59,51.26,51.26,0,0,1,20.94-5.55,54.91,54.91,0,0,1,23.6,4.32,38,38,0,0,1,10.3,6.2,32.63,32.63,0,0,1,7.44,8.79,27.13,27.13,0,0,1,3.36,10.53,23.32,23.32,0,0,1-1.65,11.28,11,11,0,0,1-6.11,6.47,11.88,11.88,0,0,1-9.17-.31,12.05,12.05,0,0,1-6.72-6.09,10.8,10.8,0,0,1,0-8.94,8.92,8.92,0,0,1,3.35-4.44,11.7,11.7,0,0,1,4.19-1.69,10,10,0,0,1,2.2-.68c.69-.12,1.31-.24,1.83-.35,1.64-.47,2.65-1.18,3-2.15A5.72,5.72,0,0,0,936,2187a18.19,18.19,0,0,0-3.5-4.79,35.75,35.75,0,0,0-4.69-3.94,21.51,21.51,0,0,0-3.9-2.3q-8.71-3.51-15.81-2.39a29.4,29.4,0,0,0-12.69,5.14,40.1,40.1,0,0,0-9.78,10.18,69.53,69.53,0,0,0-6.93,13,82.57,82.57,0,0,0-3.84,12.81,122.45,122.45,0,0,0-2.41,15.57,106,106,0,0,0-.23,16.44,69.76,69.76,0,0,0,2.66,15.55A41.47,41.47,0,0,0,881,2275a22.93,22.93,0,0,0,10.18,8,21.2,21.2,0,0,0,9.31,1.46,33.26,33.26,0,0,0,9.63-2,32.86,32.86,0,0,0,8.7-4.82,28.3,28.3,0,0,0,6.53-6.9Z"/><path class="cls-1" d="M995.22,2320.7a57.31,57.31,0,0,1-21.5-10.54A51.81,51.81,0,0,1,960,2293.38a55.31,55.31,0,0,1-5.84-20.94A69.72,69.72,0,0,1,966,2228.56a54.24,54.24,0,0,1,15.52-15.07,52.58,52.58,0,0,1,20.23-7.54,57.23,57.23,0,0,1,23.9,1.68,56.32,56.32,0,0,1,21.37,10.62A52.41,52.41,0,0,1,1060.7,2235a55.35,55.35,0,0,1,5.76,20.79,66.12,66.12,0,0,1-2.17,22.72,66.83,66.83,0,0,1-9.58,20.95,55,55,0,0,1-15.42,15.09,52.18,52.18,0,0,1-20.25,7.65A56.29,56.29,0,0,1,995.22,2320.7Zm10.56-1.34q6.71,1.8,11.91-.74a25.48,25.48,0,0,0,8.9-7.22,43.24,43.24,0,0,0,6.05-10.43,88.39,88.39,0,0,0,3.58-10.28,89.38,89.38,0,0,0,2.32-11.66q.75-5.82,1.19-11.74a122.47,122.47,0,0,0-.51-15.32,96.29,96.29,0,0,0-3.29-17.93,51.81,51.81,0,0,0-7.46-15.8,23,23,0,0,0-13.17-9.22q-6.91-1.86-12.23.65a24.8,24.8,0,0,0-9,7.31,44.68,44.68,0,0,0-6.08,10.53,87,87,0,0,0-3.57,10.28,95.54,95.54,0,0,0-2.5,13.59,132.16,132.16,0,0,0-.89,16.22,113.68,113.68,0,0,0,1.36,16.94,71.78,71.78,0,0,0,4.14,15.61,38.32,38.32,0,0,0,7.61,12.24A24.19,24.19,0,0,0,1005.78,2319.36Z"/><path class="cls-1" d="M1076,2336.57a.91.91,0,0,1,.7-.13,3.8,3.8,0,0,1,1.62-.21,5.52,5.52,0,0,1,1.74-.31c.53,0,.86,0,1,0a19,19,0,0,0,9.65-4q3.63-3.09,4.51-9.06l11.59-78.18q.89-6-1.71-9.87a19.52,19.52,0,0,0-8.08-6.52,4.62,4.62,0,0,1-1-.37l-1.59-.69a4.06,4.06,0,0,0-1.71-.7l40.08,5.94-2.69,18.16,2.23-2.84q12-15.2,31-12.37a17.63,17.63,0,0,1,6.25,2.17,22.54,22.54,0,0,1,5.17,4,16.39,16.39,0,0,1,3.4,5.25,11.4,11.4,0,0,1-12.52,15.8,12.07,12.07,0,0,1-8-4.48,10.93,10.93,0,0,1-2.2-8.81,9.51,9.51,0,0,1,.53-2.07c.24-.64.5-1.32.76-2a7,7,0,0,0,.73-1.93,10.43,10.43,0,0,0,.59-2.4,2,2,0,0,0-1.89-2.54,7.39,7.39,0,0,0-2.28.11,24.87,24.87,0,0,0-13.65,6.58,46.37,46.37,0,0,0-9,11.79,7.38,7.38,0,0,0-.62,1.16c-.23.49-.54,1.09-.95,1.78-.47,1.14-.71,1.78-.74,1.93a1.3,1.3,0,0,0-.35.85.65.65,0,0,0-.28.41l-9.39,63.34q-.93,6.2,1.78,10.11a20.32,20.32,0,0,0,8,6.5,11,11,0,0,1,2.78,1.09,3.58,3.58,0,0,1,1.48.67l.44.07,0,.22Z"/><path class="cls-1" d="M1176,2351.38a12.57,12.57,0,0,1-8.91-4.54,12.07,12.07,0,0,1-2.85-9.15,11.68,11.68,0,0,1,4.49-8.35,12.82,12.82,0,0,1,9.58-2.7,13.06,13.06,0,0,1,8.93,4.32,11.57,11.57,0,0,1,2.85,9.15,11.9,11.9,0,0,1-4.51,8.57A12.78,12.78,0,0,1,1176,2351.38Z"/><path class="cls-1" d="M1349.05,2337.11a52.23,52.23,0,0,1-21.07,15.67,72.53,72.53,0,0,1-26.73,5,93.27,93.27,0,0,1-34.28-5.87,76.42,76.42,0,0,1-44-42.64,84.92,84.92,0,0,1-6.33-32.77,75.43,75.43,0,0,1,6.22-30.25,90.14,90.14,0,0,1,17.1-26.4,87.7,87.7,0,0,1,25-18.71,66.47,66.47,0,0,1,29.85-7.21,67.62,67.62,0,0,1,17.25,2.26,57.5,57.5,0,0,1,16.38,7,43.11,43.11,0,0,1,12.26,11.46,26.38,26.38,0,0,1,4.89,15.54,15.48,15.48,0,0,1-4.41,11.44,15.8,15.8,0,0,1-11.62,4.54,16.14,16.14,0,0,1-11.78-4.42,15.27,15.27,0,0,1-4.65-11.39,9.21,9.21,0,0,1,1.1-4.94,20.13,20.13,0,0,1,2.89-3.59l.78-.79.78-.79a7.84,7.84,0,0,0,.77-.9,10.2,10.2,0,0,1,.78-.9,7.71,7.71,0,0,0,1.55-4.48,10.12,10.12,0,0,0-3-7.26,23.22,23.22,0,0,0-7-4.89,33.46,33.46,0,0,0-8.5-2.64,44.89,44.89,0,0,0-7.59-.75q-14.28.07-23.84,6.73a51.63,51.63,0,0,0-15.42,16.87,72.81,72.81,0,0,0-8.25,22.32,115.42,115.42,0,0,0-2.33,23.07,124.32,124.32,0,0,0,1.54,18.24,111.78,111.78,0,0,0,4.8,19.34,109.94,109.94,0,0,0,8.25,18.43,68.59,68.59,0,0,0,11.92,15.61,54.28,54.28,0,0,0,15.8,10.77,47.56,47.56,0,0,0,20,3.93,43.86,43.86,0,0,0,10.82-1.51,54.9,54.9,0,0,0,11-4.2,52.14,52.14,0,0,0,9.8-6.43,27.15,27.15,0,0,0,6.88-8.44Z"/><path class="cls-1" d="M1442.83,2332.05q-11.49,14.57-30.6,17.33a41.68,41.68,0,0,1-12.82-.07,34.87,34.87,0,0,1-11.21-3.81,24.72,24.72,0,0,1-12.82-18.84,25.76,25.76,0,0,1,1.27-13.08,28.87,28.87,0,0,1,6.76-10.36,36.63,36.63,0,0,1,10.72-7.21,49.44,49.44,0,0,1,13.35-3.86,47.44,47.44,0,0,0,10.14-2.6,26.83,26.83,0,0,0,8.24-4.81,18,18,0,0,0,5.05-7.29,21.79,21.79,0,0,0,1-10.1l-.51-3.55a57,57,0,0,0-2.28-9.51,30.09,30.09,0,0,0-4.55-8.73,19.35,19.35,0,0,0-7.42-5.94q-4.48-2.05-11.13-1.1a27.76,27.76,0,0,0-4.68,1.25,38.91,38.91,0,0,0-5.86,2.54,19.69,19.69,0,0,0-4.77,3.74,6,6,0,0,0-1.64,5.11,5.35,5.35,0,0,0,2.32,3.5l2.19,1.05a13.48,13.48,0,0,0,2,1.07,17.79,17.79,0,0,1,3.81,2.84,9.36,9.36,0,0,1,2.38,5.54,11.13,11.13,0,0,1-9.85,13.19,12.15,12.15,0,0,1-9-2,11,11,0,0,1-4.63-7.81,28.22,28.22,0,0,1,.76-12,27.82,27.82,0,0,1,5.42-10.29,33.36,33.36,0,0,1,9.12-7.54,34.2,34.2,0,0,1,12-4q14.67-2.11,24.07.14a30,30,0,0,1,15.16,8.32,40.24,40.24,0,0,1,8.83,15.57,134.62,134.62,0,0,1,4.88,21.92l3.91,27c.17,1.19.45,3.1.84,5.76a75.45,75.45,0,0,0,1.63,8.13c.51,1.44,1,2.81,1.38,4.1a10.83,10.83,0,0,0,1.73,3.37q2.32,3.51,5.65,3a8,8,0,0,0,5.92-4.36,28.77,28.77,0,0,0,2.89-6.64l2.13,3.76a31.86,31.86,0,0,1-8.11,10.45,23,23,0,0,1-11.79,5.32,20.36,20.36,0,0,1-11.55-1.49,21.34,21.34,0,0,1-8.74-7.1l-.83-1Zm-1.63-5.42a37.32,37.32,0,0,1-1.24-3.89,36.06,36.06,0,0,1-.8-4q-1.35-9.3-2.58-18.62t-2.37-18.66l-.38-2.66-1.26,2.22a33.28,33.28,0,0,1-8.89,9.65,26.23,26.23,0,0,1-11.85,4.88,13.71,13.71,0,0,0-7.85,3.63,19.05,19.05,0,0,0-4.45,6.75,27.34,27.34,0,0,0-1.77,8.06,35.94,35.94,0,0,0,.22,7.78,36.38,36.38,0,0,0,2.16,7.94,29.15,29.15,0,0,0,4.39,7.62,19.43,19.43,0,0,0,6.66,5.37,15,15,0,0,0,9,1.19,24.77,24.77,0,0,0,12.75-5.7,31.92,31.92,0,0,0,8.37-10.94l.16-.47Z"/><path class="cls-1" d="M1569.38,2302.55a26.23,26.23,0,0,1-8.8,12.27,36.59,36.59,0,0,1-13.86,6.84,35.33,35.33,0,0,1-11.61,1.09,26.49,26.49,0,0,1-10.19-2.86,24.91,24.91,0,0,1-8-6.52,25.46,25.46,0,0,1-4.82-10l-.39-1.52-19.94-79-15.63,4-.93-3.69,5.65-1.43a37.73,37.73,0,0,0,10.49-4.15,22,22,0,0,0,6.75-6.2,31.39,31.39,0,0,0,4.05-8.18,61,61,0,0,0,2.37-10.3l4.12-1,5.43,21.49,26.91-6.79.94,3.69L1515,2217l20,79.45a53.58,53.58,0,0,0,2,6,40.2,40.2,0,0,0,3.32,6.78,18.08,18.08,0,0,0,5,5.55,8.12,8.12,0,0,0,7.09,1.1,11.3,11.3,0,0,0,5.34-3.08,23.47,23.47,0,0,0,3.9-5.14,38.36,38.36,0,0,0,2.68-5.87,48.71,48.71,0,0,0,1.61-5.49.62.62,0,0,0,.11-.49Z"/><path class="cls-1" d="M1603,2246.87a125.33,125.33,0,0,0,9.06,13.5,86.79,86.79,0,0,0,13.1,13.82,52.14,52.14,0,0,0,15.86,9.36,24.55,24.55,0,0,0,17.3-.09,22.49,22.49,0,0,0,8.08-5.2,37.69,37.69,0,0,0,6.31-8.13,36,36,0,0,0,3.86-9.62,28.28,28.28,0,0,0,.76-9.69l3.61,2.74q-.17,14.59-8.44,23.31t-22.15,13.77a57.86,57.86,0,0,1-23.76,3.75,50.35,50.35,0,0,1-20.84-5.88,56.44,56.44,0,0,1-16.7-13.83,66.86,66.86,0,0,1-11.33-20.06,83.19,83.19,0,0,1-4.8-21.71,55,55,0,0,1,2.1-20.78,47,47,0,0,1,10.11-17.72q7.13-7.95,19.32-12.38a48.65,48.65,0,0,1,18.23-2.94,51.1,51.1,0,0,1,17.77,3.67,48.35,48.35,0,0,1,15.06,9.66,39.94,39.94,0,0,1,10,14.81l-63,38.87Zm38.82-28.88-.52-.76q-1.82-4.35-4.46-9.34a56.21,56.21,0,0,0-6.26-9.39,55.45,55.45,0,0,0-8-7.94,27.34,27.34,0,0,0-9.41-5,19.32,19.32,0,0,0-5.07-.9,13.36,13.36,0,0,0-5.16.81q-6.91,2.51-9.65,8a29.1,29.1,0,0,0-3,12,48.32,48.32,0,0,0,1.33,13.09,102.45,102.45,0,0,0,3.24,11.21c.76,2.11,1.6,4.19,2.5,6.24s1.86,4,2.85,5.87l.59,1Z"/><path class="cls-1" d="M1711.86,2262.85a.9.9,0,0,1,.5-.5,3.66,3.66,0,0,1,1.21-1.1,5.65,5.65,0,0,1,1.26-1.24c.43-.3.72-.48.85-.55a19,19,0,0,0,5.66-8.78q1.22-4.59-1.45-10l-35-70.87q-2.67-5.41-7-7.15a19.6,19.6,0,0,0-10.35-.75,5.23,5.23,0,0,1-1,.24l-1.7.34a4.11,4.11,0,0,0-1.81.39l36.35-17.92,8.12,16.46.22-3.6q1.2-19.32,18.47-27.84a17.67,17.67,0,0,1,6.36-1.77,23.13,23.13,0,0,1,6.56.39,16.81,16.81,0,0,1,5.8,2.38,11.54,11.54,0,0,1,4,4.53,11.13,11.13,0,0,1-5.29,15.59,12.13,12.13,0,0,1-9.17.9,11,11,0,0,1-6.83-6,10.21,10.21,0,0,1-.74-2q-.24-1-.54-2.1a7.08,7.08,0,0,0-.49-2,10.48,10.48,0,0,0-.88-2.3,2,2,0,0,0-3-1,7.24,7.24,0,0,0-1.81,1.39,24.92,24.92,0,0,0-7.48,13.18,46,46,0,0,0-.68,14.81,7.13,7.13,0,0,0,.14,1.3,19.21,19.21,0,0,1,.24,2,19.76,19.76,0,0,0,.49,2,1.28,1.28,0,0,0,.2.9.67.67,0,0,0,0,.5l28.33,57.42q2.78,5.63,7.22,7.3a20.25,20.25,0,0,0,10.26.81,11,11,0,0,1,2.91-.69,3.6,3.6,0,0,1,1.6-.29l.4-.2.1.2Z"/><path class="cls-1" d="M1743.7,2088.17a14.79,14.79,0,0,1-2.1-6.06,16.89,16.89,0,0,1,.49-6.32,18.36,18.36,0,0,1,2.84-5.9,16.2,16.2,0,0,1,4.86-4.51,13.29,13.29,0,0,1,5.92-1.89,17.19,17.19,0,0,1,6.28.64,18.55,18.55,0,0,1,5.6,2.77,14.81,14.81,0,0,1,4.07,4.34,11.84,11.84,0,0,1,1.63,5.29,17.31,17.31,0,0,1-.57,6,19.48,19.48,0,0,1-2.51,5.58,13.14,13.14,0,0,1-4.19,4.11,16.11,16.11,0,0,1-5.9,2.13,21.27,21.27,0,0,1-6.37.07,15.76,15.76,0,0,1-5.79-2A11.88,11.88,0,0,1,1743.7,2088.17Zm108.37,86.43a29.22,29.22,0,0,1-3.06,12.46,22.38,22.38,0,0,1-8.64,9.29,21.5,21.5,0,0,1-9.18,3.2,20.13,20.13,0,0,1-8.78-1.09,26.52,26.52,0,0,1-7.85-4.54,28.17,28.17,0,0,1-6.21-7.23l-37.58-62q-3.13-5.18-7.61-6.52a19.64,19.64,0,0,0-10.39.14,1.9,1.9,0,0,0-1,.24,16.62,16.62,0,0,1-1.61.58,3.77,3.77,0,0,0-1.58.43l34.66-21,44.43,73.34q1,1.72,2.93,4.64a35,35,0,0,0,4.31,5.37,18.66,18.66,0,0,0,5,3.77,4.83,4.83,0,0,0,4.92-.1q3.06-1.86,3.66-6.28a26.78,26.78,0,0,0,.16-7.29Z"/><path class="cls-1" d="M1876.32,2172.89a.92.92,0,0,1,.4-.59,7.15,7.15,0,0,1,1.15-1.44c.42-.69.78-1.25,1.11-1.69a5.05,5.05,0,0,1,.66-.79,18.08,18.08,0,0,0,3.6-9.49,14.06,14.06,0,0,0-3.29-9.31l-47.9-62.86q-6.65-8.73-18.08-4.52a3.9,3.9,0,0,0-1.09.41,9,9,0,0,1-1.77.64,1.78,1.78,0,0,0-.76.3,1.81,1.81,0,0,1-.75.29l-.36.28,32.23-24.57,5.43,7.13.29-2.2a32.09,32.09,0,0,1,5-13.11,43.87,43.87,0,0,1,9.91-10.37q9.06-6.9,16.87-9.34a29.78,29.78,0,0,1,15-1,34.13,34.13,0,0,1,13.74,6.42,89.58,89.58,0,0,1,13.36,12.76q3.84,4.66,7.58,9.57l7.39,9.7,9.5,12.47,3.46,4.54a80.85,80.85,0,0,0,5.44,6.4c.75.75,1.66,1.56,2.71,2.44a19.78,19.78,0,0,0,3.29,2.28,9.63,9.63,0,0,0,3.43,1.19,4.39,4.39,0,0,0,3.33-1c1.9-1.45,2.89-3.65,3-6.63a26.69,26.69,0,0,0-.62-7.27l3.69,2.26a28.87,28.87,0,0,1-1.8,12.77,23.33,23.33,0,0,1-7.85,10.35,21.22,21.22,0,0,1-8.73,4.11,20.93,20.93,0,0,1-8.88-.13,25,25,0,0,1-8.34-3.63,28.11,28.11,0,0,1-6.94-6.54l-3.8-5-20.62-27.07-3.4-4.45q-1.89-2.49-4.38-5.38-3-3.61-7.25-7.85a47.29,47.29,0,0,0-8.94-7.12,22.65,22.65,0,0,0-9.85-3.33q-5.13-.45-10.12,3.35-12.1,9.23-12.67,24l0,.32,49.39,64.82q3.66,4.8,8.33,5.61a20.12,20.12,0,0,0,10.19-1.15,3.66,3.66,0,0,0,1.09-.4,5.55,5.55,0,0,1,1.58-.5,2.15,2.15,0,0,1,1.51-.59.92.92,0,0,1,.66-.23Z"/><path class="cls-1" d="M2005.75,2055.75a24.94,24.94,0,0,1-6.56-.57,11.14,11.14,0,0,1-5.62-3.09,11.27,11.27,0,0,1-3.08-5.47,21.24,21.24,0,0,1-.46-6.33,29.45,29.45,0,0,1,1.2-6.41q.94-3.17,2.06-5.86a50.12,50.12,0,0,1-24.38,5q-12.35-.66-22.15-10.49a33,33,0,0,1-9.15-15.37,40.13,40.13,0,0,1-.61-16.62,48.88,48.88,0,0,1,6-16.22,67.94,67.94,0,0,1,10.87-14.15,73.22,73.22,0,0,1,12.21-9.79,54.43,54.43,0,0,1,14.25-6.47h.64a8,8,0,0,0,1.35-2.92,33.35,33.35,0,0,0,1.12-4.91,27.21,27.21,0,0,0,.32-4.9,4.66,4.66,0,0,0-.87-3.09,3.11,3.11,0,0,0-2.77-.72c-1.21.16-2.5.34-3.87.55a13.37,13.37,0,0,1-4.36-.09,8.55,8.55,0,0,1-4.51-2.62,9.75,9.75,0,0,1-3.07-7.68,11.86,11.86,0,0,1,11-11,9.9,9.9,0,0,1,7.59,3.18,18.46,18.46,0,0,1,4.66,7.53,26,26,0,0,1,1.25,8.55,43.42,43.42,0,0,1-1.12,8.86,71.55,71.55,0,0,1-2.47,8.47,39.42,39.42,0,0,1,16.7,1.37,34.32,34.32,0,0,1,14.31,8.81,33.71,33.71,0,0,1,9.24,15.45,38.43,38.43,0,0,1,.61,16.62,52,52,0,0,1-6,16.22,64.64,64.64,0,0,1-10.79,14.23,39.22,39.22,0,0,1-6,4.9,37.15,37.15,0,0,0-5.86,4.74,4.59,4.59,0,0,0-1,2,16.92,16.92,0,0,0-.56,2.93,10.87,10.87,0,0,0,.08,2.93,3.65,3.65,0,0,0,.87,2c1.26,1.27,3.19,1.3,5.77.09a44.11,44.11,0,0,0,8-5,94,94,0,0,0,7.68-6.56c2.38-2.26,4-3.82,4.84-4.66a129.91,129.91,0,0,1,12.76-11,73.25,73.25,0,0,1,15.85-9.32,40.08,40.08,0,0,1,16.7-3.37q8.4.17,15.19,7a26.3,26.3,0,0,1,8.12,17,47.58,47.58,0,0,1-2.64,19.23,82.32,82.32,0,0,1-9.13,18.42,93,93,0,0,1-11.66,14.63,117.31,117.31,0,0,1-12.6,10.66,72,72,0,0,1-15.85,9,39.74,39.74,0,0,1-16.71,3.06q-8.38-.33-15-7a21.07,21.07,0,0,1-6.63-15.37A33.69,33.69,0,0,1,2005.75,2055.75Zm5.78-47.49a14,14,0,0,0,4.21-7.35,17.57,17.57,0,0,0-.3-7.76,24.16,24.16,0,0,0-3.47-7.44,45.73,45.73,0,0,0-5.3-6.42,64.71,64.71,0,0,0-11.54-8.89,62.43,62.43,0,0,0-15-6.83,41.7,41.7,0,0,0-15.51-1.77,20.24,20.24,0,0,0-13,6,14,14,0,0,0-4.2,7.35,17.56,17.56,0,0,0,.3,7.76,23.7,23.7,0,0,0,3.55,7.53,46.69,46.69,0,0,0,5.37,6.49,66.86,66.86,0,0,0,26.41,15.56,42.37,42.37,0,0,0,15.43,1.85A20,20,0,0,0,2011.53,2008.26Zm2.3,46.08a25.29,25.29,0,0,0-1.37,13.53,21.77,21.77,0,0,0,6.24,12q5.37,5.39,11.78,6a29.26,29.26,0,0,0,12.67-1.72,49.79,49.79,0,0,0,12.12-6.55,73,73,0,0,0,18.39-18.49,84.45,84.45,0,0,0,8.18-13.68,42.2,42.2,0,0,0,4.06-14.17,14,14,0,0,0-4.1-11.72,11.09,11.09,0,0,0-10.52-3.1,40.1,40.1,0,0,0-12.67,4.88,74.75,74.75,0,0,0-12,8.61q-5.55,4.9-8.56,7.9a82.53,82.53,0,0,1-10.94,9.17,60.4,60.4,0,0,1-12.67,6.78l-.48.16Z"/><path class="cls-1" d="M2096.45,1975.57a12.56,12.56,0,0,1-8.83,4.69,12,12,0,0,1-9.13-2.91,11.72,11.72,0,0,1-4.26-8.47,12.86,12.86,0,0,1,3.28-9.4,13.08,13.08,0,0,1,8.66-4.83,11.61,11.61,0,0,1,9.14,2.91,11.94,11.94,0,0,1,4.43,8.61A12.82,12.82,0,0,1,2096.45,1975.57Z"/><path class="cls-1" d="M2119.76,1947.13a1.77,1.77,0,0,1,.2-.67,4.11,4.11,0,0,1,.67-1.72,5.87,5.87,0,0,1,.52-1.7,2,2,0,0,0,.31-1q3.95-11.76-5.19-18.23l-101.37-71.86a14.11,14.11,0,0,0-9.42-3,18.17,18.17,0,0,0-9.49,4.11,5.19,5.19,0,0,1-.77.69c-.42.34-.87.71-1.34,1.11a10,10,0,0,0-1.27,1,.61.61,0,0,1-.44.23l67.85-95.7,28.12,19.94a.65.65,0,0,1-.49-.07.66.66,0,0,0-.5-.08c-.45-.14-1.25-.43-2.39-.88-.91-.27-1.76-.55-2.56-.85a10.24,10.24,0,0,0-1.69-.51,52.69,52.69,0,0,0-9-1.6,35.11,35.11,0,0,0-9,.34,26,26,0,0,0-8.47,3,22.21,22.21,0,0,0-7.22,6.68l-26.28,37.08,65.2,46.22,20.2-28.49a14.13,14.13,0,0,0,2.63-7.19,26.11,26.11,0,0,0-.61-7.85,32.17,32.17,0,0,0-2.83-7.62,46.35,46.35,0,0,0-4.19-6.68l-.47-.88-.47-.88a1,1,0,0,1-.42-.58l-.23-.44,42.55,30.17a2.13,2.13,0,0,1-1.17-.28l-1-.15-1-.16-3.39-1c-2-.3-4.16-.57-6.56-.81a32.82,32.82,0,0,0-7.21.11,20.93,20.93,0,0,0-6.8,2,14.51,14.51,0,0,0-5.38,4.69l-20.2,28.49,42.37,30q9.14,6.48,18.79-1a1.94,1.94,0,0,0,.86-.63,8.64,8.64,0,0,1,1.56-1.23,3.63,3.63,0,0,1,1.27-1l.26-.36a.2.2,0,0,1,.31-.06Z"/><path class="cls-1" d="M2217.88,1775.57a29.33,29.33,0,0,1,3.43,12.35,22.31,22.31,0,0,1-3,12.33,21.38,21.38,0,0,1-6.43,7.29,20.05,20.05,0,0,1-8.19,3.35,26.37,26.37,0,0,1-9.07-.12,28,28,0,0,1-9-3.26l-100-56.53q-7.41-4.18-12.76-2.45t-9.54,9.14l8.28-42.39,123.55,69.86q1.76,1,4.83,2.6a34.92,34.92,0,0,0,6.39,2.59,18.57,18.57,0,0,0,6.22.81,4.81,4.81,0,0,0,4.24-2.49c1.17-2.07,1.22-4.49.12-7.26a26.45,26.45,0,0,0-3.43-6.44Z"/><path class="cls-1" d="M2264,1710.69a57.31,57.31,0,0,1-13.62,19.7,51.82,51.82,0,0,1-18.64,11,55.39,55.39,0,0,1-21.57,2.65,69.75,69.75,0,0,1-41.63-18.21,54.28,54.28,0,0,1-12.58-17.61,52.37,52.37,0,0,1-4.44-21.12,57.27,57.27,0,0,1,5.22-23.38,56.31,56.31,0,0,1,13.68-19.54,52.22,52.22,0,0,1,18.64-11,55.36,55.36,0,0,1,21.42-2.61,66.29,66.29,0,0,1,22.13,5.54,67,67,0,0,1,19.3,12.59,55.35,55.35,0,0,1,12.62,17.5,52.31,52.31,0,0,1,4.55,21.17A56.38,56.38,0,0,1,2264,1710.69Zm.26-10.64c1.85-4.24,2.21-8.2,1-11.88a25.44,25.44,0,0,0-5.82-9.88,43.48,43.48,0,0,0-9.41-7.54,87.69,87.69,0,0,0-9.64-5.07,89.71,89.71,0,0,0-11.18-4q-5.64-1.61-11.43-2.92a120.22,120.22,0,0,0-15.23-1.78,96.32,96.32,0,0,0-18.21.58,52.06,52.06,0,0,0-16.74,5,23,23,0,0,0-11.08,11.65q-2.88,6.57-1.18,12.19a24.71,24.71,0,0,0,5.88,10,44.78,44.78,0,0,0,9.51,7.59,88.54,88.54,0,0,0,9.63,5.07,98,98,0,0,0,13.06,4.49,132.59,132.59,0,0,0,15.91,3.3,112.54,112.54,0,0,0,16.95,1.18,71.75,71.75,0,0,0,16.05-1.77,38.62,38.62,0,0,0,13.25-5.69A24.26,24.26,0,0,0,2264.3,1700.05Z"/><path class="cls-1" d="M2291.83,1632.9a.94.94,0,0,1,0-.71,3.64,3.64,0,0,1,0-1.63,5.62,5.62,0,0,1-.05-1.77,7.41,7.41,0,0,1,.19-1,19,19,0,0,0-2.55-10.13q-2.52-4-8.31-5.79L2205.49,1589c-3.86-1.17-7.19-1.09-10,.24a19.48,19.48,0,0,0-7.63,7,5.13,5.13,0,0,1-.5.9c-.3.45-.6.95-.92,1.47a4.11,4.11,0,0,0-1,1.59l11.75-38.79,17.57,5.33-2.48-2.63q-13.28-14.07-7.7-32.5a17.67,17.67,0,0,1,3.06-5.86,22.62,22.62,0,0,1,4.76-4.52,16.67,16.67,0,0,1,5.7-2.6,11.41,11.41,0,0,1,13.8,14.7,12.16,12.16,0,0,1-5.61,7.31,11,11,0,0,1-9,.89,10,10,0,0,1-2-.84c-.6-.33-1.23-.68-1.91-1a7.22,7.22,0,0,0-1.8-1,10.08,10.08,0,0,0-2.29-.93,2,2,0,0,0-2.79,1.49,7.69,7.69,0,0,0-.22,2.28,24.89,24.89,0,0,0,4.51,14.46,46.24,46.24,0,0,0,10.35,10.62,6.74,6.74,0,0,0,1.05.79,17.93,17.93,0,0,1,1.62,1.19,16.37,16.37,0,0,0,1.8,1,1.3,1.3,0,0,0,.8.48.65.65,0,0,0,.36.34l61.28,18.56q6,1.82,10.26-.28a20.3,20.3,0,0,0,7.6-6.94,10.65,10.65,0,0,1,1.48-2.59,3.58,3.58,0,0,1,.89-1.37l.13-.43.21.07Z"/><path class="cls-1" d="M2324.52,1466.62q10,15.6,6.45,34.57a41.3,41.3,0,0,1-4.22,12.1,35.14,35.14,0,0,1-7.24,9.37,24.71,24.71,0,0,1-22,6,25.66,25.66,0,0,1-11.95-5.45,28.73,28.73,0,0,1-7.61-9.75,36.62,36.62,0,0,1-3.34-12.48,49.68,49.68,0,0,1,.68-13.88,47.56,47.56,0,0,0,.84-10.44,27,27,0,0,0-1.88-9.36,18,18,0,0,0-5.26-7.14,21.84,21.84,0,0,0-9.22-4.25l-3.52-.66a55.09,55.09,0,0,0-9.73-.93,29.94,29.94,0,0,0-9.74,1.46,19.27,19.27,0,0,0-8,5.09c-2.27,2.39-3.83,5.77-4.66,10.17a28.56,28.56,0,0,0-.34,4.84,39.08,39.08,0,0,0,.51,6.36,19.2,19.2,0,0,0,2,5.73,6,6,0,0,0,4.29,3.2,5.34,5.34,0,0,0,4.07-1l1.7-1.73a13.15,13.15,0,0,0,1.65-1.51,17.9,17.9,0,0,1,3.92-2.68,9.38,9.38,0,0,1,6-.46,11.13,11.13,0,0,1,9.28,13.6,12.12,12.12,0,0,1-4.79,7.87,11,11,0,0,1-8.89,1.85,28.3,28.3,0,0,1-11.09-4.61,27.61,27.61,0,0,1-8-8.47,32.92,32.92,0,0,1-4.17-11.07,34,34,0,0,1,.11-12.66q2.74-14.57,7.94-22.72a30,30,0,0,1,12.79-11.64,40.28,40.28,0,0,1,17.6-3.3,134.36,134.36,0,0,1,22.31,2.5l26.84,5.07,5.72,1.08a78,78,0,0,0,8.22,1.1c1.52,0,3,0,4.33,0a10.68,10.68,0,0,0,3.74-.54c2.72-.7,4.28-2.16,4.7-4.36a8,8,0,0,0-2.2-7,28.38,28.38,0,0,0-5.35-4.88l4.25-.79a31.8,31.8,0,0,1,7.26,11,23.05,23.05,0,0,1,1.21,12.88,20.49,20.49,0,0,1-5.17,10.45,21.34,21.34,0,0,1-9.55,6l-1.23.45Zm-5.66-.22a34.59,34.59,0,0,1-4.08-.09,38.57,38.57,0,0,1-4-.52q-9.22-1.76-18.45-3.61t-18.42-3.82l-2.64-.5,1.69,1.91a33.26,33.26,0,0,1,6.25,11.55,26.27,26.27,0,0,1,.77,12.79,13.68,13.68,0,0,0,.88,8.6,19,19,0,0,0,4.94,6.4,27.46,27.46,0,0,0,7.05,4.3,33.86,33.86,0,0,0,15.64,2.84,28.85,28.85,0,0,0,8.63-1.67,19.59,19.59,0,0,0,7.25-4.56,15.1,15.1,0,0,0,4-8.12,24.71,24.71,0,0,0-1.25-13.91,31.84,31.84,0,0,0-7.63-11.46l-.4-.31Z"/><path class="cls-1" d="M2337.3,1348.35a29.25,29.25,0,0,1,8.26,9.81,22.43,22.43,0,0,1,2.41,12.46,21.53,21.53,0,0,1-2.82,9.3,19.92,19.92,0,0,1-6.06,6.45,26.34,26.34,0,0,1-8.29,3.67,28.15,28.15,0,0,1-9.5.76L2206.87,1381q-8.48-.72-12.62,3.08t-4.88,12.27l-10.1-42,141.42,12.14c1.34.11,3.16.23,5.47.35a34.32,34.32,0,0,0,6.88-.3,18.61,18.61,0,0,0,6-1.85,4.8,4.8,0,0,0,2.82-4c.2-2.37-.76-4.59-2.91-6.65a26.77,26.77,0,0,0-5.8-4.43Z"/></g></g></svg>