<svg xmlns="http://www.w3.org/2000/svg" viewBox="0 0 2550 2550"><defs><style>.cls-1{fill:#b79f6e;}</style></defs><g id="Layer_2" data-name="Layer 2"><g id="Layer_1-2" data-name="Layer 1"><path class="cls-1" d="M1275,2550h0c-172.11,0-339.09-33.71-496.3-100.21A1278.57,1278.57,0,0,1,100.21,1771.3C33.71,1614.09,0,1447.11,0,1275S33.71,935.91,100.21,778.71A1278.55,1278.55,0,0,1,778.7,100.21C935.91,33.71,1102.89,0,1275,0s339.09,33.71,496.3,100.21A1278.57,1278.57,0,0,1,2449.79,778.7C2516.29,935.91,2550,1102.89,2550,1275s-33.71,339.09-100.21,496.29a1278.55,1278.55,0,0,1-678.49,678.5C1614.09,2516.29,1447.11,2550,1275,2550Zm0-2500C599.53,50,50,599.53,50,1275S599.53,2500,1275,2500h0c675.47,0,1225-549.53,1225-1225S1950.47,50,1275,50Z"/><path class="cls-1" d="M1774.94,970.13A521.86,521.86,0,0,0,1589.1,1004q-8.82-17.09-18.25-33.84-21.52-38.28-46.11-74.69a1082.29,1082.29,0,0,0-131.25-159.08q-36.79-36.79-77.12-70c-1.32-1.1-2.66-2.18-4-3.26q-10-8.16-20.18-16.07-8.45-6.57-17-13-8.57,6.41-17,13Q1248,655,1238.06,663.13l-4,3.29q-39.54,32.67-75.84,69A1082.29,1082.29,0,0,0,1027,894.45q-24.87,36.81-46.67,75.68-9.51,17-18.42,34.26a522,522,0,0,0-186.92-34.26q-12.53,0-24.94.58v524.92a521.35,521.35,0,0,0,41.22,204.16q4.18,9.89,8.76,19.56a.08.08,0,0,0,0,0A522.63,522.63,0,0,0,903.62,1866.5q4.25,4.26,8.59,8.4a526.87,526.87,0,0,0,62.44,51.17q9.75,6.79,19.79,13.15,14.85,9.39,30.34,17.78,12.77,6.91,26,13.13,4.8,2.25,9.65,4.43t9.95,4.34q6.14,2.6,12.31,5,15.9,6.25,32.1,11.44,18.6,5.94,37.56,10.48a525.24,525.24,0,0,0,122.2,14.29h2c7.84,0,15.65-.21,23.43-.56a521.93,521.93,0,0,0,98.19-13.84q18.67-4.47,37-10.34,16.52-5.28,32.72-11.67,5.91-2.32,11.78-4.81,5-2.1,9.88-4.31t9.72-4.46q13.15-6.21,25.89-13.09,17.14-9.29,33.51-19.79,8.41-5.41,16.63-11.15a526.94,526.94,0,0,0,65.72-54.31q2.7-2.62,5.36-5.29A522.66,522.66,0,0,0,1750,1719.39q4.56-9.69,8.77-19.6A521.18,521.18,0,0,0,1800,1495.63V970.72Q1787.51,970.14,1774.94,970.13ZM1599.4,1153.74A1015.74,1015.74,0,0,1,1642,1313.45a373.58,373.58,0,0,1,7.37,47q1.58,17.12,1.6,34.65a372.8,372.8,0,0,1-60.89,204.62A376.73,376.73,0,0,1,1378.13,1756a371.13,371.13,0,0,1-46.41,10c-2,.31-4.08.59-6.13.87q-12.69,1.68-25.61,2.51v-50.27a.61.61,0,0,1,0,.12q8-.59,15.93-1.57a323,323,0,0,0,189.33-92.7,328.91,328.91,0,0,0,36.63-43.59,322.11,322.11,0,0,0,58.3-173.92q-.81-29.7-3.09-59.16a1166.43,1166.43,0,0,0-28.35-181l3.49-1.67Q1585.62,1159.25,1599.4,1153.74ZM1486,1218.37q17.91-13.77,37.14-25.85a1119.37,1119.37,0,0,1,24.28,161.39,276,276,0,0,1,3.09,41.22c0,4.08-.11,8.15-.29,12.19-5.58,127.14-97.87,232.14-219.06,257.14q-12.57,2.6-25.54,4c-1.86.2-3.74.39-5.61.55v-67.71q0-3.09,0-6.18t0-6.19q.29-22.17,2.58-43.81C1316.51,1412.36,1385.38,1295.71,1486,1218.37Zm-141.59,76.2a478.08,478.08,0,0,1,123.41-161.5q15.75-13.38,32.62-25.38,5.23,16.82,9.92,33.87-9.28,5.42-18.33,11.2-21.72,13.92-42,30a530.63,530.63,0,0,0-105.58,111.84ZM1300,1819.09c0,.12.11.24.16.35H1300Zm254.74-744.76q5.07-2.65,10.21-5.21,5.74,12.48,11.17,25.14,2.72,6.33,5.34,12.69-5.45,2.16-10.87,4.44-4.93,2.1-9.82,4.29-2.46,1.1-4.89,2.21c-.71-2.48-1.42-5-2.15-7.43q-4.47-15.3-9.37-30.51C1547.77,1078,1551.24,1076.16,1554.72,1074.33Zm-42.14-104.2q14.78,24.55,28.19,50c.69,1.31,1.37,2.64,2.06,4q-7.66,3.78-15.19,7.8-2.19-5.9-4.44-11.76-7.11-18.54-14.85-36.89-2.79-6.57-5.64-13.11-12.43-28.43-26.42-56.2Q1495.33,941.38,1512.58,970.13Zm-429.87,46.35q2.49-6.08,5-12.13,7.29-17.26,15.15-34.22a1128.22,1128.22,0,0,1,172.3-266.28,1128,1128,0,0,1,172.31,266.28q7.89,17.05,15.23,34.42,2.33,5.49,4.59,11c.62,1.52,1.22,3,1.84,4.56q7.62,18.86,14.58,38-4.41,2.94-8.75,6-5.07,3.52-10.06,7.19a526.12,526.12,0,0,0-41.82,34.11q-9.91,9-19.42,18.45t-18.26,19.21A521.75,521.75,0,0,0,1300,1271.16q-4.57,9.71-8.78,19.6-9.14,21.62-16.26,43.8-7.14-22.17-16.27-43.8-4.15-9.83-8.69-19.43a522.48,522.48,0,0,0-85.24-127.9q-9-10-18.57-19.54-9.32-9.3-19-18.1a524.79,524.79,0,0,0-41.33-33.8q-5.4-4-10.9-7.82-4.15-2.89-8.36-5.71,7-19.34,14.68-38.33C1081.73,1018.91,1082.21,1017.69,1082.71,1016.48Zm-18.16,202.4c100.24,77.34,168.84,193.77,182.77,326.25a480.08,480.08,0,0,1,2.62,50q0-3.27,0-6.54v80.34c-1.9-.17-3.8-.37-5.68-.58q-12.93-1.47-25.47-4.1c-123.63-26-216.94-135.27-218.32-266.19,0-1,0-2,0-2.93a276.26,276.26,0,0,1,1.94-32.6,1119.32,1119.32,0,0,1,24.81-169.71Q1046.53,1205,1064.55,1218.88ZM1040,1141.83q4.7-17,9.9-33.83,16.89,12,32.67,25.49a478.26,478.26,0,0,1,122.92,161.08,530.41,530.41,0,0,0-105-111.4q-20.26-16.07-42-30Q1049.37,1147.3,1040,1141.83Zm-29.59-121.7q13.37-25.44,28.1-50,16.17-27,33.92-52.85-13,26.13-24.73,52.85-2.85,6.54-5.64,13.11-7.75,18.35-14.85,36.89c-1.54,4-3,8-4.53,12l2.1,1.12c-1.06.57-2.11,1.15-3.16,1.73l1.06-2.85q-7.23-3.87-14.6-7.53C1008.85,1023.1,1009.62,1021.61,1010.41,1020.13Zm-35.72,75.21q5.5-12.93,11.36-25.67,5.22,2.6,10.36,5.32,4.82,2.55,9.58,5.21-4.8,14.9-9.18,29.89-1.18,4-2.32,8-2.64-1.21-5.29-2.4-4.92-2.2-9.9-4.32-4.81-2-9.66-4Q972.13,1101.37,974.69,1095.34Zm4.37,70.93,2.51,1.2a1169.21,1169.21,0,0,0-29,190.78q-1.34,19.41-2,38.92a322.6,322.6,0,0,0,57.87,183.23,328.72,328.72,0,0,0,37.3,44.54A322.63,322.63,0,0,0,1234,1717.5q7.92,1,15.93,1.63a2,2,0,0,1,.1-.21v50.31q-12.9-.88-25.55-2.63-3.09-.43-6.16-.91a373.11,373.11,0,0,1-194.52-93.26,377.78,377.78,0,0,1-63.76-75.5,372.78,372.78,0,0,1-59-201.8,377.7,377.7,0,0,1,2.67-44.88q1.6-13.32,4.11-26.34a1016.32,1016.32,0,0,1,44-169.65Q965.63,1159.84,979.06,1166.27ZM1250,1818.92v.43h-.2C1249.84,1819.2,1249.91,1819.06,1250,1818.92ZM800,1020.13h0v.65a471.89,471.89,0,0,1,139.89,28.89q-6.21,13.62-12.06,27.39-2.94,7-5.77,14A521.48,521.48,0,0,0,800,1070.72h0Zm362.38,929.3q2.07,4.27,4.46,8.37-5-1.17-10-2.44-19.41-5-38.15-11.52-7.82-2.71-15.49-5.7-14.37-5.6-28.28-12.06-13.47-6.27-26.49-13.35-12-6.56-23.64-13.77a477.95,477.95,0,0,1-151.53-150.29,471.59,471.59,0,0,1-73.26-253V1270.86a.08.08,0,0,0,0,0V1120.78h0a473.63,473.63,0,0,1,92.78,14.14q5.75,1.47,11.43,3.09a1067,1067,0,0,0-30.64,103.07q-9.45,38.91-16,78.48-1.71,10.37-3.2,20.77a431.54,431.54,0,0,0-3.48,54.8,422.48,422.48,0,0,0,33.4,165.43q6.12,14.45,13.23,28.32a423.8,423.8,0,0,0,77.85,106.77c.84.84,1.7,1.66,2.55,2.49a424.28,424.28,0,0,0,132.53,88.58q14.84,6.27,30,11.37a418.2,418.2,0,0,0,43,12,125,125,0,0,0-27.25,46,123.72,123.72,0,0,0-5.92,29.87q-.35,4.58-.34,9.22A124.23,124.23,0,0,0,1162.36,1949.43Zm187.17-46.51a75,75,0,0,1-149.19,0,74.28,74.28,0,0,1-.4-7.79,75.1,75.1,0,0,1,46.81-69.49c1.06-.43,2.14-.84,3.23-1.23a74.91,74.91,0,0,1,50,0c1.06.38,2.1.78,3.14,1.2a75.11,75.11,0,0,1,46.82,69.49A74.27,74.27,0,0,1,1349.53,1902.92ZM1750,1495.63a471.64,471.64,0,0,1-70.17,248.08A478.1,478.1,0,0,1,1525.15,1899q-11.31,7-23,13.43-13.3,7.26-27.11,13.69t-28.29,12.05q-7.39,2.86-14.9,5.5-19,6.66-38.76,11.71-5,1.29-10,2.45,2.4-4.11,4.48-8.4a124.23,124.23,0,0,0,12.43-54.3c0-3.1-.12-6.17-.34-9.22a124.55,124.55,0,0,0-32.83-75.49,421.41,421.41,0,0,0,43-11.81q16-5.29,31.57-11.89A423.75,423.75,0,0,0,1572,1700c1.48-1.44,3-2.86,4.43-4.32a424.12,424.12,0,0,0,77.74-106.57q7.17-14,13.33-28.52a422.31,422.31,0,0,0,33.41-165.43q0-21.3-2.07-42.26-3.18-23.92-7.43-47.62-5.46-30.39-12.65-60.4a1061.79,1061.79,0,0,0-31.8-107.21q5.09-1.42,10.2-2.74a472.3,472.3,0,0,1,92.81-14.12Zm0-424.92a521.24,521.24,0,0,0-120.91,19.93q-2.56-6.3-5.23-12.59-6.13-14.49-12.72-28.82A472,472,0,0,1,1750,1020.78Z"/><path class="cls-1" d="M764.92,661.14q-26.07,21.21-54.3,30.24a136.58,136.58,0,0,1-109-10.08q-25.32-13.69-45.51-38.52-19.93-24.51-28.31-52.25a136.23,136.23,0,0,1-5.26-55.28,141.86,141.86,0,0,1,17.59-53.49q14.48-26,40.54-47.15t54.42-30.08a144.16,144.16,0,0,1,56.11-6.45,135,135,0,0,1,53.2,16.28q25.44,13.84,45.38,38.36,20.19,24.84,28.44,52.4a137.37,137.37,0,0,1,5.1,55.41,140.07,140.07,0,0,1-17.74,53.62Q791,639.94,764.92,661.14ZM770,647.73q19.56-15.9,25.39-35.34A87.73,87.73,0,0,0,798,572.85a125.56,125.56,0,0,0-13.18-39A206,206,0,0,0,762.74,500a212.91,212.91,0,0,0-23-23.83,218,218,0,0,0-28.88-21.88,197.69,197.69,0,0,0-32.68-16.73,132.76,132.76,0,0,0-34.78-8.84,95.52,95.52,0,0,0-34.8,2.53q-17.24,4.49-32.76,17.1Q556.6,464,550.76,483.42A87.87,87.87,0,0,0,548.12,523a125.75,125.75,0,0,0,13,38.87,202.49,202.49,0,0,0,22,33.69,213,213,0,0,0,23.13,24,224.25,224.25,0,0,0,28.88,21.88,204.56,204.56,0,0,0,32.65,17,124.55,124.55,0,0,0,34.78,8.84,99,99,0,0,0,34.8-2.53Q754.47,660.36,770,647.73Z"/><path class="cls-1" d="M881.78,561.76a3.2,3.2,0,0,1,1-.76,6.42,6.42,0,0,1,2.41-1.64,16.43,16.43,0,0,1,2.71-2,6.83,6.83,0,0,0,1.71-1.21q8.48-6.2,11.83-13.85t-.07-17.9l-63-189a78.22,78.22,0,0,0-5.76-12.84,59,59,0,0,0-8.92-12.2,55,55,0,0,0-11.52-9.23,30.24,30.24,0,0,0-13.66-4.3l-2.65-.38a4.16,4.16,0,0,1-1.14-.25,4.72,4.72,0,0,0-1.14-.25l54.64-18.23,240.37,139.08L1030.2,242q-2.65-8-11.2-10.82a45,45,0,0,0-15.62-2.59,6.52,6.52,0,0,1-2,.26,27.22,27.22,0,0,0-3.29.25,31.06,31.06,0,0,0-3.42-.12l63-21c-1.35,1-2.23,1.74-2.66,2.15a30.61,30.61,0,0,0-2.78,1.77,6.44,6.44,0,0,1-1.77,1q-17.7,12.64-11.37,31.62l79.49,238.29-8.35,2.79L845,331.56,908.59,522q3.54,10.62,10.82,14.73t18.15,3.85a15.63,15.63,0,0,1,4.93-.38,3.13,3.13,0,0,0,1.46-.06,3.22,3.22,0,0,1,1.45-.06l.76-.26.51.26Z"/><path class="cls-1" d="M1146.84,478.41A3.25,3.25,0,0,1,1148,478a3,3,0,0,1,1.2-.41,3.31,3.31,0,0,0,1.19-.42c1.06-.28,2-.57,2.79-.85a7.34,7.34,0,0,1,1.59-.43q10.34-3.36,16.24-9.66t5.72-17.5l-3.6-222q-.17-10.4-5.67-16.51t-15.15-9.15a7.63,7.63,0,0,0-2.21-.57,14.82,14.82,0,0,1-3.41-.94,3.47,3.47,0,0,0-1.41-.38,3.21,3.21,0,0,1-1.4-.37,1.18,1.18,0,0,1-.81-.39l209.57-3.4,1,61.59a1.12,1.12,0,0,1-.41-.79,1.24,1.24,0,0,0-.42-.8c-.28-.79-.7-2.25-1.27-4.37-.56-1.6-1-3.12-1.47-4.58a19.57,19.57,0,0,0-1-3,93.4,93.4,0,0,0-7.24-14.68,62.79,62.79,0,0,0-10-12.64,46.69,46.69,0,0,0-13.34-9,39.6,39.6,0,0,0-17.26-3.32L1220,204.79l2.09,128.79,62.39-1a25.31,25.31,0,0,0,12.75-3.4,41.94,41.94,0,0,0,9.87-8.16,54.66,54.66,0,0,0,7.42-10.73q3.1-5.83,5.43-11.09a12.83,12.83,0,0,0,.76-2.41,15,15,0,0,1,1.14-3.22,10.89,10.89,0,0,0,.58-1.41,11.49,11.49,0,0,1,.58-1.41,2.29,2.29,0,0,1,.77-1.61l1.51,93.19a2.71,2.71,0,0,1-.83-2,20,20,0,0,1-1.24-2.78q-2.51-6-6-12.7a72.6,72.6,0,0,0-8.2-12.47,39.64,39.64,0,0,0-10.75-9.23,26,26,0,0,0-13.66-3.38l-62.39,1L1224,448q.21,12.81,7.29,17.28t18.67,4.3l43.19-.7a62.27,62.27,0,0,0,27.69-7.25A135.74,135.74,0,0,0,1346.91,444a220.23,220.23,0,0,0,23-22.78q10.61-12.18,18.43-23.1L1359.21,475Z"/><path class="cls-1" d="M1606.53,415.7q3.27-10.26-.19-17.85t-12-13.67a3,3,0,0,0-1.85-1.43,8,8,0,0,1-2.36-1.17,14.93,14.93,0,0,1-3.71-2.85l100.25,31.9a7.62,7.62,0,0,1-4.17-.07,25.78,25.78,0,0,0-5.06.07q-10.89-.11-18,3.92t-10.55,14.69l-40.76,128.07a10.81,10.81,0,0,1-3-1.6,2.49,2.49,0,0,1-.93-3,12.82,12.82,0,0,1,.21-3.29,17.34,17.34,0,0,0-1.1-7.76q-1.47-4-9.85-6.64a45.31,45.31,0,0,0-9.47-1.91,65.64,65.64,0,0,0-9.58-.22,140,140,0,0,1-42.81-6.63q-32-10.2-55-28.85a136.55,136.55,0,0,1-51.29-96.71q-2.43-28.68,7.29-59.18A137.88,137.88,0,0,1,1450,305.33a145,145,0,0,1,26.86-29.66,160.12,160.12,0,0,1,34.24-21.84,151.45,151.45,0,0,1,39.23-12.49,145.21,145.21,0,0,1,30.52-2.26,109.76,109.76,0,0,1,29.86,5.1,121.38,121.38,0,0,1,28.08,13.34,102.62,102.62,0,0,1,24,20.86,76.74,76.74,0,0,1,14.53,26.24,47.07,47.07,0,0,1-.24,29.1q-3.75,11.82-13.8,17t-22.25,1.31q-12.21-3.89-17.59-14t-1.62-21.93a16.68,16.68,0,0,1,4.51-7.58,32.76,32.76,0,0,1,7-4.72l1.75-.91,1.76-.91a13.71,13.71,0,0,0,1.82-1.1,16.22,16.22,0,0,1,1.82-1.1,13.92,13.92,0,0,0,5.1-6.77,18.09,18.09,0,0,0-1-14,41.63,41.63,0,0,0-9.11-12.14,59.75,59.75,0,0,0-13-9.17,81.23,81.23,0,0,0-12.5-5.44q-24.33-7.74-44.24-1.71a92.09,92.09,0,0,0-35.5,20.14,130.08,130.08,0,0,0-26.3,33.33A205.88,205.88,0,0,0,1487.28,342a220.21,220.21,0,0,0-7.4,31.8,201,201,0,0,0-2.5,35.47,196.33,196.33,0,0,0,3.88,35.81,122.44,122.44,0,0,0,11.66,33.05,97.19,97.19,0,0,0,20.92,27q12.83,11.63,31.84,17.68a76.54,76.54,0,0,0,12.08,2.8q6,.87,12.19,1.16l1.26,0Z"/><path class="cls-1" d="M1763.63,653.51q-26.43-20.75-41.47-46.29A136.59,136.59,0,0,1,1708,498.68q7.77-27.71,27.54-52.88,19.51-24.85,44.72-39.14A136.5,136.5,0,0,1,1833,389.34a142,142,0,0,1,56.06,5.37q28.5,8.39,54.93,29.14t41.34,46.45A144.2,144.2,0,0,1,2004,523.6a135,135,0,0,1-4.15,55.48q-7.89,27.88-27.41,52.73-19.77,25.17-44.84,39.3a137.49,137.49,0,0,1-52.91,17.19,140.09,140.09,0,0,1-56.22-5.49Q1790.05,674.26,1763.63,653.51Zm14.2,2q19.82,15.56,40.07,17a87.7,87.7,0,0,0,39.15-6.14,125.33,125.33,0,0,0,35.16-21.46,204.48,204.48,0,0,0,28.13-29,213.79,213.79,0,0,0,18.18-27.68,219.11,219.11,0,0,0,15-33,198,198,0,0,0,9.11-35.56,132.82,132.82,0,0,0,1-35.87,95.4,95.4,0,0,0-10.15-33.39q-8.17-15.83-23.9-28.18-19.52-15.32-39.76-16.72a87.77,87.77,0,0,0-39.14,6.13,125.6,125.6,0,0,0-35,21.31,201.65,201.65,0,0,0-28,28.87,211.32,211.32,0,0,0-18.3,27.84,226.12,226.12,0,0,0-15,33,205.31,205.31,0,0,0-9.39,35.61,124.6,124.6,0,0,0-1,35.86,98.94,98.94,0,0,0,10.14,33.4Q1762.09,643.15,1777.83,655.51Z"/><path class="cls-1" d="M208.44,1381.09a1.72,1.72,0,0,1,.32.62,1.9,1.9,0,0,1,.33.63,1.58,1.58,0,0,0,.33.63c.24.57.47,1.06.69,1.48a4.4,4.4,0,0,1,.36.85,21.06,21.06,0,0,0,6.64,8.23q4,2.78,10.15,1.78L350,1375.74q5.74-.93,8.7-4.45a18.63,18.63,0,0,0,3.87-9.12,4.08,4.08,0,0,0,.14-1.27,8.4,8.4,0,0,1,.26-2,1.88,1.88,0,0,0,.09-.81,1.9,1.9,0,0,1,.1-.81.66.66,0,0,1,.15-.47l18.49,115.84-34.05,5.43a.66.66,0,0,1,.41-.29.63.63,0,0,0,.4-.29c.42-.22,1.2-.57,2.33-1,.84-.44,1.64-.83,2.42-1.18a11.75,11.75,0,0,0,1.57-.82,52.43,52.43,0,0,0,7.56-5.17,35.17,35.17,0,0,0,6.21-6.55,26.26,26.26,0,0,0,3.92-8.1,22.31,22.31,0,0,0,.48-9.83L365.83,1400l-71.18,11.36,5.5,34.49a14.12,14.12,0,0,0,2.9,6.79,23,23,0,0,0,5.3,4.83,31.13,31.13,0,0,0,6.53,3.26q3.48,1.26,6.57,2.13a8.58,8.58,0,0,0,1.4.23,8,8,0,0,1,1.87.38c.32.09.6.16.83.2a6.72,6.72,0,0,1,.83.21,1.3,1.3,0,0,1,.95.3l-51.51,8.22a1.51,1.51,0,0,1,1-.61,10,10,0,0,1,1.44-.91c2.07-1.24,4.25-2.69,6.56-4.34a40.47,40.47,0,0,0,6.26-5.53,22.13,22.13,0,0,0,4.26-6.69,14.5,14.5,0,0,0,.79-7.83l-5.5-34.49-59.25,9.45c-4.72.75-7.72,2.56-9,5.4s-1.59,6.41-.9,10.69l3.81,23.88a34.82,34.82,0,0,0,6.21,14.76,75.52,75.52,0,0,0,11.83,13.08,121.69,121.69,0,0,0,14.45,11q7.57,4.92,14.25,8.38l-44.9-10.06Z"/><path class="cls-1" d="M332.12,1519.46a18.53,18.53,0,0,0,6-7.79,24.4,24.4,0,0,0,1.93-9.87c0-.48,0-1.47-.16-3a4.79,4.79,0,0,1,0-1.17,5,5,0,0,0,0-1.16l15.24,52.92a.44.44,0,0,0-.2-.29.49.49,0,0,1-.2-.3,3.56,3.56,0,0,1-.86-1.38,21.47,21.47,0,0,0-4.19-4.85q-2.13-1.71-6.22-.54a13.55,13.55,0,0,0-4.64,2.5L283,1587.66l71.76,7.28a13.45,13.45,0,0,0,4.28-.53q3.65-1,4.49-3.39a15.14,15.14,0,0,0,.93-4.47l.09-2.12a3.42,3.42,0,0,1,0-1.63.57.57,0,0,1,.09-.49l9.23,32a1.61,1.61,0,0,1-.4-.58,3.56,3.56,0,0,0-.86-1.38,17.7,17.7,0,0,0-1.45-2.61,24.47,24.47,0,0,0-6.89-7.34,18.59,18.59,0,0,0-9.25-3.39l-104.3-10.26-1.49-5.16Z"/><path class="cls-1" d="M333.21,1664.55a123.46,123.46,0,0,0-13.07,9.67,86.74,86.74,0,0,0-13.21,13.72,52.13,52.13,0,0,0-8.62,16.28,24.47,24.47,0,0,0,.89,17.28,22.51,22.51,0,0,0,5.56,7.83,38.19,38.19,0,0,0,8.41,5.93,35.69,35.69,0,0,0,9.79,3.41,28.34,28.34,0,0,0,9.71.31l-2.57,3.74q-14.6.49-23.68-7.36t-14.77-21.5a58.17,58.17,0,0,1-4.84-23.57,50.4,50.4,0,0,1,4.92-21.08,56.4,56.4,0,0,1,13-17.31,66.78,66.78,0,0,1,19.51-12.25,82.91,82.91,0,0,1,21.48-5.79,55.19,55.19,0,0,1,20.84,1.14,47,47,0,0,1,18.18,9.29Q393.06,1651,398,1663a48.68,48.68,0,0,1,3.77,18.08A51.09,51.09,0,0,1,399,1699,48.29,48.29,0,0,1,390,1714.5a40,40,0,0,1-14.34,10.7L334,1664ZM363.83,1702l.74-.55q4.26-2,9.12-4.88a57,57,0,0,0,9.1-6.69,55.22,55.22,0,0,0,7.56-8.34,27.21,27.21,0,0,0,4.6-9.63,19.18,19.18,0,0,0,.67-5.1,13.46,13.46,0,0,0-1-5.12q-2.83-6.8-8.47-9.27A29.11,29.11,0,0,0,374,1650a48.73,48.73,0,0,0-13,1.92,102.61,102.61,0,0,0-11.05,3.75q-3.11,1.29-6.12,2.79t-5.73,3.12l-.95.63Z"/><path class="cls-1" d="M322.29,1776.45a.91.91,0,0,1,.53.47,7.13,7.13,0,0,1,1.29,1.32c.63.49,1.14.93,1.54,1.31a5.15,5.15,0,0,1,.7.75,18.12,18.12,0,0,0,9,4.75,14,14,0,0,0,9.65-2.11l68.32-39.73q9.48-5.52,6.72-17.38a4,4,0,0,0-.27-1.14,8.73,8.73,0,0,1-.41-1.83,1.86,1.86,0,0,0-.21-.79,1.79,1.79,0,0,1-.2-.79l-.22-.38,20.37,35-7.74,4.5,2.14.56a32.05,32.05,0,0,1,12.39,6.61,43.77,43.77,0,0,1,9.06,11.12q5.71,9.84,7.17,17.9a29.72,29.72,0,0,1-.88,15,34.16,34.16,0,0,1-8.07,12.83,89.78,89.78,0,0,1-14.32,11.68q-5.11,3.23-10.43,6.32l-10.55,6.14-13.55,7.88-4.93,2.87a78.66,78.66,0,0,0-7,4.61c-.83.65-1.74,1.44-2.75,2.37a20.68,20.68,0,0,0-2.68,3,9.61,9.61,0,0,0-1.59,3.27,4.38,4.38,0,0,0,.56,3.42q1.8,3.09,6.21,3.77a26.35,26.35,0,0,0,7.29.29l-2.69,3.38a28.86,28.86,0,0,1-12.46-3.37,23.4,23.4,0,0,1-9.29-9.07,20.54,20.54,0,0,1-1.77-18,25.19,25.19,0,0,1,4.64-7.83,28.38,28.38,0,0,1,7.35-6.07l5.42-3.15L420,1818.83l4.84-2.82q2.71-1.56,5.89-3.68,3.94-2.55,8.68-6.21a47.43,47.43,0,0,0,8.18-8,22.62,22.62,0,0,0,4.52-9.36q1.08-5-2.06-10.45-7.66-13.17-22.25-15.55l-.31-.08-70.44,41q-5.24,3-6.61,7.57a20,20,0,0,0-.12,10.24,3.67,3.67,0,0,0,.26,1.14,5.58,5.58,0,0,1,.3,1.63,2.12,2.12,0,0,1,.4,1.57.91.91,0,0,1,.14.69Z"/><path class="cls-1" d="M451.82,1954.21a26.28,26.28,0,0,1-14.72-3.33,36.85,36.85,0,0,1-11.69-10.11,35.66,35.66,0,0,1-5.51-10.28,26.49,26.49,0,0,1-1.33-10.5,25,25,0,0,1,2.9-9.9,25.37,25.37,0,0,1,7.32-8.33l1.25-.94,65-49.09-9.71-12.87,3-2.29,3.51,4.65a38.14,38.14,0,0,0,7.9,8.06,22.06,22.06,0,0,0,8.34,3.8,31.54,31.54,0,0,0,9.11.56,62.06,62.06,0,0,0,10.41-1.82l2.56,3.39-17.69,13.35,16.72,22.16-3,2.29-16.72-22.16-65.41,49.36a54.4,54.4,0,0,0-4.73,4.13,40.29,40.29,0,0,0-4.95,5.7,18.16,18.16,0,0,0-3.19,6.75,8.17,8.17,0,0,0,1.75,7,11.42,11.42,0,0,0,4.91,3.72,23.83,23.83,0,0,0,6.25,1.59,37.6,37.6,0,0,0,6.45.19,45.86,45.86,0,0,0,5.68-.65.66.66,0,0,0,.5-.09Z"/><path class="cls-1" d="M475.63,1966.14a10.6,10.6,0,0,1,8.43-3.08,12.43,12.43,0,0,1,8.16,4.2,11.58,11.58,0,0,1,3.4,8.28,11,11,0,0,1-3.87,8,10.53,10.53,0,0,1-4.21,2.37,10.86,10.86,0,0,0-4.38,2.52,7.27,7.27,0,0,0-2.6,5.92,18,18,0,0,0,1.72,6.64,32.63,32.63,0,0,0,3.88,6.33c1.56,2,2.95,3.68,4.16,5a61.39,61.39,0,0,0,7.5,6.79,38.69,38.69,0,0,0,9,5.25,20.48,20.48,0,0,0,9.53,1.56,15,15,0,0,0,9.11-4.32q4.27-4,3.26-10.49a67.56,67.56,0,0,0-4.35-14.74q-3.33-8.22-7.48-17.64a97.35,97.35,0,0,1-6.16-18.85,47.87,47.87,0,0,1-.49-18.32q1.53-8.89,9.75-16.49a27.33,27.33,0,0,1,25.62-7.1,40.11,40.11,0,0,1,12.47,5.39,56.39,56.39,0,0,1,10.89,9.14,78.18,78.18,0,0,1,7,9.06,57.62,57.62,0,0,1,6.2,11.8,32.85,32.85,0,0,1,2.3,12.21,13.78,13.78,0,0,1-4.67,10.28,11,11,0,0,1-8.28,3.24,11.58,11.58,0,0,1-8-4,12.35,12.35,0,0,1-3.55-8.45,10.63,10.63,0,0,1,3.72-8.18,8.48,8.48,0,0,1,4.43-2.12,8.49,8.49,0,0,0,4.44-2.13,5.41,5.41,0,0,0,1.84-4.44,15.37,15.37,0,0,0-1.38-5.44,27,27,0,0,0-3-5.27,47.64,47.64,0,0,0-3.18-3.92,35.06,35.06,0,0,0-6.52-5.4,33,33,0,0,0-8.25-4,22.88,22.88,0,0,0-8.59-1,12.52,12.52,0,0,0-7.74,3.51q-4.28,3.94-3.18,10.57a70.74,70.74,0,0,0,4.42,14.82q3.33,8.21,7.56,17.56a92,92,0,0,1,6.25,18.78,48.8,48.8,0,0,1,.48,18.47q-1.54,9-9.75,16.65-6.57,6.09-13.83,7.31a33.17,33.17,0,0,1-14.39-.71,45.27,45.27,0,0,1-13.84-6.55,70.94,70.94,0,0,1-11.89-10.2,81.66,81.66,0,0,1-7.69-10.12,64.43,64.43,0,0,1-6.77-13.41,38.56,38.56,0,0,1-2.48-13.88A15.18,15.18,0,0,1,475.63,1966.14Z"/><path class="cls-1" d="M543.92,2070.24a12.56,12.56,0,0,1-4.31-9,12,12,0,0,1,3.29-9,11.73,11.73,0,0,1,8.65-3.9,12.84,12.84,0,0,1,9.25,3.68,13.1,13.1,0,0,1,4.46,8.86,11.59,11.59,0,0,1-3.3,9,11.92,11.92,0,0,1-8.79,4.06A12.81,12.81,0,0,1,543.92,2070.24Z"/><path class="cls-1" d="M572.12,2096.82a3.6,3.6,0,0,1,2.2.79l2.56,1.07a20.3,20.3,0,0,0,10.23,1.06c3.11-.57,5.92-2.52,8.42-5.88l74.17-99.68q3.88-5.21,3.28-9.28a18.57,18.57,0,0,0-2.49-7.15c-.69-1.08-1.37-2-2-2.91a26.71,26.71,0,0,1-1.62-2.32,1.27,1.27,0,0,1-.45-.89l25.14,18.71q12.57,9.36,25.19,19a88.6,88.6,0,0,1,22.5,24.14,83.89,83.89,0,0,1,11.55,29.11,79.35,79.35,0,0,1-.22,30.67,75.13,75.13,0,0,1-37.09,49.84,79,79,0,0,1-29.38,9.11,83.34,83.34,0,0,1-31.29-2.77,88.9,88.9,0,0,1-29.49-14.55ZM698,2000.43l-80.32,108a13.87,13.87,0,0,0-3.07,6.93,11.56,11.56,0,0,0,1,5.92,17.54,17.54,0,0,0,3.81,5.21,51.14,51.14,0,0,0,5.21,4.43Q637,2140.1,650,2140.92a59.12,59.12,0,0,0,25-3.74A77.81,77.81,0,0,0,697.3,2124a104.35,104.35,0,0,0,30.34-40.77,77.58,77.58,0,0,0,6.22-25.23,57.91,57.91,0,0,0-3.65-24.9q-4.58-12-17-21.28Z"/><path class="cls-1" d="M767.44,2165.84a123,123,0,0,0-4.08,15.73,85.65,85.65,0,0,0-1.65,19,52.21,52.21,0,0,0,3.52,18.08,24.51,24.51,0,0,0,11.55,12.88,22.47,22.47,0,0,0,9.25,2.6,38.25,38.25,0,0,0,10.27-.68,36.14,36.14,0,0,0,9.76-3.49,28.43,28.43,0,0,0,7.74-5.86l.36,4.52q-11,9.55-23,9.15t-25-7.44A57.86,57.86,0,0,1,747.54,2215a50.3,50.3,0,0,1-9.43-19.5,56.37,56.37,0,0,1-.73-21.66,66.73,66.73,0,0,1,7.48-21.79,83.16,83.16,0,0,1,13.07-18,55,55,0,0,1,16.93-12.22,46.88,46.88,0,0,1,20-4.19q10.67,0,22.08,6.24a48.33,48.33,0,0,1,14.29,11.69,51.12,51.12,0,0,1,9,15.72A48.26,48.26,0,0,1,843,2169a40,40,0,0,1-4.43,17.34l-70.91-21.38Zm47.36,9.88.23-.9q2-4.23,4-9.53a57.36,57.36,0,0,0,2.87-10.92,55.1,55.1,0,0,0,.64-11.24,26.93,26.93,0,0,0-2.48-10.38,18.58,18.58,0,0,0-2.69-4.39,13.46,13.46,0,0,0-4-3.33q-6.46-3.5-12.42-1.89a29.22,29.22,0,0,0-11,5.77,48.79,48.79,0,0,0-8.92,9.68,101.71,101.71,0,0,0-6.23,9.86q-1.61,3-3,6t-2.51,6l-.33,1.09Z"/><path class="cls-1" d="M926.15,2275.09q-9.6,10.6-20.78,12T880.48,2283a57.94,57.94,0,0,1-20.19-13.09,50.18,50.18,0,0,1-11.57-18.3,56.21,56.21,0,0,1-3.19-21.44,66.66,66.66,0,0,1,5-22.5,68.15,68.15,0,0,1,12-19.65,58.48,58.48,0,0,1,17.19-13.59,51.26,51.26,0,0,1,20.94-5.56,54.78,54.78,0,0,1,23.6,4.33,37.8,37.8,0,0,1,10.3,6.2,32.63,32.63,0,0,1,7.44,8.79,27.08,27.08,0,0,1,3.36,10.53A23.32,23.32,0,0,1,943.7,2210a11.05,11.05,0,0,1-6.11,6.47,13.28,13.28,0,0,1-15.89-6.41,10.77,10.77,0,0,1,0-8.93,8.92,8.92,0,0,1,3.35-4.44,11.73,11.73,0,0,1,4.19-1.7,11.2,11.2,0,0,1,2.2-.68c.69-.12,1.3-.23,1.83-.34,1.64-.47,2.65-1.19,3-2.16A5.7,5.7,0,0,0,936,2187a17.87,17.87,0,0,0-3.5-4.79,34.38,34.38,0,0,0-4.69-3.94,20.92,20.92,0,0,0-3.9-2.3q-8.72-3.51-15.81-2.39a29.27,29.27,0,0,0-12.69,5.14,39.77,39.77,0,0,0-9.78,10.18,69.53,69.53,0,0,0-6.93,13,82.57,82.57,0,0,0-3.84,12.81,122.29,122.29,0,0,0-2.41,15.56,106.15,106.15,0,0,0-.23,16.45,69.86,69.86,0,0,0,2.66,15.55,41.47,41.47,0,0,0,6.1,12.72,22.84,22.84,0,0,0,10.18,8,21.06,21.06,0,0,0,9.31,1.46,33.25,33.25,0,0,0,9.63-2,32.86,32.86,0,0,0,8.7-4.82,28.42,28.42,0,0,0,6.52-6.9Z"/><path class="cls-1" d="M995.2,2320.69a57.16,57.16,0,0,1-21.5-10.54A51.6,51.6,0,0,1,960,2293.37a55.26,55.26,0,0,1-5.84-20.93,69.85,69.85,0,0,1,11.8-43.89,54.5,54.5,0,0,1,15.53-15.06,52.58,52.58,0,0,1,20.23-7.54,57.17,57.17,0,0,1,23.89,1.68,56.18,56.18,0,0,1,21.37,10.62,52.2,52.2,0,0,1,13.69,16.78,55.3,55.3,0,0,1,5.76,20.79,66.14,66.14,0,0,1-2.17,22.72,66.93,66.93,0,0,1-9.58,20.95,55,55,0,0,1-15.42,15.09,52.18,52.18,0,0,1-20.25,7.65A56.3,56.3,0,0,1,995.2,2320.69Zm10.56-1.33q6.71,1.8,11.91-.74a25.48,25.48,0,0,0,8.9-7.22,43.43,43.43,0,0,0,6-10.43,82.16,82.16,0,0,0,5.9-21.94q.75-5.84,1.19-11.74a122.67,122.67,0,0,0-.51-15.33,96.34,96.34,0,0,0-3.29-17.92,51.81,51.81,0,0,0-7.46-15.8,22.93,22.93,0,0,0-13.17-9.22q-6.91-1.87-12.23.65a24.77,24.77,0,0,0-9,7.3,45,45,0,0,0-6.08,10.54,86.33,86.33,0,0,0-3.57,10.28,95.54,95.54,0,0,0-2.5,13.59,132.16,132.16,0,0,0-.89,16.22,113.78,113.78,0,0,0,1.36,16.94,71.54,71.54,0,0,0,4.14,15.6,38.63,38.63,0,0,0,7.6,12.25A24.35,24.35,0,0,0,1005.76,2319.36Z"/><path class="cls-1" d="M1076,2336.56a1,1,0,0,1,.7-.12,3.51,3.51,0,0,1,1.62-.21,5.52,5.52,0,0,1,1.74-.31,7,7,0,0,1,1,0,19,19,0,0,0,9.65-4q3.61-3.09,4.51-9.07l11.59-78.17q.88-6-1.71-9.87a19.44,19.44,0,0,0-8.08-6.52,4.62,4.62,0,0,1-1-.37l-1.59-.69a3.94,3.94,0,0,0-1.71-.7l40.08,5.94-2.69,18.16,2.23-2.84q12-15.2,31-12.38a17.83,17.83,0,0,1,6.25,2.17,23,23,0,0,1,5.17,4.05,16.43,16.43,0,0,1,3.4,5.26,11.4,11.4,0,0,1-12.52,15.8,12.15,12.15,0,0,1-8.05-4.48,10.91,10.91,0,0,1-2.2-8.81,9.51,9.51,0,0,1,.53-2.07c.24-.65.5-1.32.75-2a6.84,6.84,0,0,0,.74-1.93,10.71,10.71,0,0,0,.59-2.4,2,2,0,0,0-1.89-2.54,7.39,7.39,0,0,0-2.28.11,24.87,24.87,0,0,0-13.65,6.58,46.19,46.19,0,0,0-9,11.79,7.68,7.68,0,0,0-.62,1.15c-.23.5-.54,1.09-.95,1.79-.47,1.14-.71,1.78-.74,1.92a1.33,1.33,0,0,0-.35.86.69.69,0,0,0-.29.41l-9.38,63.33q-.93,6.21,1.78,10.11a20.15,20.15,0,0,0,8,6.5,11.37,11.37,0,0,1,2.78,1.09,3.75,3.75,0,0,1,1.48.68l.44.06,0,.23Z"/><path class="cls-1" d="M1176,2351.38a12.6,12.6,0,0,1-8.91-4.54,12.07,12.07,0,0,1-2.85-9.15,11.68,11.68,0,0,1,4.49-8.35,12.78,12.78,0,0,1,9.58-2.7,13,13,0,0,1,8.93,4.32,11.56,11.56,0,0,1,2.85,9.15,11.94,11.94,0,0,1-4.51,8.57A12.82,12.82,0,0,1,1176,2351.38Z"/><path class="cls-1" d="M1349,2337.11a52.23,52.23,0,0,1-21.07,15.67,72.32,72.32,0,0,1-26.73,4.95,93.23,93.23,0,0,1-34.28-5.86,76.46,76.46,0,0,1-44-42.65,85,85,0,0,1-6.32-32.76,75.51,75.51,0,0,1,6.22-30.26,90.09,90.09,0,0,1,17.1-26.39,87.73,87.73,0,0,1,25-18.72,66.33,66.33,0,0,1,29.85-7.2,67.62,67.62,0,0,1,17.25,2.26,57.6,57.6,0,0,1,16.38,7,43.15,43.15,0,0,1,12.26,11.47,26.35,26.35,0,0,1,4.89,15.53,15.42,15.42,0,0,1-4.42,11.44,15.69,15.69,0,0,1-11.61,4.54,16.09,16.09,0,0,1-11.78-4.41,15.28,15.28,0,0,1-4.65-11.4,9.17,9.17,0,0,1,1.1-4.93,20.13,20.13,0,0,1,2.89-3.59c.29-.3.55-.57.78-.79l.77-.79a7.82,7.82,0,0,0,.78-.9,8.94,8.94,0,0,1,.78-.9,7.79,7.79,0,0,0,1.55-4.48,10.16,10.16,0,0,0-3-7.27,23.37,23.37,0,0,0-7-4.88,33.08,33.08,0,0,0-8.5-2.65,45.81,45.81,0,0,0-7.59-.74q-14.28.07-23.84,6.73a51.63,51.63,0,0,0-15.42,16.87,72.72,72.72,0,0,0-8.25,22.32,115.42,115.42,0,0,0-2.33,23.07,124.44,124.44,0,0,0,1.54,18.24,112,112,0,0,0,4.8,19.34,109.94,109.94,0,0,0,8.25,18.43,68,68,0,0,0,11.92,15.6,54.12,54.12,0,0,0,15.8,10.78,47.71,47.71,0,0,0,20,3.93,43.49,43.49,0,0,0,10.82-1.52,54.87,54.87,0,0,0,11-4.19,52.19,52.19,0,0,0,9.8-6.44,27.23,27.23,0,0,0,6.88-8.43Z"/><path class="cls-1" d="M1442.81,2332.05q-11.49,14.55-30.6,17.32a41.38,41.38,0,0,1-12.82-.06,35.12,35.12,0,0,1-11.21-3.81,24.7,24.7,0,0,1-12.82-18.84,25.64,25.64,0,0,1,1.27-13.08,28.86,28.86,0,0,1,6.76-10.37,36.41,36.41,0,0,1,10.72-7.2,49.09,49.09,0,0,1,13.35-3.86,47.44,47.44,0,0,0,10.14-2.6,26.83,26.83,0,0,0,8.24-4.81,18,18,0,0,0,5.05-7.29,21.83,21.83,0,0,0,1-10.11l-.51-3.54a56,56,0,0,0-2.29-9.51,29.7,29.7,0,0,0-4.54-8.73,19.35,19.35,0,0,0-7.42-5.94q-4.48-2.05-11.13-1.1a28.55,28.55,0,0,0-4.68,1.24,40,40,0,0,0-5.86,2.55,19.45,19.45,0,0,0-4.77,3.74,6,6,0,0,0-1.64,5.1,5.39,5.39,0,0,0,2.32,3.51l2.19,1a12.37,12.37,0,0,0,2,1.08,17.79,17.79,0,0,1,3.81,2.84,9.32,9.32,0,0,1,2.38,5.53,11.12,11.12,0,0,1-9.85,13.19,12.1,12.1,0,0,1-9-2,11,11,0,0,1-4.63-7.82,28.19,28.19,0,0,1,.76-12,27.82,27.82,0,0,1,5.42-10.29,33.36,33.36,0,0,1,9.12-7.54,34,34,0,0,1,12-4q14.67-2.13,24.07.13a30,30,0,0,1,15.16,8.33,40.17,40.17,0,0,1,8.83,15.57,134.38,134.38,0,0,1,4.88,21.92l3.91,27q.25,1.77.84,5.76a75.45,75.45,0,0,0,1.63,8.13c.5,1.44,1,2.8,1.38,4.1a10.62,10.62,0,0,0,1.73,3.37q2.32,3.51,5.64,3a8,8,0,0,0,5.93-4.37,28.58,28.58,0,0,0,2.89-6.64l2.13,3.77a32,32,0,0,1-8.11,10.45,23,23,0,0,1-11.79,5.32,20.57,20.57,0,0,1-11.56-1.49,21.33,21.33,0,0,1-8.73-7.11l-.83-1Zm-1.63-5.42a38.1,38.1,0,0,1-1.24-3.89,36.06,36.06,0,0,1-.8-4q-1.35-9.3-2.58-18.63t-2.37-18.66l-.38-2.66-1.26,2.22a33.19,33.19,0,0,1-8.89,9.66,26.22,26.22,0,0,1-11.86,4.88,13.58,13.58,0,0,0-7.84,3.63,19.05,19.05,0,0,0-4.45,6.75,27.27,27.27,0,0,0-1.77,8.06,35.83,35.83,0,0,0,.22,7.77,36.31,36.31,0,0,0,2.16,7.95,28.6,28.6,0,0,0,4.39,7.62,19.43,19.43,0,0,0,6.66,5.37,15,15,0,0,0,9,1.18,24.68,24.68,0,0,0,12.75-5.69,32,32,0,0,0,8.37-10.94l.15-.47Z"/><path class="cls-1" d="M1569.36,2302.55a26.28,26.28,0,0,1-8.8,12.27,36.74,36.74,0,0,1-13.86,6.84,35.88,35.88,0,0,1-11.61,1.09,26.49,26.49,0,0,1-10.19-2.86,25,25,0,0,1-8-6.52,25.59,25.59,0,0,1-4.83-10l-.38-1.51-19.94-79-15.63,4-.93-3.69,5.64-1.43a38,38,0,0,0,10.5-4.15,22.07,22.07,0,0,0,6.75-6.2,31.71,31.71,0,0,0,4.05-8.18,61,61,0,0,0,2.37-10.3l4.12-1,5.43,21.49,26.91-6.79.93,3.69L1515,2217l20,79.45a55.37,55.37,0,0,0,2,6,41,41,0,0,0,3.33,6.78,18.08,18.08,0,0,0,5,5.55,8.15,8.15,0,0,0,7.09,1.1,11.3,11.3,0,0,0,5.34-3.08,23.71,23.71,0,0,0,3.9-5.14,38.36,38.36,0,0,0,2.68-5.87,48.71,48.71,0,0,0,1.61-5.49.62.62,0,0,0,.11-.49Z"/><path class="cls-1" d="M1603,2246.86a123.38,123.38,0,0,0,9.06,13.5,86.43,86.43,0,0,0,13.1,13.83,52.43,52.43,0,0,0,15.86,9.36,24.49,24.49,0,0,0,17.3-.1,22.23,22.23,0,0,0,8.08-5.2,37.39,37.39,0,0,0,6.31-8.12,35.9,35.9,0,0,0,3.86-9.63,28.22,28.22,0,0,0,.76-9.68l3.61,2.74q-.18,14.59-8.44,23.31t-22.15,13.77a58.05,58.05,0,0,1-23.77,3.75,50.21,50.21,0,0,1-20.83-5.89,56.4,56.4,0,0,1-16.7-13.82,66.86,66.86,0,0,1-11.33-20.06,83.18,83.18,0,0,1-4.8-21.72,55,55,0,0,1,2.1-20.77,47.08,47.08,0,0,1,10.11-17.73q7.13-7.93,19.32-12.38a48.84,48.84,0,0,1,18.23-2.93,51.1,51.1,0,0,1,17.77,3.67,48.5,48.5,0,0,1,15.06,9.65,40.06,40.06,0,0,1,10,14.82l-63,38.87Zm38.82-28.87-.52-.76q-1.82-4.35-4.46-9.34a56.36,56.36,0,0,0-14.24-17.34,27.31,27.31,0,0,0-9.41-5,19.39,19.39,0,0,0-5.07-.9,13.36,13.36,0,0,0-5.16.81q-6.92,2.51-9.65,8a29.1,29.1,0,0,0-3,12,48.32,48.32,0,0,0,1.33,13.09,100.27,100.27,0,0,0,3.24,11.21c.76,2.1,1.6,4.18,2.5,6.24s1.85,4,2.85,5.87l.59,1Z"/><path class="cls-1" d="M1711.84,2262.84a.92.92,0,0,1,.5-.49,3.66,3.66,0,0,1,1.21-1.1,5.45,5.45,0,0,1,1.26-1.24c.43-.3.72-.48.85-.55a19,19,0,0,0,5.66-8.78c.81-3.06.33-6.41-1.45-10l-35-70.87q-2.67-5.43-7-7.15a19.5,19.5,0,0,0-10.35-.76,4.34,4.34,0,0,1-1,.25l-1.7.34a4.11,4.11,0,0,0-1.81.39l36.34-17.93,8.13,16.47.22-3.61q1.2-19.3,18.47-27.83a17.61,17.61,0,0,1,6.36-1.77,22.42,22.42,0,0,1,6.56.39,16.49,16.49,0,0,1,5.79,2.38,11.4,11.4,0,0,1-1.31,20.12,12.1,12.1,0,0,1-9.16.9,11,11,0,0,1-6.83-6,10.21,10.21,0,0,1-.74-2q-.24-1-.54-2.1a7.08,7.08,0,0,0-.49-2,10.72,10.72,0,0,0-.88-2.31,2,2,0,0,0-3-1,7,7,0,0,0-1.81,1.39,24.79,24.79,0,0,0-7.48,13.17,46.07,46.07,0,0,0-.68,14.82,7.21,7.21,0,0,0,.14,1.3,19,19,0,0,1,.24,2,16.9,16.9,0,0,0,.49,2,1.28,1.28,0,0,0,.2.9.67.67,0,0,0,0,.5l28.33,57.42q2.78,5.63,7.22,7.3a20.25,20.25,0,0,0,10.26.81,10.2,10.2,0,0,1,2.91-.69,3.6,3.6,0,0,1,1.6-.29l.4-.2.1.2Z"/><path class="cls-1" d="M1743.68,2088.17a14.84,14.84,0,0,1-2.1-6.06,16.89,16.89,0,0,1,.49-6.32,18.36,18.36,0,0,1,2.84-5.9,16.24,16.24,0,0,1,4.86-4.52,13.4,13.4,0,0,1,5.92-1.88,17.19,17.19,0,0,1,6.28.64,18.87,18.87,0,0,1,5.6,2.76,15.2,15.2,0,0,1,4.07,4.34,12,12,0,0,1,1.63,5.3,17.33,17.33,0,0,1-.57,6,19.6,19.6,0,0,1-2.51,5.58,13,13,0,0,1-4.19,4.1,16,16,0,0,1-5.9,2.14,21.27,21.27,0,0,1-6.37.06,15.51,15.51,0,0,1-5.79-2A12,12,0,0,1,1743.68,2088.17Zm108.37,86.43a29.18,29.18,0,0,1-3.06,12.45,22.32,22.32,0,0,1-8.64,9.29,21.43,21.43,0,0,1-9.18,3.21,20,20,0,0,1-8.78-1.1,26.37,26.37,0,0,1-7.85-4.53,28.17,28.17,0,0,1-6.21-7.23l-37.58-62.05q-3.13-5.16-7.61-6.51a19.53,19.53,0,0,0-10.39.14,2,2,0,0,0-1,.23,16.57,16.57,0,0,1-1.61.59,3.49,3.49,0,0,0-1.58.43l34.66-21,44.42,73.34q1,1.72,2.94,4.64a35,35,0,0,0,4.31,5.37,18.41,18.41,0,0,0,5,3.76,4.83,4.83,0,0,0,4.92-.09q3.06-1.86,3.66-6.28a26.78,26.78,0,0,0,.16-7.29Z"/><path class="cls-1" d="M1876.3,2172.88a.92.92,0,0,1,.4-.58,7.15,7.15,0,0,1,1.15-1.44,19.21,19.21,0,0,1,1.11-1.69,5.05,5.05,0,0,1,.66-.79,18.11,18.11,0,0,0,3.6-9.5,14.07,14.07,0,0,0-3.29-9.31l-47.9-62.86q-6.65-8.72-18.08-4.51a3.9,3.9,0,0,0-1.09.41,9.68,9.68,0,0,1-1.77.64,1.86,1.86,0,0,0-.76.29,1.68,1.68,0,0,1-.76.3l-.35.27,32.23-24.56,5.43,7.12.29-2.19a32,32,0,0,1,5-13.11,43.68,43.68,0,0,1,9.91-10.37q9.06-6.9,16.87-9.34a29.78,29.78,0,0,1,15-1,34.13,34.13,0,0,1,13.74,6.42,89.48,89.48,0,0,1,13.36,12.75q3.84,4.68,7.58,9.57t7.39,9.71l9.5,12.46,3.46,4.54a79.22,79.22,0,0,0,5.44,6.41c.75.74,1.65,1.56,2.71,2.44a20.13,20.13,0,0,0,3.28,2.28,9.74,9.74,0,0,0,3.44,1.19,4.44,4.44,0,0,0,3.33-1c1.89-1.45,2.89-3.66,3-6.63a26.69,26.69,0,0,0-.62-7.27l3.69,2.25a28.9,28.9,0,0,1-1.8,12.78,23.25,23.25,0,0,1-7.85,10.34,20.52,20.52,0,0,1-17.61,4,25.19,25.19,0,0,1-8.35-3.63,28.62,28.62,0,0,1-6.93-6.54l-3.8-5-20.62-27.07-3.4-4.45c-1.26-1.66-2.73-3.46-4.38-5.39q-3-3.6-7.25-7.84a47.29,47.29,0,0,0-8.94-7.12,22.53,22.53,0,0,0-9.85-3.33q-5.14-.45-10.12,3.35-12.1,9.23-12.67,24l0,.32,49.39,64.81q3.66,4.82,8.33,5.62a20.12,20.12,0,0,0,10.19-1.15,3.67,3.67,0,0,0,1.08-.41,6.36,6.36,0,0,1,1.59-.5,2.12,2.12,0,0,1,1.5-.58.91.91,0,0,1,.67-.23Z"/><path class="cls-1" d="M2005.73,2055.74a24.51,24.51,0,0,1-6.56-.56,11.62,11.62,0,0,1-8.7-8.56,21.24,21.24,0,0,1-.46-6.33,29.45,29.45,0,0,1,1.2-6.41q.94-3.17,2.06-5.86a50.12,50.12,0,0,1-24.38,5q-12.35-.66-22.15-10.49a33,33,0,0,1-9.15-15.37,40,40,0,0,1-.61-16.62,48.88,48.88,0,0,1,6-16.22,67.94,67.94,0,0,1,10.87-14.15,72.71,72.71,0,0,1,12.21-9.79,54.1,54.1,0,0,1,14.25-6.47h.64a8,8,0,0,0,1.35-2.93,32,32,0,0,0,1.11-4.9,26.47,26.47,0,0,0,.33-4.91,4.66,4.66,0,0,0-.87-3.09,3.13,3.13,0,0,0-2.77-.71l-3.88.54a13.31,13.31,0,0,1-4.35-.08,8.61,8.61,0,0,1-4.51-2.62,9.75,9.75,0,0,1-3.07-7.68,11.86,11.86,0,0,1,11-11,9.9,9.9,0,0,1,7.59,3.18,18.46,18.46,0,0,1,4.66,7.53,26.25,26.25,0,0,1,1.25,8.55,43.51,43.51,0,0,1-1.12,8.86,71.55,71.55,0,0,1-2.47,8.47,39.42,39.42,0,0,1,16.7,1.37,34.32,34.32,0,0,1,14.31,8.81,33.79,33.79,0,0,1,9.24,15.45,38.43,38.43,0,0,1,.6,16.62,51.84,51.84,0,0,1-6,16.22,64.64,64.64,0,0,1-10.79,14.23,38.58,38.58,0,0,1-6,4.89,38.33,38.33,0,0,0-5.87,4.75,4.7,4.7,0,0,0-1,2,16.92,16.92,0,0,0-.56,2.93,10.48,10.48,0,0,0,.08,2.93,3.58,3.58,0,0,0,.86,2q1.9,1.9,5.78.09a43.64,43.64,0,0,0,8-5,93.91,93.91,0,0,0,7.68-6.55c2.38-2.26,4-3.82,4.84-4.66a131.26,131.26,0,0,1,12.76-11,73.61,73.61,0,0,1,15.85-9.31,40.09,40.09,0,0,1,16.7-3.38q8.4.18,15.19,7a26.28,26.28,0,0,1,8.12,17,47.76,47.76,0,0,1-2.64,19.23,82.32,82.32,0,0,1-9.13,18.42,93.48,93.48,0,0,1-11.66,14.63,116.53,116.53,0,0,1-12.61,10.66,72,72,0,0,1-15.84,9,39.74,39.74,0,0,1-16.71,3.06q-8.38-.33-15-7a21.07,21.07,0,0,1-6.63-15.37A33.76,33.76,0,0,1,2005.73,2055.74Zm5.78-47.48a14,14,0,0,0,4.21-7.35,17.42,17.42,0,0,0-.31-7.76,23.7,23.7,0,0,0-3.47-7.44,45,45,0,0,0-5.29-6.42,64.71,64.71,0,0,0-11.54-8.89,62,62,0,0,0-15-6.83,41.7,41.7,0,0,0-15.51-1.77,20.24,20.24,0,0,0-13,6,14.09,14.09,0,0,0-4.21,7.35,17.71,17.71,0,0,0,.31,7.76,23.65,23.65,0,0,0,3.55,7.52,46.79,46.79,0,0,0,5.37,6.5,63.21,63.21,0,0,0,11.46,8.81,62.48,62.48,0,0,0,15,6.75,42.59,42.59,0,0,0,15.43,1.85A20,20,0,0,0,2011.51,2008.26Zm2.3,46.07a25.32,25.32,0,0,0-1.37,13.54,21.81,21.81,0,0,0,6.24,12q5.37,5.39,11.78,6a29,29,0,0,0,12.67-1.72,49.3,49.3,0,0,0,12.12-6.55,84.77,84.77,0,0,0,10.14-8.53,86.61,86.61,0,0,0,8.25-10,84,84,0,0,0,8.18-13.68,42.15,42.15,0,0,0,4.06-14.16,14,14,0,0,0-4.1-11.72,11.1,11.1,0,0,0-10.52-3.1,40.1,40.1,0,0,0-12.67,4.88,73.7,73.7,0,0,0-12,8.61q-5.55,4.89-8.56,7.9a83.31,83.31,0,0,1-10.94,9.17,60.69,60.69,0,0,1-12.68,6.78l-.47.16Z"/><path class="cls-1" d="M2096.43,1975.57a12.56,12.56,0,0,1-8.83,4.69,12,12,0,0,1-9.13-2.91,11.69,11.69,0,0,1-4.26-8.47,12.82,12.82,0,0,1,3.28-9.4,13.08,13.08,0,0,1,8.66-4.83,11.59,11.59,0,0,1,9.13,2.91,12,12,0,0,1,4.44,8.61A12.82,12.82,0,0,1,2096.43,1975.57Z"/><path class="cls-1" d="M2119.74,1947.13a1.91,1.91,0,0,1,.2-.68,4.22,4.22,0,0,1,.67-1.72,5.9,5.9,0,0,1,.52-1.69,2,2,0,0,0,.31-1q3.95-11.74-5.19-18.22l-101.37-71.86a14.11,14.11,0,0,0-9.42-3,18.17,18.17,0,0,0-9.49,4.11,5.82,5.82,0,0,1-.77.69c-.42.34-.87.71-1.34,1.11a10,10,0,0,0-1.27,1,.61.61,0,0,1-.44.23l67.85-95.7,28.12,19.94a.6.6,0,0,1-.49-.08.66.66,0,0,0-.5-.07c-.45-.14-1.25-.43-2.39-.88-.91-.27-1.76-.55-2.56-.85a10.53,10.53,0,0,0-1.69-.51,52.69,52.69,0,0,0-9-1.6,35.57,35.57,0,0,0-9,.33,26.47,26.47,0,0,0-8.48,3,22.43,22.43,0,0,0-7.21,6.69l-26.28,37.08,65.2,46.22,20.2-28.49a14.13,14.13,0,0,0,2.63-7.19,26.11,26.11,0,0,0-.61-7.85,32.69,32.69,0,0,0-2.83-7.63,46.23,46.23,0,0,0-4.19-6.67l-.47-.88c-.16-.29-.31-.59-.47-.89a.93.93,0,0,1-.42-.57l-.23-.44,42.55,30.17a2.22,2.22,0,0,1-1.17-.28l-1-.15-1-.16-3.39-1c-2-.3-4.16-.57-6.56-.81a32.21,32.21,0,0,0-7.21.11,20.86,20.86,0,0,0-6.8,2,14.51,14.51,0,0,0-5.38,4.69l-20.2,28.49,42.37,30q9.14,6.48,18.79-1a2,2,0,0,0,.86-.63,8.88,8.88,0,0,1,1.55-1.23,3.66,3.66,0,0,1,1.28-1l.25-.37a.22.22,0,0,1,.32,0Z"/><path class="cls-1" d="M2217.86,1775.57a29.29,29.29,0,0,1,3.43,12.35,22.33,22.33,0,0,1-3,12.33,21.48,21.48,0,0,1-6.43,7.29,19.9,19.9,0,0,1-8.19,3.34,26.12,26.12,0,0,1-9.07-.11,28.46,28.46,0,0,1-9-3.26l-100-56.53q-7.41-4.18-12.76-2.45t-9.54,9.14l8.28-42.39,123.55,69.86q1.76,1,4.83,2.6a34.19,34.19,0,0,0,6.39,2.58,18.59,18.59,0,0,0,6.22.82,4.81,4.81,0,0,0,4.24-2.49c1.17-2.08,1.22-4.5.12-7.26a26.8,26.8,0,0,0-3.43-6.44Z"/><path class="cls-1" d="M2264,1710.69a57.06,57.06,0,0,1-13.63,19.69,51.41,51.41,0,0,1-18.63,11,55.23,55.23,0,0,1-21.57,2.66,69.68,69.68,0,0,1-41.63-18.22,54.13,54.13,0,0,1-12.58-17.6,52.41,52.41,0,0,1-4.44-21.12,57.07,57.07,0,0,1,5.22-23.38,56.12,56.12,0,0,1,13.68-19.55,52.47,52.47,0,0,1,18.63-11,55.43,55.43,0,0,1,21.43-2.6,66.29,66.29,0,0,1,22.13,5.54,67,67,0,0,1,19.3,12.59,55.35,55.35,0,0,1,12.62,17.5,52.3,52.3,0,0,1,4.54,21.17A56.21,56.21,0,0,1,2264,1710.69Zm.26-10.64c1.85-4.24,2.21-8.2,1-11.88a25.44,25.44,0,0,0-5.82-9.88,43.48,43.48,0,0,0-9.41-7.54,87.69,87.69,0,0,0-9.64-5.07,89.71,89.71,0,0,0-11.18-4q-5.64-1.61-11.43-2.92a120.22,120.22,0,0,0-15.23-1.78,96.32,96.32,0,0,0-18.21.58,52.06,52.06,0,0,0-16.74,5,23,23,0,0,0-11.08,11.65q-2.88,6.55-1.18,12.19a24.71,24.71,0,0,0,5.88,10,45.09,45.09,0,0,0,9.51,7.59,86.58,86.58,0,0,0,9.63,5.06,96.56,96.56,0,0,0,13.06,4.5,132.59,132.59,0,0,0,15.91,3.3,112.54,112.54,0,0,0,16.95,1.18,71.75,71.75,0,0,0,16.05-1.77,38.81,38.81,0,0,0,13.25-5.69A24.33,24.33,0,0,0,2264.28,1700.05Z"/><path class="cls-1" d="M2291.81,1632.9a.94.94,0,0,1,0-.71,3.64,3.64,0,0,1,0-1.63,5.62,5.62,0,0,1-.05-1.77c.08-.52.14-.85.18-1a18.89,18.89,0,0,0-2.54-10.12c-1.68-2.69-4.45-4.63-8.31-5.79L2205.47,1589c-3.86-1.17-7.19-1.09-10,.24a19.59,19.59,0,0,0-7.63,7,4.49,4.49,0,0,1-.5.9c-.3.46-.6,1-.92,1.48a4.11,4.11,0,0,0-1,1.59l11.75-38.79,17.57,5.32-2.48-2.62q-13.27-14.07-7.7-32.5a17.57,17.57,0,0,1,3.06-5.86,22.62,22.62,0,0,1,4.76-4.52,16.67,16.67,0,0,1,5.7-2.6,11.41,11.41,0,0,1,13.8,14.7,12.16,12.16,0,0,1-5.61,7.31,10.94,10.94,0,0,1-9,.88,9.4,9.4,0,0,1-2-.83c-.6-.33-1.23-.68-1.91-1a6.91,6.91,0,0,0-1.8-1,10.08,10.08,0,0,0-2.29-.93,2,2,0,0,0-2.79,1.49,7.69,7.69,0,0,0-.22,2.28,24.89,24.89,0,0,0,4.51,14.46,46.24,46.24,0,0,0,10.35,10.62,7.44,7.44,0,0,0,1.05.79,17.93,17.93,0,0,1,1.62,1.19,18.62,18.62,0,0,0,1.8,1,1.3,1.3,0,0,0,.79.48.7.7,0,0,0,.37.34l61.28,18.56q6,1.82,10.26-.28a20.3,20.3,0,0,0,7.6-6.94,10.65,10.65,0,0,1,1.48-2.59,3.58,3.58,0,0,1,.89-1.37l.13-.43.21.06Z"/><path class="cls-1" d="M2324.49,1466.62q10.05,15.6,6.46,34.56a41,41,0,0,1-4.23,12.11,34.91,34.91,0,0,1-7.23,9.37,25.49,25.49,0,0,1-9.83,5.57,25.21,25.21,0,0,1-12.16.44,25.66,25.66,0,0,1-11.95-5.45,28.88,28.88,0,0,1-7.62-9.75,36.84,36.84,0,0,1-3.33-12.48,49.77,49.77,0,0,1,.68-13.89,47.47,47.47,0,0,0,.84-10.43,26.93,26.93,0,0,0-1.88-9.36,18.13,18.13,0,0,0-5.26-7.14,21.84,21.84,0,0,0-9.22-4.25l-3.52-.67a56.07,56.07,0,0,0-9.73-.92,29.89,29.89,0,0,0-9.74,1.46,19.27,19.27,0,0,0-8,5.09q-3.4,3.57-4.66,10.17a28.52,28.52,0,0,0-.34,4.83,39.2,39.2,0,0,0,.51,6.37,19.2,19.2,0,0,0,2,5.73,5.94,5.94,0,0,0,4.29,3.2,5.34,5.34,0,0,0,4.07-1l1.7-1.73a13.15,13.15,0,0,0,1.65-1.51,17.9,17.9,0,0,1,3.92-2.68,9.38,9.38,0,0,1,6-.46,11.13,11.13,0,0,1,9.28,13.6,12.12,12.12,0,0,1-4.79,7.87,11,11,0,0,1-8.89,1.85,28.3,28.3,0,0,1-11.09-4.61,27.61,27.61,0,0,1-8-8.47,32.92,32.92,0,0,1-4.17-11.07,34,34,0,0,1,.11-12.67q2.74-14.55,7.94-22.71a30,30,0,0,1,12.79-11.64,40.16,40.16,0,0,1,17.6-3.3,134.36,134.36,0,0,1,22.31,2.5l26.84,5.07,5.72,1.08a78,78,0,0,0,8.22,1.1c1.52,0,3,0,4.33,0a10.68,10.68,0,0,0,3.74-.54c2.72-.7,4.28-2.16,4.7-4.36a8,8,0,0,0-2.2-7,28,28,0,0,0-5.35-4.88l4.25-.79a31.8,31.8,0,0,1,7.26,11,23.05,23.05,0,0,1,1.21,12.88,20.49,20.49,0,0,1-5.17,10.45,21.43,21.43,0,0,1-9.55,6l-1.23.45Zm-5.65-.22a34.54,34.54,0,0,1-4.08-.09,35.28,35.28,0,0,1-4-.53q-9.24-1.74-18.46-3.6t-18.42-3.82l-2.64-.5,1.69,1.91a33.26,33.26,0,0,1,6.25,11.55,26.27,26.27,0,0,1,.77,12.79,13.68,13.68,0,0,0,.88,8.6,19.05,19.05,0,0,0,4.94,6.4,27.46,27.46,0,0,0,7.05,4.3,33.86,33.86,0,0,0,15.64,2.84,28.91,28.91,0,0,0,8.63-1.67,19.47,19.47,0,0,0,7.24-4.56,15,15,0,0,0,4.05-8.12,24.71,24.71,0,0,0-1.25-13.91,31.84,31.84,0,0,0-7.63-11.46l-.4-.31Z"/><path class="cls-1" d="M2337.28,1348.35a29.25,29.25,0,0,1,8.26,9.81,22.43,22.43,0,0,1,2.41,12.46,21.58,21.58,0,0,1-2.82,9.3,20,20,0,0,1-6.06,6.45,26.57,26.57,0,0,1-8.29,3.67,28.15,28.15,0,0,1-9.5.76L2206.85,1381q-8.47-.72-12.62,3.07t-4.88,12.28l-10.1-42,141.42,12.15c1.34.11,3.16.23,5.47.35a34.32,34.32,0,0,0,6.88-.3,18.61,18.61,0,0,0,6-1.85,4.8,4.8,0,0,0,2.82-4c.2-2.37-.76-4.59-2.91-6.65a26.68,26.68,0,0,0-5.8-4.43Z"/></g></g></svg>